%TF.GenerationSoftware,KiCad,Pcbnew,8.0.8*%
%TF.CreationDate,2025-06-20T17:29:57+09:00*%
%TF.ProjectId,2ndfloor_pole,326e6466-6c6f-46f7-925f-706f6c652e6b,rev?*%
%TF.SameCoordinates,Original*%
%TF.FileFunction,Drillmap*%
%TF.FilePolarity,Positive*%
%FSLAX45Y45*%
G04 Gerber Fmt 4.5, Leading zero omitted, Abs format (unit mm)*
G04 Created by KiCad (PCBNEW 8.0.8) date 2025-06-20 17:29:57*
%MOMM*%
%LPD*%
G01*
G04 APERTURE LIST*
%ADD10C,0.050000*%
%ADD11C,0.200000*%
%ADD12C,0.100000*%
%ADD13C,0.180000*%
%ADD14C,0.350000*%
G04 APERTURE END LIST*
D10*
X5700000Y-5400000D02*
X14200000Y-5400000D01*
X14200000Y-12400000D01*
X5700000Y-12400000D01*
X5700000Y-5400000D01*
D11*
D12*
X7267500Y-8067500D02*
X7332500Y-8132500D01*
X7332500Y-8067500D02*
X7267500Y-8132500D01*
X7267500Y-8367500D02*
X7332500Y-8432500D01*
X7332500Y-8367500D02*
X7267500Y-8432500D01*
X7267500Y-8667500D02*
X7332500Y-8732500D01*
X7332500Y-8667500D02*
X7267500Y-8732500D01*
X7567500Y-8067500D02*
X7632500Y-8132500D01*
X7632500Y-8067500D02*
X7567500Y-8132500D01*
X7567500Y-8367500D02*
X7632500Y-8432500D01*
X7632500Y-8367500D02*
X7567500Y-8432500D01*
X7567500Y-8667500D02*
X7632500Y-8732500D01*
X7632500Y-8667500D02*
X7567500Y-8732500D01*
X7867500Y-8067500D02*
X7932500Y-8132500D01*
X7932500Y-8067500D02*
X7867500Y-8132500D01*
X7867500Y-8367500D02*
X7932500Y-8432500D01*
X7932500Y-8367500D02*
X7867500Y-8432500D01*
X7867500Y-8667500D02*
X7932500Y-8732500D01*
X7932500Y-8667500D02*
X7867500Y-8732500D01*
X9767500Y-6567500D02*
X9832500Y-6632500D01*
X9832500Y-6567500D02*
X9767500Y-6632500D01*
X10767500Y-7067500D02*
X10832500Y-7132500D01*
X10832500Y-7067500D02*
X10767500Y-7132500D01*
X10967500Y-7067500D02*
X11032500Y-7132500D01*
X11032500Y-7067500D02*
X10967500Y-7132500D01*
X11867500Y-7967500D02*
X11932500Y-8032500D01*
X11932500Y-7967500D02*
X11867500Y-8032500D01*
X11867500Y-8267500D02*
X11932500Y-8332500D01*
X11932500Y-8267500D02*
X11867500Y-8332500D01*
X11867500Y-8567500D02*
X11932500Y-8632500D01*
X11932500Y-8567500D02*
X11867500Y-8632500D01*
X12167500Y-7967500D02*
X12232500Y-8032500D01*
X12232500Y-7967500D02*
X12167500Y-8032500D01*
X12167500Y-8267500D02*
X12232500Y-8332500D01*
X12232500Y-8267500D02*
X12167500Y-8332500D01*
X12167500Y-8567500D02*
X12232500Y-8632500D01*
X12232500Y-8567500D02*
X12167500Y-8632500D01*
X12467500Y-7967500D02*
X12532500Y-8032500D01*
X12532500Y-7967500D02*
X12467500Y-8032500D01*
X12467500Y-8267500D02*
X12532500Y-8332500D01*
X12532500Y-8267500D02*
X12467500Y-8332500D01*
X12467500Y-8567500D02*
X12532500Y-8632500D01*
X12532500Y-8567500D02*
X12467500Y-8632500D01*
X6379471Y-6934027D02*
G75*
G02*
X6299471Y-6934027I-40000J0D01*
G01*
X6299471Y-6934027D02*
G75*
G02*
X6379471Y-6934027I40000J0D01*
G01*
X6379471Y-7188027D02*
G75*
G02*
X6299471Y-7188027I-40000J0D01*
G01*
X6299471Y-7188027D02*
G75*
G02*
X6379471Y-7188027I40000J0D01*
G01*
X6379471Y-7442027D02*
G75*
G02*
X6299471Y-7442027I-40000J0D01*
G01*
X6299471Y-7442027D02*
G75*
G02*
X6379471Y-7442027I40000J0D01*
G01*
X6379471Y-7696027D02*
G75*
G02*
X6299471Y-7696027I-40000J0D01*
G01*
X6299471Y-7696027D02*
G75*
G02*
X6379471Y-7696027I40000J0D01*
G01*
X6379471Y-7950027D02*
G75*
G02*
X6299471Y-7950027I-40000J0D01*
G01*
X6299471Y-7950027D02*
G75*
G02*
X6379471Y-7950027I40000J0D01*
G01*
X6379471Y-8204027D02*
G75*
G02*
X6299471Y-8204027I-40000J0D01*
G01*
X6299471Y-8204027D02*
G75*
G02*
X6379471Y-8204027I40000J0D01*
G01*
X6379471Y-8458027D02*
G75*
G02*
X6299471Y-8458027I-40000J0D01*
G01*
X6299471Y-8458027D02*
G75*
G02*
X6379471Y-8458027I40000J0D01*
G01*
X6379471Y-8712027D02*
G75*
G02*
X6299471Y-8712027I-40000J0D01*
G01*
X6299471Y-8712027D02*
G75*
G02*
X6379471Y-8712027I40000J0D01*
G01*
X6379471Y-8966027D02*
G75*
G02*
X6299471Y-8966027I-40000J0D01*
G01*
X6299471Y-8966027D02*
G75*
G02*
X6379471Y-8966027I40000J0D01*
G01*
X6379471Y-9220027D02*
G75*
G02*
X6299471Y-9220027I-40000J0D01*
G01*
X6299471Y-9220027D02*
G75*
G02*
X6379471Y-9220027I40000J0D01*
G01*
X6379471Y-9474027D02*
G75*
G02*
X6299471Y-9474027I-40000J0D01*
G01*
X6299471Y-9474027D02*
G75*
G02*
X6379471Y-9474027I40000J0D01*
G01*
X6379471Y-9728027D02*
G75*
G02*
X6299471Y-9728027I-40000J0D01*
G01*
X6299471Y-9728027D02*
G75*
G02*
X6379471Y-9728027I40000J0D01*
G01*
X6379471Y-9982027D02*
G75*
G02*
X6299471Y-9982027I-40000J0D01*
G01*
X6299471Y-9982027D02*
G75*
G02*
X6379471Y-9982027I40000J0D01*
G01*
X6379471Y-10236027D02*
G75*
G02*
X6299471Y-10236027I-40000J0D01*
G01*
X6299471Y-10236027D02*
G75*
G02*
X6379471Y-10236027I40000J0D01*
G01*
X6379471Y-10490027D02*
G75*
G02*
X6299471Y-10490027I-40000J0D01*
G01*
X6299471Y-10490027D02*
G75*
G02*
X6379471Y-10490027I40000J0D01*
G01*
X7040000Y-5800000D02*
G75*
G02*
X6960000Y-5800000I-40000J0D01*
G01*
X6960000Y-5800000D02*
G75*
G02*
X7040000Y-5800000I40000J0D01*
G01*
X7540000Y-5800000D02*
G75*
G02*
X7460000Y-5800000I-40000J0D01*
G01*
X7460000Y-5800000D02*
G75*
G02*
X7540000Y-5800000I40000J0D01*
G01*
X8919471Y-6934027D02*
G75*
G02*
X8839471Y-6934027I-40000J0D01*
G01*
X8839471Y-6934027D02*
G75*
G02*
X8919471Y-6934027I40000J0D01*
G01*
X8919471Y-7188027D02*
G75*
G02*
X8839471Y-7188027I-40000J0D01*
G01*
X8839471Y-7188027D02*
G75*
G02*
X8919471Y-7188027I40000J0D01*
G01*
X8919471Y-7442027D02*
G75*
G02*
X8839471Y-7442027I-40000J0D01*
G01*
X8839471Y-7442027D02*
G75*
G02*
X8919471Y-7442027I40000J0D01*
G01*
X8919471Y-7696027D02*
G75*
G02*
X8839471Y-7696027I-40000J0D01*
G01*
X8839471Y-7696027D02*
G75*
G02*
X8919471Y-7696027I40000J0D01*
G01*
X8919471Y-7950027D02*
G75*
G02*
X8839471Y-7950027I-40000J0D01*
G01*
X8839471Y-7950027D02*
G75*
G02*
X8919471Y-7950027I40000J0D01*
G01*
X8919471Y-8204027D02*
G75*
G02*
X8839471Y-8204027I-40000J0D01*
G01*
X8839471Y-8204027D02*
G75*
G02*
X8919471Y-8204027I40000J0D01*
G01*
X8919471Y-8458027D02*
G75*
G02*
X8839471Y-8458027I-40000J0D01*
G01*
X8839471Y-8458027D02*
G75*
G02*
X8919471Y-8458027I40000J0D01*
G01*
X8919471Y-8712027D02*
G75*
G02*
X8839471Y-8712027I-40000J0D01*
G01*
X8839471Y-8712027D02*
G75*
G02*
X8919471Y-8712027I40000J0D01*
G01*
X8919471Y-8966027D02*
G75*
G02*
X8839471Y-8966027I-40000J0D01*
G01*
X8839471Y-8966027D02*
G75*
G02*
X8919471Y-8966027I40000J0D01*
G01*
X8919471Y-9220027D02*
G75*
G02*
X8839471Y-9220027I-40000J0D01*
G01*
X8839471Y-9220027D02*
G75*
G02*
X8919471Y-9220027I40000J0D01*
G01*
X8919471Y-9474027D02*
G75*
G02*
X8839471Y-9474027I-40000J0D01*
G01*
X8839471Y-9474027D02*
G75*
G02*
X8919471Y-9474027I40000J0D01*
G01*
X8919471Y-9728027D02*
G75*
G02*
X8839471Y-9728027I-40000J0D01*
G01*
X8839471Y-9728027D02*
G75*
G02*
X8919471Y-9728027I40000J0D01*
G01*
X8919471Y-9982027D02*
G75*
G02*
X8839471Y-9982027I-40000J0D01*
G01*
X8839471Y-9982027D02*
G75*
G02*
X8919471Y-9982027I40000J0D01*
G01*
X8919471Y-10236027D02*
G75*
G02*
X8839471Y-10236027I-40000J0D01*
G01*
X8839471Y-10236027D02*
G75*
G02*
X8919471Y-10236027I40000J0D01*
G01*
X8919471Y-10490027D02*
G75*
G02*
X8839471Y-10490027I-40000J0D01*
G01*
X8839471Y-10490027D02*
G75*
G02*
X8919471Y-10490027I40000J0D01*
G01*
X11040000Y-7298000D02*
G75*
G02*
X10960000Y-7298000I-40000J0D01*
G01*
X10960000Y-7298000D02*
G75*
G02*
X11040000Y-7298000I40000J0D01*
G01*
X11040000Y-7552000D02*
G75*
G02*
X10960000Y-7552000I-40000J0D01*
G01*
X10960000Y-7552000D02*
G75*
G02*
X11040000Y-7552000I40000J0D01*
G01*
X11040000Y-7806000D02*
G75*
G02*
X10960000Y-7806000I-40000J0D01*
G01*
X10960000Y-7806000D02*
G75*
G02*
X11040000Y-7806000I40000J0D01*
G01*
X11040000Y-8060000D02*
G75*
G02*
X10960000Y-8060000I-40000J0D01*
G01*
X10960000Y-8060000D02*
G75*
G02*
X11040000Y-8060000I40000J0D01*
G01*
X11040000Y-8314000D02*
G75*
G02*
X10960000Y-8314000I-40000J0D01*
G01*
X10960000Y-8314000D02*
G75*
G02*
X11040000Y-8314000I40000J0D01*
G01*
X11040000Y-8568000D02*
G75*
G02*
X10960000Y-8568000I-40000J0D01*
G01*
X10960000Y-8568000D02*
G75*
G02*
X11040000Y-8568000I40000J0D01*
G01*
X11040000Y-8822000D02*
G75*
G02*
X10960000Y-8822000I-40000J0D01*
G01*
X10960000Y-8822000D02*
G75*
G02*
X11040000Y-8822000I40000J0D01*
G01*
X11040000Y-9076000D02*
G75*
G02*
X10960000Y-9076000I-40000J0D01*
G01*
X10960000Y-9076000D02*
G75*
G02*
X11040000Y-9076000I40000J0D01*
G01*
X11040000Y-9330000D02*
G75*
G02*
X10960000Y-9330000I-40000J0D01*
G01*
X10960000Y-9330000D02*
G75*
G02*
X11040000Y-9330000I40000J0D01*
G01*
X11040000Y-9584000D02*
G75*
G02*
X10960000Y-9584000I-40000J0D01*
G01*
X10960000Y-9584000D02*
G75*
G02*
X11040000Y-9584000I40000J0D01*
G01*
X11040000Y-9838000D02*
G75*
G02*
X10960000Y-9838000I-40000J0D01*
G01*
X10960000Y-9838000D02*
G75*
G02*
X11040000Y-9838000I40000J0D01*
G01*
X11040000Y-10092000D02*
G75*
G02*
X10960000Y-10092000I-40000J0D01*
G01*
X10960000Y-10092000D02*
G75*
G02*
X11040000Y-10092000I40000J0D01*
G01*
X11040000Y-10346000D02*
G75*
G02*
X10960000Y-10346000I-40000J0D01*
G01*
X10960000Y-10346000D02*
G75*
G02*
X11040000Y-10346000I40000J0D01*
G01*
X11040000Y-10600000D02*
G75*
G02*
X10960000Y-10600000I-40000J0D01*
G01*
X10960000Y-10600000D02*
G75*
G02*
X11040000Y-10600000I40000J0D01*
G01*
X11040000Y-10854000D02*
G75*
G02*
X10960000Y-10854000I-40000J0D01*
G01*
X10960000Y-10854000D02*
G75*
G02*
X11040000Y-10854000I40000J0D01*
G01*
X13580000Y-7298000D02*
G75*
G02*
X13500000Y-7298000I-40000J0D01*
G01*
X13500000Y-7298000D02*
G75*
G02*
X13580000Y-7298000I40000J0D01*
G01*
X13580000Y-7552000D02*
G75*
G02*
X13500000Y-7552000I-40000J0D01*
G01*
X13500000Y-7552000D02*
G75*
G02*
X13580000Y-7552000I40000J0D01*
G01*
X13580000Y-7806000D02*
G75*
G02*
X13500000Y-7806000I-40000J0D01*
G01*
X13500000Y-7806000D02*
G75*
G02*
X13580000Y-7806000I40000J0D01*
G01*
X13580000Y-8060000D02*
G75*
G02*
X13500000Y-8060000I-40000J0D01*
G01*
X13500000Y-8060000D02*
G75*
G02*
X13580000Y-8060000I40000J0D01*
G01*
X13580000Y-8314000D02*
G75*
G02*
X13500000Y-8314000I-40000J0D01*
G01*
X13500000Y-8314000D02*
G75*
G02*
X13580000Y-8314000I40000J0D01*
G01*
X13580000Y-8568000D02*
G75*
G02*
X13500000Y-8568000I-40000J0D01*
G01*
X13500000Y-8568000D02*
G75*
G02*
X13580000Y-8568000I40000J0D01*
G01*
X13580000Y-8822000D02*
G75*
G02*
X13500000Y-8822000I-40000J0D01*
G01*
X13500000Y-8822000D02*
G75*
G02*
X13580000Y-8822000I40000J0D01*
G01*
X13580000Y-9076000D02*
G75*
G02*
X13500000Y-9076000I-40000J0D01*
G01*
X13500000Y-9076000D02*
G75*
G02*
X13580000Y-9076000I40000J0D01*
G01*
X13580000Y-9330000D02*
G75*
G02*
X13500000Y-9330000I-40000J0D01*
G01*
X13500000Y-9330000D02*
G75*
G02*
X13580000Y-9330000I40000J0D01*
G01*
X13580000Y-9584000D02*
G75*
G02*
X13500000Y-9584000I-40000J0D01*
G01*
X13500000Y-9584000D02*
G75*
G02*
X13580000Y-9584000I40000J0D01*
G01*
X13580000Y-9838000D02*
G75*
G02*
X13500000Y-9838000I-40000J0D01*
G01*
X13500000Y-9838000D02*
G75*
G02*
X13580000Y-9838000I40000J0D01*
G01*
X13580000Y-10092000D02*
G75*
G02*
X13500000Y-10092000I-40000J0D01*
G01*
X13500000Y-10092000D02*
G75*
G02*
X13580000Y-10092000I40000J0D01*
G01*
X13580000Y-10346000D02*
G75*
G02*
X13500000Y-10346000I-40000J0D01*
G01*
X13500000Y-10346000D02*
G75*
G02*
X13580000Y-10346000I40000J0D01*
G01*
X13580000Y-10600000D02*
G75*
G02*
X13500000Y-10600000I-40000J0D01*
G01*
X13500000Y-10600000D02*
G75*
G02*
X13580000Y-10600000I40000J0D01*
G01*
X13580000Y-10854000D02*
G75*
G02*
X13500000Y-10854000I-40000J0D01*
G01*
X13500000Y-10854000D02*
G75*
G02*
X13580000Y-10854000I40000J0D01*
G01*
X9400000Y-9457500D02*
X9400000Y-9542500D01*
X9357500Y-9500000D02*
X9442500Y-9500000D01*
X9400000Y-9707500D02*
X9400000Y-9792500D01*
X9357500Y-9750000D02*
X9442500Y-9750000D01*
X9400000Y-9957500D02*
X9400000Y-10042500D01*
X9357500Y-10000000D02*
X9442500Y-10000000D01*
X9435000Y-7707500D02*
X9435000Y-7792500D01*
X9392500Y-7750000D02*
X9477500Y-7750000D01*
X9435000Y-7957500D02*
X9435000Y-8042500D01*
X9392500Y-8000000D02*
X9477500Y-8000000D01*
X9435000Y-8207500D02*
X9435000Y-8292500D01*
X9392500Y-8250000D02*
X9477500Y-8250000D01*
X9435000Y-8457500D02*
X9435000Y-8542500D01*
X9392500Y-8500000D02*
X9477500Y-8500000D01*
X10300000Y-9257500D02*
X10300000Y-9342500D01*
X10257500Y-9300000D02*
X10342500Y-9300000D01*
X10300000Y-9507500D02*
X10300000Y-9592500D01*
X10257500Y-9550000D02*
X10342500Y-9550000D01*
X10300000Y-9757500D02*
X10300000Y-9842500D01*
X10257500Y-9800000D02*
X10342500Y-9800000D01*
X10300000Y-10007500D02*
X10300000Y-10092500D01*
X10257500Y-10050000D02*
X10342500Y-10050000D01*
D13*
X10004868Y-10773406D02*
X10004868Y-10646126D01*
X9877588Y-10646126D01*
X9877588Y-10773406D01*
X10004868Y-10773406D01*
X10004868Y-11323406D02*
X10004868Y-11196126D01*
X9877588Y-11196126D01*
X9877588Y-11323406D01*
X10004868Y-11323406D01*
D14*
X6200000Y-6075000D02*
X6375000Y-5900000D01*
X6200000Y-5725000D01*
X6025000Y-5900000D01*
X6200000Y-6075000D01*
X6200000Y-12075000D02*
X6375000Y-11900000D01*
X6200000Y-11725000D01*
X6025000Y-11900000D01*
X6200000Y-12075000D01*
X13700000Y-6075000D02*
X13875000Y-5900000D01*
X13700000Y-5725000D01*
X13525000Y-5900000D01*
X13700000Y-6075000D01*
X13700000Y-12075000D02*
X13875000Y-11900000D01*
X13700000Y-11725000D01*
X13525000Y-11900000D01*
X13700000Y-12075000D01*
D11*
X5958277Y-12713984D02*
X5958277Y-12513984D01*
X5958277Y-12513984D02*
X6005896Y-12513984D01*
X6005896Y-12513984D02*
X6034467Y-12523508D01*
X6034467Y-12523508D02*
X6053515Y-12542555D01*
X6053515Y-12542555D02*
X6063039Y-12561603D01*
X6063039Y-12561603D02*
X6072562Y-12599698D01*
X6072562Y-12599698D02*
X6072562Y-12628269D01*
X6072562Y-12628269D02*
X6063039Y-12666365D01*
X6063039Y-12666365D02*
X6053515Y-12685412D01*
X6053515Y-12685412D02*
X6034467Y-12704460D01*
X6034467Y-12704460D02*
X6005896Y-12713984D01*
X6005896Y-12713984D02*
X5958277Y-12713984D01*
X6158277Y-12713984D02*
X6158277Y-12580650D01*
X6158277Y-12618746D02*
X6167801Y-12599698D01*
X6167801Y-12599698D02*
X6177324Y-12590174D01*
X6177324Y-12590174D02*
X6196372Y-12580650D01*
X6196372Y-12580650D02*
X6215420Y-12580650D01*
X6282086Y-12713984D02*
X6282086Y-12580650D01*
X6282086Y-12513984D02*
X6272562Y-12523508D01*
X6272562Y-12523508D02*
X6282086Y-12533031D01*
X6282086Y-12533031D02*
X6291610Y-12523508D01*
X6291610Y-12523508D02*
X6282086Y-12513984D01*
X6282086Y-12513984D02*
X6282086Y-12533031D01*
X6405896Y-12713984D02*
X6386848Y-12704460D01*
X6386848Y-12704460D02*
X6377324Y-12685412D01*
X6377324Y-12685412D02*
X6377324Y-12513984D01*
X6510658Y-12713984D02*
X6491610Y-12704460D01*
X6491610Y-12704460D02*
X6482086Y-12685412D01*
X6482086Y-12685412D02*
X6482086Y-12513984D01*
X6739229Y-12713984D02*
X6739229Y-12513984D01*
X6739229Y-12513984D02*
X6805896Y-12656841D01*
X6805896Y-12656841D02*
X6872562Y-12513984D01*
X6872562Y-12513984D02*
X6872562Y-12713984D01*
X7053515Y-12713984D02*
X7053515Y-12609222D01*
X7053515Y-12609222D02*
X7043991Y-12590174D01*
X7043991Y-12590174D02*
X7024943Y-12580650D01*
X7024943Y-12580650D02*
X6986848Y-12580650D01*
X6986848Y-12580650D02*
X6967801Y-12590174D01*
X7053515Y-12704460D02*
X7034467Y-12713984D01*
X7034467Y-12713984D02*
X6986848Y-12713984D01*
X6986848Y-12713984D02*
X6967801Y-12704460D01*
X6967801Y-12704460D02*
X6958277Y-12685412D01*
X6958277Y-12685412D02*
X6958277Y-12666365D01*
X6958277Y-12666365D02*
X6967801Y-12647317D01*
X6967801Y-12647317D02*
X6986848Y-12637793D01*
X6986848Y-12637793D02*
X7034467Y-12637793D01*
X7034467Y-12637793D02*
X7053515Y-12628269D01*
X7148753Y-12580650D02*
X7148753Y-12780650D01*
X7148753Y-12590174D02*
X7167801Y-12580650D01*
X7167801Y-12580650D02*
X7205896Y-12580650D01*
X7205896Y-12580650D02*
X7224943Y-12590174D01*
X7224943Y-12590174D02*
X7234467Y-12599698D01*
X7234467Y-12599698D02*
X7243991Y-12618746D01*
X7243991Y-12618746D02*
X7243991Y-12675888D01*
X7243991Y-12675888D02*
X7234467Y-12694936D01*
X7234467Y-12694936D02*
X7224943Y-12704460D01*
X7224943Y-12704460D02*
X7205896Y-12713984D01*
X7205896Y-12713984D02*
X7167801Y-12713984D01*
X7167801Y-12713984D02*
X7148753Y-12704460D01*
X7329705Y-12694936D02*
X7339229Y-12704460D01*
X7339229Y-12704460D02*
X7329705Y-12713984D01*
X7329705Y-12713984D02*
X7320182Y-12704460D01*
X7320182Y-12704460D02*
X7329705Y-12694936D01*
X7329705Y-12694936D02*
X7329705Y-12713984D01*
X7329705Y-12590174D02*
X7339229Y-12599698D01*
X7339229Y-12599698D02*
X7329705Y-12609222D01*
X7329705Y-12609222D02*
X7320182Y-12599698D01*
X7320182Y-12599698D02*
X7329705Y-12590174D01*
X7329705Y-12590174D02*
X7329705Y-12609222D01*
D12*
X5632500Y-13010000D02*
X5697500Y-13075000D01*
X5697500Y-13010000D02*
X5632500Y-13075000D01*
D11*
X5996372Y-12933984D02*
X6015420Y-12933984D01*
X6015420Y-12933984D02*
X6034467Y-12943508D01*
X6034467Y-12943508D02*
X6043991Y-12953031D01*
X6043991Y-12953031D02*
X6053515Y-12972079D01*
X6053515Y-12972079D02*
X6063039Y-13010174D01*
X6063039Y-13010174D02*
X6063039Y-13057793D01*
X6063039Y-13057793D02*
X6053515Y-13095888D01*
X6053515Y-13095888D02*
X6043991Y-13114936D01*
X6043991Y-13114936D02*
X6034467Y-13124460D01*
X6034467Y-13124460D02*
X6015420Y-13133984D01*
X6015420Y-13133984D02*
X5996372Y-13133984D01*
X5996372Y-13133984D02*
X5977324Y-13124460D01*
X5977324Y-13124460D02*
X5967801Y-13114936D01*
X5967801Y-13114936D02*
X5958277Y-13095888D01*
X5958277Y-13095888D02*
X5948753Y-13057793D01*
X5948753Y-13057793D02*
X5948753Y-13010174D01*
X5948753Y-13010174D02*
X5958277Y-12972079D01*
X5958277Y-12972079D02*
X5967801Y-12953031D01*
X5967801Y-12953031D02*
X5977324Y-12943508D01*
X5977324Y-12943508D02*
X5996372Y-12933984D01*
X6148753Y-13114936D02*
X6158277Y-13124460D01*
X6158277Y-13124460D02*
X6148753Y-13133984D01*
X6148753Y-13133984D02*
X6139229Y-13124460D01*
X6139229Y-13124460D02*
X6148753Y-13114936D01*
X6148753Y-13114936D02*
X6148753Y-13133984D01*
X6329705Y-12933984D02*
X6291610Y-12933984D01*
X6291610Y-12933984D02*
X6272562Y-12943508D01*
X6272562Y-12943508D02*
X6263039Y-12953031D01*
X6263039Y-12953031D02*
X6243991Y-12981603D01*
X6243991Y-12981603D02*
X6234467Y-13019698D01*
X6234467Y-13019698D02*
X6234467Y-13095888D01*
X6234467Y-13095888D02*
X6243991Y-13114936D01*
X6243991Y-13114936D02*
X6253515Y-13124460D01*
X6253515Y-13124460D02*
X6272562Y-13133984D01*
X6272562Y-13133984D02*
X6310658Y-13133984D01*
X6310658Y-13133984D02*
X6329705Y-13124460D01*
X6329705Y-13124460D02*
X6339229Y-13114936D01*
X6339229Y-13114936D02*
X6348753Y-13095888D01*
X6348753Y-13095888D02*
X6348753Y-13048269D01*
X6348753Y-13048269D02*
X6339229Y-13029222D01*
X6339229Y-13029222D02*
X6329705Y-13019698D01*
X6329705Y-13019698D02*
X6310658Y-13010174D01*
X6310658Y-13010174D02*
X6272562Y-13010174D01*
X6272562Y-13010174D02*
X6253515Y-13019698D01*
X6253515Y-13019698D02*
X6243991Y-13029222D01*
X6243991Y-13029222D02*
X6234467Y-13048269D01*
X6529705Y-12933984D02*
X6434467Y-12933984D01*
X6434467Y-12933984D02*
X6424943Y-13029222D01*
X6424943Y-13029222D02*
X6434467Y-13019698D01*
X6434467Y-13019698D02*
X6453515Y-13010174D01*
X6453515Y-13010174D02*
X6501134Y-13010174D01*
X6501134Y-13010174D02*
X6520182Y-13019698D01*
X6520182Y-13019698D02*
X6529705Y-13029222D01*
X6529705Y-13029222D02*
X6539229Y-13048269D01*
X6539229Y-13048269D02*
X6539229Y-13095888D01*
X6539229Y-13095888D02*
X6529705Y-13114936D01*
X6529705Y-13114936D02*
X6520182Y-13124460D01*
X6520182Y-13124460D02*
X6501134Y-13133984D01*
X6501134Y-13133984D02*
X6453515Y-13133984D01*
X6453515Y-13133984D02*
X6434467Y-13124460D01*
X6434467Y-13124460D02*
X6424943Y-13114936D01*
X6663039Y-12933984D02*
X6682086Y-12933984D01*
X6682086Y-12933984D02*
X6701134Y-12943508D01*
X6701134Y-12943508D02*
X6710658Y-12953031D01*
X6710658Y-12953031D02*
X6720182Y-12972079D01*
X6720182Y-12972079D02*
X6729705Y-13010174D01*
X6729705Y-13010174D02*
X6729705Y-13057793D01*
X6729705Y-13057793D02*
X6720182Y-13095888D01*
X6720182Y-13095888D02*
X6710658Y-13114936D01*
X6710658Y-13114936D02*
X6701134Y-13124460D01*
X6701134Y-13124460D02*
X6682086Y-13133984D01*
X6682086Y-13133984D02*
X6663039Y-13133984D01*
X6663039Y-13133984D02*
X6643991Y-13124460D01*
X6643991Y-13124460D02*
X6634467Y-13114936D01*
X6634467Y-13114936D02*
X6624943Y-13095888D01*
X6624943Y-13095888D02*
X6615420Y-13057793D01*
X6615420Y-13057793D02*
X6615420Y-13010174D01*
X6615420Y-13010174D02*
X6624943Y-12972079D01*
X6624943Y-12972079D02*
X6634467Y-12953031D01*
X6634467Y-12953031D02*
X6643991Y-12943508D01*
X6643991Y-12943508D02*
X6663039Y-12933984D01*
X6815420Y-13133984D02*
X6815420Y-13000650D01*
X6815420Y-13019698D02*
X6824943Y-13010174D01*
X6824943Y-13010174D02*
X6843991Y-13000650D01*
X6843991Y-13000650D02*
X6872563Y-13000650D01*
X6872563Y-13000650D02*
X6891610Y-13010174D01*
X6891610Y-13010174D02*
X6901134Y-13029222D01*
X6901134Y-13029222D02*
X6901134Y-13133984D01*
X6901134Y-13029222D02*
X6910658Y-13010174D01*
X6910658Y-13010174D02*
X6929705Y-13000650D01*
X6929705Y-13000650D02*
X6958277Y-13000650D01*
X6958277Y-13000650D02*
X6977324Y-13010174D01*
X6977324Y-13010174D02*
X6986848Y-13029222D01*
X6986848Y-13029222D02*
X6986848Y-13133984D01*
X7082086Y-13133984D02*
X7082086Y-13000650D01*
X7082086Y-13019698D02*
X7091610Y-13010174D01*
X7091610Y-13010174D02*
X7110658Y-13000650D01*
X7110658Y-13000650D02*
X7139229Y-13000650D01*
X7139229Y-13000650D02*
X7158277Y-13010174D01*
X7158277Y-13010174D02*
X7167801Y-13029222D01*
X7167801Y-13029222D02*
X7167801Y-13133984D01*
X7167801Y-13029222D02*
X7177324Y-13010174D01*
X7177324Y-13010174D02*
X7196372Y-13000650D01*
X7196372Y-13000650D02*
X7224943Y-13000650D01*
X7224943Y-13000650D02*
X7243991Y-13010174D01*
X7243991Y-13010174D02*
X7253515Y-13029222D01*
X7253515Y-13029222D02*
X7253515Y-13133984D01*
X7643991Y-12924460D02*
X7472563Y-13181603D01*
X7901134Y-12933984D02*
X7920182Y-12933984D01*
X7920182Y-12933984D02*
X7939229Y-12943508D01*
X7939229Y-12943508D02*
X7948753Y-12953031D01*
X7948753Y-12953031D02*
X7958277Y-12972079D01*
X7958277Y-12972079D02*
X7967801Y-13010174D01*
X7967801Y-13010174D02*
X7967801Y-13057793D01*
X7967801Y-13057793D02*
X7958277Y-13095888D01*
X7958277Y-13095888D02*
X7948753Y-13114936D01*
X7948753Y-13114936D02*
X7939229Y-13124460D01*
X7939229Y-13124460D02*
X7920182Y-13133984D01*
X7920182Y-13133984D02*
X7901134Y-13133984D01*
X7901134Y-13133984D02*
X7882086Y-13124460D01*
X7882086Y-13124460D02*
X7872563Y-13114936D01*
X7872563Y-13114936D02*
X7863039Y-13095888D01*
X7863039Y-13095888D02*
X7853515Y-13057793D01*
X7853515Y-13057793D02*
X7853515Y-13010174D01*
X7853515Y-13010174D02*
X7863039Y-12972079D01*
X7863039Y-12972079D02*
X7872563Y-12953031D01*
X7872563Y-12953031D02*
X7882086Y-12943508D01*
X7882086Y-12943508D02*
X7901134Y-12933984D01*
X8053515Y-13114936D02*
X8063039Y-13124460D01*
X8063039Y-13124460D02*
X8053515Y-13133984D01*
X8053515Y-13133984D02*
X8043991Y-13124460D01*
X8043991Y-13124460D02*
X8053515Y-13114936D01*
X8053515Y-13114936D02*
X8053515Y-13133984D01*
X8186848Y-12933984D02*
X8205896Y-12933984D01*
X8205896Y-12933984D02*
X8224944Y-12943508D01*
X8224944Y-12943508D02*
X8234467Y-12953031D01*
X8234467Y-12953031D02*
X8243991Y-12972079D01*
X8243991Y-12972079D02*
X8253515Y-13010174D01*
X8253515Y-13010174D02*
X8253515Y-13057793D01*
X8253515Y-13057793D02*
X8243991Y-13095888D01*
X8243991Y-13095888D02*
X8234467Y-13114936D01*
X8234467Y-13114936D02*
X8224944Y-13124460D01*
X8224944Y-13124460D02*
X8205896Y-13133984D01*
X8205896Y-13133984D02*
X8186848Y-13133984D01*
X8186848Y-13133984D02*
X8167801Y-13124460D01*
X8167801Y-13124460D02*
X8158277Y-13114936D01*
X8158277Y-13114936D02*
X8148753Y-13095888D01*
X8148753Y-13095888D02*
X8139229Y-13057793D01*
X8139229Y-13057793D02*
X8139229Y-13010174D01*
X8139229Y-13010174D02*
X8148753Y-12972079D01*
X8148753Y-12972079D02*
X8158277Y-12953031D01*
X8158277Y-12953031D02*
X8167801Y-12943508D01*
X8167801Y-12943508D02*
X8186848Y-12933984D01*
X8329706Y-12953031D02*
X8339229Y-12943508D01*
X8339229Y-12943508D02*
X8358277Y-12933984D01*
X8358277Y-12933984D02*
X8405896Y-12933984D01*
X8405896Y-12933984D02*
X8424944Y-12943508D01*
X8424944Y-12943508D02*
X8434468Y-12953031D01*
X8434468Y-12953031D02*
X8443991Y-12972079D01*
X8443991Y-12972079D02*
X8443991Y-12991127D01*
X8443991Y-12991127D02*
X8434468Y-13019698D01*
X8434468Y-13019698D02*
X8320182Y-13133984D01*
X8320182Y-13133984D02*
X8443991Y-13133984D01*
X8624944Y-12933984D02*
X8529706Y-12933984D01*
X8529706Y-12933984D02*
X8520182Y-13029222D01*
X8520182Y-13029222D02*
X8529706Y-13019698D01*
X8529706Y-13019698D02*
X8548753Y-13010174D01*
X8548753Y-13010174D02*
X8596372Y-13010174D01*
X8596372Y-13010174D02*
X8615420Y-13019698D01*
X8615420Y-13019698D02*
X8624944Y-13029222D01*
X8624944Y-13029222D02*
X8634468Y-13048269D01*
X8634468Y-13048269D02*
X8634468Y-13095888D01*
X8634468Y-13095888D02*
X8624944Y-13114936D01*
X8624944Y-13114936D02*
X8615420Y-13124460D01*
X8615420Y-13124460D02*
X8596372Y-13133984D01*
X8596372Y-13133984D02*
X8548753Y-13133984D01*
X8548753Y-13133984D02*
X8529706Y-13124460D01*
X8529706Y-13124460D02*
X8520182Y-13114936D01*
X8805896Y-12933984D02*
X8767801Y-12933984D01*
X8767801Y-12933984D02*
X8748753Y-12943508D01*
X8748753Y-12943508D02*
X8739229Y-12953031D01*
X8739229Y-12953031D02*
X8720182Y-12981603D01*
X8720182Y-12981603D02*
X8710658Y-13019698D01*
X8710658Y-13019698D02*
X8710658Y-13095888D01*
X8710658Y-13095888D02*
X8720182Y-13114936D01*
X8720182Y-13114936D02*
X8729706Y-13124460D01*
X8729706Y-13124460D02*
X8748753Y-13133984D01*
X8748753Y-13133984D02*
X8786849Y-13133984D01*
X8786849Y-13133984D02*
X8805896Y-13124460D01*
X8805896Y-13124460D02*
X8815420Y-13114936D01*
X8815420Y-13114936D02*
X8824944Y-13095888D01*
X8824944Y-13095888D02*
X8824944Y-13048269D01*
X8824944Y-13048269D02*
X8815420Y-13029222D01*
X8815420Y-13029222D02*
X8805896Y-13019698D01*
X8805896Y-13019698D02*
X8786849Y-13010174D01*
X8786849Y-13010174D02*
X8748753Y-13010174D01*
X8748753Y-13010174D02*
X8729706Y-13019698D01*
X8729706Y-13019698D02*
X8720182Y-13029222D01*
X8720182Y-13029222D02*
X8710658Y-13048269D01*
X8901134Y-12933984D02*
X8901134Y-12972079D01*
X8977325Y-12933984D02*
X8977325Y-12972079D01*
X9272563Y-13210174D02*
X9263039Y-13200650D01*
X9263039Y-13200650D02*
X9243991Y-13172079D01*
X9243991Y-13172079D02*
X9234468Y-13153031D01*
X9234468Y-13153031D02*
X9224944Y-13124460D01*
X9224944Y-13124460D02*
X9215420Y-13076841D01*
X9215420Y-13076841D02*
X9215420Y-13038746D01*
X9215420Y-13038746D02*
X9224944Y-12991127D01*
X9224944Y-12991127D02*
X9234468Y-12962555D01*
X9234468Y-12962555D02*
X9243991Y-12943508D01*
X9243991Y-12943508D02*
X9263039Y-12914936D01*
X9263039Y-12914936D02*
X9272563Y-12905412D01*
X9339230Y-12953031D02*
X9348753Y-12943508D01*
X9348753Y-12943508D02*
X9367801Y-12933984D01*
X9367801Y-12933984D02*
X9415420Y-12933984D01*
X9415420Y-12933984D02*
X9434468Y-12943508D01*
X9434468Y-12943508D02*
X9443991Y-12953031D01*
X9443991Y-12953031D02*
X9453515Y-12972079D01*
X9453515Y-12972079D02*
X9453515Y-12991127D01*
X9453515Y-12991127D02*
X9443991Y-13019698D01*
X9443991Y-13019698D02*
X9329706Y-13133984D01*
X9329706Y-13133984D02*
X9453515Y-13133984D01*
X9643991Y-13133984D02*
X9529706Y-13133984D01*
X9586849Y-13133984D02*
X9586849Y-12933984D01*
X9586849Y-12933984D02*
X9567801Y-12962555D01*
X9567801Y-12962555D02*
X9548753Y-12981603D01*
X9548753Y-12981603D02*
X9529706Y-12991127D01*
X9882087Y-13133984D02*
X9882087Y-12933984D01*
X9967801Y-13133984D02*
X9967801Y-13029222D01*
X9967801Y-13029222D02*
X9958277Y-13010174D01*
X9958277Y-13010174D02*
X9939230Y-13000650D01*
X9939230Y-13000650D02*
X9910658Y-13000650D01*
X9910658Y-13000650D02*
X9891611Y-13010174D01*
X9891611Y-13010174D02*
X9882087Y-13019698D01*
X10091611Y-13133984D02*
X10072563Y-13124460D01*
X10072563Y-13124460D02*
X10063039Y-13114936D01*
X10063039Y-13114936D02*
X10053515Y-13095888D01*
X10053515Y-13095888D02*
X10053515Y-13038746D01*
X10053515Y-13038746D02*
X10063039Y-13019698D01*
X10063039Y-13019698D02*
X10072563Y-13010174D01*
X10072563Y-13010174D02*
X10091611Y-13000650D01*
X10091611Y-13000650D02*
X10120182Y-13000650D01*
X10120182Y-13000650D02*
X10139230Y-13010174D01*
X10139230Y-13010174D02*
X10148753Y-13019698D01*
X10148753Y-13019698D02*
X10158277Y-13038746D01*
X10158277Y-13038746D02*
X10158277Y-13095888D01*
X10158277Y-13095888D02*
X10148753Y-13114936D01*
X10148753Y-13114936D02*
X10139230Y-13124460D01*
X10139230Y-13124460D02*
X10120182Y-13133984D01*
X10120182Y-13133984D02*
X10091611Y-13133984D01*
X10272563Y-13133984D02*
X10253515Y-13124460D01*
X10253515Y-13124460D02*
X10243992Y-13105412D01*
X10243992Y-13105412D02*
X10243992Y-12933984D01*
X10424944Y-13124460D02*
X10405896Y-13133984D01*
X10405896Y-13133984D02*
X10367801Y-13133984D01*
X10367801Y-13133984D02*
X10348753Y-13124460D01*
X10348753Y-13124460D02*
X10339230Y-13105412D01*
X10339230Y-13105412D02*
X10339230Y-13029222D01*
X10339230Y-13029222D02*
X10348753Y-13010174D01*
X10348753Y-13010174D02*
X10367801Y-13000650D01*
X10367801Y-13000650D02*
X10405896Y-13000650D01*
X10405896Y-13000650D02*
X10424944Y-13010174D01*
X10424944Y-13010174D02*
X10434468Y-13029222D01*
X10434468Y-13029222D02*
X10434468Y-13048269D01*
X10434468Y-13048269D02*
X10339230Y-13067317D01*
X10510658Y-13124460D02*
X10529706Y-13133984D01*
X10529706Y-13133984D02*
X10567801Y-13133984D01*
X10567801Y-13133984D02*
X10586849Y-13124460D01*
X10586849Y-13124460D02*
X10596373Y-13105412D01*
X10596373Y-13105412D02*
X10596373Y-13095888D01*
X10596373Y-13095888D02*
X10586849Y-13076841D01*
X10586849Y-13076841D02*
X10567801Y-13067317D01*
X10567801Y-13067317D02*
X10539230Y-13067317D01*
X10539230Y-13067317D02*
X10520182Y-13057793D01*
X10520182Y-13057793D02*
X10510658Y-13038746D01*
X10510658Y-13038746D02*
X10510658Y-13029222D01*
X10510658Y-13029222D02*
X10520182Y-13010174D01*
X10520182Y-13010174D02*
X10539230Y-13000650D01*
X10539230Y-13000650D02*
X10567801Y-13000650D01*
X10567801Y-13000650D02*
X10586849Y-13010174D01*
X10663039Y-13210174D02*
X10672563Y-13200650D01*
X10672563Y-13200650D02*
X10691611Y-13172079D01*
X10691611Y-13172079D02*
X10701134Y-13153031D01*
X10701134Y-13153031D02*
X10710658Y-13124460D01*
X10710658Y-13124460D02*
X10720182Y-13076841D01*
X10720182Y-13076841D02*
X10720182Y-13038746D01*
X10720182Y-13038746D02*
X10710658Y-12991127D01*
X10710658Y-12991127D02*
X10701134Y-12962555D01*
X10701134Y-12962555D02*
X10691611Y-12943508D01*
X10691611Y-12943508D02*
X10672563Y-12914936D01*
X10672563Y-12914936D02*
X10663039Y-12905412D01*
D12*
X5697500Y-13306500D02*
G75*
G02*
X5617500Y-13306500I-40000J0D01*
G01*
X5617500Y-13306500D02*
G75*
G02*
X5697500Y-13306500I40000J0D01*
G01*
D11*
X5996372Y-13197984D02*
X6015420Y-13197984D01*
X6015420Y-13197984D02*
X6034467Y-13207508D01*
X6034467Y-13207508D02*
X6043991Y-13217031D01*
X6043991Y-13217031D02*
X6053515Y-13236079D01*
X6053515Y-13236079D02*
X6063039Y-13274174D01*
X6063039Y-13274174D02*
X6063039Y-13321793D01*
X6063039Y-13321793D02*
X6053515Y-13359888D01*
X6053515Y-13359888D02*
X6043991Y-13378936D01*
X6043991Y-13378936D02*
X6034467Y-13388460D01*
X6034467Y-13388460D02*
X6015420Y-13397984D01*
X6015420Y-13397984D02*
X5996372Y-13397984D01*
X5996372Y-13397984D02*
X5977324Y-13388460D01*
X5977324Y-13388460D02*
X5967801Y-13378936D01*
X5967801Y-13378936D02*
X5958277Y-13359888D01*
X5958277Y-13359888D02*
X5948753Y-13321793D01*
X5948753Y-13321793D02*
X5948753Y-13274174D01*
X5948753Y-13274174D02*
X5958277Y-13236079D01*
X5958277Y-13236079D02*
X5967801Y-13217031D01*
X5967801Y-13217031D02*
X5977324Y-13207508D01*
X5977324Y-13207508D02*
X5996372Y-13197984D01*
X6148753Y-13378936D02*
X6158277Y-13388460D01*
X6158277Y-13388460D02*
X6148753Y-13397984D01*
X6148753Y-13397984D02*
X6139229Y-13388460D01*
X6139229Y-13388460D02*
X6148753Y-13378936D01*
X6148753Y-13378936D02*
X6148753Y-13397984D01*
X6272562Y-13283698D02*
X6253515Y-13274174D01*
X6253515Y-13274174D02*
X6243991Y-13264650D01*
X6243991Y-13264650D02*
X6234467Y-13245603D01*
X6234467Y-13245603D02*
X6234467Y-13236079D01*
X6234467Y-13236079D02*
X6243991Y-13217031D01*
X6243991Y-13217031D02*
X6253515Y-13207508D01*
X6253515Y-13207508D02*
X6272562Y-13197984D01*
X6272562Y-13197984D02*
X6310658Y-13197984D01*
X6310658Y-13197984D02*
X6329705Y-13207508D01*
X6329705Y-13207508D02*
X6339229Y-13217031D01*
X6339229Y-13217031D02*
X6348753Y-13236079D01*
X6348753Y-13236079D02*
X6348753Y-13245603D01*
X6348753Y-13245603D02*
X6339229Y-13264650D01*
X6339229Y-13264650D02*
X6329705Y-13274174D01*
X6329705Y-13274174D02*
X6310658Y-13283698D01*
X6310658Y-13283698D02*
X6272562Y-13283698D01*
X6272562Y-13283698D02*
X6253515Y-13293222D01*
X6253515Y-13293222D02*
X6243991Y-13302746D01*
X6243991Y-13302746D02*
X6234467Y-13321793D01*
X6234467Y-13321793D02*
X6234467Y-13359888D01*
X6234467Y-13359888D02*
X6243991Y-13378936D01*
X6243991Y-13378936D02*
X6253515Y-13388460D01*
X6253515Y-13388460D02*
X6272562Y-13397984D01*
X6272562Y-13397984D02*
X6310658Y-13397984D01*
X6310658Y-13397984D02*
X6329705Y-13388460D01*
X6329705Y-13388460D02*
X6339229Y-13378936D01*
X6339229Y-13378936D02*
X6348753Y-13359888D01*
X6348753Y-13359888D02*
X6348753Y-13321793D01*
X6348753Y-13321793D02*
X6339229Y-13302746D01*
X6339229Y-13302746D02*
X6329705Y-13293222D01*
X6329705Y-13293222D02*
X6310658Y-13283698D01*
X6472562Y-13197984D02*
X6491610Y-13197984D01*
X6491610Y-13197984D02*
X6510658Y-13207508D01*
X6510658Y-13207508D02*
X6520182Y-13217031D01*
X6520182Y-13217031D02*
X6529705Y-13236079D01*
X6529705Y-13236079D02*
X6539229Y-13274174D01*
X6539229Y-13274174D02*
X6539229Y-13321793D01*
X6539229Y-13321793D02*
X6529705Y-13359888D01*
X6529705Y-13359888D02*
X6520182Y-13378936D01*
X6520182Y-13378936D02*
X6510658Y-13388460D01*
X6510658Y-13388460D02*
X6491610Y-13397984D01*
X6491610Y-13397984D02*
X6472562Y-13397984D01*
X6472562Y-13397984D02*
X6453515Y-13388460D01*
X6453515Y-13388460D02*
X6443991Y-13378936D01*
X6443991Y-13378936D02*
X6434467Y-13359888D01*
X6434467Y-13359888D02*
X6424943Y-13321793D01*
X6424943Y-13321793D02*
X6424943Y-13274174D01*
X6424943Y-13274174D02*
X6434467Y-13236079D01*
X6434467Y-13236079D02*
X6443991Y-13217031D01*
X6443991Y-13217031D02*
X6453515Y-13207508D01*
X6453515Y-13207508D02*
X6472562Y-13197984D01*
X6663039Y-13197984D02*
X6682086Y-13197984D01*
X6682086Y-13197984D02*
X6701134Y-13207508D01*
X6701134Y-13207508D02*
X6710658Y-13217031D01*
X6710658Y-13217031D02*
X6720182Y-13236079D01*
X6720182Y-13236079D02*
X6729705Y-13274174D01*
X6729705Y-13274174D02*
X6729705Y-13321793D01*
X6729705Y-13321793D02*
X6720182Y-13359888D01*
X6720182Y-13359888D02*
X6710658Y-13378936D01*
X6710658Y-13378936D02*
X6701134Y-13388460D01*
X6701134Y-13388460D02*
X6682086Y-13397984D01*
X6682086Y-13397984D02*
X6663039Y-13397984D01*
X6663039Y-13397984D02*
X6643991Y-13388460D01*
X6643991Y-13388460D02*
X6634467Y-13378936D01*
X6634467Y-13378936D02*
X6624943Y-13359888D01*
X6624943Y-13359888D02*
X6615420Y-13321793D01*
X6615420Y-13321793D02*
X6615420Y-13274174D01*
X6615420Y-13274174D02*
X6624943Y-13236079D01*
X6624943Y-13236079D02*
X6634467Y-13217031D01*
X6634467Y-13217031D02*
X6643991Y-13207508D01*
X6643991Y-13207508D02*
X6663039Y-13197984D01*
X6815420Y-13397984D02*
X6815420Y-13264650D01*
X6815420Y-13283698D02*
X6824943Y-13274174D01*
X6824943Y-13274174D02*
X6843991Y-13264650D01*
X6843991Y-13264650D02*
X6872563Y-13264650D01*
X6872563Y-13264650D02*
X6891610Y-13274174D01*
X6891610Y-13274174D02*
X6901134Y-13293222D01*
X6901134Y-13293222D02*
X6901134Y-13397984D01*
X6901134Y-13293222D02*
X6910658Y-13274174D01*
X6910658Y-13274174D02*
X6929705Y-13264650D01*
X6929705Y-13264650D02*
X6958277Y-13264650D01*
X6958277Y-13264650D02*
X6977324Y-13274174D01*
X6977324Y-13274174D02*
X6986848Y-13293222D01*
X6986848Y-13293222D02*
X6986848Y-13397984D01*
X7082086Y-13397984D02*
X7082086Y-13264650D01*
X7082086Y-13283698D02*
X7091610Y-13274174D01*
X7091610Y-13274174D02*
X7110658Y-13264650D01*
X7110658Y-13264650D02*
X7139229Y-13264650D01*
X7139229Y-13264650D02*
X7158277Y-13274174D01*
X7158277Y-13274174D02*
X7167801Y-13293222D01*
X7167801Y-13293222D02*
X7167801Y-13397984D01*
X7167801Y-13293222D02*
X7177324Y-13274174D01*
X7177324Y-13274174D02*
X7196372Y-13264650D01*
X7196372Y-13264650D02*
X7224943Y-13264650D01*
X7224943Y-13264650D02*
X7243991Y-13274174D01*
X7243991Y-13274174D02*
X7253515Y-13293222D01*
X7253515Y-13293222D02*
X7253515Y-13397984D01*
X7643991Y-13188460D02*
X7472563Y-13445603D01*
X7901134Y-13197984D02*
X7920182Y-13197984D01*
X7920182Y-13197984D02*
X7939229Y-13207508D01*
X7939229Y-13207508D02*
X7948753Y-13217031D01*
X7948753Y-13217031D02*
X7958277Y-13236079D01*
X7958277Y-13236079D02*
X7967801Y-13274174D01*
X7967801Y-13274174D02*
X7967801Y-13321793D01*
X7967801Y-13321793D02*
X7958277Y-13359888D01*
X7958277Y-13359888D02*
X7948753Y-13378936D01*
X7948753Y-13378936D02*
X7939229Y-13388460D01*
X7939229Y-13388460D02*
X7920182Y-13397984D01*
X7920182Y-13397984D02*
X7901134Y-13397984D01*
X7901134Y-13397984D02*
X7882086Y-13388460D01*
X7882086Y-13388460D02*
X7872563Y-13378936D01*
X7872563Y-13378936D02*
X7863039Y-13359888D01*
X7863039Y-13359888D02*
X7853515Y-13321793D01*
X7853515Y-13321793D02*
X7853515Y-13274174D01*
X7853515Y-13274174D02*
X7863039Y-13236079D01*
X7863039Y-13236079D02*
X7872563Y-13217031D01*
X7872563Y-13217031D02*
X7882086Y-13207508D01*
X7882086Y-13207508D02*
X7901134Y-13197984D01*
X8053515Y-13378936D02*
X8063039Y-13388460D01*
X8063039Y-13388460D02*
X8053515Y-13397984D01*
X8053515Y-13397984D02*
X8043991Y-13388460D01*
X8043991Y-13388460D02*
X8053515Y-13378936D01*
X8053515Y-13378936D02*
X8053515Y-13397984D01*
X8186848Y-13197984D02*
X8205896Y-13197984D01*
X8205896Y-13197984D02*
X8224944Y-13207508D01*
X8224944Y-13207508D02*
X8234467Y-13217031D01*
X8234467Y-13217031D02*
X8243991Y-13236079D01*
X8243991Y-13236079D02*
X8253515Y-13274174D01*
X8253515Y-13274174D02*
X8253515Y-13321793D01*
X8253515Y-13321793D02*
X8243991Y-13359888D01*
X8243991Y-13359888D02*
X8234467Y-13378936D01*
X8234467Y-13378936D02*
X8224944Y-13388460D01*
X8224944Y-13388460D02*
X8205896Y-13397984D01*
X8205896Y-13397984D02*
X8186848Y-13397984D01*
X8186848Y-13397984D02*
X8167801Y-13388460D01*
X8167801Y-13388460D02*
X8158277Y-13378936D01*
X8158277Y-13378936D02*
X8148753Y-13359888D01*
X8148753Y-13359888D02*
X8139229Y-13321793D01*
X8139229Y-13321793D02*
X8139229Y-13274174D01*
X8139229Y-13274174D02*
X8148753Y-13236079D01*
X8148753Y-13236079D02*
X8158277Y-13217031D01*
X8158277Y-13217031D02*
X8167801Y-13207508D01*
X8167801Y-13207508D02*
X8186848Y-13197984D01*
X8320182Y-13197984D02*
X8443991Y-13197984D01*
X8443991Y-13197984D02*
X8377325Y-13274174D01*
X8377325Y-13274174D02*
X8405896Y-13274174D01*
X8405896Y-13274174D02*
X8424944Y-13283698D01*
X8424944Y-13283698D02*
X8434468Y-13293222D01*
X8434468Y-13293222D02*
X8443991Y-13312269D01*
X8443991Y-13312269D02*
X8443991Y-13359888D01*
X8443991Y-13359888D02*
X8434468Y-13378936D01*
X8434468Y-13378936D02*
X8424944Y-13388460D01*
X8424944Y-13388460D02*
X8405896Y-13397984D01*
X8405896Y-13397984D02*
X8348753Y-13397984D01*
X8348753Y-13397984D02*
X8329706Y-13388460D01*
X8329706Y-13388460D02*
X8320182Y-13378936D01*
X8634468Y-13397984D02*
X8520182Y-13397984D01*
X8577325Y-13397984D02*
X8577325Y-13197984D01*
X8577325Y-13197984D02*
X8558277Y-13226555D01*
X8558277Y-13226555D02*
X8539229Y-13245603D01*
X8539229Y-13245603D02*
X8520182Y-13255127D01*
X8815420Y-13197984D02*
X8720182Y-13197984D01*
X8720182Y-13197984D02*
X8710658Y-13293222D01*
X8710658Y-13293222D02*
X8720182Y-13283698D01*
X8720182Y-13283698D02*
X8739229Y-13274174D01*
X8739229Y-13274174D02*
X8786849Y-13274174D01*
X8786849Y-13274174D02*
X8805896Y-13283698D01*
X8805896Y-13283698D02*
X8815420Y-13293222D01*
X8815420Y-13293222D02*
X8824944Y-13312269D01*
X8824944Y-13312269D02*
X8824944Y-13359888D01*
X8824944Y-13359888D02*
X8815420Y-13378936D01*
X8815420Y-13378936D02*
X8805896Y-13388460D01*
X8805896Y-13388460D02*
X8786849Y-13397984D01*
X8786849Y-13397984D02*
X8739229Y-13397984D01*
X8739229Y-13397984D02*
X8720182Y-13388460D01*
X8720182Y-13388460D02*
X8710658Y-13378936D01*
X8901134Y-13197984D02*
X8901134Y-13236079D01*
X8977325Y-13197984D02*
X8977325Y-13236079D01*
X9272563Y-13474174D02*
X9263039Y-13464650D01*
X9263039Y-13464650D02*
X9243991Y-13436079D01*
X9243991Y-13436079D02*
X9234468Y-13417031D01*
X9234468Y-13417031D02*
X9224944Y-13388460D01*
X9224944Y-13388460D02*
X9215420Y-13340841D01*
X9215420Y-13340841D02*
X9215420Y-13302746D01*
X9215420Y-13302746D02*
X9224944Y-13255127D01*
X9224944Y-13255127D02*
X9234468Y-13226555D01*
X9234468Y-13226555D02*
X9243991Y-13207508D01*
X9243991Y-13207508D02*
X9263039Y-13178936D01*
X9263039Y-13178936D02*
X9272563Y-13169412D01*
X9434468Y-13197984D02*
X9396372Y-13197984D01*
X9396372Y-13197984D02*
X9377325Y-13207508D01*
X9377325Y-13207508D02*
X9367801Y-13217031D01*
X9367801Y-13217031D02*
X9348753Y-13245603D01*
X9348753Y-13245603D02*
X9339230Y-13283698D01*
X9339230Y-13283698D02*
X9339230Y-13359888D01*
X9339230Y-13359888D02*
X9348753Y-13378936D01*
X9348753Y-13378936D02*
X9358277Y-13388460D01*
X9358277Y-13388460D02*
X9377325Y-13397984D01*
X9377325Y-13397984D02*
X9415420Y-13397984D01*
X9415420Y-13397984D02*
X9434468Y-13388460D01*
X9434468Y-13388460D02*
X9443991Y-13378936D01*
X9443991Y-13378936D02*
X9453515Y-13359888D01*
X9453515Y-13359888D02*
X9453515Y-13312269D01*
X9453515Y-13312269D02*
X9443991Y-13293222D01*
X9443991Y-13293222D02*
X9434468Y-13283698D01*
X9434468Y-13283698D02*
X9415420Y-13274174D01*
X9415420Y-13274174D02*
X9377325Y-13274174D01*
X9377325Y-13274174D02*
X9358277Y-13283698D01*
X9358277Y-13283698D02*
X9348753Y-13293222D01*
X9348753Y-13293222D02*
X9339230Y-13312269D01*
X9529706Y-13217031D02*
X9539230Y-13207508D01*
X9539230Y-13207508D02*
X9558277Y-13197984D01*
X9558277Y-13197984D02*
X9605896Y-13197984D01*
X9605896Y-13197984D02*
X9624944Y-13207508D01*
X9624944Y-13207508D02*
X9634468Y-13217031D01*
X9634468Y-13217031D02*
X9643991Y-13236079D01*
X9643991Y-13236079D02*
X9643991Y-13255127D01*
X9643991Y-13255127D02*
X9634468Y-13283698D01*
X9634468Y-13283698D02*
X9520182Y-13397984D01*
X9520182Y-13397984D02*
X9643991Y-13397984D01*
X9882087Y-13397984D02*
X9882087Y-13197984D01*
X9967801Y-13397984D02*
X9967801Y-13293222D01*
X9967801Y-13293222D02*
X9958277Y-13274174D01*
X9958277Y-13274174D02*
X9939230Y-13264650D01*
X9939230Y-13264650D02*
X9910658Y-13264650D01*
X9910658Y-13264650D02*
X9891611Y-13274174D01*
X9891611Y-13274174D02*
X9882087Y-13283698D01*
X10091611Y-13397984D02*
X10072563Y-13388460D01*
X10072563Y-13388460D02*
X10063039Y-13378936D01*
X10063039Y-13378936D02*
X10053515Y-13359888D01*
X10053515Y-13359888D02*
X10053515Y-13302746D01*
X10053515Y-13302746D02*
X10063039Y-13283698D01*
X10063039Y-13283698D02*
X10072563Y-13274174D01*
X10072563Y-13274174D02*
X10091611Y-13264650D01*
X10091611Y-13264650D02*
X10120182Y-13264650D01*
X10120182Y-13264650D02*
X10139230Y-13274174D01*
X10139230Y-13274174D02*
X10148753Y-13283698D01*
X10148753Y-13283698D02*
X10158277Y-13302746D01*
X10158277Y-13302746D02*
X10158277Y-13359888D01*
X10158277Y-13359888D02*
X10148753Y-13378936D01*
X10148753Y-13378936D02*
X10139230Y-13388460D01*
X10139230Y-13388460D02*
X10120182Y-13397984D01*
X10120182Y-13397984D02*
X10091611Y-13397984D01*
X10272563Y-13397984D02*
X10253515Y-13388460D01*
X10253515Y-13388460D02*
X10243992Y-13369412D01*
X10243992Y-13369412D02*
X10243992Y-13197984D01*
X10424944Y-13388460D02*
X10405896Y-13397984D01*
X10405896Y-13397984D02*
X10367801Y-13397984D01*
X10367801Y-13397984D02*
X10348753Y-13388460D01*
X10348753Y-13388460D02*
X10339230Y-13369412D01*
X10339230Y-13369412D02*
X10339230Y-13293222D01*
X10339230Y-13293222D02*
X10348753Y-13274174D01*
X10348753Y-13274174D02*
X10367801Y-13264650D01*
X10367801Y-13264650D02*
X10405896Y-13264650D01*
X10405896Y-13264650D02*
X10424944Y-13274174D01*
X10424944Y-13274174D02*
X10434468Y-13293222D01*
X10434468Y-13293222D02*
X10434468Y-13312269D01*
X10434468Y-13312269D02*
X10339230Y-13331317D01*
X10510658Y-13388460D02*
X10529706Y-13397984D01*
X10529706Y-13397984D02*
X10567801Y-13397984D01*
X10567801Y-13397984D02*
X10586849Y-13388460D01*
X10586849Y-13388460D02*
X10596373Y-13369412D01*
X10596373Y-13369412D02*
X10596373Y-13359888D01*
X10596373Y-13359888D02*
X10586849Y-13340841D01*
X10586849Y-13340841D02*
X10567801Y-13331317D01*
X10567801Y-13331317D02*
X10539230Y-13331317D01*
X10539230Y-13331317D02*
X10520182Y-13321793D01*
X10520182Y-13321793D02*
X10510658Y-13302746D01*
X10510658Y-13302746D02*
X10510658Y-13293222D01*
X10510658Y-13293222D02*
X10520182Y-13274174D01*
X10520182Y-13274174D02*
X10539230Y-13264650D01*
X10539230Y-13264650D02*
X10567801Y-13264650D01*
X10567801Y-13264650D02*
X10586849Y-13274174D01*
X10663039Y-13474174D02*
X10672563Y-13464650D01*
X10672563Y-13464650D02*
X10691611Y-13436079D01*
X10691611Y-13436079D02*
X10701134Y-13417031D01*
X10701134Y-13417031D02*
X10710658Y-13388460D01*
X10710658Y-13388460D02*
X10720182Y-13340841D01*
X10720182Y-13340841D02*
X10720182Y-13302746D01*
X10720182Y-13302746D02*
X10710658Y-13255127D01*
X10710658Y-13255127D02*
X10701134Y-13226555D01*
X10701134Y-13226555D02*
X10691611Y-13207508D01*
X10691611Y-13207508D02*
X10672563Y-13178936D01*
X10672563Y-13178936D02*
X10663039Y-13169412D01*
D12*
X5655000Y-13528000D02*
X5655000Y-13613000D01*
X5612500Y-13570500D02*
X5697500Y-13570500D01*
D11*
X5996372Y-13461984D02*
X6015420Y-13461984D01*
X6015420Y-13461984D02*
X6034467Y-13471508D01*
X6034467Y-13471508D02*
X6043991Y-13481031D01*
X6043991Y-13481031D02*
X6053515Y-13500079D01*
X6053515Y-13500079D02*
X6063039Y-13538174D01*
X6063039Y-13538174D02*
X6063039Y-13585793D01*
X6063039Y-13585793D02*
X6053515Y-13623888D01*
X6053515Y-13623888D02*
X6043991Y-13642936D01*
X6043991Y-13642936D02*
X6034467Y-13652460D01*
X6034467Y-13652460D02*
X6015420Y-13661984D01*
X6015420Y-13661984D02*
X5996372Y-13661984D01*
X5996372Y-13661984D02*
X5977324Y-13652460D01*
X5977324Y-13652460D02*
X5967801Y-13642936D01*
X5967801Y-13642936D02*
X5958277Y-13623888D01*
X5958277Y-13623888D02*
X5948753Y-13585793D01*
X5948753Y-13585793D02*
X5948753Y-13538174D01*
X5948753Y-13538174D02*
X5958277Y-13500079D01*
X5958277Y-13500079D02*
X5967801Y-13481031D01*
X5967801Y-13481031D02*
X5977324Y-13471508D01*
X5977324Y-13471508D02*
X5996372Y-13461984D01*
X6148753Y-13642936D02*
X6158277Y-13652460D01*
X6158277Y-13652460D02*
X6148753Y-13661984D01*
X6148753Y-13661984D02*
X6139229Y-13652460D01*
X6139229Y-13652460D02*
X6148753Y-13642936D01*
X6148753Y-13642936D02*
X6148753Y-13661984D01*
X6272562Y-13547698D02*
X6253515Y-13538174D01*
X6253515Y-13538174D02*
X6243991Y-13528650D01*
X6243991Y-13528650D02*
X6234467Y-13509603D01*
X6234467Y-13509603D02*
X6234467Y-13500079D01*
X6234467Y-13500079D02*
X6243991Y-13481031D01*
X6243991Y-13481031D02*
X6253515Y-13471508D01*
X6253515Y-13471508D02*
X6272562Y-13461984D01*
X6272562Y-13461984D02*
X6310658Y-13461984D01*
X6310658Y-13461984D02*
X6329705Y-13471508D01*
X6329705Y-13471508D02*
X6339229Y-13481031D01*
X6339229Y-13481031D02*
X6348753Y-13500079D01*
X6348753Y-13500079D02*
X6348753Y-13509603D01*
X6348753Y-13509603D02*
X6339229Y-13528650D01*
X6339229Y-13528650D02*
X6329705Y-13538174D01*
X6329705Y-13538174D02*
X6310658Y-13547698D01*
X6310658Y-13547698D02*
X6272562Y-13547698D01*
X6272562Y-13547698D02*
X6253515Y-13557222D01*
X6253515Y-13557222D02*
X6243991Y-13566746D01*
X6243991Y-13566746D02*
X6234467Y-13585793D01*
X6234467Y-13585793D02*
X6234467Y-13623888D01*
X6234467Y-13623888D02*
X6243991Y-13642936D01*
X6243991Y-13642936D02*
X6253515Y-13652460D01*
X6253515Y-13652460D02*
X6272562Y-13661984D01*
X6272562Y-13661984D02*
X6310658Y-13661984D01*
X6310658Y-13661984D02*
X6329705Y-13652460D01*
X6329705Y-13652460D02*
X6339229Y-13642936D01*
X6339229Y-13642936D02*
X6348753Y-13623888D01*
X6348753Y-13623888D02*
X6348753Y-13585793D01*
X6348753Y-13585793D02*
X6339229Y-13566746D01*
X6339229Y-13566746D02*
X6329705Y-13557222D01*
X6329705Y-13557222D02*
X6310658Y-13547698D01*
X6529705Y-13461984D02*
X6434467Y-13461984D01*
X6434467Y-13461984D02*
X6424943Y-13557222D01*
X6424943Y-13557222D02*
X6434467Y-13547698D01*
X6434467Y-13547698D02*
X6453515Y-13538174D01*
X6453515Y-13538174D02*
X6501134Y-13538174D01*
X6501134Y-13538174D02*
X6520182Y-13547698D01*
X6520182Y-13547698D02*
X6529705Y-13557222D01*
X6529705Y-13557222D02*
X6539229Y-13576269D01*
X6539229Y-13576269D02*
X6539229Y-13623888D01*
X6539229Y-13623888D02*
X6529705Y-13642936D01*
X6529705Y-13642936D02*
X6520182Y-13652460D01*
X6520182Y-13652460D02*
X6501134Y-13661984D01*
X6501134Y-13661984D02*
X6453515Y-13661984D01*
X6453515Y-13661984D02*
X6434467Y-13652460D01*
X6434467Y-13652460D02*
X6424943Y-13642936D01*
X6663039Y-13461984D02*
X6682086Y-13461984D01*
X6682086Y-13461984D02*
X6701134Y-13471508D01*
X6701134Y-13471508D02*
X6710658Y-13481031D01*
X6710658Y-13481031D02*
X6720182Y-13500079D01*
X6720182Y-13500079D02*
X6729705Y-13538174D01*
X6729705Y-13538174D02*
X6729705Y-13585793D01*
X6729705Y-13585793D02*
X6720182Y-13623888D01*
X6720182Y-13623888D02*
X6710658Y-13642936D01*
X6710658Y-13642936D02*
X6701134Y-13652460D01*
X6701134Y-13652460D02*
X6682086Y-13661984D01*
X6682086Y-13661984D02*
X6663039Y-13661984D01*
X6663039Y-13661984D02*
X6643991Y-13652460D01*
X6643991Y-13652460D02*
X6634467Y-13642936D01*
X6634467Y-13642936D02*
X6624943Y-13623888D01*
X6624943Y-13623888D02*
X6615420Y-13585793D01*
X6615420Y-13585793D02*
X6615420Y-13538174D01*
X6615420Y-13538174D02*
X6624943Y-13500079D01*
X6624943Y-13500079D02*
X6634467Y-13481031D01*
X6634467Y-13481031D02*
X6643991Y-13471508D01*
X6643991Y-13471508D02*
X6663039Y-13461984D01*
X6815420Y-13661984D02*
X6815420Y-13528650D01*
X6815420Y-13547698D02*
X6824943Y-13538174D01*
X6824943Y-13538174D02*
X6843991Y-13528650D01*
X6843991Y-13528650D02*
X6872563Y-13528650D01*
X6872563Y-13528650D02*
X6891610Y-13538174D01*
X6891610Y-13538174D02*
X6901134Y-13557222D01*
X6901134Y-13557222D02*
X6901134Y-13661984D01*
X6901134Y-13557222D02*
X6910658Y-13538174D01*
X6910658Y-13538174D02*
X6929705Y-13528650D01*
X6929705Y-13528650D02*
X6958277Y-13528650D01*
X6958277Y-13528650D02*
X6977324Y-13538174D01*
X6977324Y-13538174D02*
X6986848Y-13557222D01*
X6986848Y-13557222D02*
X6986848Y-13661984D01*
X7082086Y-13661984D02*
X7082086Y-13528650D01*
X7082086Y-13547698D02*
X7091610Y-13538174D01*
X7091610Y-13538174D02*
X7110658Y-13528650D01*
X7110658Y-13528650D02*
X7139229Y-13528650D01*
X7139229Y-13528650D02*
X7158277Y-13538174D01*
X7158277Y-13538174D02*
X7167801Y-13557222D01*
X7167801Y-13557222D02*
X7167801Y-13661984D01*
X7167801Y-13557222D02*
X7177324Y-13538174D01*
X7177324Y-13538174D02*
X7196372Y-13528650D01*
X7196372Y-13528650D02*
X7224943Y-13528650D01*
X7224943Y-13528650D02*
X7243991Y-13538174D01*
X7243991Y-13538174D02*
X7253515Y-13557222D01*
X7253515Y-13557222D02*
X7253515Y-13661984D01*
X7643991Y-13452460D02*
X7472563Y-13709603D01*
X7901134Y-13461984D02*
X7920182Y-13461984D01*
X7920182Y-13461984D02*
X7939229Y-13471508D01*
X7939229Y-13471508D02*
X7948753Y-13481031D01*
X7948753Y-13481031D02*
X7958277Y-13500079D01*
X7958277Y-13500079D02*
X7967801Y-13538174D01*
X7967801Y-13538174D02*
X7967801Y-13585793D01*
X7967801Y-13585793D02*
X7958277Y-13623888D01*
X7958277Y-13623888D02*
X7948753Y-13642936D01*
X7948753Y-13642936D02*
X7939229Y-13652460D01*
X7939229Y-13652460D02*
X7920182Y-13661984D01*
X7920182Y-13661984D02*
X7901134Y-13661984D01*
X7901134Y-13661984D02*
X7882086Y-13652460D01*
X7882086Y-13652460D02*
X7872563Y-13642936D01*
X7872563Y-13642936D02*
X7863039Y-13623888D01*
X7863039Y-13623888D02*
X7853515Y-13585793D01*
X7853515Y-13585793D02*
X7853515Y-13538174D01*
X7853515Y-13538174D02*
X7863039Y-13500079D01*
X7863039Y-13500079D02*
X7872563Y-13481031D01*
X7872563Y-13481031D02*
X7882086Y-13471508D01*
X7882086Y-13471508D02*
X7901134Y-13461984D01*
X8053515Y-13642936D02*
X8063039Y-13652460D01*
X8063039Y-13652460D02*
X8053515Y-13661984D01*
X8053515Y-13661984D02*
X8043991Y-13652460D01*
X8043991Y-13652460D02*
X8053515Y-13642936D01*
X8053515Y-13642936D02*
X8053515Y-13661984D01*
X8186848Y-13461984D02*
X8205896Y-13461984D01*
X8205896Y-13461984D02*
X8224944Y-13471508D01*
X8224944Y-13471508D02*
X8234467Y-13481031D01*
X8234467Y-13481031D02*
X8243991Y-13500079D01*
X8243991Y-13500079D02*
X8253515Y-13538174D01*
X8253515Y-13538174D02*
X8253515Y-13585793D01*
X8253515Y-13585793D02*
X8243991Y-13623888D01*
X8243991Y-13623888D02*
X8234467Y-13642936D01*
X8234467Y-13642936D02*
X8224944Y-13652460D01*
X8224944Y-13652460D02*
X8205896Y-13661984D01*
X8205896Y-13661984D02*
X8186848Y-13661984D01*
X8186848Y-13661984D02*
X8167801Y-13652460D01*
X8167801Y-13652460D02*
X8158277Y-13642936D01*
X8158277Y-13642936D02*
X8148753Y-13623888D01*
X8148753Y-13623888D02*
X8139229Y-13585793D01*
X8139229Y-13585793D02*
X8139229Y-13538174D01*
X8139229Y-13538174D02*
X8148753Y-13500079D01*
X8148753Y-13500079D02*
X8158277Y-13481031D01*
X8158277Y-13481031D02*
X8167801Y-13471508D01*
X8167801Y-13471508D02*
X8186848Y-13461984D01*
X8320182Y-13461984D02*
X8443991Y-13461984D01*
X8443991Y-13461984D02*
X8377325Y-13538174D01*
X8377325Y-13538174D02*
X8405896Y-13538174D01*
X8405896Y-13538174D02*
X8424944Y-13547698D01*
X8424944Y-13547698D02*
X8434468Y-13557222D01*
X8434468Y-13557222D02*
X8443991Y-13576269D01*
X8443991Y-13576269D02*
X8443991Y-13623888D01*
X8443991Y-13623888D02*
X8434468Y-13642936D01*
X8434468Y-13642936D02*
X8424944Y-13652460D01*
X8424944Y-13652460D02*
X8405896Y-13661984D01*
X8405896Y-13661984D02*
X8348753Y-13661984D01*
X8348753Y-13661984D02*
X8329706Y-13652460D01*
X8329706Y-13652460D02*
X8320182Y-13642936D01*
X8510658Y-13461984D02*
X8634468Y-13461984D01*
X8634468Y-13461984D02*
X8567801Y-13538174D01*
X8567801Y-13538174D02*
X8596372Y-13538174D01*
X8596372Y-13538174D02*
X8615420Y-13547698D01*
X8615420Y-13547698D02*
X8624944Y-13557222D01*
X8624944Y-13557222D02*
X8634468Y-13576269D01*
X8634468Y-13576269D02*
X8634468Y-13623888D01*
X8634468Y-13623888D02*
X8624944Y-13642936D01*
X8624944Y-13642936D02*
X8615420Y-13652460D01*
X8615420Y-13652460D02*
X8596372Y-13661984D01*
X8596372Y-13661984D02*
X8539229Y-13661984D01*
X8539229Y-13661984D02*
X8520182Y-13652460D01*
X8520182Y-13652460D02*
X8510658Y-13642936D01*
X8815420Y-13461984D02*
X8720182Y-13461984D01*
X8720182Y-13461984D02*
X8710658Y-13557222D01*
X8710658Y-13557222D02*
X8720182Y-13547698D01*
X8720182Y-13547698D02*
X8739229Y-13538174D01*
X8739229Y-13538174D02*
X8786849Y-13538174D01*
X8786849Y-13538174D02*
X8805896Y-13547698D01*
X8805896Y-13547698D02*
X8815420Y-13557222D01*
X8815420Y-13557222D02*
X8824944Y-13576269D01*
X8824944Y-13576269D02*
X8824944Y-13623888D01*
X8824944Y-13623888D02*
X8815420Y-13642936D01*
X8815420Y-13642936D02*
X8805896Y-13652460D01*
X8805896Y-13652460D02*
X8786849Y-13661984D01*
X8786849Y-13661984D02*
X8739229Y-13661984D01*
X8739229Y-13661984D02*
X8720182Y-13652460D01*
X8720182Y-13652460D02*
X8710658Y-13642936D01*
X8901134Y-13461984D02*
X8901134Y-13500079D01*
X8977325Y-13461984D02*
X8977325Y-13500079D01*
X9272563Y-13738174D02*
X9263039Y-13728650D01*
X9263039Y-13728650D02*
X9243991Y-13700079D01*
X9243991Y-13700079D02*
X9234468Y-13681031D01*
X9234468Y-13681031D02*
X9224944Y-13652460D01*
X9224944Y-13652460D02*
X9215420Y-13604841D01*
X9215420Y-13604841D02*
X9215420Y-13566746D01*
X9215420Y-13566746D02*
X9224944Y-13519127D01*
X9224944Y-13519127D02*
X9234468Y-13490555D01*
X9234468Y-13490555D02*
X9243991Y-13471508D01*
X9243991Y-13471508D02*
X9263039Y-13442936D01*
X9263039Y-13442936D02*
X9272563Y-13433412D01*
X9453515Y-13661984D02*
X9339230Y-13661984D01*
X9396372Y-13661984D02*
X9396372Y-13461984D01*
X9396372Y-13461984D02*
X9377325Y-13490555D01*
X9377325Y-13490555D02*
X9358277Y-13509603D01*
X9358277Y-13509603D02*
X9339230Y-13519127D01*
X9643991Y-13661984D02*
X9529706Y-13661984D01*
X9586849Y-13661984D02*
X9586849Y-13461984D01*
X9586849Y-13461984D02*
X9567801Y-13490555D01*
X9567801Y-13490555D02*
X9548753Y-13509603D01*
X9548753Y-13509603D02*
X9529706Y-13519127D01*
X9882087Y-13661984D02*
X9882087Y-13461984D01*
X9967801Y-13661984D02*
X9967801Y-13557222D01*
X9967801Y-13557222D02*
X9958277Y-13538174D01*
X9958277Y-13538174D02*
X9939230Y-13528650D01*
X9939230Y-13528650D02*
X9910658Y-13528650D01*
X9910658Y-13528650D02*
X9891611Y-13538174D01*
X9891611Y-13538174D02*
X9882087Y-13547698D01*
X10091611Y-13661984D02*
X10072563Y-13652460D01*
X10072563Y-13652460D02*
X10063039Y-13642936D01*
X10063039Y-13642936D02*
X10053515Y-13623888D01*
X10053515Y-13623888D02*
X10053515Y-13566746D01*
X10053515Y-13566746D02*
X10063039Y-13547698D01*
X10063039Y-13547698D02*
X10072563Y-13538174D01*
X10072563Y-13538174D02*
X10091611Y-13528650D01*
X10091611Y-13528650D02*
X10120182Y-13528650D01*
X10120182Y-13528650D02*
X10139230Y-13538174D01*
X10139230Y-13538174D02*
X10148753Y-13547698D01*
X10148753Y-13547698D02*
X10158277Y-13566746D01*
X10158277Y-13566746D02*
X10158277Y-13623888D01*
X10158277Y-13623888D02*
X10148753Y-13642936D01*
X10148753Y-13642936D02*
X10139230Y-13652460D01*
X10139230Y-13652460D02*
X10120182Y-13661984D01*
X10120182Y-13661984D02*
X10091611Y-13661984D01*
X10272563Y-13661984D02*
X10253515Y-13652460D01*
X10253515Y-13652460D02*
X10243992Y-13633412D01*
X10243992Y-13633412D02*
X10243992Y-13461984D01*
X10424944Y-13652460D02*
X10405896Y-13661984D01*
X10405896Y-13661984D02*
X10367801Y-13661984D01*
X10367801Y-13661984D02*
X10348753Y-13652460D01*
X10348753Y-13652460D02*
X10339230Y-13633412D01*
X10339230Y-13633412D02*
X10339230Y-13557222D01*
X10339230Y-13557222D02*
X10348753Y-13538174D01*
X10348753Y-13538174D02*
X10367801Y-13528650D01*
X10367801Y-13528650D02*
X10405896Y-13528650D01*
X10405896Y-13528650D02*
X10424944Y-13538174D01*
X10424944Y-13538174D02*
X10434468Y-13557222D01*
X10434468Y-13557222D02*
X10434468Y-13576269D01*
X10434468Y-13576269D02*
X10339230Y-13595317D01*
X10510658Y-13652460D02*
X10529706Y-13661984D01*
X10529706Y-13661984D02*
X10567801Y-13661984D01*
X10567801Y-13661984D02*
X10586849Y-13652460D01*
X10586849Y-13652460D02*
X10596373Y-13633412D01*
X10596373Y-13633412D02*
X10596373Y-13623888D01*
X10596373Y-13623888D02*
X10586849Y-13604841D01*
X10586849Y-13604841D02*
X10567801Y-13595317D01*
X10567801Y-13595317D02*
X10539230Y-13595317D01*
X10539230Y-13595317D02*
X10520182Y-13585793D01*
X10520182Y-13585793D02*
X10510658Y-13566746D01*
X10510658Y-13566746D02*
X10510658Y-13557222D01*
X10510658Y-13557222D02*
X10520182Y-13538174D01*
X10520182Y-13538174D02*
X10539230Y-13528650D01*
X10539230Y-13528650D02*
X10567801Y-13528650D01*
X10567801Y-13528650D02*
X10586849Y-13538174D01*
X10663039Y-13738174D02*
X10672563Y-13728650D01*
X10672563Y-13728650D02*
X10691611Y-13700079D01*
X10691611Y-13700079D02*
X10701134Y-13681031D01*
X10701134Y-13681031D02*
X10710658Y-13652460D01*
X10710658Y-13652460D02*
X10720182Y-13604841D01*
X10720182Y-13604841D02*
X10720182Y-13566746D01*
X10720182Y-13566746D02*
X10710658Y-13519127D01*
X10710658Y-13519127D02*
X10701134Y-13490555D01*
X10701134Y-13490555D02*
X10691611Y-13471508D01*
X10691611Y-13471508D02*
X10672563Y-13442936D01*
X10672563Y-13442936D02*
X10663039Y-13433412D01*
D13*
X5671140Y-13898140D02*
X5671140Y-13770860D01*
X5543860Y-13770860D01*
X5543860Y-13898140D01*
X5671140Y-13898140D01*
D11*
X6063039Y-13925984D02*
X5948753Y-13925984D01*
X6005896Y-13925984D02*
X6005896Y-13725984D01*
X6005896Y-13725984D02*
X5986848Y-13754555D01*
X5986848Y-13754555D02*
X5967801Y-13773603D01*
X5967801Y-13773603D02*
X5948753Y-13783127D01*
X6148753Y-13906936D02*
X6158277Y-13916460D01*
X6158277Y-13916460D02*
X6148753Y-13925984D01*
X6148753Y-13925984D02*
X6139229Y-13916460D01*
X6139229Y-13916460D02*
X6148753Y-13906936D01*
X6148753Y-13906936D02*
X6148753Y-13925984D01*
X6272562Y-13811698D02*
X6253515Y-13802174D01*
X6253515Y-13802174D02*
X6243991Y-13792650D01*
X6243991Y-13792650D02*
X6234467Y-13773603D01*
X6234467Y-13773603D02*
X6234467Y-13764079D01*
X6234467Y-13764079D02*
X6243991Y-13745031D01*
X6243991Y-13745031D02*
X6253515Y-13735508D01*
X6253515Y-13735508D02*
X6272562Y-13725984D01*
X6272562Y-13725984D02*
X6310658Y-13725984D01*
X6310658Y-13725984D02*
X6329705Y-13735508D01*
X6329705Y-13735508D02*
X6339229Y-13745031D01*
X6339229Y-13745031D02*
X6348753Y-13764079D01*
X6348753Y-13764079D02*
X6348753Y-13773603D01*
X6348753Y-13773603D02*
X6339229Y-13792650D01*
X6339229Y-13792650D02*
X6329705Y-13802174D01*
X6329705Y-13802174D02*
X6310658Y-13811698D01*
X6310658Y-13811698D02*
X6272562Y-13811698D01*
X6272562Y-13811698D02*
X6253515Y-13821222D01*
X6253515Y-13821222D02*
X6243991Y-13830746D01*
X6243991Y-13830746D02*
X6234467Y-13849793D01*
X6234467Y-13849793D02*
X6234467Y-13887888D01*
X6234467Y-13887888D02*
X6243991Y-13906936D01*
X6243991Y-13906936D02*
X6253515Y-13916460D01*
X6253515Y-13916460D02*
X6272562Y-13925984D01*
X6272562Y-13925984D02*
X6310658Y-13925984D01*
X6310658Y-13925984D02*
X6329705Y-13916460D01*
X6329705Y-13916460D02*
X6339229Y-13906936D01*
X6339229Y-13906936D02*
X6348753Y-13887888D01*
X6348753Y-13887888D02*
X6348753Y-13849793D01*
X6348753Y-13849793D02*
X6339229Y-13830746D01*
X6339229Y-13830746D02*
X6329705Y-13821222D01*
X6329705Y-13821222D02*
X6310658Y-13811698D01*
X6472562Y-13725984D02*
X6491610Y-13725984D01*
X6491610Y-13725984D02*
X6510658Y-13735508D01*
X6510658Y-13735508D02*
X6520182Y-13745031D01*
X6520182Y-13745031D02*
X6529705Y-13764079D01*
X6529705Y-13764079D02*
X6539229Y-13802174D01*
X6539229Y-13802174D02*
X6539229Y-13849793D01*
X6539229Y-13849793D02*
X6529705Y-13887888D01*
X6529705Y-13887888D02*
X6520182Y-13906936D01*
X6520182Y-13906936D02*
X6510658Y-13916460D01*
X6510658Y-13916460D02*
X6491610Y-13925984D01*
X6491610Y-13925984D02*
X6472562Y-13925984D01*
X6472562Y-13925984D02*
X6453515Y-13916460D01*
X6453515Y-13916460D02*
X6443991Y-13906936D01*
X6443991Y-13906936D02*
X6434467Y-13887888D01*
X6434467Y-13887888D02*
X6424943Y-13849793D01*
X6424943Y-13849793D02*
X6424943Y-13802174D01*
X6424943Y-13802174D02*
X6434467Y-13764079D01*
X6434467Y-13764079D02*
X6443991Y-13745031D01*
X6443991Y-13745031D02*
X6453515Y-13735508D01*
X6453515Y-13735508D02*
X6472562Y-13725984D01*
X6663039Y-13725984D02*
X6682086Y-13725984D01*
X6682086Y-13725984D02*
X6701134Y-13735508D01*
X6701134Y-13735508D02*
X6710658Y-13745031D01*
X6710658Y-13745031D02*
X6720182Y-13764079D01*
X6720182Y-13764079D02*
X6729705Y-13802174D01*
X6729705Y-13802174D02*
X6729705Y-13849793D01*
X6729705Y-13849793D02*
X6720182Y-13887888D01*
X6720182Y-13887888D02*
X6710658Y-13906936D01*
X6710658Y-13906936D02*
X6701134Y-13916460D01*
X6701134Y-13916460D02*
X6682086Y-13925984D01*
X6682086Y-13925984D02*
X6663039Y-13925984D01*
X6663039Y-13925984D02*
X6643991Y-13916460D01*
X6643991Y-13916460D02*
X6634467Y-13906936D01*
X6634467Y-13906936D02*
X6624943Y-13887888D01*
X6624943Y-13887888D02*
X6615420Y-13849793D01*
X6615420Y-13849793D02*
X6615420Y-13802174D01*
X6615420Y-13802174D02*
X6624943Y-13764079D01*
X6624943Y-13764079D02*
X6634467Y-13745031D01*
X6634467Y-13745031D02*
X6643991Y-13735508D01*
X6643991Y-13735508D02*
X6663039Y-13725984D01*
X6815420Y-13925984D02*
X6815420Y-13792650D01*
X6815420Y-13811698D02*
X6824943Y-13802174D01*
X6824943Y-13802174D02*
X6843991Y-13792650D01*
X6843991Y-13792650D02*
X6872563Y-13792650D01*
X6872563Y-13792650D02*
X6891610Y-13802174D01*
X6891610Y-13802174D02*
X6901134Y-13821222D01*
X6901134Y-13821222D02*
X6901134Y-13925984D01*
X6901134Y-13821222D02*
X6910658Y-13802174D01*
X6910658Y-13802174D02*
X6929705Y-13792650D01*
X6929705Y-13792650D02*
X6958277Y-13792650D01*
X6958277Y-13792650D02*
X6977324Y-13802174D01*
X6977324Y-13802174D02*
X6986848Y-13821222D01*
X6986848Y-13821222D02*
X6986848Y-13925984D01*
X7082086Y-13925984D02*
X7082086Y-13792650D01*
X7082086Y-13811698D02*
X7091610Y-13802174D01*
X7091610Y-13802174D02*
X7110658Y-13792650D01*
X7110658Y-13792650D02*
X7139229Y-13792650D01*
X7139229Y-13792650D02*
X7158277Y-13802174D01*
X7158277Y-13802174D02*
X7167801Y-13821222D01*
X7167801Y-13821222D02*
X7167801Y-13925984D01*
X7167801Y-13821222D02*
X7177324Y-13802174D01*
X7177324Y-13802174D02*
X7196372Y-13792650D01*
X7196372Y-13792650D02*
X7224943Y-13792650D01*
X7224943Y-13792650D02*
X7243991Y-13802174D01*
X7243991Y-13802174D02*
X7253515Y-13821222D01*
X7253515Y-13821222D02*
X7253515Y-13925984D01*
X7643991Y-13716460D02*
X7472563Y-13973603D01*
X7901134Y-13725984D02*
X7920182Y-13725984D01*
X7920182Y-13725984D02*
X7939229Y-13735508D01*
X7939229Y-13735508D02*
X7948753Y-13745031D01*
X7948753Y-13745031D02*
X7958277Y-13764079D01*
X7958277Y-13764079D02*
X7967801Y-13802174D01*
X7967801Y-13802174D02*
X7967801Y-13849793D01*
X7967801Y-13849793D02*
X7958277Y-13887888D01*
X7958277Y-13887888D02*
X7948753Y-13906936D01*
X7948753Y-13906936D02*
X7939229Y-13916460D01*
X7939229Y-13916460D02*
X7920182Y-13925984D01*
X7920182Y-13925984D02*
X7901134Y-13925984D01*
X7901134Y-13925984D02*
X7882086Y-13916460D01*
X7882086Y-13916460D02*
X7872563Y-13906936D01*
X7872563Y-13906936D02*
X7863039Y-13887888D01*
X7863039Y-13887888D02*
X7853515Y-13849793D01*
X7853515Y-13849793D02*
X7853515Y-13802174D01*
X7853515Y-13802174D02*
X7863039Y-13764079D01*
X7863039Y-13764079D02*
X7872563Y-13745031D01*
X7872563Y-13745031D02*
X7882086Y-13735508D01*
X7882086Y-13735508D02*
X7901134Y-13725984D01*
X8053515Y-13906936D02*
X8063039Y-13916460D01*
X8063039Y-13916460D02*
X8053515Y-13925984D01*
X8053515Y-13925984D02*
X8043991Y-13916460D01*
X8043991Y-13916460D02*
X8053515Y-13906936D01*
X8053515Y-13906936D02*
X8053515Y-13925984D01*
X8186848Y-13725984D02*
X8205896Y-13725984D01*
X8205896Y-13725984D02*
X8224944Y-13735508D01*
X8224944Y-13735508D02*
X8234467Y-13745031D01*
X8234467Y-13745031D02*
X8243991Y-13764079D01*
X8243991Y-13764079D02*
X8253515Y-13802174D01*
X8253515Y-13802174D02*
X8253515Y-13849793D01*
X8253515Y-13849793D02*
X8243991Y-13887888D01*
X8243991Y-13887888D02*
X8234467Y-13906936D01*
X8234467Y-13906936D02*
X8224944Y-13916460D01*
X8224944Y-13916460D02*
X8205896Y-13925984D01*
X8205896Y-13925984D02*
X8186848Y-13925984D01*
X8186848Y-13925984D02*
X8167801Y-13916460D01*
X8167801Y-13916460D02*
X8158277Y-13906936D01*
X8158277Y-13906936D02*
X8148753Y-13887888D01*
X8148753Y-13887888D02*
X8139229Y-13849793D01*
X8139229Y-13849793D02*
X8139229Y-13802174D01*
X8139229Y-13802174D02*
X8148753Y-13764079D01*
X8148753Y-13764079D02*
X8158277Y-13745031D01*
X8158277Y-13745031D02*
X8167801Y-13735508D01*
X8167801Y-13735508D02*
X8186848Y-13725984D01*
X8320182Y-13725984D02*
X8453515Y-13725984D01*
X8453515Y-13725984D02*
X8367801Y-13925984D01*
X8567801Y-13725984D02*
X8586849Y-13725984D01*
X8586849Y-13725984D02*
X8605896Y-13735508D01*
X8605896Y-13735508D02*
X8615420Y-13745031D01*
X8615420Y-13745031D02*
X8624944Y-13764079D01*
X8624944Y-13764079D02*
X8634468Y-13802174D01*
X8634468Y-13802174D02*
X8634468Y-13849793D01*
X8634468Y-13849793D02*
X8624944Y-13887888D01*
X8624944Y-13887888D02*
X8615420Y-13906936D01*
X8615420Y-13906936D02*
X8605896Y-13916460D01*
X8605896Y-13916460D02*
X8586849Y-13925984D01*
X8586849Y-13925984D02*
X8567801Y-13925984D01*
X8567801Y-13925984D02*
X8548753Y-13916460D01*
X8548753Y-13916460D02*
X8539229Y-13906936D01*
X8539229Y-13906936D02*
X8529706Y-13887888D01*
X8529706Y-13887888D02*
X8520182Y-13849793D01*
X8520182Y-13849793D02*
X8520182Y-13802174D01*
X8520182Y-13802174D02*
X8529706Y-13764079D01*
X8529706Y-13764079D02*
X8539229Y-13745031D01*
X8539229Y-13745031D02*
X8548753Y-13735508D01*
X8548753Y-13735508D02*
X8567801Y-13725984D01*
X8729706Y-13925984D02*
X8767801Y-13925984D01*
X8767801Y-13925984D02*
X8786849Y-13916460D01*
X8786849Y-13916460D02*
X8796372Y-13906936D01*
X8796372Y-13906936D02*
X8815420Y-13878365D01*
X8815420Y-13878365D02*
X8824944Y-13840269D01*
X8824944Y-13840269D02*
X8824944Y-13764079D01*
X8824944Y-13764079D02*
X8815420Y-13745031D01*
X8815420Y-13745031D02*
X8805896Y-13735508D01*
X8805896Y-13735508D02*
X8786849Y-13725984D01*
X8786849Y-13725984D02*
X8748753Y-13725984D01*
X8748753Y-13725984D02*
X8729706Y-13735508D01*
X8729706Y-13735508D02*
X8720182Y-13745031D01*
X8720182Y-13745031D02*
X8710658Y-13764079D01*
X8710658Y-13764079D02*
X8710658Y-13811698D01*
X8710658Y-13811698D02*
X8720182Y-13830746D01*
X8720182Y-13830746D02*
X8729706Y-13840269D01*
X8729706Y-13840269D02*
X8748753Y-13849793D01*
X8748753Y-13849793D02*
X8786849Y-13849793D01*
X8786849Y-13849793D02*
X8805896Y-13840269D01*
X8805896Y-13840269D02*
X8815420Y-13830746D01*
X8815420Y-13830746D02*
X8824944Y-13811698D01*
X8901134Y-13725984D02*
X8901134Y-13764079D01*
X8977325Y-13725984D02*
X8977325Y-13764079D01*
X9272563Y-14002174D02*
X9263039Y-13992650D01*
X9263039Y-13992650D02*
X9243991Y-13964079D01*
X9243991Y-13964079D02*
X9234468Y-13945031D01*
X9234468Y-13945031D02*
X9224944Y-13916460D01*
X9224944Y-13916460D02*
X9215420Y-13868841D01*
X9215420Y-13868841D02*
X9215420Y-13830746D01*
X9215420Y-13830746D02*
X9224944Y-13783127D01*
X9224944Y-13783127D02*
X9234468Y-13754555D01*
X9234468Y-13754555D02*
X9243991Y-13735508D01*
X9243991Y-13735508D02*
X9263039Y-13706936D01*
X9263039Y-13706936D02*
X9272563Y-13697412D01*
X9339230Y-13745031D02*
X9348753Y-13735508D01*
X9348753Y-13735508D02*
X9367801Y-13725984D01*
X9367801Y-13725984D02*
X9415420Y-13725984D01*
X9415420Y-13725984D02*
X9434468Y-13735508D01*
X9434468Y-13735508D02*
X9443991Y-13745031D01*
X9443991Y-13745031D02*
X9453515Y-13764079D01*
X9453515Y-13764079D02*
X9453515Y-13783127D01*
X9453515Y-13783127D02*
X9443991Y-13811698D01*
X9443991Y-13811698D02*
X9329706Y-13925984D01*
X9329706Y-13925984D02*
X9453515Y-13925984D01*
X9691611Y-13925984D02*
X9691611Y-13725984D01*
X9777325Y-13925984D02*
X9777325Y-13821222D01*
X9777325Y-13821222D02*
X9767801Y-13802174D01*
X9767801Y-13802174D02*
X9748753Y-13792650D01*
X9748753Y-13792650D02*
X9720182Y-13792650D01*
X9720182Y-13792650D02*
X9701134Y-13802174D01*
X9701134Y-13802174D02*
X9691611Y-13811698D01*
X9901134Y-13925984D02*
X9882087Y-13916460D01*
X9882087Y-13916460D02*
X9872563Y-13906936D01*
X9872563Y-13906936D02*
X9863039Y-13887888D01*
X9863039Y-13887888D02*
X9863039Y-13830746D01*
X9863039Y-13830746D02*
X9872563Y-13811698D01*
X9872563Y-13811698D02*
X9882087Y-13802174D01*
X9882087Y-13802174D02*
X9901134Y-13792650D01*
X9901134Y-13792650D02*
X9929706Y-13792650D01*
X9929706Y-13792650D02*
X9948753Y-13802174D01*
X9948753Y-13802174D02*
X9958277Y-13811698D01*
X9958277Y-13811698D02*
X9967801Y-13830746D01*
X9967801Y-13830746D02*
X9967801Y-13887888D01*
X9967801Y-13887888D02*
X9958277Y-13906936D01*
X9958277Y-13906936D02*
X9948753Y-13916460D01*
X9948753Y-13916460D02*
X9929706Y-13925984D01*
X9929706Y-13925984D02*
X9901134Y-13925984D01*
X10082087Y-13925984D02*
X10063039Y-13916460D01*
X10063039Y-13916460D02*
X10053515Y-13897412D01*
X10053515Y-13897412D02*
X10053515Y-13725984D01*
X10234468Y-13916460D02*
X10215420Y-13925984D01*
X10215420Y-13925984D02*
X10177325Y-13925984D01*
X10177325Y-13925984D02*
X10158277Y-13916460D01*
X10158277Y-13916460D02*
X10148753Y-13897412D01*
X10148753Y-13897412D02*
X10148753Y-13821222D01*
X10148753Y-13821222D02*
X10158277Y-13802174D01*
X10158277Y-13802174D02*
X10177325Y-13792650D01*
X10177325Y-13792650D02*
X10215420Y-13792650D01*
X10215420Y-13792650D02*
X10234468Y-13802174D01*
X10234468Y-13802174D02*
X10243992Y-13821222D01*
X10243992Y-13821222D02*
X10243992Y-13840269D01*
X10243992Y-13840269D02*
X10148753Y-13859317D01*
X10320182Y-13916460D02*
X10339230Y-13925984D01*
X10339230Y-13925984D02*
X10377325Y-13925984D01*
X10377325Y-13925984D02*
X10396373Y-13916460D01*
X10396373Y-13916460D02*
X10405896Y-13897412D01*
X10405896Y-13897412D02*
X10405896Y-13887888D01*
X10405896Y-13887888D02*
X10396373Y-13868841D01*
X10396373Y-13868841D02*
X10377325Y-13859317D01*
X10377325Y-13859317D02*
X10348753Y-13859317D01*
X10348753Y-13859317D02*
X10329706Y-13849793D01*
X10329706Y-13849793D02*
X10320182Y-13830746D01*
X10320182Y-13830746D02*
X10320182Y-13821222D01*
X10320182Y-13821222D02*
X10329706Y-13802174D01*
X10329706Y-13802174D02*
X10348753Y-13792650D01*
X10348753Y-13792650D02*
X10377325Y-13792650D01*
X10377325Y-13792650D02*
X10396373Y-13802174D01*
X10472563Y-14002174D02*
X10482087Y-13992650D01*
X10482087Y-13992650D02*
X10501134Y-13964079D01*
X10501134Y-13964079D02*
X10510658Y-13945031D01*
X10510658Y-13945031D02*
X10520182Y-13916460D01*
X10520182Y-13916460D02*
X10529706Y-13868841D01*
X10529706Y-13868841D02*
X10529706Y-13830746D01*
X10529706Y-13830746D02*
X10520182Y-13783127D01*
X10520182Y-13783127D02*
X10510658Y-13754555D01*
X10510658Y-13754555D02*
X10501134Y-13735508D01*
X10501134Y-13735508D02*
X10482087Y-13706936D01*
X10482087Y-13706936D02*
X10472563Y-13697412D01*
X5597500Y-14234500D02*
X5697500Y-14134500D01*
X5597500Y-14034500D01*
X5497500Y-14134500D01*
X5597500Y-14234500D01*
X5939229Y-14025984D02*
X6063039Y-14025984D01*
X6063039Y-14025984D02*
X5996372Y-14102174D01*
X5996372Y-14102174D02*
X6024943Y-14102174D01*
X6024943Y-14102174D02*
X6043991Y-14111698D01*
X6043991Y-14111698D02*
X6053515Y-14121222D01*
X6053515Y-14121222D02*
X6063039Y-14140269D01*
X6063039Y-14140269D02*
X6063039Y-14187888D01*
X6063039Y-14187888D02*
X6053515Y-14206936D01*
X6053515Y-14206936D02*
X6043991Y-14216460D01*
X6043991Y-14216460D02*
X6024943Y-14225984D01*
X6024943Y-14225984D02*
X5967801Y-14225984D01*
X5967801Y-14225984D02*
X5948753Y-14216460D01*
X5948753Y-14216460D02*
X5939229Y-14206936D01*
X6148753Y-14206936D02*
X6158277Y-14216460D01*
X6158277Y-14216460D02*
X6148753Y-14225984D01*
X6148753Y-14225984D02*
X6139229Y-14216460D01*
X6139229Y-14216460D02*
X6148753Y-14206936D01*
X6148753Y-14206936D02*
X6148753Y-14225984D01*
X6339229Y-14025984D02*
X6243991Y-14025984D01*
X6243991Y-14025984D02*
X6234467Y-14121222D01*
X6234467Y-14121222D02*
X6243991Y-14111698D01*
X6243991Y-14111698D02*
X6263039Y-14102174D01*
X6263039Y-14102174D02*
X6310658Y-14102174D01*
X6310658Y-14102174D02*
X6329705Y-14111698D01*
X6329705Y-14111698D02*
X6339229Y-14121222D01*
X6339229Y-14121222D02*
X6348753Y-14140269D01*
X6348753Y-14140269D02*
X6348753Y-14187888D01*
X6348753Y-14187888D02*
X6339229Y-14206936D01*
X6339229Y-14206936D02*
X6329705Y-14216460D01*
X6329705Y-14216460D02*
X6310658Y-14225984D01*
X6310658Y-14225984D02*
X6263039Y-14225984D01*
X6263039Y-14225984D02*
X6243991Y-14216460D01*
X6243991Y-14216460D02*
X6234467Y-14206936D01*
X6472562Y-14025984D02*
X6491610Y-14025984D01*
X6491610Y-14025984D02*
X6510658Y-14035508D01*
X6510658Y-14035508D02*
X6520182Y-14045031D01*
X6520182Y-14045031D02*
X6529705Y-14064079D01*
X6529705Y-14064079D02*
X6539229Y-14102174D01*
X6539229Y-14102174D02*
X6539229Y-14149793D01*
X6539229Y-14149793D02*
X6529705Y-14187888D01*
X6529705Y-14187888D02*
X6520182Y-14206936D01*
X6520182Y-14206936D02*
X6510658Y-14216460D01*
X6510658Y-14216460D02*
X6491610Y-14225984D01*
X6491610Y-14225984D02*
X6472562Y-14225984D01*
X6472562Y-14225984D02*
X6453515Y-14216460D01*
X6453515Y-14216460D02*
X6443991Y-14206936D01*
X6443991Y-14206936D02*
X6434467Y-14187888D01*
X6434467Y-14187888D02*
X6424943Y-14149793D01*
X6424943Y-14149793D02*
X6424943Y-14102174D01*
X6424943Y-14102174D02*
X6434467Y-14064079D01*
X6434467Y-14064079D02*
X6443991Y-14045031D01*
X6443991Y-14045031D02*
X6453515Y-14035508D01*
X6453515Y-14035508D02*
X6472562Y-14025984D01*
X6663039Y-14025984D02*
X6682086Y-14025984D01*
X6682086Y-14025984D02*
X6701134Y-14035508D01*
X6701134Y-14035508D02*
X6710658Y-14045031D01*
X6710658Y-14045031D02*
X6720182Y-14064079D01*
X6720182Y-14064079D02*
X6729705Y-14102174D01*
X6729705Y-14102174D02*
X6729705Y-14149793D01*
X6729705Y-14149793D02*
X6720182Y-14187888D01*
X6720182Y-14187888D02*
X6710658Y-14206936D01*
X6710658Y-14206936D02*
X6701134Y-14216460D01*
X6701134Y-14216460D02*
X6682086Y-14225984D01*
X6682086Y-14225984D02*
X6663039Y-14225984D01*
X6663039Y-14225984D02*
X6643991Y-14216460D01*
X6643991Y-14216460D02*
X6634467Y-14206936D01*
X6634467Y-14206936D02*
X6624943Y-14187888D01*
X6624943Y-14187888D02*
X6615420Y-14149793D01*
X6615420Y-14149793D02*
X6615420Y-14102174D01*
X6615420Y-14102174D02*
X6624943Y-14064079D01*
X6624943Y-14064079D02*
X6634467Y-14045031D01*
X6634467Y-14045031D02*
X6643991Y-14035508D01*
X6643991Y-14035508D02*
X6663039Y-14025984D01*
X6815420Y-14225984D02*
X6815420Y-14092650D01*
X6815420Y-14111698D02*
X6824943Y-14102174D01*
X6824943Y-14102174D02*
X6843991Y-14092650D01*
X6843991Y-14092650D02*
X6872563Y-14092650D01*
X6872563Y-14092650D02*
X6891610Y-14102174D01*
X6891610Y-14102174D02*
X6901134Y-14121222D01*
X6901134Y-14121222D02*
X6901134Y-14225984D01*
X6901134Y-14121222D02*
X6910658Y-14102174D01*
X6910658Y-14102174D02*
X6929705Y-14092650D01*
X6929705Y-14092650D02*
X6958277Y-14092650D01*
X6958277Y-14092650D02*
X6977324Y-14102174D01*
X6977324Y-14102174D02*
X6986848Y-14121222D01*
X6986848Y-14121222D02*
X6986848Y-14225984D01*
X7082086Y-14225984D02*
X7082086Y-14092650D01*
X7082086Y-14111698D02*
X7091610Y-14102174D01*
X7091610Y-14102174D02*
X7110658Y-14092650D01*
X7110658Y-14092650D02*
X7139229Y-14092650D01*
X7139229Y-14092650D02*
X7158277Y-14102174D01*
X7158277Y-14102174D02*
X7167801Y-14121222D01*
X7167801Y-14121222D02*
X7167801Y-14225984D01*
X7167801Y-14121222D02*
X7177324Y-14102174D01*
X7177324Y-14102174D02*
X7196372Y-14092650D01*
X7196372Y-14092650D02*
X7224943Y-14092650D01*
X7224943Y-14092650D02*
X7243991Y-14102174D01*
X7243991Y-14102174D02*
X7253515Y-14121222D01*
X7253515Y-14121222D02*
X7253515Y-14225984D01*
X7643991Y-14016460D02*
X7472563Y-14273603D01*
X7901134Y-14025984D02*
X7920182Y-14025984D01*
X7920182Y-14025984D02*
X7939229Y-14035508D01*
X7939229Y-14035508D02*
X7948753Y-14045031D01*
X7948753Y-14045031D02*
X7958277Y-14064079D01*
X7958277Y-14064079D02*
X7967801Y-14102174D01*
X7967801Y-14102174D02*
X7967801Y-14149793D01*
X7967801Y-14149793D02*
X7958277Y-14187888D01*
X7958277Y-14187888D02*
X7948753Y-14206936D01*
X7948753Y-14206936D02*
X7939229Y-14216460D01*
X7939229Y-14216460D02*
X7920182Y-14225984D01*
X7920182Y-14225984D02*
X7901134Y-14225984D01*
X7901134Y-14225984D02*
X7882086Y-14216460D01*
X7882086Y-14216460D02*
X7872563Y-14206936D01*
X7872563Y-14206936D02*
X7863039Y-14187888D01*
X7863039Y-14187888D02*
X7853515Y-14149793D01*
X7853515Y-14149793D02*
X7853515Y-14102174D01*
X7853515Y-14102174D02*
X7863039Y-14064079D01*
X7863039Y-14064079D02*
X7872563Y-14045031D01*
X7872563Y-14045031D02*
X7882086Y-14035508D01*
X7882086Y-14035508D02*
X7901134Y-14025984D01*
X8053515Y-14206936D02*
X8063039Y-14216460D01*
X8063039Y-14216460D02*
X8053515Y-14225984D01*
X8053515Y-14225984D02*
X8043991Y-14216460D01*
X8043991Y-14216460D02*
X8053515Y-14206936D01*
X8053515Y-14206936D02*
X8053515Y-14225984D01*
X8253515Y-14225984D02*
X8139229Y-14225984D01*
X8196372Y-14225984D02*
X8196372Y-14025984D01*
X8196372Y-14025984D02*
X8177325Y-14054555D01*
X8177325Y-14054555D02*
X8158277Y-14073603D01*
X8158277Y-14073603D02*
X8139229Y-14083127D01*
X8320182Y-14025984D02*
X8443991Y-14025984D01*
X8443991Y-14025984D02*
X8377325Y-14102174D01*
X8377325Y-14102174D02*
X8405896Y-14102174D01*
X8405896Y-14102174D02*
X8424944Y-14111698D01*
X8424944Y-14111698D02*
X8434468Y-14121222D01*
X8434468Y-14121222D02*
X8443991Y-14140269D01*
X8443991Y-14140269D02*
X8443991Y-14187888D01*
X8443991Y-14187888D02*
X8434468Y-14206936D01*
X8434468Y-14206936D02*
X8424944Y-14216460D01*
X8424944Y-14216460D02*
X8405896Y-14225984D01*
X8405896Y-14225984D02*
X8348753Y-14225984D01*
X8348753Y-14225984D02*
X8329706Y-14216460D01*
X8329706Y-14216460D02*
X8320182Y-14206936D01*
X8510658Y-14025984D02*
X8643991Y-14025984D01*
X8643991Y-14025984D02*
X8558277Y-14225984D01*
X8748753Y-14111698D02*
X8729706Y-14102174D01*
X8729706Y-14102174D02*
X8720182Y-14092650D01*
X8720182Y-14092650D02*
X8710658Y-14073603D01*
X8710658Y-14073603D02*
X8710658Y-14064079D01*
X8710658Y-14064079D02*
X8720182Y-14045031D01*
X8720182Y-14045031D02*
X8729706Y-14035508D01*
X8729706Y-14035508D02*
X8748753Y-14025984D01*
X8748753Y-14025984D02*
X8786849Y-14025984D01*
X8786849Y-14025984D02*
X8805896Y-14035508D01*
X8805896Y-14035508D02*
X8815420Y-14045031D01*
X8815420Y-14045031D02*
X8824944Y-14064079D01*
X8824944Y-14064079D02*
X8824944Y-14073603D01*
X8824944Y-14073603D02*
X8815420Y-14092650D01*
X8815420Y-14092650D02*
X8805896Y-14102174D01*
X8805896Y-14102174D02*
X8786849Y-14111698D01*
X8786849Y-14111698D02*
X8748753Y-14111698D01*
X8748753Y-14111698D02*
X8729706Y-14121222D01*
X8729706Y-14121222D02*
X8720182Y-14130746D01*
X8720182Y-14130746D02*
X8710658Y-14149793D01*
X8710658Y-14149793D02*
X8710658Y-14187888D01*
X8710658Y-14187888D02*
X8720182Y-14206936D01*
X8720182Y-14206936D02*
X8729706Y-14216460D01*
X8729706Y-14216460D02*
X8748753Y-14225984D01*
X8748753Y-14225984D02*
X8786849Y-14225984D01*
X8786849Y-14225984D02*
X8805896Y-14216460D01*
X8805896Y-14216460D02*
X8815420Y-14206936D01*
X8815420Y-14206936D02*
X8824944Y-14187888D01*
X8824944Y-14187888D02*
X8824944Y-14149793D01*
X8824944Y-14149793D02*
X8815420Y-14130746D01*
X8815420Y-14130746D02*
X8805896Y-14121222D01*
X8805896Y-14121222D02*
X8786849Y-14111698D01*
X8901134Y-14025984D02*
X8901134Y-14064079D01*
X8977325Y-14025984D02*
X8977325Y-14064079D01*
X9272563Y-14302174D02*
X9263039Y-14292650D01*
X9263039Y-14292650D02*
X9243991Y-14264079D01*
X9243991Y-14264079D02*
X9234468Y-14245031D01*
X9234468Y-14245031D02*
X9224944Y-14216460D01*
X9224944Y-14216460D02*
X9215420Y-14168841D01*
X9215420Y-14168841D02*
X9215420Y-14130746D01*
X9215420Y-14130746D02*
X9224944Y-14083127D01*
X9224944Y-14083127D02*
X9234468Y-14054555D01*
X9234468Y-14054555D02*
X9243991Y-14035508D01*
X9243991Y-14035508D02*
X9263039Y-14006936D01*
X9263039Y-14006936D02*
X9272563Y-13997412D01*
X9434468Y-14092650D02*
X9434468Y-14225984D01*
X9386849Y-14016460D02*
X9339230Y-14159317D01*
X9339230Y-14159317D02*
X9463039Y-14159317D01*
X9691611Y-14225984D02*
X9691611Y-14025984D01*
X9777325Y-14225984D02*
X9777325Y-14121222D01*
X9777325Y-14121222D02*
X9767801Y-14102174D01*
X9767801Y-14102174D02*
X9748753Y-14092650D01*
X9748753Y-14092650D02*
X9720182Y-14092650D01*
X9720182Y-14092650D02*
X9701134Y-14102174D01*
X9701134Y-14102174D02*
X9691611Y-14111698D01*
X9901134Y-14225984D02*
X9882087Y-14216460D01*
X9882087Y-14216460D02*
X9872563Y-14206936D01*
X9872563Y-14206936D02*
X9863039Y-14187888D01*
X9863039Y-14187888D02*
X9863039Y-14130746D01*
X9863039Y-14130746D02*
X9872563Y-14111698D01*
X9872563Y-14111698D02*
X9882087Y-14102174D01*
X9882087Y-14102174D02*
X9901134Y-14092650D01*
X9901134Y-14092650D02*
X9929706Y-14092650D01*
X9929706Y-14092650D02*
X9948753Y-14102174D01*
X9948753Y-14102174D02*
X9958277Y-14111698D01*
X9958277Y-14111698D02*
X9967801Y-14130746D01*
X9967801Y-14130746D02*
X9967801Y-14187888D01*
X9967801Y-14187888D02*
X9958277Y-14206936D01*
X9958277Y-14206936D02*
X9948753Y-14216460D01*
X9948753Y-14216460D02*
X9929706Y-14225984D01*
X9929706Y-14225984D02*
X9901134Y-14225984D01*
X10082087Y-14225984D02*
X10063039Y-14216460D01*
X10063039Y-14216460D02*
X10053515Y-14197412D01*
X10053515Y-14197412D02*
X10053515Y-14025984D01*
X10234468Y-14216460D02*
X10215420Y-14225984D01*
X10215420Y-14225984D02*
X10177325Y-14225984D01*
X10177325Y-14225984D02*
X10158277Y-14216460D01*
X10158277Y-14216460D02*
X10148753Y-14197412D01*
X10148753Y-14197412D02*
X10148753Y-14121222D01*
X10148753Y-14121222D02*
X10158277Y-14102174D01*
X10158277Y-14102174D02*
X10177325Y-14092650D01*
X10177325Y-14092650D02*
X10215420Y-14092650D01*
X10215420Y-14092650D02*
X10234468Y-14102174D01*
X10234468Y-14102174D02*
X10243992Y-14121222D01*
X10243992Y-14121222D02*
X10243992Y-14140269D01*
X10243992Y-14140269D02*
X10148753Y-14159317D01*
X10320182Y-14216460D02*
X10339230Y-14225984D01*
X10339230Y-14225984D02*
X10377325Y-14225984D01*
X10377325Y-14225984D02*
X10396373Y-14216460D01*
X10396373Y-14216460D02*
X10405896Y-14197412D01*
X10405896Y-14197412D02*
X10405896Y-14187888D01*
X10405896Y-14187888D02*
X10396373Y-14168841D01*
X10396373Y-14168841D02*
X10377325Y-14159317D01*
X10377325Y-14159317D02*
X10348753Y-14159317D01*
X10348753Y-14159317D02*
X10329706Y-14149793D01*
X10329706Y-14149793D02*
X10320182Y-14130746D01*
X10320182Y-14130746D02*
X10320182Y-14121222D01*
X10320182Y-14121222D02*
X10329706Y-14102174D01*
X10329706Y-14102174D02*
X10348753Y-14092650D01*
X10348753Y-14092650D02*
X10377325Y-14092650D01*
X10377325Y-14092650D02*
X10396373Y-14102174D01*
X10472563Y-14302174D02*
X10482087Y-14292650D01*
X10482087Y-14292650D02*
X10501134Y-14264079D01*
X10501134Y-14264079D02*
X10510658Y-14245031D01*
X10510658Y-14245031D02*
X10520182Y-14216460D01*
X10520182Y-14216460D02*
X10529706Y-14168841D01*
X10529706Y-14168841D02*
X10529706Y-14130746D01*
X10529706Y-14130746D02*
X10520182Y-14083127D01*
X10520182Y-14083127D02*
X10510658Y-14054555D01*
X10510658Y-14054555D02*
X10501134Y-14035508D01*
X10501134Y-14035508D02*
X10482087Y-14006936D01*
X10482087Y-14006936D02*
X10472563Y-13997412D01*
M02*
