M48
; DRILL file {KiCad 8.0.8} date 2025-06-20T17:29:54+0900
; FORMAT={-:-/ absolute / inch / decimal}
; #@! TF.CreationDate,2025-06-20T17:29:54+09:00
; #@! TF.GenerationSoftware,Kicad,Pcbnew,8.0.8
; #@! TF.FileFunction,Plated,1,2,PTH
FMAT,2
INCH
; #@! TA.AperFunction,Plated,PTH,ViaDrill
T1C0.0256
; #@! TA.AperFunction,Plated,PTH,ComponentDrill
T2C0.0315
; #@! TA.AperFunction,Plated,PTH,ComponentDrill
T3C0.0335
; #@! TA.AperFunction,Plated,PTH,ComponentDrill
T4C0.0709
; #@! TA.AperFunction,Plated,PTH,ComponentDrill
T5C0.1378
%
G90
G05
T1
X2.874Y-3.189
X2.874Y-3.3071
X2.874Y-3.4252
X2.9921Y-3.189
X2.9921Y-3.3071
X2.9921Y-3.4252
X3.1102Y-3.189
X3.1102Y-3.3071
X3.1102Y-3.4252
X3.8583Y-2.5984
X4.252Y-2.7953
X4.3307Y-2.7953
X4.685Y-3.1496
X4.685Y-3.2677
X4.685Y-3.3858
X4.8031Y-3.1496
X4.8031Y-3.2677
X4.8031Y-3.3858
X4.9213Y-3.1496
X4.9213Y-3.2677
X4.9213Y-3.3858
T2
X2.4959Y-2.7299
X2.4959Y-2.8299
X2.4959Y-2.9299
X2.4959Y-3.0299
X2.4959Y-3.1299
X2.4959Y-3.2299
X2.4959Y-3.3299
X2.4959Y-3.4299
X2.4959Y-3.5299
X2.4959Y-3.6299
X2.4959Y-3.7299
X2.4959Y-3.8299
X2.4959Y-3.9299
X2.4959Y-4.0299
X2.4959Y-4.1299
X2.7559Y-2.2835
X2.9528Y-2.2835
X3.4959Y-2.7299
X3.4959Y-2.8299
X3.4959Y-2.9299
X3.4959Y-3.0299
X3.4959Y-3.1299
X3.4959Y-3.2299
X3.4959Y-3.3299
X3.4959Y-3.4299
X3.4959Y-3.5299
X3.4959Y-3.6299
X3.4959Y-3.7299
X3.4959Y-3.8299
X3.4959Y-3.9299
X3.4959Y-4.0299
X3.4959Y-4.1299
X4.3307Y-2.8732
X4.3307Y-2.9732
X4.3307Y-3.0732
X4.3307Y-3.1732
X4.3307Y-3.2732
X4.3307Y-3.3732
X4.3307Y-3.4732
X4.3307Y-3.5732
X4.3307Y-3.6732
X4.3307Y-3.7732
X4.3307Y-3.8732
X4.3307Y-3.9732
X4.3307Y-4.0732
X4.3307Y-4.1732
X4.3307Y-4.2732
X5.3307Y-2.8732
X5.3307Y-2.9732
X5.3307Y-3.0732
X5.3307Y-3.1732
X5.3307Y-3.2732
X5.3307Y-3.3732
X5.3307Y-3.4732
X5.3307Y-3.5732
X5.3307Y-3.6732
X5.3307Y-3.7732
X5.3307Y-3.8732
X5.3307Y-3.9732
X5.3307Y-4.0732
X5.3307Y-4.1732
X5.3307Y-4.2732
T3
X3.7008Y-3.7402
X3.7008Y-3.8386
X3.7008Y-3.937
X3.7146Y-3.0512
X3.7146Y-3.1496
X3.7146Y-3.248
X3.7146Y-3.3465
X4.0551Y-3.6614
X4.0551Y-3.7598
X4.0551Y-3.8583
X4.0551Y-3.9567
T4
X3.9139Y-4.2164
X3.9139Y-4.433
T5
X2.4409Y-2.3228
X2.4409Y-4.685
X5.3937Y-2.3228
X5.3937Y-4.685
M30
