%TF.GenerationSoftware,KiCad,Pcbnew,8.0.8*%
%TF.CreationDate,2025-06-20T17:29:20+09:00*%
%TF.ProjectId,2ndfloor_pole,326e6466-6c6f-46f7-925f-706f6c652e6b,rev?*%
%TF.SameCoordinates,Original*%
%TF.FileFunction,Soldermask,Bot*%
%TF.FilePolarity,Negative*%
%FSLAX46Y46*%
G04 Gerber Fmt 4.6, Leading zero omitted, Abs format (unit mm)*
G04 Created by KiCad (PCBNEW 8.0.8) date 2025-06-20 17:29:20*
%MOMM*%
%LPD*%
G01*
G04 APERTURE LIST*
G04 Aperture macros list*
%AMRoundRect*
0 Rectangle with rounded corners*
0 $1 Rounding radius*
0 $2 $3 $4 $5 $6 $7 $8 $9 X,Y pos of 4 corners*
0 Add a 4 corners polygon primitive as box body*
4,1,4,$2,$3,$4,$5,$6,$7,$8,$9,$2,$3,0*
0 Add four circle primitives for the rounded corners*
1,1,$1+$1,$2,$3*
1,1,$1+$1,$4,$5*
1,1,$1+$1,$6,$7*
1,1,$1+$1,$8,$9*
0 Add four rect primitives between the rounded corners*
20,1,$1+$1,$2,$3,$4,$5,0*
20,1,$1+$1,$4,$5,$6,$7,0*
20,1,$1+$1,$6,$7,$8,$9,0*
20,1,$1+$1,$8,$9,$2,$3,0*%
G04 Aperture macros list end*
%ADD10RoundRect,0.250000X-0.675000X0.600000X-0.675000X-0.600000X0.675000X-0.600000X0.675000X0.600000X0*%
%ADD11O,1.850000X1.700000*%
%ADD12C,7.000000*%
%ADD13C,1.600000*%
%ADD14C,3.200000*%
%ADD15RoundRect,0.250001X1.099999X1.599999X-1.099999X1.599999X-1.099999X-1.599999X1.099999X-1.599999X0*%
%ADD16O,2.700000X3.700000*%
G04 APERTURE END LIST*
D10*
%TO.C,J4*%
X94000000Y-95000000D03*
D11*
X94000000Y-97500000D03*
X94000000Y-100000000D03*
%TD*%
D12*
%TO.C,H1*%
X137000000Y-59000000D03*
%TD*%
D10*
%TO.C,J3*%
X94350000Y-77500000D03*
D11*
X94350000Y-80000000D03*
X94350000Y-82500000D03*
X94350000Y-85000000D03*
%TD*%
D13*
%TO.C,C1*%
X70000000Y-58000000D03*
X75000000Y-58000000D03*
%TD*%
%TO.C,MOD2*%
X135400000Y-75520000D03*
X110000000Y-75520000D03*
X110000000Y-72980000D03*
X135400000Y-108540000D03*
X135400000Y-106000000D03*
X135400000Y-103460000D03*
X135400000Y-100920000D03*
X135400000Y-98380000D03*
X135400000Y-95840000D03*
X135400000Y-93300000D03*
X135400000Y-90760000D03*
X135400000Y-88220000D03*
X135400000Y-85680000D03*
X135400000Y-83140000D03*
X135400000Y-80600000D03*
X135400000Y-72980000D03*
X135400000Y-78060000D03*
X110000000Y-78060000D03*
X110000000Y-80600000D03*
X110000000Y-83140000D03*
X110000000Y-85680000D03*
X110000000Y-88220000D03*
X110000000Y-90760000D03*
X110000000Y-93300000D03*
X110000000Y-95840000D03*
X110000000Y-98380000D03*
X110000000Y-100920000D03*
X110000000Y-103460000D03*
X110000000Y-106000000D03*
X110000000Y-108540000D03*
%TD*%
D12*
%TO.C,H4*%
X62000000Y-59000000D03*
%TD*%
%TO.C,H2*%
X137000000Y-119000000D03*
%TD*%
D13*
%TO.C,MOD1*%
X63394712Y-102360274D03*
X88794712Y-102360274D03*
X88794712Y-104900274D03*
X63394712Y-69340274D03*
X63394712Y-71880274D03*
X63394712Y-74420274D03*
X63394712Y-76960274D03*
X63394712Y-79500274D03*
X63394712Y-82040274D03*
X63394712Y-84580274D03*
X63394712Y-87120274D03*
X63394712Y-89660274D03*
X63394712Y-92200274D03*
X63394712Y-94740274D03*
X63394712Y-97280274D03*
X63394712Y-104900274D03*
X63394712Y-99820274D03*
X88794712Y-99820274D03*
X88794712Y-97280274D03*
X88794712Y-94740274D03*
X88794712Y-92200274D03*
X88794712Y-89660274D03*
X88794712Y-87120274D03*
X88794712Y-84580274D03*
X88794712Y-82040274D03*
X88794712Y-79500274D03*
X88794712Y-76960274D03*
X88794712Y-74420274D03*
X88794712Y-71880274D03*
X88794712Y-69340274D03*
%TD*%
D10*
%TO.C,J2*%
X103000000Y-93000000D03*
D11*
X103000000Y-95500000D03*
X103000000Y-98000000D03*
X103000000Y-100500000D03*
%TD*%
D14*
%TO.C,J1*%
X103912278Y-116797661D03*
X94912278Y-116797661D03*
D15*
X99412278Y-112597661D03*
D16*
X99412278Y-107097661D03*
%TD*%
D12*
%TO.C,H3*%
X62000000Y-119000000D03*
%TD*%
M02*
