%TF.GenerationSoftware,KiCad,Pcbnew,8.0.8*%
%TF.CreationDate,2025-06-20T17:29:19+09:00*%
%TF.ProjectId,2ndfloor_pole,326e6466-6c6f-46f7-925f-706f6c652e6b,rev?*%
%TF.SameCoordinates,Original*%
%TF.FileFunction,Copper,L1,Top*%
%TF.FilePolarity,Positive*%
%FSLAX46Y46*%
G04 Gerber Fmt 4.6, Leading zero omitted, Abs format (unit mm)*
G04 Created by KiCad (PCBNEW 8.0.8) date 2025-06-20 17:29:19*
%MOMM*%
%LPD*%
G01*
G04 APERTURE LIST*
G04 Aperture macros list*
%AMRoundRect*
0 Rectangle with rounded corners*
0 $1 Rounding radius*
0 $2 $3 $4 $5 $6 $7 $8 $9 X,Y pos of 4 corners*
0 Add a 4 corners polygon primitive as box body*
4,1,4,$2,$3,$4,$5,$6,$7,$8,$9,$2,$3,0*
0 Add four circle primitives for the rounded corners*
1,1,$1+$1,$2,$3*
1,1,$1+$1,$4,$5*
1,1,$1+$1,$6,$7*
1,1,$1+$1,$8,$9*
0 Add four rect primitives between the rounded corners*
20,1,$1+$1,$2,$3,$4,$5,0*
20,1,$1+$1,$4,$5,$6,$7,0*
20,1,$1+$1,$6,$7,$8,$9,0*
20,1,$1+$1,$8,$9,$2,$3,0*%
G04 Aperture macros list end*
%TA.AperFunction,ComponentPad*%
%ADD10RoundRect,0.250000X-0.675000X0.600000X-0.675000X-0.600000X0.675000X-0.600000X0.675000X0.600000X0*%
%TD*%
%TA.AperFunction,ComponentPad*%
%ADD11O,1.850000X1.700000*%
%TD*%
%TA.AperFunction,ComponentPad*%
%ADD12C,7.000000*%
%TD*%
%TA.AperFunction,ComponentPad*%
%ADD13C,1.600000*%
%TD*%
%TA.AperFunction,ComponentPad*%
%ADD14RoundRect,0.250001X1.099999X1.599999X-1.099999X1.599999X-1.099999X-1.599999X1.099999X-1.599999X0*%
%TD*%
%TA.AperFunction,ComponentPad*%
%ADD15O,2.700000X3.700000*%
%TD*%
%TA.AperFunction,SMDPad,CuDef*%
%ADD16R,2.450000X1.000000*%
%TD*%
%TA.AperFunction,SMDPad,CuDef*%
%ADD17R,1.000000X2.450000*%
%TD*%
%TA.AperFunction,ViaPad*%
%ADD18C,1.300000*%
%TD*%
%TA.AperFunction,Conductor*%
%ADD19C,1.500000*%
%TD*%
%TA.AperFunction,Conductor*%
%ADD20C,1.000000*%
%TD*%
G04 APERTURE END LIST*
D10*
%TO.P,J4,1,Pin_1*%
%TO.N,+5V*%
X94000000Y-95000000D03*
D11*
%TO.P,J4,2,Pin_2*%
%TO.N,/PWM_PIN*%
X94000000Y-97500000D03*
%TO.P,J4,3,Pin_3*%
%TO.N,GND*%
X94000000Y-100000000D03*
%TD*%
D12*
%TO.P,H1,1*%
%TO.N,N/C*%
X137000000Y-59000000D03*
%TD*%
D10*
%TO.P,J3,1,Pin_1*%
%TO.N,/SCL*%
X94350000Y-77500000D03*
D11*
%TO.P,J3,2,Pin_2*%
%TO.N,/SDA*%
X94350000Y-80000000D03*
%TO.P,J3,3,Pin_3*%
%TO.N,+5V*%
X94350000Y-82500000D03*
%TO.P,J3,4,Pin_4*%
%TO.N,GND*%
X94350000Y-85000000D03*
%TD*%
D13*
%TO.P,C1,1*%
%TO.N,Net-(C1-Pad1)*%
X70000000Y-58000000D03*
%TO.P,C1,2*%
%TO.N,GND*%
X75000000Y-58000000D03*
%TD*%
%TO.P,MOD2,1,GND*%
%TO.N,GND*%
X135400000Y-75520000D03*
X110000000Y-75520000D03*
%TO.P,MOD2,2,3V3*%
%TO.N,+3.3V*%
X110000000Y-72980000D03*
%TO.P,MOD2,3,EN*%
%TO.N,unconnected-(MOD2-EN-Pad3)*%
X135400000Y-108540000D03*
%TO.P,MOD2,4,SENSOR_VP*%
%TO.N,unconnected-(MOD2-SENSOR_VP-Pad4)*%
X135400000Y-106000000D03*
%TO.P,MOD2,5,SENSOR_VN*%
%TO.N,unconnected-(MOD2-SENSOR_VN-Pad5)*%
X135400000Y-103460000D03*
%TO.P,MOD2,6,IO34*%
%TO.N,unconnected-(MOD2-IO34-Pad6)*%
X135400000Y-100920000D03*
%TO.P,MOD2,7,IO35*%
%TO.N,unconnected-(MOD2-IO35-Pad7)*%
X135400000Y-98380000D03*
%TO.P,MOD2,8,IO32*%
%TO.N,unconnected-(MOD2-IO32-Pad8)*%
X135400000Y-95840000D03*
%TO.P,MOD2,9,IO33*%
%TO.N,unconnected-(MOD2-IO33-Pad9)*%
X135400000Y-93300000D03*
%TO.P,MOD2,10,IO25*%
%TO.N,unconnected-(MOD2-IO25-Pad10)*%
X135400000Y-90760000D03*
%TO.P,MOD2,11,IO26*%
%TO.N,unconnected-(MOD2-IO26-Pad11)*%
X135400000Y-88220000D03*
%TO.P,MOD2,12,IO27*%
%TO.N,unconnected-(MOD2-IO27-Pad12)*%
X135400000Y-85680000D03*
%TO.P,MOD2,13,IO14*%
%TO.N,/CS*%
X135400000Y-83140000D03*
%TO.P,MOD2,14,IO12*%
%TO.N,/CLK*%
X135400000Y-80600000D03*
%TO.P,MOD2,15,VIN*%
%TO.N,+5V*%
X135400000Y-72980000D03*
%TO.P,MOD2,16,IO13*%
%TO.N,/IRQ*%
X135400000Y-78060000D03*
%TO.P,MOD2,23,IO15*%
%TO.N,/RST*%
X110000000Y-78060000D03*
%TO.P,MOD2,24,IO2*%
%TO.N,unconnected-(MOD2-IO2-Pad24)*%
X110000000Y-80600000D03*
%TO.P,MOD2,26,IO4*%
%TO.N,unconnected-(MOD2-IO4-Pad26)*%
X110000000Y-83140000D03*
%TO.P,MOD2,27,IO16*%
%TO.N,unconnected-(MOD2-IO16-Pad27)*%
X110000000Y-85680000D03*
%TO.P,MOD2,28,IO17*%
%TO.N,/UWB_TX*%
X110000000Y-88220000D03*
%TO.P,MOD2,29,IO5*%
%TO.N,unconnected-(MOD2-IO5-Pad29)*%
X110000000Y-90760000D03*
%TO.P,MOD2,30,IO18*%
%TO.N,unconnected-(MOD2-IO18-Pad30)*%
X110000000Y-93300000D03*
%TO.P,MOD2,31,IO19*%
%TO.N,/MISO*%
X110000000Y-95840000D03*
%TO.P,MOD2,33,IO21*%
%TO.N,unconnected-(MOD2-IO21-Pad33)*%
X110000000Y-98380000D03*
%TO.P,MOD2,34,RXD0*%
%TO.N,unconnected-(MOD2-RXD0-Pad34)*%
X110000000Y-100920000D03*
%TO.P,MOD2,35,TXD0*%
%TO.N,unconnected-(MOD2-TXD0-Pad35)*%
X110000000Y-103460000D03*
%TO.P,MOD2,36,IO22*%
%TO.N,unconnected-(MOD2-IO22-Pad36)*%
X110000000Y-106000000D03*
%TO.P,MOD2,37,IO23*%
%TO.N,/MOSI*%
X110000000Y-108540000D03*
%TD*%
D12*
%TO.P,H4,1,1*%
%TO.N,Net-(C1-Pad1)*%
X62000000Y-59000000D03*
%TD*%
%TO.P,H2,1*%
%TO.N,N/C*%
X137000000Y-119000000D03*
%TD*%
D13*
%TO.P,MOD1,1,GND*%
%TO.N,GND*%
X63394712Y-102360274D03*
X88794712Y-102360274D03*
%TO.P,MOD1,2,3V3*%
%TO.N,unconnected-(MOD1-3V3-Pad2)*%
X88794712Y-104900274D03*
%TO.P,MOD1,3,EN*%
%TO.N,unconnected-(MOD1-EN-Pad3)*%
X63394712Y-69340274D03*
%TO.P,MOD1,4,SENSOR_VP*%
%TO.N,unconnected-(MOD1-SENSOR_VP-Pad4)*%
X63394712Y-71880274D03*
%TO.P,MOD1,5,SENSOR_VN*%
%TO.N,unconnected-(MOD1-SENSOR_VN-Pad5)*%
X63394712Y-74420274D03*
%TO.P,MOD1,6,IO34*%
%TO.N,unconnected-(MOD1-IO34-Pad6)*%
X63394712Y-76960274D03*
%TO.P,MOD1,7,IO35*%
%TO.N,unconnected-(MOD1-IO35-Pad7)*%
X63394712Y-79500274D03*
%TO.P,MOD1,8,IO32*%
%TO.N,unconnected-(MOD1-IO32-Pad8)*%
X63394712Y-82040274D03*
%TO.P,MOD1,9,IO33*%
%TO.N,unconnected-(MOD1-IO33-Pad9)*%
X63394712Y-84580274D03*
%TO.P,MOD1,10,IO25*%
%TO.N,unconnected-(MOD1-IO25-Pad10)*%
X63394712Y-87120274D03*
%TO.P,MOD1,11,IO26*%
%TO.N,unconnected-(MOD1-IO26-Pad11)*%
X63394712Y-89660274D03*
%TO.P,MOD1,12,IO27*%
%TO.N,unconnected-(MOD1-IO27-Pad12)*%
X63394712Y-92200274D03*
%TO.P,MOD1,13,IO14*%
%TO.N,unconnected-(MOD1-IO14-Pad13)*%
X63394712Y-94740274D03*
%TO.P,MOD1,14,IO12*%
%TO.N,unconnected-(MOD1-IO12-Pad14)*%
X63394712Y-97280274D03*
%TO.P,MOD1,15,VIN*%
%TO.N,+5V*%
X63394712Y-104900274D03*
%TO.P,MOD1,16,IO13*%
%TO.N,unconnected-(MOD1-IO13-Pad16)*%
X63394712Y-99820274D03*
%TO.P,MOD1,23,IO15*%
%TO.N,/PWM_PIN*%
X88794712Y-99820274D03*
%TO.P,MOD1,24,IO2*%
%TO.N,unconnected-(MOD1-IO2-Pad24)*%
X88794712Y-97280274D03*
%TO.P,MOD1,26,IO4*%
%TO.N,unconnected-(MOD1-IO4-Pad26)*%
X88794712Y-94740274D03*
%TO.P,MOD1,27,IO16*%
%TO.N,/HUSKY_RX*%
X88794712Y-92200274D03*
%TO.P,MOD1,28,IO17*%
%TO.N,/HUSKY_TX*%
X88794712Y-89660274D03*
%TO.P,MOD1,29,IO5*%
%TO.N,unconnected-(MOD1-IO5-Pad29)*%
X88794712Y-87120274D03*
%TO.P,MOD1,30,IO18*%
%TO.N,unconnected-(MOD1-IO18-Pad30)*%
X88794712Y-84580274D03*
%TO.P,MOD1,31,IO19*%
%TO.N,unconnected-(MOD1-IO19-Pad31)*%
X88794712Y-82040274D03*
%TO.P,MOD1,33,IO21*%
%TO.N,/SDA*%
X88794712Y-79500274D03*
%TO.P,MOD1,34,RXD0*%
%TO.N,unconnected-(MOD1-RXD0-Pad34)*%
X88794712Y-76960274D03*
%TO.P,MOD1,35,TXD0*%
%TO.N,unconnected-(MOD1-TXD0-Pad35)*%
X88794712Y-74420274D03*
%TO.P,MOD1,36,IO22*%
%TO.N,/SCL*%
X88794712Y-71880274D03*
%TO.P,MOD1,37,IO23*%
%TO.N,unconnected-(MOD1-IO23-Pad37)*%
X88794712Y-69340274D03*
%TD*%
D10*
%TO.P,J2,1,Pin_1*%
%TO.N,/HUSKY_TX*%
X103000000Y-93000000D03*
D11*
%TO.P,J2,2,Pin_2*%
%TO.N,/HUSKY_RX*%
X103000000Y-95500000D03*
%TO.P,J2,3,Pin_3*%
%TO.N,/UWB_TX*%
X103000000Y-98000000D03*
%TO.P,J2,4,Pin_4*%
%TO.N,GND*%
X103000000Y-100500000D03*
%TD*%
D14*
%TO.P,J1,1,Pin_1*%
%TO.N,+5V*%
X99412278Y-112597661D03*
D15*
%TO.P,J1,2,Pin_2*%
%TO.N,GND*%
X99412278Y-107097661D03*
%TD*%
D12*
%TO.P,H3,1*%
%TO.N,N/C*%
X62000000Y-119000000D03*
%TD*%
D16*
%TO.P,U1,1,EXTON*%
%TO.N,unconnected-(U1-EXTON-Pad1)*%
X92719313Y-59231387D03*
%TO.P,U1,2,WAKEUP*%
%TO.N,unconnected-(U1-WAKEUP-Pad2)*%
X92719313Y-60631387D03*
%TO.P,U1,3,RSTN*%
%TO.N,/RST*%
X92719313Y-62031387D03*
%TO.P,U1,4,GPIO7*%
%TO.N,unconnected-(U1-GPIO7-Pad4)*%
X92719313Y-63431387D03*
%TO.P,U1,5,VDDAON*%
%TO.N,+3.3V*%
X92719313Y-64831387D03*
%TO.P,U1,6,VDD3V3@1*%
X92719313Y-66231387D03*
%TO.P,U1,7,VDD3V3@2*%
X92719313Y-67631387D03*
%TO.P,U1,8,VSS@1*%
%TO.N,GND*%
X92719313Y-69031387D03*
D17*
%TO.P,U1,9,GPIO6*%
%TO.N,unconnected-(U1-GPIO6-Pad9)*%
X94219313Y-71326387D03*
%TO.P,U1,10,GPIO5*%
%TO.N,unconnected-(U1-GPIO5-Pad10)*%
X95619313Y-71326387D03*
%TO.P,U1,11,GPIO4*%
%TO.N,unconnected-(U1-GPIO4-Pad11)*%
X97019313Y-71326387D03*
%TO.P,U1,12,GPIO3*%
%TO.N,unconnected-(U1-GPIO3-Pad12)*%
X98419313Y-71326387D03*
%TO.P,U1,13,GPIO2*%
%TO.N,unconnected-(U1-GPIO2-Pad13)*%
X99819313Y-71326387D03*
%TO.P,U1,14,GPIO1*%
%TO.N,unconnected-(U1-GPIO1-Pad14)*%
X101219313Y-71326387D03*
%TO.P,U1,15,GPIO0*%
%TO.N,unconnected-(U1-GPIO0-Pad15)*%
X102619313Y-71326387D03*
%TO.P,U1,16,VSS@2*%
%TO.N,unconnected-(U1-VSS@2-Pad16)*%
X104019313Y-71326387D03*
D16*
%TO.P,U1,17,SPICSN*%
%TO.N,/CS*%
X105519313Y-69031387D03*
%TO.P,U1,18,SPIMOSI*%
%TO.N,/MOSI*%
X105519313Y-67631387D03*
%TO.P,U1,19,SPIMISO*%
%TO.N,/MISO*%
X105519313Y-66231387D03*
%TO.P,U1,20,SPICLK*%
%TO.N,/CLK*%
X105519313Y-64831387D03*
%TO.P,U1,21,VSS@3*%
%TO.N,GND*%
X105519313Y-63431387D03*
%TO.P,U1,22,IRQ/GPIO8*%
%TO.N,/IRQ*%
X105519313Y-62031387D03*
%TO.P,U1,23,VSS@4*%
%TO.N,GND*%
X105519313Y-60631387D03*
%TO.P,U1,24,VSS@5*%
X105519313Y-59231387D03*
%TD*%
D18*
%TO.N,GND*%
X125000000Y-86000000D03*
X122000000Y-86000000D03*
X119000000Y-83000000D03*
X79000000Y-87000000D03*
X125000000Y-83000000D03*
X76000000Y-84000000D03*
X119000000Y-86000000D03*
X79000000Y-84000000D03*
X73000000Y-87000000D03*
X76000000Y-87000000D03*
X79000000Y-81000000D03*
X76000000Y-81000000D03*
X73000000Y-81000000D03*
X73000000Y-84000000D03*
X125000000Y-80000000D03*
X119000000Y-80000000D03*
X122000000Y-83000000D03*
X122000000Y-80000000D03*
%TO.N,/MOSI*%
X110000000Y-71000000D03*
%TO.N,/RST*%
X98000000Y-66000000D03*
%TO.N,/CS*%
X108000000Y-71000000D03*
%TD*%
D19*
%TO.N,+5V*%
X97000000Y-97075000D02*
X97000000Y-112597661D01*
X94000000Y-95000000D02*
X94925000Y-95000000D01*
X94925000Y-95000000D02*
X97000000Y-97075000D01*
X63394712Y-104900274D02*
X71092099Y-112597661D01*
X139000000Y-74000000D02*
X139000000Y-110000000D01*
X136402339Y-112597661D02*
X99412278Y-112597661D01*
X96225000Y-83225000D02*
X95500000Y-82500000D01*
X95500000Y-82500000D02*
X94350000Y-82500000D01*
X139000000Y-110000000D02*
X136402339Y-112597661D01*
X96000000Y-112597661D02*
X97000000Y-112597661D01*
X94000000Y-95000000D02*
X96225000Y-92775000D01*
X96225000Y-92775000D02*
X96225000Y-83225000D01*
X71092099Y-112597661D02*
X96000000Y-112597661D01*
X97000000Y-112597661D02*
X99412278Y-112597661D01*
X135400000Y-72980000D02*
X137980000Y-72980000D01*
X137980000Y-72980000D02*
X139000000Y-74000000D01*
D20*
%TO.N,/SDA*%
X93850274Y-79500274D02*
X94350000Y-80000000D01*
X88794712Y-79500274D02*
X93850274Y-79500274D01*
%TO.N,/SCL*%
X88794712Y-71880274D02*
X88794712Y-71944712D01*
X88885854Y-71898311D02*
X88898311Y-71898311D01*
%TO.N,/PWM_PIN*%
X91679726Y-99820274D02*
X94000000Y-97500000D01*
X88794712Y-99820274D02*
X91679726Y-99820274D01*
%TO.N,/CLK*%
X119631387Y-64831387D02*
X135400000Y-80600000D01*
X105519313Y-64831387D02*
X119631387Y-64831387D01*
%TO.N,/MOSI*%
X107244313Y-67631387D02*
X110000000Y-70387074D01*
X105519313Y-67631387D02*
X107244313Y-67631387D01*
X110000000Y-70387074D02*
X110000000Y-71000000D01*
%TO.N,+3.3V*%
X90794313Y-67831387D02*
X90794313Y-71026387D01*
X92719313Y-67631387D02*
X90994313Y-67631387D01*
X90994313Y-67631387D02*
X90794313Y-67831387D01*
X93019313Y-73251387D02*
X109728613Y-73251387D01*
X90794313Y-71026387D02*
X93019313Y-73251387D01*
X109728613Y-73251387D02*
X110000000Y-72980000D01*
X92719313Y-64831387D02*
X92719313Y-67631387D01*
%TO.N,/MISO*%
X105519313Y-66231387D02*
X107744313Y-66231387D01*
X107744313Y-66231387D02*
X111500000Y-69987074D01*
X111500000Y-69987074D02*
X111500000Y-94340000D01*
X111500000Y-94340000D02*
X110000000Y-95840000D01*
%TO.N,/RST*%
X94444313Y-62031387D02*
X98000000Y-65587074D01*
X92719313Y-62031387D02*
X94444313Y-62031387D01*
%TO.N,/CS*%
X106031387Y-69031387D02*
X108000000Y-71000000D01*
X105519313Y-69031387D02*
X106031387Y-69031387D01*
%TO.N,/IRQ*%
X119371387Y-62031387D02*
X135400000Y-78060000D01*
X105519313Y-62031387D02*
X119371387Y-62031387D01*
%TD*%
%TA.AperFunction,Conductor*%
%TO.N,+3.3V*%
G36*
X109692024Y-72245354D02*
G01*
X109698328Y-72251664D01*
X110000101Y-72977836D01*
X110000997Y-72982341D01*
X110000014Y-73768096D01*
X109996577Y-73776364D01*
X109988299Y-73779781D01*
X109988098Y-73779779D01*
X108465466Y-73751599D01*
X108457257Y-73748020D01*
X108453982Y-73739901D01*
X108453982Y-72759222D01*
X108457409Y-72750949D01*
X108461225Y-72748404D01*
X109683071Y-72245335D01*
X109692024Y-72245354D01*
G37*
%TD.AperFunction*%
%TD*%
%TA.AperFunction,Conductor*%
%TO.N,GND*%
G36*
X119232644Y-65851572D02*
G01*
X119253286Y-65868206D01*
X134073112Y-80688032D01*
X134106597Y-80749355D01*
X134108959Y-80764905D01*
X134114364Y-80826687D01*
X134114366Y-80826697D01*
X134173258Y-81046488D01*
X134173261Y-81046497D01*
X134269431Y-81252732D01*
X134269432Y-81252734D01*
X134399954Y-81439141D01*
X134560858Y-81600045D01*
X134560861Y-81600047D01*
X134747266Y-81730568D01*
X134805275Y-81757618D01*
X134857714Y-81803791D01*
X134876866Y-81870984D01*
X134856650Y-81937865D01*
X134805275Y-81982382D01*
X134747267Y-82009431D01*
X134747265Y-82009432D01*
X134560858Y-82139954D01*
X134399954Y-82300858D01*
X134269432Y-82487265D01*
X134269431Y-82487267D01*
X134173261Y-82693502D01*
X134173258Y-82693511D01*
X134114366Y-82913302D01*
X134114364Y-82913313D01*
X134094532Y-83139998D01*
X134094532Y-83140001D01*
X134114364Y-83366686D01*
X134114366Y-83366697D01*
X134173258Y-83586488D01*
X134173261Y-83586497D01*
X134269431Y-83792732D01*
X134269432Y-83792734D01*
X134399954Y-83979141D01*
X134560858Y-84140045D01*
X134560861Y-84140047D01*
X134747266Y-84270568D01*
X134794175Y-84292442D01*
X134805275Y-84297618D01*
X134857714Y-84343791D01*
X134876866Y-84410984D01*
X134856650Y-84477865D01*
X134805275Y-84522382D01*
X134747267Y-84549431D01*
X134747265Y-84549432D01*
X134560858Y-84679954D01*
X134399954Y-84840858D01*
X134269432Y-85027265D01*
X134269431Y-85027267D01*
X134173261Y-85233502D01*
X134173258Y-85233511D01*
X134114366Y-85453302D01*
X134114364Y-85453313D01*
X134094532Y-85679998D01*
X134094532Y-85680001D01*
X134114364Y-85906686D01*
X134114366Y-85906697D01*
X134173258Y-86126488D01*
X134173261Y-86126497D01*
X134269431Y-86332732D01*
X134269432Y-86332734D01*
X134399954Y-86519141D01*
X134560858Y-86680045D01*
X134560861Y-86680047D01*
X134747266Y-86810568D01*
X134805275Y-86837618D01*
X134857714Y-86883791D01*
X134876866Y-86950984D01*
X134856650Y-87017865D01*
X134805275Y-87062382D01*
X134747267Y-87089431D01*
X134747265Y-87089432D01*
X134560858Y-87219954D01*
X134399954Y-87380858D01*
X134269432Y-87567265D01*
X134269431Y-87567267D01*
X134173261Y-87773502D01*
X134173258Y-87773511D01*
X134114366Y-87993302D01*
X134114364Y-87993313D01*
X134094532Y-88219998D01*
X134094532Y-88220001D01*
X134114364Y-88446686D01*
X134114366Y-88446697D01*
X134173258Y-88666488D01*
X134173261Y-88666497D01*
X134269431Y-88872732D01*
X134269432Y-88872734D01*
X134399954Y-89059141D01*
X134560858Y-89220045D01*
X134560861Y-89220047D01*
X134747266Y-89350568D01*
X134805275Y-89377618D01*
X134857714Y-89423791D01*
X134876866Y-89490984D01*
X134856650Y-89557865D01*
X134805275Y-89602382D01*
X134747267Y-89629431D01*
X134747265Y-89629432D01*
X134560858Y-89759954D01*
X134399954Y-89920858D01*
X134269432Y-90107265D01*
X134269431Y-90107267D01*
X134173261Y-90313502D01*
X134173258Y-90313511D01*
X134114366Y-90533302D01*
X134114364Y-90533313D01*
X134094532Y-90759998D01*
X134094532Y-90760001D01*
X134114364Y-90986686D01*
X134114366Y-90986697D01*
X134173258Y-91206488D01*
X134173261Y-91206497D01*
X134269431Y-91412732D01*
X134269432Y-91412734D01*
X134399954Y-91599141D01*
X134560858Y-91760045D01*
X134560861Y-91760047D01*
X134747266Y-91890568D01*
X134805275Y-91917618D01*
X134857714Y-91963791D01*
X134876866Y-92030984D01*
X134856650Y-92097865D01*
X134805275Y-92142382D01*
X134747267Y-92169431D01*
X134747265Y-92169432D01*
X134560858Y-92299954D01*
X134399954Y-92460858D01*
X134269432Y-92647265D01*
X134269431Y-92647267D01*
X134173261Y-92853502D01*
X134173258Y-92853511D01*
X134114366Y-93073302D01*
X134114364Y-93073313D01*
X134094532Y-93299998D01*
X134094532Y-93300001D01*
X134114364Y-93526686D01*
X134114366Y-93526697D01*
X134173258Y-93746488D01*
X134173261Y-93746497D01*
X134269431Y-93952732D01*
X134269432Y-93952734D01*
X134399954Y-94139141D01*
X134560858Y-94300045D01*
X134560861Y-94300047D01*
X134747266Y-94430568D01*
X134788550Y-94449819D01*
X134805275Y-94457618D01*
X134857714Y-94503791D01*
X134876866Y-94570984D01*
X134856650Y-94637865D01*
X134805275Y-94682382D01*
X134747267Y-94709431D01*
X134747265Y-94709432D01*
X134560858Y-94839954D01*
X134399954Y-95000858D01*
X134269432Y-95187265D01*
X134269431Y-95187267D01*
X134173261Y-95393502D01*
X134173258Y-95393511D01*
X134114366Y-95613302D01*
X134114364Y-95613313D01*
X134094532Y-95839998D01*
X134094532Y-95840001D01*
X134114364Y-96066686D01*
X134114366Y-96066697D01*
X134173258Y-96286488D01*
X134173261Y-96286497D01*
X134269431Y-96492732D01*
X134269432Y-96492734D01*
X134399954Y-96679141D01*
X134560858Y-96840045D01*
X134560861Y-96840047D01*
X134747266Y-96970568D01*
X134805275Y-96997618D01*
X134857714Y-97043791D01*
X134876866Y-97110984D01*
X134856650Y-97177865D01*
X134805275Y-97222382D01*
X134747267Y-97249431D01*
X134747265Y-97249432D01*
X134560858Y-97379954D01*
X134399954Y-97540858D01*
X134269432Y-97727265D01*
X134269431Y-97727267D01*
X134173261Y-97933502D01*
X134173258Y-97933511D01*
X134114366Y-98153302D01*
X134114364Y-98153313D01*
X134094532Y-98379998D01*
X134094532Y-98380001D01*
X134114364Y-98606686D01*
X134114366Y-98606697D01*
X134173258Y-98826488D01*
X134173261Y-98826497D01*
X134269431Y-99032732D01*
X134269432Y-99032734D01*
X134399954Y-99219141D01*
X134560858Y-99380045D01*
X134560861Y-99380047D01*
X134747266Y-99510568D01*
X134805275Y-99537618D01*
X134857714Y-99583791D01*
X134876866Y-99650984D01*
X134856650Y-99717865D01*
X134805275Y-99762382D01*
X134747267Y-99789431D01*
X134747265Y-99789432D01*
X134560858Y-99919954D01*
X134399954Y-100080858D01*
X134269432Y-100267265D01*
X134269431Y-100267267D01*
X134173261Y-100473502D01*
X134173258Y-100473511D01*
X134114366Y-100693302D01*
X134114364Y-100693313D01*
X134094532Y-100919998D01*
X134094532Y-100920001D01*
X134114364Y-101146686D01*
X134114366Y-101146697D01*
X134173258Y-101366488D01*
X134173261Y-101366497D01*
X134269431Y-101572732D01*
X134269432Y-101572734D01*
X134399954Y-101759141D01*
X134560858Y-101920045D01*
X134560861Y-101920047D01*
X134747266Y-102050568D01*
X134805275Y-102077618D01*
X134857714Y-102123791D01*
X134876866Y-102190984D01*
X134856650Y-102257865D01*
X134805275Y-102302382D01*
X134747267Y-102329431D01*
X134747265Y-102329432D01*
X134560858Y-102459954D01*
X134399954Y-102620858D01*
X134269432Y-102807265D01*
X134269431Y-102807267D01*
X134173261Y-103013502D01*
X134173258Y-103013511D01*
X134114366Y-103233302D01*
X134114364Y-103233313D01*
X134094532Y-103459998D01*
X134094532Y-103460001D01*
X134114364Y-103686686D01*
X134114366Y-103686697D01*
X134173258Y-103906488D01*
X134173261Y-103906497D01*
X134269431Y-104112732D01*
X134269432Y-104112734D01*
X134399954Y-104299141D01*
X134560858Y-104460045D01*
X134560861Y-104460047D01*
X134747266Y-104590568D01*
X134805275Y-104617618D01*
X134857714Y-104663791D01*
X134876866Y-104730984D01*
X134856650Y-104797865D01*
X134805275Y-104842382D01*
X134747267Y-104869431D01*
X134747265Y-104869432D01*
X134560858Y-104999954D01*
X134399954Y-105160858D01*
X134269432Y-105347265D01*
X134269431Y-105347267D01*
X134173261Y-105553502D01*
X134173258Y-105553511D01*
X134114366Y-105773302D01*
X134114364Y-105773313D01*
X134094532Y-105999998D01*
X134094532Y-106000001D01*
X134114364Y-106226686D01*
X134114366Y-106226697D01*
X134173258Y-106446488D01*
X134173261Y-106446497D01*
X134269431Y-106652732D01*
X134269432Y-106652734D01*
X134399954Y-106839141D01*
X134560858Y-107000045D01*
X134560861Y-107000047D01*
X134747266Y-107130568D01*
X134805275Y-107157618D01*
X134857714Y-107203791D01*
X134876866Y-107270984D01*
X134856650Y-107337865D01*
X134805275Y-107382382D01*
X134747267Y-107409431D01*
X134747265Y-107409432D01*
X134560858Y-107539954D01*
X134399954Y-107700858D01*
X134269432Y-107887265D01*
X134269431Y-107887267D01*
X134173261Y-108093502D01*
X134173258Y-108093511D01*
X134114366Y-108313302D01*
X134114364Y-108313313D01*
X134094532Y-108539998D01*
X134094532Y-108540001D01*
X134114364Y-108766686D01*
X134114366Y-108766697D01*
X134173258Y-108986488D01*
X134173261Y-108986497D01*
X134269431Y-109192732D01*
X134269432Y-109192734D01*
X134399954Y-109379141D01*
X134560858Y-109540045D01*
X134560861Y-109540047D01*
X134747266Y-109670568D01*
X134953504Y-109766739D01*
X135173308Y-109825635D01*
X135335230Y-109839801D01*
X135399998Y-109845468D01*
X135400000Y-109845468D01*
X135400002Y-109845468D01*
X135456673Y-109840509D01*
X135626692Y-109825635D01*
X135846496Y-109766739D01*
X136052734Y-109670568D01*
X136239139Y-109540047D01*
X136400047Y-109379139D01*
X136530568Y-109192734D01*
X136626739Y-108986496D01*
X136685635Y-108766692D01*
X136705468Y-108540000D01*
X136685635Y-108313308D01*
X136626739Y-108093504D01*
X136530568Y-107887266D01*
X136400047Y-107700861D01*
X136400045Y-107700858D01*
X136239141Y-107539954D01*
X136052734Y-107409432D01*
X136052728Y-107409429D01*
X135994725Y-107382382D01*
X135942285Y-107336210D01*
X135923133Y-107269017D01*
X135943348Y-107202135D01*
X135994725Y-107157618D01*
X136052734Y-107130568D01*
X136239139Y-107000047D01*
X136400047Y-106839139D01*
X136530568Y-106652734D01*
X136626739Y-106446496D01*
X136685635Y-106226692D01*
X136702770Y-106030840D01*
X136705468Y-106000001D01*
X136705468Y-105999998D01*
X136696747Y-105900319D01*
X136685635Y-105773308D01*
X136626739Y-105553504D01*
X136530568Y-105347266D01*
X136400047Y-105160861D01*
X136400045Y-105160858D01*
X136239141Y-104999954D01*
X136052734Y-104869432D01*
X136052728Y-104869429D01*
X135994725Y-104842382D01*
X135942285Y-104796210D01*
X135923133Y-104729017D01*
X135943348Y-104662135D01*
X135994725Y-104617618D01*
X136052734Y-104590568D01*
X136239139Y-104460047D01*
X136400047Y-104299139D01*
X136530568Y-104112734D01*
X136626739Y-103906496D01*
X136685635Y-103686692D01*
X136705468Y-103460000D01*
X136685635Y-103233308D01*
X136626739Y-103013504D01*
X136530568Y-102807266D01*
X136400047Y-102620861D01*
X136400045Y-102620858D01*
X136239141Y-102459954D01*
X136052734Y-102329432D01*
X136052728Y-102329429D01*
X135994725Y-102302382D01*
X135942285Y-102256210D01*
X135923133Y-102189017D01*
X135943348Y-102122135D01*
X135994725Y-102077618D01*
X136052734Y-102050568D01*
X136239139Y-101920047D01*
X136400047Y-101759139D01*
X136530568Y-101572734D01*
X136626739Y-101366496D01*
X136685635Y-101146692D01*
X136702634Y-100952384D01*
X136705468Y-100920001D01*
X136705468Y-100919998D01*
X136691553Y-100760956D01*
X136685635Y-100693308D01*
X136626739Y-100473504D01*
X136530568Y-100267266D01*
X136400047Y-100080861D01*
X136400045Y-100080858D01*
X136239141Y-99919954D01*
X136052734Y-99789432D01*
X136052728Y-99789429D01*
X135994725Y-99762382D01*
X135942285Y-99716210D01*
X135923133Y-99649017D01*
X135943348Y-99582135D01*
X135994725Y-99537618D01*
X136052734Y-99510568D01*
X136239139Y-99380047D01*
X136400047Y-99219139D01*
X136530568Y-99032734D01*
X136626739Y-98826496D01*
X136685635Y-98606692D01*
X136702634Y-98412384D01*
X136705468Y-98380001D01*
X136705468Y-98379998D01*
X136685635Y-98153313D01*
X136685635Y-98153308D01*
X136626739Y-97933504D01*
X136530568Y-97727266D01*
X136400047Y-97540861D01*
X136400045Y-97540858D01*
X136239141Y-97379954D01*
X136052734Y-97249432D01*
X136052728Y-97249429D01*
X135994725Y-97222382D01*
X135942285Y-97176210D01*
X135923133Y-97109017D01*
X135943348Y-97042135D01*
X135994725Y-96997618D01*
X136052734Y-96970568D01*
X136239139Y-96840047D01*
X136400047Y-96679139D01*
X136530568Y-96492734D01*
X136626739Y-96286496D01*
X136685635Y-96066692D01*
X136702634Y-95872384D01*
X136705468Y-95840001D01*
X136705468Y-95839998D01*
X136696747Y-95740319D01*
X136685635Y-95613308D01*
X136626739Y-95393504D01*
X136530568Y-95187266D01*
X136400047Y-95000861D01*
X136400045Y-95000858D01*
X136239141Y-94839954D01*
X136052734Y-94709432D01*
X136052728Y-94709429D01*
X135994725Y-94682382D01*
X135942285Y-94636210D01*
X135923133Y-94569017D01*
X135943348Y-94502135D01*
X135994725Y-94457618D01*
X136011450Y-94449819D01*
X136052734Y-94430568D01*
X136239139Y-94300047D01*
X136400047Y-94139139D01*
X136530568Y-93952734D01*
X136626739Y-93746496D01*
X136685635Y-93526692D01*
X136702634Y-93332384D01*
X136705468Y-93300001D01*
X136705468Y-93299998D01*
X136685635Y-93073313D01*
X136685635Y-93073308D01*
X136626739Y-92853504D01*
X136530568Y-92647266D01*
X136400047Y-92460861D01*
X136400045Y-92460858D01*
X136239141Y-92299954D01*
X136052734Y-92169432D01*
X136052728Y-92169429D01*
X135994725Y-92142382D01*
X135942285Y-92096210D01*
X135923133Y-92029017D01*
X135943348Y-91962135D01*
X135994725Y-91917618D01*
X136052734Y-91890568D01*
X136239139Y-91760047D01*
X136400047Y-91599139D01*
X136530568Y-91412734D01*
X136626739Y-91206496D01*
X136685635Y-90986692D01*
X136702634Y-90792384D01*
X136705468Y-90760001D01*
X136705468Y-90759998D01*
X136685635Y-90533313D01*
X136685635Y-90533308D01*
X136626739Y-90313504D01*
X136530568Y-90107266D01*
X136400047Y-89920861D01*
X136400045Y-89920858D01*
X136239141Y-89759954D01*
X136052734Y-89629432D01*
X136052728Y-89629429D01*
X135994725Y-89602382D01*
X135942285Y-89556210D01*
X135923133Y-89489017D01*
X135943348Y-89422135D01*
X135994725Y-89377618D01*
X136052734Y-89350568D01*
X136239139Y-89220047D01*
X136400047Y-89059139D01*
X136530568Y-88872734D01*
X136626739Y-88666496D01*
X136685635Y-88446692D01*
X136702634Y-88252384D01*
X136705468Y-88220001D01*
X136705468Y-88219998D01*
X136685635Y-87993313D01*
X136685635Y-87993308D01*
X136626739Y-87773504D01*
X136530568Y-87567266D01*
X136400047Y-87380861D01*
X136400045Y-87380858D01*
X136239141Y-87219954D01*
X136052734Y-87089432D01*
X136052728Y-87089429D01*
X135994725Y-87062382D01*
X135942285Y-87016210D01*
X135923133Y-86949017D01*
X135943348Y-86882135D01*
X135994725Y-86837618D01*
X136052734Y-86810568D01*
X136239139Y-86680047D01*
X136400047Y-86519139D01*
X136530568Y-86332734D01*
X136626739Y-86126496D01*
X136685635Y-85906692D01*
X136702634Y-85712384D01*
X136705468Y-85680001D01*
X136705468Y-85679998D01*
X136685635Y-85453313D01*
X136685635Y-85453308D01*
X136626739Y-85233504D01*
X136530568Y-85027266D01*
X136400047Y-84840861D01*
X136400045Y-84840858D01*
X136239141Y-84679954D01*
X136052734Y-84549432D01*
X136052728Y-84549429D01*
X135994725Y-84522382D01*
X135942285Y-84476210D01*
X135923133Y-84409017D01*
X135943348Y-84342135D01*
X135994725Y-84297618D01*
X136005825Y-84292442D01*
X136052734Y-84270568D01*
X136239139Y-84140047D01*
X136400047Y-83979139D01*
X136530568Y-83792734D01*
X136626739Y-83586496D01*
X136685635Y-83366692D01*
X136702634Y-83172384D01*
X136705468Y-83140001D01*
X136705468Y-83139998D01*
X136696747Y-83040319D01*
X136685635Y-82913308D01*
X136626739Y-82693504D01*
X136530568Y-82487266D01*
X136400047Y-82300861D01*
X136400045Y-82300858D01*
X136239141Y-82139954D01*
X136052734Y-82009432D01*
X136052728Y-82009429D01*
X135994725Y-81982382D01*
X135942285Y-81936210D01*
X135923133Y-81869017D01*
X135943348Y-81802135D01*
X135994725Y-81757618D01*
X136052734Y-81730568D01*
X136239139Y-81600047D01*
X136400047Y-81439139D01*
X136530568Y-81252734D01*
X136626739Y-81046496D01*
X136685635Y-80826692D01*
X136702634Y-80632384D01*
X136705468Y-80600001D01*
X136705468Y-80599998D01*
X136685635Y-80373313D01*
X136685635Y-80373308D01*
X136626739Y-80153504D01*
X136530568Y-79947266D01*
X136400047Y-79760861D01*
X136400045Y-79760858D01*
X136239141Y-79599954D01*
X136052734Y-79469432D01*
X136052728Y-79469429D01*
X135994725Y-79442382D01*
X135942285Y-79396210D01*
X135923133Y-79329017D01*
X135943348Y-79262135D01*
X135994725Y-79217618D01*
X136052734Y-79190568D01*
X136239139Y-79060047D01*
X136400047Y-78899139D01*
X136530568Y-78712734D01*
X136626739Y-78506496D01*
X136685635Y-78286692D01*
X136702634Y-78092384D01*
X136705468Y-78060001D01*
X136705468Y-78059998D01*
X136685635Y-77833313D01*
X136685635Y-77833308D01*
X136626739Y-77613504D01*
X136530568Y-77407266D01*
X136400047Y-77220861D01*
X136400045Y-77220858D01*
X136239141Y-77059954D01*
X136052735Y-76929433D01*
X136052736Y-76929433D01*
X136052734Y-76929432D01*
X135994132Y-76902105D01*
X135941694Y-76855933D01*
X135922543Y-76788739D01*
X135942759Y-76721858D01*
X135994135Y-76677341D01*
X136052482Y-76650133D01*
X136125471Y-76599024D01*
X135446446Y-75920000D01*
X135452661Y-75920000D01*
X135554394Y-75892741D01*
X135645606Y-75840080D01*
X135720080Y-75765606D01*
X135772741Y-75674394D01*
X135800000Y-75572661D01*
X135800000Y-75566447D01*
X136479024Y-76245471D01*
X136530136Y-76172478D01*
X136626264Y-75966331D01*
X136626269Y-75966317D01*
X136685139Y-75746610D01*
X136685141Y-75746599D01*
X136704966Y-75520002D01*
X136704966Y-75519997D01*
X136685141Y-75293400D01*
X136685139Y-75293389D01*
X136626269Y-75073682D01*
X136626264Y-75073668D01*
X136530136Y-74867521D01*
X136530132Y-74867513D01*
X136479025Y-74794526D01*
X135800000Y-75473551D01*
X135800000Y-75467339D01*
X135772741Y-75365606D01*
X135720080Y-75274394D01*
X135645606Y-75199920D01*
X135554394Y-75147259D01*
X135452661Y-75120000D01*
X135446445Y-75120000D01*
X136125472Y-74440974D01*
X136124305Y-74427634D01*
X136103413Y-74401497D01*
X136096221Y-74331998D01*
X136127744Y-74269644D01*
X136187974Y-74234231D01*
X136218162Y-74230500D01*
X137410664Y-74230500D01*
X137477703Y-74250185D01*
X137498345Y-74266819D01*
X137713181Y-74481655D01*
X137746666Y-74542978D01*
X137749500Y-74569336D01*
X137749500Y-109430664D01*
X137729815Y-109497703D01*
X137713181Y-109518345D01*
X135920684Y-111310842D01*
X135859361Y-111344327D01*
X135833003Y-111347161D01*
X101386778Y-111347161D01*
X101319739Y-111327476D01*
X101273984Y-111274672D01*
X101262778Y-111223161D01*
X101262778Y-110947658D01*
X101262777Y-110947645D01*
X101252277Y-110844865D01*
X101252277Y-110844864D01*
X101197092Y-110678327D01*
X101104989Y-110529006D01*
X100980933Y-110404950D01*
X100980929Y-110404947D01*
X100831615Y-110312848D01*
X100831613Y-110312847D01*
X100748343Y-110285254D01*
X100665075Y-110257662D01*
X100665073Y-110257661D01*
X100562293Y-110247161D01*
X100562286Y-110247161D01*
X98374500Y-110247161D01*
X98307461Y-110227476D01*
X98261706Y-110174672D01*
X98250500Y-110123161D01*
X98250500Y-109277878D01*
X98270185Y-109210839D01*
X98322989Y-109165084D01*
X98392147Y-109155140D01*
X98436500Y-109170491D01*
X98592284Y-109260433D01*
X98592299Y-109260440D01*
X98816338Y-109353239D01*
X99050590Y-109416007D01*
X99162278Y-109430710D01*
X99162278Y-107965565D01*
X99323636Y-107997661D01*
X99500920Y-107997661D01*
X99662278Y-107965565D01*
X99662278Y-109430709D01*
X99773965Y-109416007D01*
X100008217Y-109353239D01*
X100232256Y-109260440D01*
X100232271Y-109260433D01*
X100442287Y-109139180D01*
X100634683Y-108991550D01*
X100634690Y-108991544D01*
X100806161Y-108820073D01*
X100806167Y-108820066D01*
X100953797Y-108627670D01*
X101075050Y-108417654D01*
X101075057Y-108417639D01*
X101167856Y-108193600D01*
X101230624Y-107959348D01*
X101262276Y-107718925D01*
X101262278Y-107718909D01*
X101262278Y-107347661D01*
X100280182Y-107347661D01*
X100312278Y-107186303D01*
X100312278Y-107009019D01*
X100280182Y-106847661D01*
X101262278Y-106847661D01*
X101262278Y-106476412D01*
X101262276Y-106476396D01*
X101230624Y-106235973D01*
X101167856Y-106001721D01*
X101075057Y-105777682D01*
X101075050Y-105777667D01*
X100953797Y-105567651D01*
X100806167Y-105375255D01*
X100806161Y-105375248D01*
X100634690Y-105203777D01*
X100634683Y-105203771D01*
X100442287Y-105056141D01*
X100232271Y-104934888D01*
X100232256Y-104934881D01*
X100008217Y-104842082D01*
X99773965Y-104779314D01*
X99662278Y-104764609D01*
X99662278Y-106229756D01*
X99500920Y-106197661D01*
X99323636Y-106197661D01*
X99162278Y-106229756D01*
X99162278Y-104764609D01*
X99162277Y-104764609D01*
X99050590Y-104779314D01*
X98816338Y-104842082D01*
X98592299Y-104934881D01*
X98592289Y-104934886D01*
X98436499Y-105024831D01*
X98368599Y-105041303D01*
X98302572Y-105018450D01*
X98259382Y-104963528D01*
X98250500Y-104917443D01*
X98250500Y-96976577D01*
X98219709Y-96782173D01*
X98178404Y-96655052D01*
X98178404Y-96655050D01*
X98158886Y-96594979D01*
X98158884Y-96594973D01*
X98096822Y-96473171D01*
X98069524Y-96419595D01*
X97953828Y-96260354D01*
X96318655Y-94625181D01*
X96285170Y-94563858D01*
X96290154Y-94494166D01*
X96318655Y-94449819D01*
X96699818Y-94068656D01*
X97178828Y-93589646D01*
X97294524Y-93430405D01*
X97383884Y-93255026D01*
X97444709Y-93067826D01*
X97449209Y-93039413D01*
X97475500Y-92873422D01*
X97475500Y-92349983D01*
X101574500Y-92349983D01*
X101574500Y-93650001D01*
X101574501Y-93650018D01*
X101585000Y-93752796D01*
X101585001Y-93752799D01*
X101640185Y-93919331D01*
X101640187Y-93919336D01*
X101647594Y-93931344D01*
X101732288Y-94068656D01*
X101856344Y-94192712D01*
X101944688Y-94247203D01*
X102011120Y-94288178D01*
X102057845Y-94340126D01*
X102069068Y-94409088D01*
X102041224Y-94473171D01*
X102033706Y-94481398D01*
X101894889Y-94620215D01*
X101769951Y-94792179D01*
X101673444Y-94981585D01*
X101607753Y-95183760D01*
X101607198Y-95187265D01*
X101574500Y-95393713D01*
X101574500Y-95606287D01*
X101607754Y-95816243D01*
X101670479Y-96009291D01*
X101673444Y-96018414D01*
X101769951Y-96207820D01*
X101894890Y-96379786D01*
X102045209Y-96530105D01*
X102045214Y-96530109D01*
X102209793Y-96649682D01*
X102252459Y-96705011D01*
X102258438Y-96774625D01*
X102225833Y-96836420D01*
X102209793Y-96850318D01*
X102045214Y-96969890D01*
X102045209Y-96969894D01*
X101894890Y-97120213D01*
X101769951Y-97292179D01*
X101673444Y-97481585D01*
X101607753Y-97683760D01*
X101586771Y-97816239D01*
X101574500Y-97893713D01*
X101574500Y-98106287D01*
X101607754Y-98316243D01*
X101669739Y-98507013D01*
X101673444Y-98518414D01*
X101769951Y-98707820D01*
X101894890Y-98879786D01*
X102045209Y-99030105D01*
X102045214Y-99030109D01*
X102210218Y-99149991D01*
X102252884Y-99205320D01*
X102258863Y-99274934D01*
X102226258Y-99336729D01*
X102210218Y-99350627D01*
X102045540Y-99470272D01*
X102045535Y-99470276D01*
X101895276Y-99620535D01*
X101895272Y-99620540D01*
X101770379Y-99792442D01*
X101673904Y-99981782D01*
X101608242Y-100183870D01*
X101608242Y-100183873D01*
X101597769Y-100250000D01*
X102653590Y-100250000D01*
X102603963Y-100335956D01*
X102575000Y-100444048D01*
X102575000Y-100555952D01*
X102603963Y-100664044D01*
X102653590Y-100750000D01*
X101597769Y-100750000D01*
X101608242Y-100816126D01*
X101608242Y-100816129D01*
X101673904Y-101018217D01*
X101770379Y-101207557D01*
X101895272Y-101379459D01*
X101895276Y-101379464D01*
X102045535Y-101529723D01*
X102045540Y-101529727D01*
X102217442Y-101654620D01*
X102406782Y-101751095D01*
X102608872Y-101816757D01*
X102750000Y-101839110D01*
X102750000Y-100846409D01*
X102835956Y-100896037D01*
X102944048Y-100925000D01*
X103055952Y-100925000D01*
X103164044Y-100896037D01*
X103250000Y-100846409D01*
X103250000Y-101839109D01*
X103391127Y-101816757D01*
X103593217Y-101751095D01*
X103782557Y-101654620D01*
X103954459Y-101529727D01*
X103954464Y-101529723D01*
X104104723Y-101379464D01*
X104104727Y-101379459D01*
X104229620Y-101207557D01*
X104326095Y-101018217D01*
X104391757Y-100816129D01*
X104391757Y-100816126D01*
X104402231Y-100750000D01*
X103346410Y-100750000D01*
X103396037Y-100664044D01*
X103425000Y-100555952D01*
X103425000Y-100444048D01*
X103396037Y-100335956D01*
X103346410Y-100250000D01*
X104402231Y-100250000D01*
X104391757Y-100183873D01*
X104391757Y-100183870D01*
X104326095Y-99981782D01*
X104229620Y-99792442D01*
X104104727Y-99620540D01*
X104104723Y-99620535D01*
X103954464Y-99470276D01*
X103954459Y-99470272D01*
X103789781Y-99350627D01*
X103747115Y-99295297D01*
X103741136Y-99225684D01*
X103773741Y-99163889D01*
X103789776Y-99149994D01*
X103954792Y-99030104D01*
X104105104Y-98879792D01*
X104105106Y-98879788D01*
X104105109Y-98879786D01*
X104230048Y-98707820D01*
X104230047Y-98707820D01*
X104230051Y-98707816D01*
X104326557Y-98518412D01*
X104392246Y-98316243D01*
X104425500Y-98106287D01*
X104425500Y-97893713D01*
X104392246Y-97683757D01*
X104326557Y-97481588D01*
X104230051Y-97292184D01*
X104230049Y-97292181D01*
X104230048Y-97292179D01*
X104105109Y-97120213D01*
X103954792Y-96969896D01*
X103954784Y-96969890D01*
X103790204Y-96850316D01*
X103747540Y-96794989D01*
X103741561Y-96725376D01*
X103774166Y-96663580D01*
X103790199Y-96649686D01*
X103954792Y-96530104D01*
X104105104Y-96379792D01*
X104105106Y-96379788D01*
X104105109Y-96379786D01*
X104230048Y-96207820D01*
X104230047Y-96207820D01*
X104230051Y-96207816D01*
X104326557Y-96018412D01*
X104392246Y-95816243D01*
X104425500Y-95606287D01*
X104425500Y-95393713D01*
X104392246Y-95183757D01*
X104326557Y-94981588D01*
X104230051Y-94792184D01*
X104230049Y-94792181D01*
X104230048Y-94792179D01*
X104105109Y-94620213D01*
X103966294Y-94481398D01*
X103932809Y-94420075D01*
X103937793Y-94350383D01*
X103979665Y-94294450D01*
X103988879Y-94288178D01*
X103994331Y-94284814D01*
X103994334Y-94284814D01*
X104143656Y-94192712D01*
X104267712Y-94068656D01*
X104359814Y-93919334D01*
X104414999Y-93752797D01*
X104425500Y-93650009D01*
X104425499Y-92349992D01*
X104420387Y-92299953D01*
X104414999Y-92247203D01*
X104414998Y-92247200D01*
X104401234Y-92205663D01*
X104359814Y-92080666D01*
X104267712Y-91931344D01*
X104143656Y-91807288D01*
X103994334Y-91715186D01*
X103827797Y-91660001D01*
X103827795Y-91660000D01*
X103725010Y-91649500D01*
X102274998Y-91649500D01*
X102274981Y-91649501D01*
X102172203Y-91660000D01*
X102172200Y-91660001D01*
X102005668Y-91715185D01*
X102005663Y-91715187D01*
X101856342Y-91807289D01*
X101732289Y-91931342D01*
X101640187Y-92080663D01*
X101640185Y-92080668D01*
X101619735Y-92142382D01*
X101585001Y-92247203D01*
X101585001Y-92247204D01*
X101585000Y-92247204D01*
X101574500Y-92349983D01*
X97475500Y-92349983D01*
X97475500Y-83126577D01*
X97457586Y-83013483D01*
X97444709Y-82932174D01*
X97444708Y-82932170D01*
X97444708Y-82932169D01*
X97385391Y-82749612D01*
X97384329Y-82745847D01*
X97294523Y-82569594D01*
X97178828Y-82410354D01*
X96314646Y-81546172D01*
X96155405Y-81430476D01*
X95980030Y-81341117D01*
X95792826Y-81280290D01*
X95598422Y-81249500D01*
X95598417Y-81249500D01*
X95384029Y-81249500D01*
X95316990Y-81229815D01*
X95271235Y-81177011D01*
X95261291Y-81107853D01*
X95290316Y-81044297D01*
X95303493Y-81031214D01*
X95304789Y-81030106D01*
X95304788Y-81030106D01*
X95304792Y-81030104D01*
X95455104Y-80879792D01*
X95455106Y-80879788D01*
X95455109Y-80879786D01*
X95580048Y-80707820D01*
X95580049Y-80707819D01*
X95580051Y-80707816D01*
X95676557Y-80518412D01*
X95742246Y-80316243D01*
X95775500Y-80106287D01*
X95775500Y-79893713D01*
X95742246Y-79683757D01*
X95676557Y-79481588D01*
X95580051Y-79292184D01*
X95580049Y-79292181D01*
X95580048Y-79292179D01*
X95455109Y-79120213D01*
X95316294Y-78981398D01*
X95282809Y-78920075D01*
X95287793Y-78850383D01*
X95329665Y-78794450D01*
X95338879Y-78788178D01*
X95344331Y-78784814D01*
X95344334Y-78784814D01*
X95493656Y-78692712D01*
X95617712Y-78568656D01*
X95709814Y-78419334D01*
X95764999Y-78252797D01*
X95775500Y-78150009D01*
X95775499Y-76849992D01*
X95764999Y-76747203D01*
X95709814Y-76580666D01*
X95617712Y-76431344D01*
X95493656Y-76307288D01*
X95344334Y-76215186D01*
X95177797Y-76160001D01*
X95177795Y-76160000D01*
X95075010Y-76149500D01*
X93624998Y-76149500D01*
X93624981Y-76149501D01*
X93522203Y-76160000D01*
X93522200Y-76160001D01*
X93355668Y-76215185D01*
X93355663Y-76215187D01*
X93206342Y-76307289D01*
X93082289Y-76431342D01*
X92990187Y-76580663D01*
X92990185Y-76580668D01*
X92984102Y-76599025D01*
X92935001Y-76747203D01*
X92935001Y-76747204D01*
X92935000Y-76747204D01*
X92924500Y-76849983D01*
X92924500Y-78150001D01*
X92924501Y-78150018D01*
X92935000Y-78252796D01*
X92935001Y-78252799D01*
X92962827Y-78336770D01*
X92965229Y-78406598D01*
X92929497Y-78466640D01*
X92866977Y-78497833D01*
X92845121Y-78499774D01*
X89672300Y-78499774D01*
X89605261Y-78480089D01*
X89601177Y-78477349D01*
X89518325Y-78419336D01*
X89447446Y-78369706D01*
X89389436Y-78342655D01*
X89336997Y-78296484D01*
X89317845Y-78229291D01*
X89338060Y-78162409D01*
X89389437Y-78117892D01*
X89447446Y-78090842D01*
X89633851Y-77960321D01*
X89794759Y-77799413D01*
X89925280Y-77613008D01*
X90021451Y-77406770D01*
X90080347Y-77186966D01*
X90100180Y-76960274D01*
X90080347Y-76733582D01*
X90021451Y-76513778D01*
X89925280Y-76307540D01*
X89794759Y-76121135D01*
X89794757Y-76121132D01*
X89633853Y-75960228D01*
X89447446Y-75829706D01*
X89447440Y-75829703D01*
X89389437Y-75802656D01*
X89336997Y-75756484D01*
X89317845Y-75689291D01*
X89338060Y-75622409D01*
X89389437Y-75577892D01*
X89400655Y-75572661D01*
X89447446Y-75550842D01*
X89633851Y-75420321D01*
X89794759Y-75259413D01*
X89925280Y-75073008D01*
X90021451Y-74866770D01*
X90080347Y-74646966D01*
X90100180Y-74420274D01*
X90080347Y-74193582D01*
X90021451Y-73973778D01*
X89925280Y-73767540D01*
X89794759Y-73581135D01*
X89794757Y-73581132D01*
X89633853Y-73420228D01*
X89447446Y-73289706D01*
X89447440Y-73289703D01*
X89389437Y-73262656D01*
X89336997Y-73216484D01*
X89317845Y-73149291D01*
X89338060Y-73082409D01*
X89389437Y-73037892D01*
X89447446Y-73010842D01*
X89633851Y-72880321D01*
X89794759Y-72719413D01*
X89925280Y-72533008D01*
X90021451Y-72326770D01*
X90080347Y-72106966D01*
X90087711Y-72022785D01*
X90113163Y-71957720D01*
X90169754Y-71916741D01*
X90239515Y-71912862D01*
X90298920Y-71945914D01*
X92239048Y-73886042D01*
X92239077Y-73886073D01*
X92381527Y-74028523D01*
X92381531Y-74028526D01*
X92545392Y-74138015D01*
X92545405Y-74138022D01*
X92674146Y-74191348D01*
X92679552Y-74193587D01*
X92727477Y-74213438D01*
X92824125Y-74232662D01*
X92832013Y-74234231D01*
X92920771Y-74251887D01*
X92920772Y-74251887D01*
X92920773Y-74251887D01*
X93117853Y-74251887D01*
X108414594Y-74251887D01*
X108434508Y-74253496D01*
X108456112Y-74257012D01*
X109156462Y-74269973D01*
X109223124Y-74290895D01*
X109267894Y-74344536D01*
X109277694Y-74404758D01*
X109274525Y-74440973D01*
X109953553Y-75120000D01*
X109947339Y-75120000D01*
X109845606Y-75147259D01*
X109754394Y-75199920D01*
X109679920Y-75274394D01*
X109627259Y-75365606D01*
X109600000Y-75467339D01*
X109600000Y-75473552D01*
X108920974Y-74794526D01*
X108920973Y-74794526D01*
X108869868Y-74867512D01*
X108869866Y-74867516D01*
X108773734Y-75073673D01*
X108773730Y-75073682D01*
X108714860Y-75293389D01*
X108714858Y-75293400D01*
X108695034Y-75519997D01*
X108695034Y-75520002D01*
X108714858Y-75746599D01*
X108714860Y-75746610D01*
X108773730Y-75966317D01*
X108773735Y-75966331D01*
X108869863Y-76172478D01*
X108920974Y-76245472D01*
X109600000Y-75566446D01*
X109600000Y-75572661D01*
X109627259Y-75674394D01*
X109679920Y-75765606D01*
X109754394Y-75840080D01*
X109845606Y-75892741D01*
X109947339Y-75920000D01*
X109953552Y-75920000D01*
X109274526Y-76599025D01*
X109347513Y-76650132D01*
X109347521Y-76650136D01*
X109405864Y-76677342D01*
X109458304Y-76723514D01*
X109477456Y-76790707D01*
X109457241Y-76857589D01*
X109405866Y-76902105D01*
X109347272Y-76929428D01*
X109347265Y-76929432D01*
X109160858Y-77059954D01*
X108999954Y-77220858D01*
X108869432Y-77407265D01*
X108869431Y-77407267D01*
X108773261Y-77613502D01*
X108773258Y-77613511D01*
X108714366Y-77833302D01*
X108714364Y-77833313D01*
X108694532Y-78059998D01*
X108694532Y-78060001D01*
X108714364Y-78286686D01*
X108714366Y-78286697D01*
X108773258Y-78506488D01*
X108773261Y-78506497D01*
X108869431Y-78712732D01*
X108869432Y-78712734D01*
X108999954Y-78899141D01*
X109160858Y-79060045D01*
X109160861Y-79060047D01*
X109347266Y-79190568D01*
X109405275Y-79217618D01*
X109457714Y-79263791D01*
X109476866Y-79330984D01*
X109456650Y-79397865D01*
X109405275Y-79442382D01*
X109347267Y-79469431D01*
X109347265Y-79469432D01*
X109160858Y-79599954D01*
X108999954Y-79760858D01*
X108869432Y-79947265D01*
X108869431Y-79947267D01*
X108773261Y-80153502D01*
X108773258Y-80153511D01*
X108714366Y-80373302D01*
X108714364Y-80373313D01*
X108694532Y-80599998D01*
X108694532Y-80600001D01*
X108714364Y-80826686D01*
X108714366Y-80826697D01*
X108773258Y-81046488D01*
X108773261Y-81046497D01*
X108869431Y-81252732D01*
X108869432Y-81252734D01*
X108999954Y-81439141D01*
X109160858Y-81600045D01*
X109160861Y-81600047D01*
X109347266Y-81730568D01*
X109405275Y-81757618D01*
X109457714Y-81803791D01*
X109476866Y-81870984D01*
X109456650Y-81937865D01*
X109405275Y-81982382D01*
X109347267Y-82009431D01*
X109347265Y-82009432D01*
X109160858Y-82139954D01*
X108999954Y-82300858D01*
X108869432Y-82487265D01*
X108869431Y-82487267D01*
X108773261Y-82693502D01*
X108773258Y-82693511D01*
X108714366Y-82913302D01*
X108714364Y-82913313D01*
X108694532Y-83139998D01*
X108694532Y-83140001D01*
X108714364Y-83366686D01*
X108714366Y-83366697D01*
X108773258Y-83586488D01*
X108773261Y-83586497D01*
X108869431Y-83792732D01*
X108869432Y-83792734D01*
X108999954Y-83979141D01*
X109160858Y-84140045D01*
X109160861Y-84140047D01*
X109347266Y-84270568D01*
X109394175Y-84292442D01*
X109405275Y-84297618D01*
X109457714Y-84343791D01*
X109476866Y-84410984D01*
X109456650Y-84477865D01*
X109405275Y-84522382D01*
X109347267Y-84549431D01*
X109347265Y-84549432D01*
X109160858Y-84679954D01*
X108999954Y-84840858D01*
X108869432Y-85027265D01*
X108869431Y-85027267D01*
X108773261Y-85233502D01*
X108773258Y-85233511D01*
X108714366Y-85453302D01*
X108714364Y-85453313D01*
X108694532Y-85679998D01*
X108694532Y-85680001D01*
X108714364Y-85906686D01*
X108714366Y-85906697D01*
X108773258Y-86126488D01*
X108773261Y-86126497D01*
X108869431Y-86332732D01*
X108869432Y-86332734D01*
X108999954Y-86519141D01*
X109160858Y-86680045D01*
X109160861Y-86680047D01*
X109347266Y-86810568D01*
X109405275Y-86837618D01*
X109457714Y-86883791D01*
X109476866Y-86950984D01*
X109456650Y-87017865D01*
X109405275Y-87062382D01*
X109347267Y-87089431D01*
X109347265Y-87089432D01*
X109160858Y-87219954D01*
X108999954Y-87380858D01*
X108869432Y-87567265D01*
X108869431Y-87567267D01*
X108773261Y-87773502D01*
X108773258Y-87773511D01*
X108714366Y-87993302D01*
X108714364Y-87993313D01*
X108694532Y-88219998D01*
X108694532Y-88220001D01*
X108714364Y-88446686D01*
X108714366Y-88446697D01*
X108773258Y-88666488D01*
X108773261Y-88666497D01*
X108869431Y-88872732D01*
X108869432Y-88872734D01*
X108999954Y-89059141D01*
X109160858Y-89220045D01*
X109160861Y-89220047D01*
X109347266Y-89350568D01*
X109405275Y-89377618D01*
X109457714Y-89423791D01*
X109476866Y-89490984D01*
X109456650Y-89557865D01*
X109405275Y-89602382D01*
X109347267Y-89629431D01*
X109347265Y-89629432D01*
X109160858Y-89759954D01*
X108999954Y-89920858D01*
X108869432Y-90107265D01*
X108869431Y-90107267D01*
X108773261Y-90313502D01*
X108773258Y-90313511D01*
X108714366Y-90533302D01*
X108714364Y-90533313D01*
X108694532Y-90759998D01*
X108694532Y-90760001D01*
X108714364Y-90986686D01*
X108714366Y-90986697D01*
X108773258Y-91206488D01*
X108773261Y-91206497D01*
X108869431Y-91412732D01*
X108869432Y-91412734D01*
X108999954Y-91599141D01*
X109160858Y-91760045D01*
X109160861Y-91760047D01*
X109347266Y-91890568D01*
X109405275Y-91917618D01*
X109457714Y-91963791D01*
X109476866Y-92030984D01*
X109456650Y-92097865D01*
X109405275Y-92142382D01*
X109347267Y-92169431D01*
X109347265Y-92169432D01*
X109160858Y-92299954D01*
X108999954Y-92460858D01*
X108869432Y-92647265D01*
X108869431Y-92647267D01*
X108773261Y-92853502D01*
X108773258Y-92853511D01*
X108714366Y-93073302D01*
X108714364Y-93073313D01*
X108694532Y-93299998D01*
X108694532Y-93300001D01*
X108714364Y-93526686D01*
X108714366Y-93526697D01*
X108773258Y-93746488D01*
X108773261Y-93746497D01*
X108869431Y-93952732D01*
X108869432Y-93952734D01*
X108999954Y-94139141D01*
X109160858Y-94300045D01*
X109160861Y-94300047D01*
X109347266Y-94430568D01*
X109388550Y-94449819D01*
X109405275Y-94457618D01*
X109457714Y-94503791D01*
X109476866Y-94570984D01*
X109456650Y-94637865D01*
X109405275Y-94682382D01*
X109347267Y-94709431D01*
X109347265Y-94709432D01*
X109160858Y-94839954D01*
X108999954Y-95000858D01*
X108869432Y-95187265D01*
X108869431Y-95187267D01*
X108773261Y-95393502D01*
X108773258Y-95393511D01*
X108714366Y-95613302D01*
X108714364Y-95613313D01*
X108694532Y-95839998D01*
X108694532Y-95840001D01*
X108714364Y-96066686D01*
X108714366Y-96066697D01*
X108773258Y-96286488D01*
X108773261Y-96286497D01*
X108869431Y-96492732D01*
X108869432Y-96492734D01*
X108999954Y-96679141D01*
X109160858Y-96840045D01*
X109160861Y-96840047D01*
X109347266Y-96970568D01*
X109405275Y-96997618D01*
X109457714Y-97043791D01*
X109476866Y-97110984D01*
X109456650Y-97177865D01*
X109405275Y-97222382D01*
X109347267Y-97249431D01*
X109347265Y-97249432D01*
X109160858Y-97379954D01*
X108999954Y-97540858D01*
X108869432Y-97727265D01*
X108869431Y-97727267D01*
X108773261Y-97933502D01*
X108773258Y-97933511D01*
X108714366Y-98153302D01*
X108714364Y-98153313D01*
X108694532Y-98379998D01*
X108694532Y-98380001D01*
X108714364Y-98606686D01*
X108714366Y-98606697D01*
X108773258Y-98826488D01*
X108773261Y-98826497D01*
X108869431Y-99032732D01*
X108869432Y-99032734D01*
X108999954Y-99219141D01*
X109160858Y-99380045D01*
X109160861Y-99380047D01*
X109347266Y-99510568D01*
X109405275Y-99537618D01*
X109457714Y-99583791D01*
X109476866Y-99650984D01*
X109456650Y-99717865D01*
X109405275Y-99762382D01*
X109347267Y-99789431D01*
X109347265Y-99789432D01*
X109160858Y-99919954D01*
X108999954Y-100080858D01*
X108869432Y-100267265D01*
X108869431Y-100267267D01*
X108773261Y-100473502D01*
X108773258Y-100473511D01*
X108714366Y-100693302D01*
X108714364Y-100693313D01*
X108694532Y-100919998D01*
X108694532Y-100920001D01*
X108714364Y-101146686D01*
X108714366Y-101146697D01*
X108773258Y-101366488D01*
X108773261Y-101366497D01*
X108869431Y-101572732D01*
X108869432Y-101572734D01*
X108999954Y-101759141D01*
X109160858Y-101920045D01*
X109160861Y-101920047D01*
X109347266Y-102050568D01*
X109405275Y-102077618D01*
X109457714Y-102123791D01*
X109476866Y-102190984D01*
X109456650Y-102257865D01*
X109405275Y-102302382D01*
X109347267Y-102329431D01*
X109347265Y-102329432D01*
X109160858Y-102459954D01*
X108999954Y-102620858D01*
X108869432Y-102807265D01*
X108869431Y-102807267D01*
X108773261Y-103013502D01*
X108773258Y-103013511D01*
X108714366Y-103233302D01*
X108714364Y-103233313D01*
X108694532Y-103459998D01*
X108694532Y-103460001D01*
X108714364Y-103686686D01*
X108714366Y-103686697D01*
X108773258Y-103906488D01*
X108773261Y-103906497D01*
X108869431Y-104112732D01*
X108869432Y-104112734D01*
X108999954Y-104299141D01*
X109160858Y-104460045D01*
X109160861Y-104460047D01*
X109347266Y-104590568D01*
X109405275Y-104617618D01*
X109457714Y-104663791D01*
X109476866Y-104730984D01*
X109456650Y-104797865D01*
X109405275Y-104842382D01*
X109347267Y-104869431D01*
X109347265Y-104869432D01*
X109160858Y-104999954D01*
X108999954Y-105160858D01*
X108869432Y-105347265D01*
X108869431Y-105347267D01*
X108773261Y-105553502D01*
X108773258Y-105553511D01*
X108714366Y-105773302D01*
X108714364Y-105773313D01*
X108694532Y-105999998D01*
X108694532Y-106000001D01*
X108714364Y-106226686D01*
X108714366Y-106226697D01*
X108773258Y-106446488D01*
X108773261Y-106446497D01*
X108869431Y-106652732D01*
X108869432Y-106652734D01*
X108999954Y-106839141D01*
X109160858Y-107000045D01*
X109160861Y-107000047D01*
X109347266Y-107130568D01*
X109405275Y-107157618D01*
X109457714Y-107203791D01*
X109476866Y-107270984D01*
X109456650Y-107337865D01*
X109405275Y-107382382D01*
X109347267Y-107409431D01*
X109347265Y-107409432D01*
X109160858Y-107539954D01*
X108999954Y-107700858D01*
X108869432Y-107887265D01*
X108869431Y-107887267D01*
X108773261Y-108093502D01*
X108773258Y-108093511D01*
X108714366Y-108313302D01*
X108714364Y-108313313D01*
X108694532Y-108539998D01*
X108694532Y-108540001D01*
X108714364Y-108766686D01*
X108714366Y-108766697D01*
X108773258Y-108986488D01*
X108773261Y-108986497D01*
X108869431Y-109192732D01*
X108869432Y-109192734D01*
X108999954Y-109379141D01*
X109160858Y-109540045D01*
X109160861Y-109540047D01*
X109347266Y-109670568D01*
X109553504Y-109766739D01*
X109773308Y-109825635D01*
X109935230Y-109839801D01*
X109999998Y-109845468D01*
X110000000Y-109845468D01*
X110000002Y-109845468D01*
X110056673Y-109840509D01*
X110226692Y-109825635D01*
X110446496Y-109766739D01*
X110652734Y-109670568D01*
X110839139Y-109540047D01*
X111000047Y-109379139D01*
X111130568Y-109192734D01*
X111226739Y-108986496D01*
X111285635Y-108766692D01*
X111305468Y-108540000D01*
X111285635Y-108313308D01*
X111226739Y-108093504D01*
X111130568Y-107887266D01*
X111000047Y-107700861D01*
X111000045Y-107700858D01*
X110839141Y-107539954D01*
X110652734Y-107409432D01*
X110652728Y-107409429D01*
X110594725Y-107382382D01*
X110542285Y-107336210D01*
X110523133Y-107269017D01*
X110543348Y-107202135D01*
X110594725Y-107157618D01*
X110652734Y-107130568D01*
X110839139Y-107000047D01*
X111000047Y-106839139D01*
X111130568Y-106652734D01*
X111226739Y-106446496D01*
X111285635Y-106226692D01*
X111302770Y-106030840D01*
X111305468Y-106000001D01*
X111305468Y-105999998D01*
X111296747Y-105900319D01*
X111285635Y-105773308D01*
X111226739Y-105553504D01*
X111130568Y-105347266D01*
X111000047Y-105160861D01*
X111000045Y-105160858D01*
X110839141Y-104999954D01*
X110652734Y-104869432D01*
X110652728Y-104869429D01*
X110594725Y-104842382D01*
X110542285Y-104796210D01*
X110523133Y-104729017D01*
X110543348Y-104662135D01*
X110594725Y-104617618D01*
X110652734Y-104590568D01*
X110839139Y-104460047D01*
X111000047Y-104299139D01*
X111130568Y-104112734D01*
X111226739Y-103906496D01*
X111285635Y-103686692D01*
X111305468Y-103460000D01*
X111285635Y-103233308D01*
X111226739Y-103013504D01*
X111130568Y-102807266D01*
X111000047Y-102620861D01*
X111000045Y-102620858D01*
X110839141Y-102459954D01*
X110652734Y-102329432D01*
X110652728Y-102329429D01*
X110594725Y-102302382D01*
X110542285Y-102256210D01*
X110523133Y-102189017D01*
X110543348Y-102122135D01*
X110594725Y-102077618D01*
X110652734Y-102050568D01*
X110839139Y-101920047D01*
X111000047Y-101759139D01*
X111130568Y-101572734D01*
X111226739Y-101366496D01*
X111285635Y-101146692D01*
X111302634Y-100952384D01*
X111305468Y-100920001D01*
X111305468Y-100919998D01*
X111291553Y-100760956D01*
X111285635Y-100693308D01*
X111226739Y-100473504D01*
X111130568Y-100267266D01*
X111000047Y-100080861D01*
X111000045Y-100080858D01*
X110839141Y-99919954D01*
X110652734Y-99789432D01*
X110652728Y-99789429D01*
X110594725Y-99762382D01*
X110542285Y-99716210D01*
X110523133Y-99649017D01*
X110543348Y-99582135D01*
X110594725Y-99537618D01*
X110652734Y-99510568D01*
X110839139Y-99380047D01*
X111000047Y-99219139D01*
X111130568Y-99032734D01*
X111226739Y-98826496D01*
X111285635Y-98606692D01*
X111302634Y-98412384D01*
X111305468Y-98380001D01*
X111305468Y-98379998D01*
X111285635Y-98153313D01*
X111285635Y-98153308D01*
X111226739Y-97933504D01*
X111130568Y-97727266D01*
X111000047Y-97540861D01*
X111000045Y-97540858D01*
X110839141Y-97379954D01*
X110652734Y-97249432D01*
X110652728Y-97249429D01*
X110594725Y-97222382D01*
X110542285Y-97176210D01*
X110523133Y-97109017D01*
X110543348Y-97042135D01*
X110594725Y-96997618D01*
X110652734Y-96970568D01*
X110839139Y-96840047D01*
X111000047Y-96679139D01*
X111130568Y-96492734D01*
X111226739Y-96286496D01*
X111285635Y-96066692D01*
X111291040Y-96004905D01*
X111316492Y-95939838D01*
X111326879Y-95928040D01*
X112277139Y-94977782D01*
X112322411Y-94910028D01*
X112386632Y-94813914D01*
X112462051Y-94631835D01*
X112485573Y-94513582D01*
X112500500Y-94438543D01*
X112500500Y-69888532D01*
X112500499Y-69888531D01*
X112492736Y-69849500D01*
X112462051Y-69695238D01*
X112408919Y-69566966D01*
X112392944Y-69528398D01*
X112386635Y-69513166D01*
X112386628Y-69513153D01*
X112277140Y-69349293D01*
X112209234Y-69281387D01*
X112137782Y-69209935D01*
X112137781Y-69209934D01*
X108971413Y-66043567D01*
X108937929Y-65982245D01*
X108942913Y-65912553D01*
X108984785Y-65856620D01*
X109050249Y-65832203D01*
X109059095Y-65831887D01*
X119165605Y-65831887D01*
X119232644Y-65851572D01*
G37*
%TD.AperFunction*%
%TA.AperFunction,Conductor*%
G36*
X93005507Y-80520459D02*
G01*
X93048953Y-80568479D01*
X93080118Y-80629644D01*
X93094511Y-80657892D01*
X93119951Y-80707819D01*
X93244890Y-80879786D01*
X93395209Y-81030105D01*
X93395214Y-81030109D01*
X93559793Y-81149682D01*
X93602459Y-81205011D01*
X93608438Y-81274625D01*
X93575833Y-81336420D01*
X93559793Y-81350318D01*
X93395214Y-81469890D01*
X93395209Y-81469894D01*
X93244890Y-81620213D01*
X93119951Y-81792179D01*
X93023444Y-81981585D01*
X92957753Y-82183760D01*
X92924500Y-82393713D01*
X92924500Y-82606286D01*
X92947200Y-82749612D01*
X92957754Y-82816243D01*
X92995422Y-82932174D01*
X93023444Y-83018414D01*
X93119951Y-83207820D01*
X93244890Y-83379786D01*
X93395209Y-83530105D01*
X93395214Y-83530109D01*
X93560218Y-83649991D01*
X93602884Y-83705320D01*
X93608863Y-83774934D01*
X93576258Y-83836729D01*
X93560218Y-83850627D01*
X93395540Y-83970272D01*
X93395535Y-83970276D01*
X93245276Y-84120535D01*
X93245272Y-84120540D01*
X93120379Y-84292442D01*
X93023904Y-84481782D01*
X92958242Y-84683870D01*
X92958242Y-84683873D01*
X92947769Y-84750000D01*
X94003590Y-84750000D01*
X93953963Y-84835956D01*
X93925000Y-84944048D01*
X93925000Y-85055952D01*
X93953963Y-85164044D01*
X94003590Y-85250000D01*
X92947769Y-85250000D01*
X92958242Y-85316126D01*
X92958242Y-85316129D01*
X93023904Y-85518217D01*
X93120379Y-85707557D01*
X93245272Y-85879459D01*
X93245276Y-85879464D01*
X93395535Y-86029723D01*
X93395540Y-86029727D01*
X93567442Y-86154620D01*
X93756782Y-86251095D01*
X93958872Y-86316757D01*
X94100000Y-86339110D01*
X94100000Y-85346409D01*
X94185956Y-85396037D01*
X94294048Y-85425000D01*
X94405952Y-85425000D01*
X94514044Y-85396037D01*
X94600000Y-85346409D01*
X94600000Y-86339109D01*
X94741124Y-86316758D01*
X94812181Y-86293670D01*
X94882022Y-86291674D01*
X94941855Y-86327754D01*
X94972684Y-86390455D01*
X94974500Y-86411601D01*
X94974500Y-92205663D01*
X94954815Y-92272702D01*
X94938181Y-92293344D01*
X93618343Y-93613181D01*
X93557020Y-93646666D01*
X93530662Y-93649500D01*
X93274999Y-93649500D01*
X93274980Y-93649501D01*
X93172203Y-93660000D01*
X93172200Y-93660001D01*
X93005668Y-93715185D01*
X93005663Y-93715187D01*
X92856342Y-93807289D01*
X92732289Y-93931342D01*
X92640187Y-94080663D01*
X92640185Y-94080668D01*
X92637908Y-94087540D01*
X92585001Y-94247203D01*
X92585001Y-94247204D01*
X92585000Y-94247204D01*
X92574500Y-94349983D01*
X92574500Y-95650001D01*
X92574501Y-95650018D01*
X92585000Y-95752796D01*
X92585001Y-95752799D01*
X92640185Y-95919331D01*
X92640187Y-95919336D01*
X92669594Y-95967013D01*
X92722961Y-96053535D01*
X92732289Y-96068657D01*
X92856344Y-96192712D01*
X93011120Y-96288178D01*
X93057845Y-96340126D01*
X93069068Y-96409088D01*
X93041224Y-96473171D01*
X93033706Y-96481398D01*
X92894889Y-96620215D01*
X92769951Y-96792179D01*
X92673444Y-96981585D01*
X92607753Y-97183760D01*
X92574500Y-97393713D01*
X92574500Y-97459218D01*
X92554815Y-97526257D01*
X92538181Y-97546899D01*
X91301625Y-98783455D01*
X91240302Y-98816940D01*
X91213944Y-98819774D01*
X89672300Y-98819774D01*
X89605261Y-98800089D01*
X89601177Y-98797349D01*
X89598246Y-98795297D01*
X89447446Y-98689706D01*
X89389436Y-98662655D01*
X89336997Y-98616484D01*
X89317845Y-98549291D01*
X89338060Y-98482409D01*
X89389437Y-98437892D01*
X89447446Y-98410842D01*
X89633851Y-98280321D01*
X89794759Y-98119413D01*
X89925280Y-97933008D01*
X90021451Y-97726770D01*
X90080347Y-97506966D01*
X90099138Y-97292184D01*
X90100180Y-97280275D01*
X90100180Y-97280272D01*
X90091220Y-97177865D01*
X90080347Y-97053582D01*
X90021451Y-96833778D01*
X89925280Y-96627540D01*
X89817191Y-96473171D01*
X89794757Y-96441132D01*
X89633853Y-96280228D01*
X89447446Y-96149706D01*
X89447440Y-96149703D01*
X89389437Y-96122656D01*
X89336997Y-96076484D01*
X89317845Y-96009291D01*
X89338060Y-95942409D01*
X89389437Y-95897892D01*
X89447446Y-95870842D01*
X89633851Y-95740321D01*
X89794759Y-95579413D01*
X89925280Y-95393008D01*
X90021451Y-95186770D01*
X90080347Y-94966966D01*
X90100180Y-94740274D01*
X90097481Y-94709429D01*
X90091220Y-94637865D01*
X90080347Y-94513582D01*
X90021451Y-94293778D01*
X89925280Y-94087540D01*
X89794759Y-93901135D01*
X89794757Y-93901132D01*
X89633853Y-93740228D01*
X89447446Y-93609706D01*
X89447440Y-93609703D01*
X89404432Y-93589648D01*
X89389436Y-93582655D01*
X89336997Y-93536484D01*
X89317845Y-93469291D01*
X89338060Y-93402409D01*
X89389437Y-93357892D01*
X89447446Y-93330842D01*
X89633851Y-93200321D01*
X89794759Y-93039413D01*
X89925280Y-92853008D01*
X90021451Y-92646770D01*
X90080347Y-92426966D01*
X90100180Y-92200274D01*
X90097481Y-92169429D01*
X90091220Y-92097865D01*
X90080347Y-91973582D01*
X90021451Y-91753778D01*
X89925280Y-91547540D01*
X89794759Y-91361135D01*
X89794757Y-91361132D01*
X89633853Y-91200228D01*
X89447446Y-91069706D01*
X89447440Y-91069703D01*
X89389437Y-91042656D01*
X89336997Y-90996484D01*
X89317845Y-90929291D01*
X89338060Y-90862409D01*
X89389437Y-90817892D01*
X89447446Y-90790842D01*
X89633851Y-90660321D01*
X89794759Y-90499413D01*
X89925280Y-90313008D01*
X90021451Y-90106770D01*
X90080347Y-89886966D01*
X90100180Y-89660274D01*
X90097481Y-89629429D01*
X90091220Y-89557865D01*
X90080347Y-89433582D01*
X90021451Y-89213778D01*
X89925280Y-89007540D01*
X89794759Y-88821135D01*
X89794757Y-88821132D01*
X89633853Y-88660228D01*
X89447446Y-88529706D01*
X89447440Y-88529703D01*
X89389437Y-88502656D01*
X89336997Y-88456484D01*
X89317845Y-88389291D01*
X89338060Y-88322409D01*
X89389437Y-88277892D01*
X89447446Y-88250842D01*
X89633851Y-88120321D01*
X89794759Y-87959413D01*
X89925280Y-87773008D01*
X90021451Y-87566770D01*
X90080347Y-87346966D01*
X90100180Y-87120274D01*
X90097481Y-87089429D01*
X90091220Y-87017865D01*
X90080347Y-86893582D01*
X90021451Y-86673778D01*
X89925280Y-86467540D01*
X89794759Y-86281135D01*
X89794757Y-86281132D01*
X89633853Y-86120228D01*
X89447446Y-85989706D01*
X89447440Y-85989703D01*
X89389437Y-85962656D01*
X89336997Y-85916484D01*
X89317845Y-85849291D01*
X89338060Y-85782409D01*
X89389437Y-85737892D01*
X89447446Y-85710842D01*
X89633851Y-85580321D01*
X89794759Y-85419413D01*
X89925280Y-85233008D01*
X90021451Y-85026770D01*
X90080347Y-84806966D01*
X90097346Y-84612658D01*
X90100180Y-84580275D01*
X90100180Y-84580272D01*
X90091220Y-84477865D01*
X90080347Y-84353582D01*
X90021451Y-84133778D01*
X89925280Y-83927540D01*
X89818425Y-83774934D01*
X89794757Y-83741132D01*
X89633853Y-83580228D01*
X89447446Y-83449706D01*
X89447440Y-83449703D01*
X89389437Y-83422656D01*
X89336997Y-83376484D01*
X89317845Y-83309291D01*
X89338060Y-83242409D01*
X89389437Y-83197892D01*
X89447446Y-83170842D01*
X89633851Y-83040321D01*
X89794759Y-82879413D01*
X89925280Y-82693008D01*
X90021451Y-82486770D01*
X90080347Y-82266966D01*
X90100180Y-82040274D01*
X90097481Y-82009429D01*
X90091220Y-81937865D01*
X90080347Y-81813582D01*
X90021451Y-81593778D01*
X89925280Y-81387540D01*
X89794759Y-81201135D01*
X89794757Y-81201132D01*
X89633853Y-81040228D01*
X89447446Y-80909706D01*
X89447440Y-80909703D01*
X89389437Y-80882656D01*
X89336997Y-80836484D01*
X89317845Y-80769291D01*
X89338060Y-80702409D01*
X89389437Y-80657892D01*
X89447446Y-80630842D01*
X89601177Y-80523198D01*
X89667383Y-80500872D01*
X89672300Y-80500774D01*
X92938468Y-80500774D01*
X93005507Y-80520459D01*
G37*
%TD.AperFunction*%
%TA.AperFunction,Conductor*%
G36*
X141442539Y-54520185D02*
G01*
X141488294Y-54572989D01*
X141499500Y-54624500D01*
X141499500Y-123375500D01*
X141479815Y-123442539D01*
X141427011Y-123488294D01*
X141375500Y-123499500D01*
X57624500Y-123499500D01*
X57557461Y-123479815D01*
X57511706Y-123427011D01*
X57500500Y-123375500D01*
X57500500Y-119000000D01*
X57994675Y-119000000D01*
X58013962Y-119392591D01*
X58013962Y-119392597D01*
X58013963Y-119392599D01*
X58071637Y-119781406D01*
X58167143Y-120162684D01*
X58299561Y-120532770D01*
X58299562Y-120532772D01*
X58467620Y-120888100D01*
X58669692Y-121225236D01*
X58903846Y-121540956D01*
X59167807Y-121832192D01*
X59459043Y-122096153D01*
X59459049Y-122096158D01*
X59774761Y-122330306D01*
X59774763Y-122330307D01*
X60111899Y-122532379D01*
X60111902Y-122532380D01*
X60111903Y-122532381D01*
X60467228Y-122700438D01*
X60837316Y-122832857D01*
X61218600Y-122928364D01*
X61607409Y-122986038D01*
X62000000Y-123005325D01*
X62392591Y-122986038D01*
X62781400Y-122928364D01*
X63162684Y-122832857D01*
X63532772Y-122700438D01*
X63888097Y-122532381D01*
X64225239Y-122330306D01*
X64540951Y-122096158D01*
X64832192Y-121832192D01*
X65096158Y-121540951D01*
X65330306Y-121225239D01*
X65532381Y-120888097D01*
X65700438Y-120532772D01*
X65832857Y-120162684D01*
X65928364Y-119781400D01*
X65986038Y-119392591D01*
X66005325Y-119000000D01*
X132994675Y-119000000D01*
X133013962Y-119392591D01*
X133013962Y-119392597D01*
X133013963Y-119392599D01*
X133071637Y-119781406D01*
X133167143Y-120162684D01*
X133299561Y-120532770D01*
X133299562Y-120532772D01*
X133467620Y-120888100D01*
X133669692Y-121225236D01*
X133903846Y-121540956D01*
X134167807Y-121832192D01*
X134459043Y-122096153D01*
X134459049Y-122096158D01*
X134774761Y-122330306D01*
X134774763Y-122330307D01*
X135111899Y-122532379D01*
X135111902Y-122532380D01*
X135111903Y-122532381D01*
X135467228Y-122700438D01*
X135837316Y-122832857D01*
X136218600Y-122928364D01*
X136607409Y-122986038D01*
X137000000Y-123005325D01*
X137392591Y-122986038D01*
X137781400Y-122928364D01*
X138162684Y-122832857D01*
X138532772Y-122700438D01*
X138888097Y-122532381D01*
X139225239Y-122330306D01*
X139540951Y-122096158D01*
X139832192Y-121832192D01*
X140096158Y-121540951D01*
X140330306Y-121225239D01*
X140532381Y-120888097D01*
X140700438Y-120532772D01*
X140832857Y-120162684D01*
X140928364Y-119781400D01*
X140986038Y-119392591D01*
X141005325Y-119000000D01*
X140986038Y-118607409D01*
X140928364Y-118218600D01*
X140832857Y-117837316D01*
X140700438Y-117467228D01*
X140532381Y-117111903D01*
X140330306Y-116774761D01*
X140096158Y-116459049D01*
X140096153Y-116459043D01*
X139832192Y-116167807D01*
X139540956Y-115903846D01*
X139356942Y-115767372D01*
X139225239Y-115669694D01*
X139225236Y-115669692D01*
X138888100Y-115467620D01*
X138532772Y-115299562D01*
X138532770Y-115299561D01*
X138162684Y-115167143D01*
X137781406Y-115071637D01*
X137781401Y-115071636D01*
X137781400Y-115071636D01*
X137637256Y-115050254D01*
X137392599Y-115013963D01*
X137392597Y-115013962D01*
X137392591Y-115013962D01*
X137000000Y-114994675D01*
X136607409Y-115013962D01*
X136607403Y-115013962D01*
X136607400Y-115013963D01*
X136218593Y-115071637D01*
X135837315Y-115167143D01*
X135467229Y-115299561D01*
X135467227Y-115299562D01*
X135111899Y-115467620D01*
X134774763Y-115669692D01*
X134459043Y-115903846D01*
X134167807Y-116167807D01*
X133903846Y-116459043D01*
X133669692Y-116774763D01*
X133467620Y-117111899D01*
X133299562Y-117467227D01*
X133299561Y-117467229D01*
X133167143Y-117837315D01*
X133071637Y-118218593D01*
X133021927Y-118553715D01*
X133013962Y-118607409D01*
X132994675Y-119000000D01*
X66005325Y-119000000D01*
X65986038Y-118607409D01*
X65928364Y-118218600D01*
X65832857Y-117837316D01*
X65700438Y-117467228D01*
X65532381Y-117111903D01*
X65330306Y-116774761D01*
X65257336Y-116676372D01*
X93061778Y-116676372D01*
X93061778Y-116918949D01*
X93093439Y-117159446D01*
X93156225Y-117393765D01*
X93186655Y-117467229D01*
X93249054Y-117617873D01*
X93370342Y-117827950D01*
X93370344Y-117827953D01*
X93370345Y-117827954D01*
X93518011Y-118020397D01*
X93518017Y-118020404D01*
X93689534Y-118191921D01*
X93689540Y-118191926D01*
X93881989Y-118339597D01*
X94092066Y-118460885D01*
X94316178Y-118553715D01*
X94550489Y-118616499D01*
X94730864Y-118640245D01*
X94790989Y-118648161D01*
X94790990Y-118648161D01*
X95033567Y-118648161D01*
X95081666Y-118641828D01*
X95274067Y-118616499D01*
X95508378Y-118553715D01*
X95732490Y-118460885D01*
X95942567Y-118339597D01*
X96135016Y-118191926D01*
X96306543Y-118020399D01*
X96454214Y-117827950D01*
X96575502Y-117617873D01*
X96668332Y-117393761D01*
X96731116Y-117159450D01*
X96762778Y-116918949D01*
X96762778Y-116676373D01*
X96762778Y-116676372D01*
X102061778Y-116676372D01*
X102061778Y-116918949D01*
X102093439Y-117159446D01*
X102156225Y-117393765D01*
X102186655Y-117467229D01*
X102249054Y-117617873D01*
X102370342Y-117827950D01*
X102370344Y-117827953D01*
X102370345Y-117827954D01*
X102518011Y-118020397D01*
X102518017Y-118020404D01*
X102689534Y-118191921D01*
X102689540Y-118191926D01*
X102881989Y-118339597D01*
X103092066Y-118460885D01*
X103316178Y-118553715D01*
X103550489Y-118616499D01*
X103730864Y-118640245D01*
X103790989Y-118648161D01*
X103790990Y-118648161D01*
X104033567Y-118648161D01*
X104081666Y-118641828D01*
X104274067Y-118616499D01*
X104508378Y-118553715D01*
X104732490Y-118460885D01*
X104942567Y-118339597D01*
X105135016Y-118191926D01*
X105306543Y-118020399D01*
X105454214Y-117827950D01*
X105575502Y-117617873D01*
X105668332Y-117393761D01*
X105731116Y-117159450D01*
X105762778Y-116918949D01*
X105762778Y-116676373D01*
X105731116Y-116435872D01*
X105668332Y-116201561D01*
X105575502Y-115977449D01*
X105454214Y-115767372D01*
X105306543Y-115574923D01*
X105306538Y-115574917D01*
X105135021Y-115403400D01*
X105135014Y-115403394D01*
X104942571Y-115255728D01*
X104942570Y-115255727D01*
X104942567Y-115255725D01*
X104732490Y-115134437D01*
X104732483Y-115134434D01*
X104508382Y-115041608D01*
X104274063Y-114978822D01*
X104033567Y-114947161D01*
X104033566Y-114947161D01*
X103790990Y-114947161D01*
X103790989Y-114947161D01*
X103550492Y-114978822D01*
X103316173Y-115041608D01*
X103092072Y-115134434D01*
X103092063Y-115134438D01*
X102881984Y-115255728D01*
X102689541Y-115403394D01*
X102689534Y-115403400D01*
X102518017Y-115574917D01*
X102518011Y-115574924D01*
X102370345Y-115767367D01*
X102249055Y-115977446D01*
X102249051Y-115977455D01*
X102156225Y-116201556D01*
X102093439Y-116435875D01*
X102061778Y-116676372D01*
X96762778Y-116676372D01*
X96731116Y-116435872D01*
X96668332Y-116201561D01*
X96575502Y-115977449D01*
X96454214Y-115767372D01*
X96306543Y-115574923D01*
X96306538Y-115574917D01*
X96135021Y-115403400D01*
X96135014Y-115403394D01*
X95942571Y-115255728D01*
X95942570Y-115255727D01*
X95942567Y-115255725D01*
X95732490Y-115134437D01*
X95732483Y-115134434D01*
X95508382Y-115041608D01*
X95274063Y-114978822D01*
X95033567Y-114947161D01*
X95033566Y-114947161D01*
X94790990Y-114947161D01*
X94790989Y-114947161D01*
X94550492Y-114978822D01*
X94316173Y-115041608D01*
X94092072Y-115134434D01*
X94092063Y-115134438D01*
X93881984Y-115255728D01*
X93689541Y-115403394D01*
X93689534Y-115403400D01*
X93518017Y-115574917D01*
X93518011Y-115574924D01*
X93370345Y-115767367D01*
X93249055Y-115977446D01*
X93249051Y-115977455D01*
X93156225Y-116201556D01*
X93093439Y-116435875D01*
X93061778Y-116676372D01*
X65257336Y-116676372D01*
X65096158Y-116459049D01*
X65096153Y-116459043D01*
X64832192Y-116167807D01*
X64540956Y-115903846D01*
X64356942Y-115767372D01*
X64225239Y-115669694D01*
X64225236Y-115669692D01*
X63888100Y-115467620D01*
X63532772Y-115299562D01*
X63532770Y-115299561D01*
X63162684Y-115167143D01*
X62781406Y-115071637D01*
X62781401Y-115071636D01*
X62781400Y-115071636D01*
X62637256Y-115050254D01*
X62392599Y-115013963D01*
X62392597Y-115013962D01*
X62392591Y-115013962D01*
X62000000Y-114994675D01*
X61607409Y-115013962D01*
X61607403Y-115013962D01*
X61607400Y-115013963D01*
X61218593Y-115071637D01*
X60837315Y-115167143D01*
X60467229Y-115299561D01*
X60467227Y-115299562D01*
X60111899Y-115467620D01*
X59774763Y-115669692D01*
X59459043Y-115903846D01*
X59167807Y-116167807D01*
X58903846Y-116459043D01*
X58669692Y-116774763D01*
X58467620Y-117111899D01*
X58299562Y-117467227D01*
X58299561Y-117467229D01*
X58167143Y-117837315D01*
X58071637Y-118218593D01*
X58021927Y-118553715D01*
X58013962Y-118607409D01*
X57994675Y-119000000D01*
X57500500Y-119000000D01*
X57500500Y-69340272D01*
X62089244Y-69340272D01*
X62089244Y-69340275D01*
X62109076Y-69566960D01*
X62109078Y-69566971D01*
X62167970Y-69786762D01*
X62167973Y-69786771D01*
X62264143Y-69993006D01*
X62264144Y-69993008D01*
X62394666Y-70179415D01*
X62555570Y-70340319D01*
X62555573Y-70340321D01*
X62741978Y-70470842D01*
X62799987Y-70497892D01*
X62852426Y-70544065D01*
X62871578Y-70611258D01*
X62851362Y-70678139D01*
X62799987Y-70722656D01*
X62741979Y-70749705D01*
X62741977Y-70749706D01*
X62555570Y-70880228D01*
X62394666Y-71041132D01*
X62264144Y-71227539D01*
X62264143Y-71227541D01*
X62167973Y-71433776D01*
X62167970Y-71433785D01*
X62109078Y-71653576D01*
X62109076Y-71653587D01*
X62089244Y-71880272D01*
X62089244Y-71880275D01*
X62109076Y-72106960D01*
X62109078Y-72106971D01*
X62167970Y-72326762D01*
X62167973Y-72326771D01*
X62264143Y-72533006D01*
X62264144Y-72533008D01*
X62394666Y-72719415D01*
X62555570Y-72880319D01*
X62555573Y-72880321D01*
X62741978Y-73010842D01*
X62799987Y-73037892D01*
X62852426Y-73084065D01*
X62871578Y-73151258D01*
X62851362Y-73218139D01*
X62799987Y-73262656D01*
X62741979Y-73289705D01*
X62741977Y-73289706D01*
X62555570Y-73420228D01*
X62394666Y-73581132D01*
X62264144Y-73767539D01*
X62264143Y-73767541D01*
X62167973Y-73973776D01*
X62167970Y-73973785D01*
X62109078Y-74193576D01*
X62109076Y-74193587D01*
X62089244Y-74420272D01*
X62089244Y-74420275D01*
X62109076Y-74646960D01*
X62109078Y-74646971D01*
X62167970Y-74866762D01*
X62167973Y-74866771D01*
X62264143Y-75073006D01*
X62264144Y-75073008D01*
X62394666Y-75259415D01*
X62555570Y-75420319D01*
X62555573Y-75420321D01*
X62741978Y-75550842D01*
X62788769Y-75572661D01*
X62799987Y-75577892D01*
X62852426Y-75624065D01*
X62871578Y-75691258D01*
X62851362Y-75758139D01*
X62799987Y-75802656D01*
X62741979Y-75829705D01*
X62741977Y-75829706D01*
X62555570Y-75960228D01*
X62394666Y-76121132D01*
X62264144Y-76307539D01*
X62264143Y-76307541D01*
X62167973Y-76513776D01*
X62167970Y-76513785D01*
X62109078Y-76733576D01*
X62109076Y-76733587D01*
X62089244Y-76960272D01*
X62089244Y-76960275D01*
X62109076Y-77186960D01*
X62109078Y-77186971D01*
X62167970Y-77406762D01*
X62167973Y-77406771D01*
X62264143Y-77613006D01*
X62264144Y-77613008D01*
X62394666Y-77799415D01*
X62555570Y-77960319D01*
X62555573Y-77960321D01*
X62741978Y-78090842D01*
X62799987Y-78117892D01*
X62852426Y-78164065D01*
X62871578Y-78231258D01*
X62851362Y-78298139D01*
X62799987Y-78342656D01*
X62741979Y-78369705D01*
X62741977Y-78369706D01*
X62555570Y-78500228D01*
X62394666Y-78661132D01*
X62264144Y-78847539D01*
X62264143Y-78847541D01*
X62167973Y-79053776D01*
X62167970Y-79053785D01*
X62109078Y-79273576D01*
X62109076Y-79273587D01*
X62089244Y-79500272D01*
X62089244Y-79500275D01*
X62109076Y-79726960D01*
X62109078Y-79726971D01*
X62167970Y-79946762D01*
X62167973Y-79946771D01*
X62264143Y-80153006D01*
X62264144Y-80153008D01*
X62394666Y-80339415D01*
X62555570Y-80500319D01*
X62555573Y-80500321D01*
X62741978Y-80630842D01*
X62799987Y-80657892D01*
X62852426Y-80704065D01*
X62871578Y-80771258D01*
X62851362Y-80838139D01*
X62799987Y-80882656D01*
X62741979Y-80909705D01*
X62741977Y-80909706D01*
X62555570Y-81040228D01*
X62394666Y-81201132D01*
X62264144Y-81387539D01*
X62264143Y-81387541D01*
X62167973Y-81593776D01*
X62167970Y-81593785D01*
X62109078Y-81813576D01*
X62109076Y-81813587D01*
X62089244Y-82040272D01*
X62089244Y-82040275D01*
X62109076Y-82266960D01*
X62109078Y-82266971D01*
X62167970Y-82486762D01*
X62167973Y-82486771D01*
X62264143Y-82693006D01*
X62264144Y-82693008D01*
X62394666Y-82879415D01*
X62555570Y-83040319D01*
X62555573Y-83040321D01*
X62741978Y-83170842D01*
X62799987Y-83197892D01*
X62852426Y-83244065D01*
X62871578Y-83311258D01*
X62851362Y-83378139D01*
X62799987Y-83422656D01*
X62741979Y-83449705D01*
X62741977Y-83449706D01*
X62555570Y-83580228D01*
X62394666Y-83741132D01*
X62264144Y-83927539D01*
X62264143Y-83927541D01*
X62167973Y-84133776D01*
X62167970Y-84133785D01*
X62109078Y-84353576D01*
X62109076Y-84353587D01*
X62089244Y-84580272D01*
X62089244Y-84580275D01*
X62109076Y-84806960D01*
X62109078Y-84806971D01*
X62167970Y-85026762D01*
X62167973Y-85026771D01*
X62264143Y-85233006D01*
X62264144Y-85233008D01*
X62394666Y-85419415D01*
X62555570Y-85580319D01*
X62555573Y-85580321D01*
X62741978Y-85710842D01*
X62799987Y-85737892D01*
X62852426Y-85784065D01*
X62871578Y-85851258D01*
X62851362Y-85918139D01*
X62799987Y-85962656D01*
X62741979Y-85989705D01*
X62741977Y-85989706D01*
X62555570Y-86120228D01*
X62394666Y-86281132D01*
X62264144Y-86467539D01*
X62264143Y-86467541D01*
X62167973Y-86673776D01*
X62167970Y-86673785D01*
X62109078Y-86893576D01*
X62109076Y-86893587D01*
X62089244Y-87120272D01*
X62089244Y-87120275D01*
X62109076Y-87346960D01*
X62109078Y-87346971D01*
X62167970Y-87566762D01*
X62167973Y-87566771D01*
X62264143Y-87773006D01*
X62264144Y-87773008D01*
X62394666Y-87959415D01*
X62555570Y-88120319D01*
X62555573Y-88120321D01*
X62741978Y-88250842D01*
X62799987Y-88277892D01*
X62852426Y-88324065D01*
X62871578Y-88391258D01*
X62851362Y-88458139D01*
X62799987Y-88502656D01*
X62741979Y-88529705D01*
X62741977Y-88529706D01*
X62555570Y-88660228D01*
X62394666Y-88821132D01*
X62264144Y-89007539D01*
X62264143Y-89007541D01*
X62167973Y-89213776D01*
X62167970Y-89213785D01*
X62109078Y-89433576D01*
X62109076Y-89433587D01*
X62089244Y-89660272D01*
X62089244Y-89660275D01*
X62109076Y-89886960D01*
X62109078Y-89886971D01*
X62167970Y-90106762D01*
X62167973Y-90106771D01*
X62264143Y-90313006D01*
X62264144Y-90313008D01*
X62394666Y-90499415D01*
X62555570Y-90660319D01*
X62555573Y-90660321D01*
X62741978Y-90790842D01*
X62799987Y-90817892D01*
X62852426Y-90864065D01*
X62871578Y-90931258D01*
X62851362Y-90998139D01*
X62799987Y-91042656D01*
X62741979Y-91069705D01*
X62741977Y-91069706D01*
X62555570Y-91200228D01*
X62394666Y-91361132D01*
X62264144Y-91547539D01*
X62264143Y-91547541D01*
X62167973Y-91753776D01*
X62167970Y-91753785D01*
X62109078Y-91973576D01*
X62109076Y-91973587D01*
X62089244Y-92200272D01*
X62089244Y-92200275D01*
X62109076Y-92426960D01*
X62109078Y-92426971D01*
X62167970Y-92646762D01*
X62167973Y-92646771D01*
X62264143Y-92853006D01*
X62264144Y-92853008D01*
X62394666Y-93039415D01*
X62555570Y-93200319D01*
X62555573Y-93200321D01*
X62741978Y-93330842D01*
X62799987Y-93357892D01*
X62852426Y-93404065D01*
X62871578Y-93471258D01*
X62851362Y-93538139D01*
X62799987Y-93582656D01*
X62741979Y-93609705D01*
X62741977Y-93609706D01*
X62555570Y-93740228D01*
X62394666Y-93901132D01*
X62264144Y-94087539D01*
X62264143Y-94087541D01*
X62167973Y-94293776D01*
X62167970Y-94293785D01*
X62109078Y-94513576D01*
X62109076Y-94513587D01*
X62089244Y-94740272D01*
X62089244Y-94740275D01*
X62109076Y-94966960D01*
X62109078Y-94966971D01*
X62167970Y-95186762D01*
X62167973Y-95186771D01*
X62264143Y-95393006D01*
X62264144Y-95393008D01*
X62394666Y-95579415D01*
X62555570Y-95740319D01*
X62555573Y-95740321D01*
X62741978Y-95870842D01*
X62799987Y-95897892D01*
X62852426Y-95944065D01*
X62871578Y-96011258D01*
X62851362Y-96078139D01*
X62799987Y-96122656D01*
X62741979Y-96149705D01*
X62741977Y-96149706D01*
X62555570Y-96280228D01*
X62394666Y-96441132D01*
X62264144Y-96627539D01*
X62264143Y-96627541D01*
X62167973Y-96833776D01*
X62167970Y-96833785D01*
X62109078Y-97053576D01*
X62109076Y-97053587D01*
X62089244Y-97280272D01*
X62089244Y-97280275D01*
X62109076Y-97506960D01*
X62109078Y-97506971D01*
X62167970Y-97726762D01*
X62167973Y-97726771D01*
X62264143Y-97933006D01*
X62264144Y-97933008D01*
X62394666Y-98119415D01*
X62555570Y-98280319D01*
X62555573Y-98280321D01*
X62741978Y-98410842D01*
X62799987Y-98437892D01*
X62852426Y-98484065D01*
X62871578Y-98551258D01*
X62851362Y-98618139D01*
X62799987Y-98662655D01*
X62782984Y-98670584D01*
X62741979Y-98689705D01*
X62741977Y-98689706D01*
X62555570Y-98820228D01*
X62394666Y-98981132D01*
X62264144Y-99167539D01*
X62264143Y-99167541D01*
X62167973Y-99373776D01*
X62167970Y-99373785D01*
X62109078Y-99593576D01*
X62109076Y-99593587D01*
X62089244Y-99820272D01*
X62089244Y-99820275D01*
X62109076Y-100046960D01*
X62109078Y-100046971D01*
X62167970Y-100266762D01*
X62167973Y-100266771D01*
X62264143Y-100473006D01*
X62264144Y-100473008D01*
X62394666Y-100659415D01*
X62555570Y-100820319D01*
X62555573Y-100820321D01*
X62741978Y-100950842D01*
X62800577Y-100978167D01*
X62853017Y-101024339D01*
X62872169Y-101091532D01*
X62851954Y-101158413D01*
X62800579Y-101202931D01*
X62742225Y-101230142D01*
X62742224Y-101230142D01*
X62669238Y-101281247D01*
X62669238Y-101281248D01*
X63348265Y-101960274D01*
X63342051Y-101960274D01*
X63240318Y-101987533D01*
X63149106Y-102040194D01*
X63074632Y-102114668D01*
X63021971Y-102205880D01*
X62994712Y-102307613D01*
X62994712Y-102313826D01*
X62315686Y-101634800D01*
X62315685Y-101634800D01*
X62264580Y-101707786D01*
X62264578Y-101707790D01*
X62168446Y-101913947D01*
X62168442Y-101913956D01*
X62109572Y-102133663D01*
X62109570Y-102133674D01*
X62089746Y-102360271D01*
X62089746Y-102360276D01*
X62109570Y-102586873D01*
X62109572Y-102586884D01*
X62168442Y-102806591D01*
X62168447Y-102806605D01*
X62264575Y-103012752D01*
X62315686Y-103085746D01*
X62994712Y-102406720D01*
X62994712Y-102412935D01*
X63021971Y-102514668D01*
X63074632Y-102605880D01*
X63149106Y-102680354D01*
X63240318Y-102733015D01*
X63342051Y-102760274D01*
X63348265Y-102760274D01*
X62669238Y-103439299D01*
X62742225Y-103490406D01*
X62742233Y-103490410D01*
X62800576Y-103517616D01*
X62853016Y-103563788D01*
X62872168Y-103630981D01*
X62851953Y-103697863D01*
X62800578Y-103742379D01*
X62741984Y-103769702D01*
X62741977Y-103769706D01*
X62555570Y-103900228D01*
X62394666Y-104061132D01*
X62264144Y-104247539D01*
X62264143Y-104247541D01*
X62167973Y-104453776D01*
X62167970Y-104453785D01*
X62109078Y-104673576D01*
X62109076Y-104673587D01*
X62089244Y-104900272D01*
X62089244Y-104900275D01*
X62109076Y-105126960D01*
X62109078Y-105126971D01*
X62167970Y-105346762D01*
X62167973Y-105346771D01*
X62264143Y-105553006D01*
X62264144Y-105553008D01*
X62394666Y-105739415D01*
X62555570Y-105900319D01*
X62741974Y-106030840D01*
X62741976Y-106030840D01*
X62741978Y-106030842D01*
X62749275Y-106034244D01*
X62749945Y-106034557D01*
X62785223Y-106059259D01*
X70277453Y-113551489D01*
X70436694Y-113667185D01*
X70519553Y-113709403D01*
X70612068Y-113756543D01*
X70612070Y-113756543D01*
X70612073Y-113756545D01*
X70712417Y-113789148D01*
X70799272Y-113817370D01*
X70993677Y-113848161D01*
X70993682Y-113848161D01*
X95901583Y-113848161D01*
X96901583Y-113848161D01*
X97437778Y-113848161D01*
X97504817Y-113867846D01*
X97550572Y-113920650D01*
X97561778Y-113972161D01*
X97561778Y-114247676D01*
X97572278Y-114350456D01*
X97572279Y-114350457D01*
X97627464Y-114516996D01*
X97627465Y-114516998D01*
X97719564Y-114666312D01*
X97719567Y-114666316D01*
X97843622Y-114790371D01*
X97843626Y-114790374D01*
X97992940Y-114882473D01*
X97992942Y-114882474D01*
X97992944Y-114882475D01*
X98159481Y-114937660D01*
X98262270Y-114948161D01*
X98262275Y-114948161D01*
X100562281Y-114948161D01*
X100562286Y-114948161D01*
X100665075Y-114937660D01*
X100831612Y-114882475D01*
X100980933Y-114790372D01*
X101104989Y-114666316D01*
X101197092Y-114516995D01*
X101252277Y-114350458D01*
X101262778Y-114247669D01*
X101262778Y-113972161D01*
X101282463Y-113905122D01*
X101335267Y-113859367D01*
X101386778Y-113848161D01*
X136500761Y-113848161D01*
X136695165Y-113817370D01*
X136882365Y-113756545D01*
X137057744Y-113667185D01*
X137216985Y-113551489D01*
X139953828Y-110814646D01*
X140069523Y-110655406D01*
X140156676Y-110484357D01*
X140158581Y-110480954D01*
X140158883Y-110480026D01*
X140158884Y-110480025D01*
X140219709Y-110292826D01*
X140250500Y-110098422D01*
X140250500Y-73901577D01*
X140219709Y-73707173D01*
X140166438Y-73543224D01*
X140166438Y-73543223D01*
X140158884Y-73519974D01*
X140069524Y-73344595D01*
X139953828Y-73185354D01*
X138794646Y-72026172D01*
X138635405Y-71910476D01*
X138460030Y-71821117D01*
X138272826Y-71760290D01*
X138078422Y-71729500D01*
X138078417Y-71729500D01*
X135774143Y-71729500D01*
X135742050Y-71725275D01*
X135626697Y-71694366D01*
X135626693Y-71694365D01*
X135626692Y-71694365D01*
X135626691Y-71694364D01*
X135626686Y-71694364D01*
X135400002Y-71674532D01*
X135399998Y-71674532D01*
X135173313Y-71694364D01*
X135173302Y-71694366D01*
X134953511Y-71753258D01*
X134953502Y-71753261D01*
X134747267Y-71849431D01*
X134747265Y-71849432D01*
X134560858Y-71979954D01*
X134399954Y-72140858D01*
X134269432Y-72327265D01*
X134269431Y-72327267D01*
X134173261Y-72533502D01*
X134173258Y-72533511D01*
X134114366Y-72753302D01*
X134114364Y-72753313D01*
X134094532Y-72979998D01*
X134094532Y-72980001D01*
X134114364Y-73206686D01*
X134114366Y-73206697D01*
X134173258Y-73426488D01*
X134173261Y-73426497D01*
X134269431Y-73632732D01*
X134269432Y-73632734D01*
X134399954Y-73819141D01*
X134560858Y-73980045D01*
X134560861Y-73980047D01*
X134747266Y-74110568D01*
X134805865Y-74137893D01*
X134858305Y-74184065D01*
X134877457Y-74251258D01*
X134857242Y-74318139D01*
X134805867Y-74362657D01*
X134747513Y-74389868D01*
X134747512Y-74389868D01*
X134674526Y-74440973D01*
X134674526Y-74440974D01*
X135353553Y-75120000D01*
X135347339Y-75120000D01*
X135245606Y-75147259D01*
X135154394Y-75199920D01*
X135079920Y-75274394D01*
X135027259Y-75365606D01*
X135000000Y-75467339D01*
X135000000Y-75473553D01*
X134320974Y-74794526D01*
X134320973Y-74794526D01*
X134269868Y-74867512D01*
X134269866Y-74867516D01*
X134173734Y-75073673D01*
X134173731Y-75073680D01*
X134156384Y-75138421D01*
X134120019Y-75198081D01*
X134057172Y-75228610D01*
X133987796Y-75220315D01*
X133948928Y-75194008D01*
X120152866Y-61397946D01*
X120152846Y-61397924D01*
X120009172Y-61254250D01*
X120009168Y-61254247D01*
X119845307Y-61144758D01*
X119845294Y-61144751D01*
X119707294Y-61087591D01*
X119663223Y-61069336D01*
X119663215Y-61069334D01*
X119566575Y-61050111D01*
X119469931Y-61030887D01*
X119469928Y-61030887D01*
X107368313Y-61030887D01*
X107301274Y-61011202D01*
X107255519Y-60958398D01*
X107244313Y-60906887D01*
X107244313Y-60881387D01*
X103794313Y-60881387D01*
X103794313Y-61179231D01*
X103800714Y-61238759D01*
X103800716Y-61238770D01*
X103818832Y-61287340D01*
X103823816Y-61357031D01*
X103818833Y-61374003D01*
X103800221Y-61423904D01*
X103793814Y-61483503D01*
X103793813Y-61483522D01*
X103793813Y-62579257D01*
X103793814Y-62579263D01*
X103800222Y-62638871D01*
X103818832Y-62688769D01*
X103823816Y-62758461D01*
X103818833Y-62775433D01*
X103800715Y-62824010D01*
X103800714Y-62824014D01*
X103794313Y-62883542D01*
X103794313Y-63181387D01*
X107244313Y-63181387D01*
X107244313Y-63155887D01*
X107263998Y-63088848D01*
X107316802Y-63043093D01*
X107368313Y-63031887D01*
X118905605Y-63031887D01*
X118972644Y-63051572D01*
X118993286Y-63068206D01*
X119544286Y-63619206D01*
X119577771Y-63680529D01*
X119572787Y-63750221D01*
X119530915Y-63806154D01*
X119465451Y-63830571D01*
X119456605Y-63830887D01*
X107368313Y-63830887D01*
X107301274Y-63811202D01*
X107255519Y-63758398D01*
X107244313Y-63706887D01*
X107244313Y-63681387D01*
X103794313Y-63681387D01*
X103794313Y-63979231D01*
X103800714Y-64038759D01*
X103800716Y-64038770D01*
X103818832Y-64087340D01*
X103823816Y-64157031D01*
X103818833Y-64174003D01*
X103800221Y-64223904D01*
X103793814Y-64283503D01*
X103793814Y-64283510D01*
X103793813Y-64283522D01*
X103793813Y-65379257D01*
X103793814Y-65379263D01*
X103800221Y-65438869D01*
X103803857Y-65448616D01*
X103818565Y-65488052D01*
X103818566Y-65488053D01*
X103823550Y-65557745D01*
X103818566Y-65574718D01*
X103800222Y-65623901D01*
X103800221Y-65623903D01*
X103793814Y-65683503D01*
X103793814Y-65683510D01*
X103793813Y-65683522D01*
X103793813Y-66779257D01*
X103793814Y-66779263D01*
X103800221Y-66838869D01*
X103813317Y-66873980D01*
X103818565Y-66888052D01*
X103818566Y-66888053D01*
X103823550Y-66957745D01*
X103818566Y-66974718D01*
X103800222Y-67023901D01*
X103800221Y-67023903D01*
X103793814Y-67083503D01*
X103793814Y-67083510D01*
X103793813Y-67083522D01*
X103793813Y-68179257D01*
X103793814Y-68179263D01*
X103800221Y-68238869D01*
X103818566Y-68288053D01*
X103823550Y-68357745D01*
X103818566Y-68374718D01*
X103800222Y-68423901D01*
X103800221Y-68423903D01*
X103793814Y-68483503D01*
X103793813Y-68483522D01*
X103793813Y-69476887D01*
X103774128Y-69543926D01*
X103721324Y-69589681D01*
X103669814Y-69600887D01*
X103471443Y-69600887D01*
X103471436Y-69600888D01*
X103411829Y-69607295D01*
X103362645Y-69625640D01*
X103292953Y-69630624D01*
X103275980Y-69625640D01*
X103226795Y-69607295D01*
X103226796Y-69607295D01*
X103167196Y-69600888D01*
X103167194Y-69600887D01*
X103167186Y-69600887D01*
X103167177Y-69600887D01*
X102071442Y-69600887D01*
X102071436Y-69600888D01*
X102011829Y-69607295D01*
X101962645Y-69625640D01*
X101892953Y-69630624D01*
X101875980Y-69625640D01*
X101826795Y-69607295D01*
X101826796Y-69607295D01*
X101767196Y-69600888D01*
X101767194Y-69600887D01*
X101767186Y-69600887D01*
X101767177Y-69600887D01*
X100671442Y-69600887D01*
X100671436Y-69600888D01*
X100611829Y-69607295D01*
X100562645Y-69625640D01*
X100492953Y-69630624D01*
X100475980Y-69625640D01*
X100426795Y-69607295D01*
X100426796Y-69607295D01*
X100367196Y-69600888D01*
X100367194Y-69600887D01*
X100367186Y-69600887D01*
X100367177Y-69600887D01*
X99271442Y-69600887D01*
X99271436Y-69600888D01*
X99211829Y-69607295D01*
X99162645Y-69625640D01*
X99092953Y-69630624D01*
X99075980Y-69625640D01*
X99026795Y-69607295D01*
X99026796Y-69607295D01*
X98967196Y-69600888D01*
X98967194Y-69600887D01*
X98967186Y-69600887D01*
X98967177Y-69600887D01*
X97871442Y-69600887D01*
X97871436Y-69600888D01*
X97811829Y-69607295D01*
X97762645Y-69625640D01*
X97692953Y-69630624D01*
X97675980Y-69625640D01*
X97626795Y-69607295D01*
X97626796Y-69607295D01*
X97567196Y-69600888D01*
X97567194Y-69600887D01*
X97567186Y-69600887D01*
X97567177Y-69600887D01*
X96471442Y-69600887D01*
X96471436Y-69600888D01*
X96411829Y-69607295D01*
X96362645Y-69625640D01*
X96292953Y-69630624D01*
X96275980Y-69625640D01*
X96226795Y-69607295D01*
X96226796Y-69607295D01*
X96167196Y-69600888D01*
X96167194Y-69600887D01*
X96167186Y-69600887D01*
X96167177Y-69600887D01*
X95071442Y-69600887D01*
X95071436Y-69600888D01*
X95011829Y-69607295D01*
X94962645Y-69625640D01*
X94892953Y-69630624D01*
X94875980Y-69625640D01*
X94826795Y-69607295D01*
X94826796Y-69607295D01*
X94767196Y-69600888D01*
X94767194Y-69600887D01*
X94767186Y-69600887D01*
X94767178Y-69600887D01*
X94568313Y-69600887D01*
X94501274Y-69581202D01*
X94455519Y-69528398D01*
X94444313Y-69476887D01*
X94444313Y-69281387D01*
X92969313Y-69281387D01*
X92969313Y-70031387D01*
X93094813Y-70031387D01*
X93161852Y-70051072D01*
X93207607Y-70103876D01*
X93218813Y-70155387D01*
X93218813Y-71736605D01*
X93199128Y-71803644D01*
X93146324Y-71849399D01*
X93077166Y-71859343D01*
X93013610Y-71830318D01*
X93007132Y-71824286D01*
X91831132Y-70648286D01*
X91797647Y-70586963D01*
X91794813Y-70560605D01*
X91794813Y-70155387D01*
X91814498Y-70088348D01*
X91867302Y-70042593D01*
X91918813Y-70031387D01*
X92469313Y-70031387D01*
X92469313Y-69155387D01*
X92488998Y-69088348D01*
X92541802Y-69042593D01*
X92593313Y-69031387D01*
X92719313Y-69031387D01*
X92719313Y-68905387D01*
X92738998Y-68838348D01*
X92791802Y-68792593D01*
X92843313Y-68781387D01*
X94444313Y-68781387D01*
X94444313Y-68483559D01*
X94444312Y-68483542D01*
X94437911Y-68424014D01*
X94419792Y-68375435D01*
X94414808Y-68305743D01*
X94419789Y-68288778D01*
X94438404Y-68238870D01*
X94444813Y-68179260D01*
X94444812Y-67083515D01*
X94438404Y-67023904D01*
X94420060Y-66974721D01*
X94415075Y-66905030D01*
X94420060Y-66888052D01*
X94438402Y-66838875D01*
X94438404Y-66838870D01*
X94444813Y-66779260D01*
X94444812Y-65683515D01*
X94438404Y-65623904D01*
X94423003Y-65582611D01*
X94420060Y-65574721D01*
X94415075Y-65505030D01*
X94420060Y-65488052D01*
X94438402Y-65438875D01*
X94438404Y-65438870D01*
X94444813Y-65379260D01*
X94444812Y-64283515D01*
X94438404Y-64223904D01*
X94420060Y-64174721D01*
X94415075Y-64105030D01*
X94420060Y-64088052D01*
X94438402Y-64038875D01*
X94438401Y-64038875D01*
X94438404Y-64038870D01*
X94444813Y-63979260D01*
X94444812Y-63746167D01*
X94464496Y-63679129D01*
X94517300Y-63633374D01*
X94586459Y-63623430D01*
X94650014Y-63652455D01*
X94656493Y-63658487D01*
X96816421Y-65818416D01*
X96849906Y-65879739D01*
X96852211Y-65917537D01*
X96844571Y-65999998D01*
X96844571Y-66000000D01*
X96864244Y-66212310D01*
X96922596Y-66417392D01*
X96922596Y-66417394D01*
X97017632Y-66608253D01*
X97090920Y-66705301D01*
X97146128Y-66778407D01*
X97303698Y-66922052D01*
X97484981Y-67034298D01*
X97683802Y-67111321D01*
X97893390Y-67150500D01*
X97893392Y-67150500D01*
X98106608Y-67150500D01*
X98106610Y-67150500D01*
X98316198Y-67111321D01*
X98515019Y-67034298D01*
X98696302Y-66922052D01*
X98853872Y-66778407D01*
X98982366Y-66608255D01*
X98998098Y-66576660D01*
X99077403Y-66417394D01*
X99077403Y-66417393D01*
X99077405Y-66417389D01*
X99135756Y-66212310D01*
X99155429Y-66000000D01*
X99135756Y-65787690D01*
X99077405Y-65582611D01*
X99073476Y-65574721D01*
X99049793Y-65527159D01*
X98987884Y-65402827D01*
X98977271Y-65371760D01*
X98962051Y-65295238D01*
X98924341Y-65204199D01*
X98886632Y-65113161D01*
X98849967Y-65058288D01*
X98777140Y-64949293D01*
X98777138Y-64949291D01*
X98777136Y-64949288D01*
X98777135Y-64949287D01*
X95228522Y-61400676D01*
X95228519Y-61400672D01*
X95228519Y-61400673D01*
X95221452Y-61393606D01*
X95221452Y-61393605D01*
X95082095Y-61254248D01*
X95082094Y-61254247D01*
X95082093Y-61254246D01*
X94918233Y-61144758D01*
X94918220Y-61144751D01*
X94780220Y-61087591D01*
X94736149Y-61069336D01*
X94736141Y-61069334D01*
X94639501Y-61050111D01*
X94544621Y-61031238D01*
X94482710Y-60998853D01*
X94448136Y-60938137D01*
X94444812Y-60909628D01*
X94444812Y-60083515D01*
X94438404Y-60023904D01*
X94420060Y-59974721D01*
X94415075Y-59905030D01*
X94420060Y-59888052D01*
X94438402Y-59838875D01*
X94438404Y-59838870D01*
X94444813Y-59779260D01*
X94444813Y-59779231D01*
X103794313Y-59779231D01*
X103800714Y-59838759D01*
X103800716Y-59838767D01*
X103819099Y-59888054D01*
X103824083Y-59957746D01*
X103819099Y-59974720D01*
X103800716Y-60024006D01*
X103800714Y-60024014D01*
X103794313Y-60083542D01*
X103794313Y-60381387D01*
X105269313Y-60381387D01*
X105769313Y-60381387D01*
X107244313Y-60381387D01*
X107244313Y-60083559D01*
X107244312Y-60083542D01*
X107237910Y-60024009D01*
X107237910Y-60024008D01*
X107219527Y-59974722D01*
X107214541Y-59905031D01*
X107219527Y-59888052D01*
X107237910Y-59838765D01*
X107237910Y-59838764D01*
X107244312Y-59779231D01*
X107244313Y-59779214D01*
X107244313Y-59481387D01*
X105769313Y-59481387D01*
X105769313Y-60381387D01*
X105269313Y-60381387D01*
X105269313Y-59481387D01*
X103794313Y-59481387D01*
X103794313Y-59779231D01*
X94444813Y-59779231D01*
X94444812Y-59000000D01*
X132994675Y-59000000D01*
X133013962Y-59392591D01*
X133013962Y-59392597D01*
X133013963Y-59392599D01*
X133050254Y-59637256D01*
X133071318Y-59779259D01*
X133071637Y-59781406D01*
X133167143Y-60162684D01*
X133299561Y-60532770D01*
X133299562Y-60532772D01*
X133467620Y-60888100D01*
X133642137Y-61179263D01*
X133669694Y-61225239D01*
X133817033Y-61423903D01*
X133903846Y-61540956D01*
X134167807Y-61832192D01*
X134459043Y-62096153D01*
X134459049Y-62096158D01*
X134774761Y-62330306D01*
X134774763Y-62330307D01*
X135111899Y-62532379D01*
X135111902Y-62532380D01*
X135111903Y-62532381D01*
X135467228Y-62700438D01*
X135837316Y-62832857D01*
X136218600Y-62928364D01*
X136607409Y-62986038D01*
X137000000Y-63005325D01*
X137392591Y-62986038D01*
X137781400Y-62928364D01*
X138162684Y-62832857D01*
X138532772Y-62700438D01*
X138888097Y-62532381D01*
X139225239Y-62330306D01*
X139540951Y-62096158D01*
X139832192Y-61832192D01*
X140096158Y-61540951D01*
X140330306Y-61225239D01*
X140532381Y-60888097D01*
X140700438Y-60532772D01*
X140832857Y-60162684D01*
X140928364Y-59781400D01*
X140986038Y-59392591D01*
X141005325Y-59000000D01*
X140986038Y-58607409D01*
X140928364Y-58218600D01*
X140832857Y-57837316D01*
X140700438Y-57467228D01*
X140532381Y-57111903D01*
X140330306Y-56774761D01*
X140096158Y-56459049D01*
X140096153Y-56459043D01*
X139832192Y-56167807D01*
X139540956Y-55903846D01*
X139225236Y-55669692D01*
X138888100Y-55467620D01*
X138532772Y-55299562D01*
X138532770Y-55299561D01*
X138162684Y-55167143D01*
X137781406Y-55071637D01*
X137781401Y-55071636D01*
X137781400Y-55071636D01*
X137637256Y-55050254D01*
X137392599Y-55013963D01*
X137392597Y-55013962D01*
X137392591Y-55013962D01*
X137000000Y-54994675D01*
X136607409Y-55013962D01*
X136607403Y-55013962D01*
X136607400Y-55013963D01*
X136218593Y-55071637D01*
X135837315Y-55167143D01*
X135467229Y-55299561D01*
X135467227Y-55299562D01*
X135111899Y-55467620D01*
X134774763Y-55669692D01*
X134459043Y-55903846D01*
X134167807Y-56167807D01*
X133903846Y-56459043D01*
X133669692Y-56774763D01*
X133467620Y-57111899D01*
X133299562Y-57467227D01*
X133299561Y-57467229D01*
X133167143Y-57837315D01*
X133071637Y-58218593D01*
X133031482Y-58489300D01*
X133013962Y-58607409D01*
X132994675Y-59000000D01*
X94444812Y-59000000D01*
X94444812Y-58683542D01*
X103794313Y-58683542D01*
X103794313Y-58981387D01*
X105269313Y-58981387D01*
X105769313Y-58981387D01*
X107244313Y-58981387D01*
X107244313Y-58683559D01*
X107244312Y-58683542D01*
X107237911Y-58624014D01*
X107237909Y-58624007D01*
X107187667Y-58489300D01*
X107187663Y-58489293D01*
X107101503Y-58374199D01*
X107101500Y-58374196D01*
X106986406Y-58288036D01*
X106986399Y-58288032D01*
X106851692Y-58237790D01*
X106851685Y-58237788D01*
X106792157Y-58231387D01*
X105769313Y-58231387D01*
X105769313Y-58981387D01*
X105269313Y-58981387D01*
X105269313Y-58231387D01*
X104246468Y-58231387D01*
X104186940Y-58237788D01*
X104186933Y-58237790D01*
X104052226Y-58288032D01*
X104052219Y-58288036D01*
X103937125Y-58374196D01*
X103937122Y-58374199D01*
X103850962Y-58489293D01*
X103850958Y-58489300D01*
X103800716Y-58624007D01*
X103800714Y-58624014D01*
X103794313Y-58683542D01*
X94444812Y-58683542D01*
X94444812Y-58683515D01*
X94438404Y-58623904D01*
X94432248Y-58607400D01*
X94388110Y-58489058D01*
X94388106Y-58489051D01*
X94301860Y-58373842D01*
X94301857Y-58373839D01*
X94186648Y-58287593D01*
X94186641Y-58287589D01*
X94051795Y-58237295D01*
X94051796Y-58237295D01*
X93992196Y-58230888D01*
X93992194Y-58230887D01*
X93992186Y-58230887D01*
X93992177Y-58230887D01*
X91446442Y-58230887D01*
X91446436Y-58230888D01*
X91386829Y-58237295D01*
X91251984Y-58287589D01*
X91251977Y-58287593D01*
X91136768Y-58373839D01*
X91136765Y-58373842D01*
X91050519Y-58489051D01*
X91050515Y-58489058D01*
X91000221Y-58623904D01*
X90993814Y-58683503D01*
X90993814Y-58683510D01*
X90993813Y-58683522D01*
X90993813Y-59779257D01*
X90993814Y-59779263D01*
X91000221Y-59838869D01*
X91013317Y-59873980D01*
X91018565Y-59888052D01*
X91018566Y-59888053D01*
X91023550Y-59957745D01*
X91018566Y-59974718D01*
X91000222Y-60023901D01*
X91000221Y-60023903D01*
X90993814Y-60083503D01*
X90993814Y-60083510D01*
X90993813Y-60083522D01*
X90993813Y-61179257D01*
X90993814Y-61179263D01*
X91000221Y-61238869D01*
X91018566Y-61288053D01*
X91023550Y-61357745D01*
X91018566Y-61374718D01*
X91000222Y-61423901D01*
X91000221Y-61423903D01*
X90993814Y-61483503D01*
X90993813Y-61483522D01*
X90993813Y-62579257D01*
X90993814Y-62579263D01*
X91000221Y-62638869D01*
X91018566Y-62688053D01*
X91023550Y-62757745D01*
X91018566Y-62774718D01*
X91000222Y-62823901D01*
X91000221Y-62823903D01*
X90993814Y-62883503D01*
X90993813Y-62883522D01*
X90993813Y-63979257D01*
X90993814Y-63979263D01*
X91000221Y-64038869D01*
X91013317Y-64073980D01*
X91018565Y-64088052D01*
X91018566Y-64088053D01*
X91023550Y-64157745D01*
X91018566Y-64174718D01*
X91000222Y-64223901D01*
X91000221Y-64223903D01*
X90993814Y-64283503D01*
X90993814Y-64283510D01*
X90993813Y-64283522D01*
X90993813Y-65379257D01*
X90993814Y-65379263D01*
X91000221Y-65438869D01*
X91003857Y-65448616D01*
X91018565Y-65488052D01*
X91018566Y-65488053D01*
X91023550Y-65557745D01*
X91018566Y-65574718D01*
X91000222Y-65623901D01*
X91000221Y-65623903D01*
X90993814Y-65683503D01*
X90993814Y-65683510D01*
X90993813Y-65683522D01*
X90993813Y-66509621D01*
X90974128Y-66576660D01*
X90921324Y-66622415D01*
X90894000Y-66631239D01*
X90863700Y-66637265D01*
X90702483Y-66669333D01*
X90702477Y-66669335D01*
X90615650Y-66705301D01*
X90615649Y-66705301D01*
X90520400Y-66744753D01*
X90520397Y-66744755D01*
X90399554Y-66825500D01*
X90399554Y-66825501D01*
X90356529Y-66854248D01*
X90017176Y-67193601D01*
X90017173Y-67193605D01*
X89907684Y-67357466D01*
X89907679Y-67357476D01*
X89854350Y-67486223D01*
X89835039Y-67532847D01*
X89835038Y-67532850D01*
X89832263Y-67539548D01*
X89832259Y-67539562D01*
X89793813Y-67732841D01*
X89793813Y-68214031D01*
X89774128Y-68281070D01*
X89721324Y-68326825D01*
X89652166Y-68336769D01*
X89598691Y-68315607D01*
X89489091Y-68238866D01*
X89447446Y-68209706D01*
X89447444Y-68209705D01*
X89241209Y-68113535D01*
X89241200Y-68113532D01*
X89021409Y-68054640D01*
X89021405Y-68054639D01*
X89021404Y-68054639D01*
X89021403Y-68054638D01*
X89021398Y-68054638D01*
X88794714Y-68034806D01*
X88794710Y-68034806D01*
X88568025Y-68054638D01*
X88568014Y-68054640D01*
X88348223Y-68113532D01*
X88348214Y-68113535D01*
X88141979Y-68209705D01*
X88141977Y-68209706D01*
X87955570Y-68340228D01*
X87794666Y-68501132D01*
X87664144Y-68687539D01*
X87664143Y-68687541D01*
X87567973Y-68893776D01*
X87567970Y-68893785D01*
X87509078Y-69113576D01*
X87509076Y-69113587D01*
X87489244Y-69340272D01*
X87489244Y-69340275D01*
X87509076Y-69566960D01*
X87509078Y-69566971D01*
X87567970Y-69786762D01*
X87567973Y-69786771D01*
X87664143Y-69993006D01*
X87664144Y-69993008D01*
X87794666Y-70179415D01*
X87955570Y-70340319D01*
X87955573Y-70340321D01*
X88141978Y-70470842D01*
X88199987Y-70497892D01*
X88252426Y-70544065D01*
X88271578Y-70611258D01*
X88251362Y-70678139D01*
X88199987Y-70722656D01*
X88141979Y-70749705D01*
X88141977Y-70749706D01*
X87955570Y-70880228D01*
X87794666Y-71041132D01*
X87664144Y-71227539D01*
X87664143Y-71227541D01*
X87567973Y-71433776D01*
X87567970Y-71433785D01*
X87509078Y-71653576D01*
X87509076Y-71653587D01*
X87489244Y-71880272D01*
X87489244Y-71880275D01*
X87509076Y-72106960D01*
X87509078Y-72106971D01*
X87567970Y-72326762D01*
X87567973Y-72326771D01*
X87664143Y-72533006D01*
X87664144Y-72533008D01*
X87794666Y-72719415D01*
X87955570Y-72880319D01*
X87955573Y-72880321D01*
X88141978Y-73010842D01*
X88199987Y-73037892D01*
X88252426Y-73084065D01*
X88271578Y-73151258D01*
X88251362Y-73218139D01*
X88199987Y-73262656D01*
X88141979Y-73289705D01*
X88141977Y-73289706D01*
X87955570Y-73420228D01*
X87794666Y-73581132D01*
X87664144Y-73767539D01*
X87664143Y-73767541D01*
X87567973Y-73973776D01*
X87567970Y-73973785D01*
X87509078Y-74193576D01*
X87509076Y-74193587D01*
X87489244Y-74420272D01*
X87489244Y-74420275D01*
X87509076Y-74646960D01*
X87509078Y-74646971D01*
X87567970Y-74866762D01*
X87567973Y-74866771D01*
X87664143Y-75073006D01*
X87664144Y-75073008D01*
X87794666Y-75259415D01*
X87955570Y-75420319D01*
X87955573Y-75420321D01*
X88141978Y-75550842D01*
X88188769Y-75572661D01*
X88199987Y-75577892D01*
X88252426Y-75624065D01*
X88271578Y-75691258D01*
X88251362Y-75758139D01*
X88199987Y-75802656D01*
X88141979Y-75829705D01*
X88141977Y-75829706D01*
X87955570Y-75960228D01*
X87794666Y-76121132D01*
X87664144Y-76307539D01*
X87664143Y-76307541D01*
X87567973Y-76513776D01*
X87567970Y-76513785D01*
X87509078Y-76733576D01*
X87509076Y-76733587D01*
X87489244Y-76960272D01*
X87489244Y-76960275D01*
X87509076Y-77186960D01*
X87509078Y-77186971D01*
X87567970Y-77406762D01*
X87567973Y-77406771D01*
X87664143Y-77613006D01*
X87664144Y-77613008D01*
X87794666Y-77799415D01*
X87955570Y-77960319D01*
X87955573Y-77960321D01*
X88141978Y-78090842D01*
X88199987Y-78117892D01*
X88252426Y-78164065D01*
X88271578Y-78231258D01*
X88251362Y-78298139D01*
X88199987Y-78342656D01*
X88141979Y-78369705D01*
X88141977Y-78369706D01*
X87955570Y-78500228D01*
X87794666Y-78661132D01*
X87664144Y-78847539D01*
X87664143Y-78847541D01*
X87567973Y-79053776D01*
X87567970Y-79053785D01*
X87509078Y-79273576D01*
X87509076Y-79273587D01*
X87489244Y-79500272D01*
X87489244Y-79500275D01*
X87509076Y-79726960D01*
X87509078Y-79726971D01*
X87567970Y-79946762D01*
X87567973Y-79946771D01*
X87664143Y-80153006D01*
X87664144Y-80153008D01*
X87794666Y-80339415D01*
X87955570Y-80500319D01*
X87955573Y-80500321D01*
X88141978Y-80630842D01*
X88199987Y-80657892D01*
X88252426Y-80704065D01*
X88271578Y-80771258D01*
X88251362Y-80838139D01*
X88199987Y-80882656D01*
X88141979Y-80909705D01*
X88141977Y-80909706D01*
X87955570Y-81040228D01*
X87794666Y-81201132D01*
X87664144Y-81387539D01*
X87664143Y-81387541D01*
X87567973Y-81593776D01*
X87567970Y-81593785D01*
X87509078Y-81813576D01*
X87509076Y-81813587D01*
X87489244Y-82040272D01*
X87489244Y-82040275D01*
X87509076Y-82266960D01*
X87509078Y-82266971D01*
X87567970Y-82486762D01*
X87567973Y-82486771D01*
X87664143Y-82693006D01*
X87664144Y-82693008D01*
X87794666Y-82879415D01*
X87955570Y-83040319D01*
X87955573Y-83040321D01*
X88141978Y-83170842D01*
X88199987Y-83197892D01*
X88252426Y-83244065D01*
X88271578Y-83311258D01*
X88251362Y-83378139D01*
X88199987Y-83422656D01*
X88141979Y-83449705D01*
X88141977Y-83449706D01*
X87955570Y-83580228D01*
X87794666Y-83741132D01*
X87664144Y-83927539D01*
X87664143Y-83927541D01*
X87567973Y-84133776D01*
X87567970Y-84133785D01*
X87509078Y-84353576D01*
X87509076Y-84353587D01*
X87489244Y-84580272D01*
X87489244Y-84580275D01*
X87509076Y-84806960D01*
X87509078Y-84806971D01*
X87567970Y-85026762D01*
X87567973Y-85026771D01*
X87664143Y-85233006D01*
X87664144Y-85233008D01*
X87794666Y-85419415D01*
X87955570Y-85580319D01*
X87955573Y-85580321D01*
X88141978Y-85710842D01*
X88199987Y-85737892D01*
X88252426Y-85784065D01*
X88271578Y-85851258D01*
X88251362Y-85918139D01*
X88199987Y-85962656D01*
X88141979Y-85989705D01*
X88141977Y-85989706D01*
X87955570Y-86120228D01*
X87794666Y-86281132D01*
X87664144Y-86467539D01*
X87664143Y-86467541D01*
X87567973Y-86673776D01*
X87567970Y-86673785D01*
X87509078Y-86893576D01*
X87509076Y-86893587D01*
X87489244Y-87120272D01*
X87489244Y-87120275D01*
X87509076Y-87346960D01*
X87509078Y-87346971D01*
X87567970Y-87566762D01*
X87567973Y-87566771D01*
X87664143Y-87773006D01*
X87664144Y-87773008D01*
X87794666Y-87959415D01*
X87955570Y-88120319D01*
X87955573Y-88120321D01*
X88141978Y-88250842D01*
X88199987Y-88277892D01*
X88252426Y-88324065D01*
X88271578Y-88391258D01*
X88251362Y-88458139D01*
X88199987Y-88502656D01*
X88141979Y-88529705D01*
X88141977Y-88529706D01*
X87955570Y-88660228D01*
X87794666Y-88821132D01*
X87664144Y-89007539D01*
X87664143Y-89007541D01*
X87567973Y-89213776D01*
X87567970Y-89213785D01*
X87509078Y-89433576D01*
X87509076Y-89433587D01*
X87489244Y-89660272D01*
X87489244Y-89660275D01*
X87509076Y-89886960D01*
X87509078Y-89886971D01*
X87567970Y-90106762D01*
X87567973Y-90106771D01*
X87664143Y-90313006D01*
X87664144Y-90313008D01*
X87794666Y-90499415D01*
X87955570Y-90660319D01*
X87955573Y-90660321D01*
X88141978Y-90790842D01*
X88199987Y-90817892D01*
X88252426Y-90864065D01*
X88271578Y-90931258D01*
X88251362Y-90998139D01*
X88199987Y-91042656D01*
X88141979Y-91069705D01*
X88141977Y-91069706D01*
X87955570Y-91200228D01*
X87794666Y-91361132D01*
X87664144Y-91547539D01*
X87664143Y-91547541D01*
X87567973Y-91753776D01*
X87567970Y-91753785D01*
X87509078Y-91973576D01*
X87509076Y-91973587D01*
X87489244Y-92200272D01*
X87489244Y-92200275D01*
X87509076Y-92426960D01*
X87509078Y-92426971D01*
X87567970Y-92646762D01*
X87567973Y-92646771D01*
X87664143Y-92853006D01*
X87664144Y-92853008D01*
X87794666Y-93039415D01*
X87955570Y-93200319D01*
X87955573Y-93200321D01*
X88141978Y-93330842D01*
X88199987Y-93357892D01*
X88252426Y-93404065D01*
X88271578Y-93471258D01*
X88251362Y-93538139D01*
X88199987Y-93582656D01*
X88141979Y-93609705D01*
X88141977Y-93609706D01*
X87955570Y-93740228D01*
X87794666Y-93901132D01*
X87664144Y-94087539D01*
X87664143Y-94087541D01*
X87567973Y-94293776D01*
X87567970Y-94293785D01*
X87509078Y-94513576D01*
X87509076Y-94513587D01*
X87489244Y-94740272D01*
X87489244Y-94740275D01*
X87509076Y-94966960D01*
X87509078Y-94966971D01*
X87567970Y-95186762D01*
X87567973Y-95186771D01*
X87664143Y-95393006D01*
X87664144Y-95393008D01*
X87794666Y-95579415D01*
X87955570Y-95740319D01*
X87955573Y-95740321D01*
X88141978Y-95870842D01*
X88199987Y-95897892D01*
X88252426Y-95944065D01*
X88271578Y-96011258D01*
X88251362Y-96078139D01*
X88199987Y-96122656D01*
X88141979Y-96149705D01*
X88141977Y-96149706D01*
X87955570Y-96280228D01*
X87794666Y-96441132D01*
X87664144Y-96627539D01*
X87664143Y-96627541D01*
X87567973Y-96833776D01*
X87567970Y-96833785D01*
X87509078Y-97053576D01*
X87509076Y-97053587D01*
X87489244Y-97280272D01*
X87489244Y-97280275D01*
X87509076Y-97506960D01*
X87509078Y-97506971D01*
X87567970Y-97726762D01*
X87567973Y-97726771D01*
X87664143Y-97933006D01*
X87664144Y-97933008D01*
X87794666Y-98119415D01*
X87955570Y-98280319D01*
X87955573Y-98280321D01*
X88141978Y-98410842D01*
X88199987Y-98437892D01*
X88252426Y-98484065D01*
X88271578Y-98551258D01*
X88251362Y-98618139D01*
X88199987Y-98662655D01*
X88182984Y-98670584D01*
X88141979Y-98689705D01*
X88141977Y-98689706D01*
X87955570Y-98820228D01*
X87794666Y-98981132D01*
X87664144Y-99167539D01*
X87664143Y-99167541D01*
X87567973Y-99373776D01*
X87567970Y-99373785D01*
X87509078Y-99593576D01*
X87509076Y-99593587D01*
X87489244Y-99820272D01*
X87489244Y-99820275D01*
X87509076Y-100046960D01*
X87509078Y-100046971D01*
X87567970Y-100266762D01*
X87567973Y-100266771D01*
X87664143Y-100473006D01*
X87664144Y-100473008D01*
X87794666Y-100659415D01*
X87955570Y-100820319D01*
X87955573Y-100820321D01*
X88141978Y-100950842D01*
X88200577Y-100978167D01*
X88253017Y-101024339D01*
X88272169Y-101091532D01*
X88251954Y-101158413D01*
X88200579Y-101202931D01*
X88142225Y-101230142D01*
X88142224Y-101230142D01*
X88069238Y-101281247D01*
X88069238Y-101281248D01*
X88748265Y-101960274D01*
X88742051Y-101960274D01*
X88640318Y-101987533D01*
X88549106Y-102040194D01*
X88474632Y-102114668D01*
X88421971Y-102205880D01*
X88394712Y-102307613D01*
X88394712Y-102313826D01*
X87715686Y-101634800D01*
X87715685Y-101634800D01*
X87664580Y-101707786D01*
X87664578Y-101707790D01*
X87568446Y-101913947D01*
X87568442Y-101913956D01*
X87509572Y-102133663D01*
X87509570Y-102133674D01*
X87489746Y-102360271D01*
X87489746Y-102360276D01*
X87509570Y-102586873D01*
X87509572Y-102586884D01*
X87568442Y-102806591D01*
X87568447Y-102806605D01*
X87664575Y-103012752D01*
X87715686Y-103085746D01*
X88394712Y-102406720D01*
X88394712Y-102412935D01*
X88421971Y-102514668D01*
X88474632Y-102605880D01*
X88549106Y-102680354D01*
X88640318Y-102733015D01*
X88742051Y-102760274D01*
X88748265Y-102760274D01*
X88069238Y-103439299D01*
X88142225Y-103490406D01*
X88142233Y-103490410D01*
X88200576Y-103517616D01*
X88253016Y-103563788D01*
X88272168Y-103630981D01*
X88251953Y-103697863D01*
X88200578Y-103742379D01*
X88141984Y-103769702D01*
X88141977Y-103769706D01*
X87955570Y-103900228D01*
X87794666Y-104061132D01*
X87664144Y-104247539D01*
X87664143Y-104247541D01*
X87567973Y-104453776D01*
X87567970Y-104453785D01*
X87509078Y-104673576D01*
X87509076Y-104673587D01*
X87489244Y-104900272D01*
X87489244Y-104900275D01*
X87509076Y-105126960D01*
X87509078Y-105126971D01*
X87567970Y-105346762D01*
X87567973Y-105346771D01*
X87664143Y-105553006D01*
X87664144Y-105553008D01*
X87794666Y-105739415D01*
X87955570Y-105900319D01*
X87955573Y-105900321D01*
X88141978Y-106030842D01*
X88348216Y-106127013D01*
X88568020Y-106185909D01*
X88729942Y-106200075D01*
X88794710Y-106205742D01*
X88794712Y-106205742D01*
X88794714Y-106205742D01*
X88851385Y-106200783D01*
X89021404Y-106185909D01*
X89241208Y-106127013D01*
X89447446Y-106030842D01*
X89633851Y-105900321D01*
X89794759Y-105739413D01*
X89925280Y-105553008D01*
X90021451Y-105346770D01*
X90080347Y-105126966D01*
X90100180Y-104900274D01*
X90097481Y-104869429D01*
X90091220Y-104797865D01*
X90080347Y-104673582D01*
X90021451Y-104453778D01*
X89925280Y-104247540D01*
X89794759Y-104061135D01*
X89794757Y-104061132D01*
X89633853Y-103900228D01*
X89447447Y-103769707D01*
X89447448Y-103769707D01*
X89447446Y-103769706D01*
X89388844Y-103742379D01*
X89336406Y-103696207D01*
X89317255Y-103629013D01*
X89337471Y-103562132D01*
X89388847Y-103517615D01*
X89447194Y-103490407D01*
X89520183Y-103439298D01*
X88841159Y-102760274D01*
X88847373Y-102760274D01*
X88949106Y-102733015D01*
X89040318Y-102680354D01*
X89114792Y-102605880D01*
X89167453Y-102514668D01*
X89194712Y-102412935D01*
X89194712Y-102406721D01*
X89873736Y-103085745D01*
X89924848Y-103012752D01*
X90020976Y-102806605D01*
X90020981Y-102806591D01*
X90079851Y-102586884D01*
X90079853Y-102586873D01*
X90099678Y-102360276D01*
X90099678Y-102360271D01*
X90079853Y-102133674D01*
X90079851Y-102133663D01*
X90020981Y-101913956D01*
X90020976Y-101913942D01*
X89924848Y-101707795D01*
X89924844Y-101707787D01*
X89873737Y-101634800D01*
X89194712Y-102313825D01*
X89194712Y-102307613D01*
X89167453Y-102205880D01*
X89114792Y-102114668D01*
X89040318Y-102040194D01*
X88949106Y-101987533D01*
X88847373Y-101960274D01*
X88841157Y-101960274D01*
X89520184Y-101281248D01*
X89447192Y-101230138D01*
X89388846Y-101202931D01*
X89336407Y-101156758D01*
X89317255Y-101089565D01*
X89337471Y-101022684D01*
X89388846Y-100978167D01*
X89447446Y-100950842D01*
X89601177Y-100843198D01*
X89667383Y-100820872D01*
X89672300Y-100820774D01*
X91778268Y-100820774D01*
X91801633Y-100816126D01*
X91874914Y-100801549D01*
X91971562Y-100782325D01*
X92024891Y-100760235D01*
X92153640Y-100706906D01*
X92317508Y-100597413D01*
X92456865Y-100458056D01*
X92456867Y-100458052D01*
X92462840Y-100452078D01*
X92524163Y-100418594D01*
X92593855Y-100423578D01*
X92649789Y-100465449D01*
X92668452Y-100501438D01*
X92673904Y-100518217D01*
X92770379Y-100707557D01*
X92895272Y-100879459D01*
X92895276Y-100879464D01*
X93045535Y-101029723D01*
X93045540Y-101029727D01*
X93217442Y-101154620D01*
X93406782Y-101251095D01*
X93608872Y-101316757D01*
X93750000Y-101339110D01*
X93750000Y-100346409D01*
X93835956Y-100396037D01*
X93944048Y-100425000D01*
X94055952Y-100425000D01*
X94164044Y-100396037D01*
X94250000Y-100346409D01*
X94250000Y-101339109D01*
X94391127Y-101316757D01*
X94593217Y-101251095D01*
X94782557Y-101154620D01*
X94954459Y-101029727D01*
X94954464Y-101029723D01*
X95104723Y-100879464D01*
X95104727Y-100879459D01*
X95229620Y-100707557D01*
X95326095Y-100518217D01*
X95391757Y-100316129D01*
X95391757Y-100316126D01*
X95402231Y-100250000D01*
X94346410Y-100250000D01*
X94396037Y-100164044D01*
X94425000Y-100055952D01*
X94425000Y-99944048D01*
X94396037Y-99835956D01*
X94346410Y-99750000D01*
X95402231Y-99750000D01*
X95391757Y-99683873D01*
X95391757Y-99683870D01*
X95326095Y-99481782D01*
X95229620Y-99292442D01*
X95104727Y-99120540D01*
X95104723Y-99120535D01*
X94954464Y-98970276D01*
X94954459Y-98970272D01*
X94789781Y-98850627D01*
X94747115Y-98795297D01*
X94741136Y-98725684D01*
X94773741Y-98663889D01*
X94789776Y-98649994D01*
X94954792Y-98530104D01*
X95105104Y-98379792D01*
X95105106Y-98379788D01*
X95105109Y-98379786D01*
X95230048Y-98207820D01*
X95230047Y-98207820D01*
X95230051Y-98207816D01*
X95326557Y-98018412D01*
X95392246Y-97816243D01*
X95425500Y-97606287D01*
X95425500Y-97568336D01*
X95445185Y-97501297D01*
X95497989Y-97455542D01*
X95567147Y-97445598D01*
X95630703Y-97474623D01*
X95637181Y-97480655D01*
X95713181Y-97556655D01*
X95746666Y-97617978D01*
X95749500Y-97644336D01*
X95749500Y-111223161D01*
X95729815Y-111290200D01*
X95677011Y-111335955D01*
X95625500Y-111347161D01*
X71661435Y-111347161D01*
X71594396Y-111327476D01*
X71573754Y-111310842D01*
X64553697Y-104290785D01*
X64528995Y-104255507D01*
X64525280Y-104247541D01*
X64525280Y-104247540D01*
X64525278Y-104247538D01*
X64525278Y-104247536D01*
X64394757Y-104061132D01*
X64233853Y-103900228D01*
X64047447Y-103769707D01*
X64047448Y-103769707D01*
X64047446Y-103769706D01*
X63988844Y-103742379D01*
X63936406Y-103696207D01*
X63917255Y-103629013D01*
X63937471Y-103562132D01*
X63988847Y-103517615D01*
X64047194Y-103490407D01*
X64120183Y-103439298D01*
X63441159Y-102760274D01*
X63447373Y-102760274D01*
X63549106Y-102733015D01*
X63640318Y-102680354D01*
X63714792Y-102605880D01*
X63767453Y-102514668D01*
X63794712Y-102412935D01*
X63794712Y-102406721D01*
X64473736Y-103085745D01*
X64524848Y-103012752D01*
X64620976Y-102806605D01*
X64620981Y-102806591D01*
X64679851Y-102586884D01*
X64679853Y-102586873D01*
X64699678Y-102360276D01*
X64699678Y-102360271D01*
X64679853Y-102133674D01*
X64679851Y-102133663D01*
X64620981Y-101913956D01*
X64620976Y-101913942D01*
X64524848Y-101707795D01*
X64524844Y-101707787D01*
X64473737Y-101634800D01*
X63794712Y-102313825D01*
X63794712Y-102307613D01*
X63767453Y-102205880D01*
X63714792Y-102114668D01*
X63640318Y-102040194D01*
X63549106Y-101987533D01*
X63447373Y-101960274D01*
X63441157Y-101960274D01*
X64120184Y-101281248D01*
X64047192Y-101230138D01*
X63988846Y-101202931D01*
X63936407Y-101156758D01*
X63917255Y-101089565D01*
X63937471Y-101022684D01*
X63988846Y-100978167D01*
X64047446Y-100950842D01*
X64233851Y-100820321D01*
X64394759Y-100659413D01*
X64525280Y-100473008D01*
X64621451Y-100266770D01*
X64680347Y-100046966D01*
X64700180Y-99820274D01*
X64697481Y-99789429D01*
X64691220Y-99717865D01*
X64680347Y-99593582D01*
X64621451Y-99373778D01*
X64525280Y-99167540D01*
X64394759Y-98981135D01*
X64394757Y-98981132D01*
X64233853Y-98820228D01*
X64047446Y-98689706D01*
X64047440Y-98689703D01*
X64019750Y-98676791D01*
X63989436Y-98662655D01*
X63936997Y-98616484D01*
X63917845Y-98549291D01*
X63938060Y-98482409D01*
X63989437Y-98437892D01*
X64047446Y-98410842D01*
X64233851Y-98280321D01*
X64394759Y-98119413D01*
X64525280Y-97933008D01*
X64621451Y-97726770D01*
X64680347Y-97506966D01*
X64699138Y-97292184D01*
X64700180Y-97280275D01*
X64700180Y-97280272D01*
X64691220Y-97177865D01*
X64680347Y-97053582D01*
X64621451Y-96833778D01*
X64525280Y-96627540D01*
X64417191Y-96473171D01*
X64394757Y-96441132D01*
X64233853Y-96280228D01*
X64047446Y-96149706D01*
X64047440Y-96149703D01*
X63989437Y-96122656D01*
X63936997Y-96076484D01*
X63917845Y-96009291D01*
X63938060Y-95942409D01*
X63989437Y-95897892D01*
X64047446Y-95870842D01*
X64233851Y-95740321D01*
X64394759Y-95579413D01*
X64525280Y-95393008D01*
X64621451Y-95186770D01*
X64680347Y-94966966D01*
X64700180Y-94740274D01*
X64697481Y-94709429D01*
X64691220Y-94637865D01*
X64680347Y-94513582D01*
X64621451Y-94293778D01*
X64525280Y-94087540D01*
X64394759Y-93901135D01*
X64394757Y-93901132D01*
X64233853Y-93740228D01*
X64047446Y-93609706D01*
X64047440Y-93609703D01*
X64004432Y-93589648D01*
X63989436Y-93582655D01*
X63936997Y-93536484D01*
X63917845Y-93469291D01*
X63938060Y-93402409D01*
X63989437Y-93357892D01*
X64047446Y-93330842D01*
X64233851Y-93200321D01*
X64394759Y-93039413D01*
X64525280Y-92853008D01*
X64621451Y-92646770D01*
X64680347Y-92426966D01*
X64700180Y-92200274D01*
X64697481Y-92169429D01*
X64691220Y-92097865D01*
X64680347Y-91973582D01*
X64621451Y-91753778D01*
X64525280Y-91547540D01*
X64394759Y-91361135D01*
X64394757Y-91361132D01*
X64233853Y-91200228D01*
X64047446Y-91069706D01*
X64047440Y-91069703D01*
X63989437Y-91042656D01*
X63936997Y-90996484D01*
X63917845Y-90929291D01*
X63938060Y-90862409D01*
X63989437Y-90817892D01*
X64047446Y-90790842D01*
X64233851Y-90660321D01*
X64394759Y-90499413D01*
X64525280Y-90313008D01*
X64621451Y-90106770D01*
X64680347Y-89886966D01*
X64700180Y-89660274D01*
X64697481Y-89629429D01*
X64691220Y-89557865D01*
X64680347Y-89433582D01*
X64621451Y-89213778D01*
X64525280Y-89007540D01*
X64394759Y-88821135D01*
X64394757Y-88821132D01*
X64233853Y-88660228D01*
X64047446Y-88529706D01*
X64047440Y-88529703D01*
X63989437Y-88502656D01*
X63936997Y-88456484D01*
X63917845Y-88389291D01*
X63938060Y-88322409D01*
X63989437Y-88277892D01*
X64047446Y-88250842D01*
X64233851Y-88120321D01*
X64394759Y-87959413D01*
X64525280Y-87773008D01*
X64621451Y-87566770D01*
X64680347Y-87346966D01*
X64700180Y-87120274D01*
X64697481Y-87089429D01*
X64691220Y-87017865D01*
X64680347Y-86893582D01*
X64621451Y-86673778D01*
X64525280Y-86467540D01*
X64394759Y-86281135D01*
X64394757Y-86281132D01*
X64233853Y-86120228D01*
X64047446Y-85989706D01*
X64047440Y-85989703D01*
X63989437Y-85962656D01*
X63936997Y-85916484D01*
X63917845Y-85849291D01*
X63938060Y-85782409D01*
X63989437Y-85737892D01*
X64047446Y-85710842D01*
X64233851Y-85580321D01*
X64394759Y-85419413D01*
X64525280Y-85233008D01*
X64621451Y-85026770D01*
X64680347Y-84806966D01*
X64697346Y-84612658D01*
X64700180Y-84580275D01*
X64700180Y-84580272D01*
X64691220Y-84477865D01*
X64680347Y-84353582D01*
X64621451Y-84133778D01*
X64525280Y-83927540D01*
X64418425Y-83774934D01*
X64394757Y-83741132D01*
X64233853Y-83580228D01*
X64047446Y-83449706D01*
X64047440Y-83449703D01*
X63989437Y-83422656D01*
X63936997Y-83376484D01*
X63917845Y-83309291D01*
X63938060Y-83242409D01*
X63989437Y-83197892D01*
X64047446Y-83170842D01*
X64233851Y-83040321D01*
X64394759Y-82879413D01*
X64525280Y-82693008D01*
X64621451Y-82486770D01*
X64680347Y-82266966D01*
X64700180Y-82040274D01*
X64697481Y-82009429D01*
X64691220Y-81937865D01*
X64680347Y-81813582D01*
X64621451Y-81593778D01*
X64525280Y-81387540D01*
X64394759Y-81201135D01*
X64394757Y-81201132D01*
X64233853Y-81040228D01*
X64047446Y-80909706D01*
X64047440Y-80909703D01*
X63989437Y-80882656D01*
X63936997Y-80836484D01*
X63917845Y-80769291D01*
X63938060Y-80702409D01*
X63989437Y-80657892D01*
X64047446Y-80630842D01*
X64233851Y-80500321D01*
X64394759Y-80339413D01*
X64525280Y-80153008D01*
X64621451Y-79946770D01*
X64680347Y-79726966D01*
X64700180Y-79500274D01*
X64697481Y-79469429D01*
X64691220Y-79397865D01*
X64680347Y-79273582D01*
X64621451Y-79053778D01*
X64525280Y-78847540D01*
X64394759Y-78661135D01*
X64394757Y-78661132D01*
X64233853Y-78500228D01*
X64047446Y-78369706D01*
X64047440Y-78369703D01*
X63989437Y-78342656D01*
X63936997Y-78296484D01*
X63917845Y-78229291D01*
X63938060Y-78162409D01*
X63989437Y-78117892D01*
X64047446Y-78090842D01*
X64233851Y-77960321D01*
X64394759Y-77799413D01*
X64525280Y-77613008D01*
X64621451Y-77406770D01*
X64680347Y-77186966D01*
X64700180Y-76960274D01*
X64680347Y-76733582D01*
X64621451Y-76513778D01*
X64525280Y-76307540D01*
X64394759Y-76121135D01*
X64394757Y-76121132D01*
X64233853Y-75960228D01*
X64047446Y-75829706D01*
X64047440Y-75829703D01*
X63989437Y-75802656D01*
X63936997Y-75756484D01*
X63917845Y-75689291D01*
X63938060Y-75622409D01*
X63989437Y-75577892D01*
X64000655Y-75572661D01*
X64047446Y-75550842D01*
X64233851Y-75420321D01*
X64394759Y-75259413D01*
X64525280Y-75073008D01*
X64621451Y-74866770D01*
X64680347Y-74646966D01*
X64700180Y-74420274D01*
X64680347Y-74193582D01*
X64621451Y-73973778D01*
X64525280Y-73767540D01*
X64394759Y-73581135D01*
X64394757Y-73581132D01*
X64233853Y-73420228D01*
X64047446Y-73289706D01*
X64047440Y-73289703D01*
X63989437Y-73262656D01*
X63936997Y-73216484D01*
X63917845Y-73149291D01*
X63938060Y-73082409D01*
X63989437Y-73037892D01*
X64047446Y-73010842D01*
X64233851Y-72880321D01*
X64394759Y-72719413D01*
X64525280Y-72533008D01*
X64621451Y-72326770D01*
X64680347Y-72106966D01*
X64700180Y-71880274D01*
X64680347Y-71653582D01*
X64621451Y-71433778D01*
X64525280Y-71227540D01*
X64394759Y-71041135D01*
X64394757Y-71041132D01*
X64233853Y-70880228D01*
X64047446Y-70749706D01*
X64047440Y-70749703D01*
X63989437Y-70722656D01*
X63936997Y-70676484D01*
X63917845Y-70609291D01*
X63938060Y-70542409D01*
X63989437Y-70497892D01*
X64047446Y-70470842D01*
X64233851Y-70340321D01*
X64394759Y-70179413D01*
X64525280Y-69993008D01*
X64621451Y-69786770D01*
X64680347Y-69566966D01*
X64700180Y-69340274D01*
X64680347Y-69113582D01*
X64621451Y-68893778D01*
X64525280Y-68687540D01*
X64394759Y-68501135D01*
X64394757Y-68501132D01*
X64233853Y-68340228D01*
X64047446Y-68209706D01*
X64047444Y-68209705D01*
X63841209Y-68113535D01*
X63841200Y-68113532D01*
X63621409Y-68054640D01*
X63621405Y-68054639D01*
X63621404Y-68054639D01*
X63621403Y-68054638D01*
X63621398Y-68054638D01*
X63394714Y-68034806D01*
X63394710Y-68034806D01*
X63168025Y-68054638D01*
X63168014Y-68054640D01*
X62948223Y-68113532D01*
X62948214Y-68113535D01*
X62741979Y-68209705D01*
X62741977Y-68209706D01*
X62555570Y-68340228D01*
X62394666Y-68501132D01*
X62264144Y-68687539D01*
X62264143Y-68687541D01*
X62167973Y-68893776D01*
X62167970Y-68893785D01*
X62109078Y-69113576D01*
X62109076Y-69113587D01*
X62089244Y-69340272D01*
X57500500Y-69340272D01*
X57500500Y-65629500D01*
X57520185Y-65562461D01*
X57572989Y-65516706D01*
X57624500Y-65505500D01*
X71875990Y-65505500D01*
X71876000Y-65505500D01*
X71983456Y-65493947D01*
X72034967Y-65482741D01*
X72069197Y-65471347D01*
X72137497Y-65448616D01*
X72137501Y-65448613D01*
X72137504Y-65448613D01*
X72258543Y-65370825D01*
X72311347Y-65325070D01*
X72405567Y-65216336D01*
X72465338Y-65085459D01*
X72485023Y-65018420D01*
X72485024Y-65018416D01*
X72505500Y-64876000D01*
X72505500Y-57999997D01*
X73695034Y-57999997D01*
X73695034Y-58000002D01*
X73714858Y-58226599D01*
X73714860Y-58226610D01*
X73773730Y-58446317D01*
X73773735Y-58446331D01*
X73869863Y-58652478D01*
X73920974Y-58725472D01*
X74600000Y-58046446D01*
X74600000Y-58052661D01*
X74627259Y-58154394D01*
X74679920Y-58245606D01*
X74754394Y-58320080D01*
X74845606Y-58372741D01*
X74947339Y-58400000D01*
X74953553Y-58400000D01*
X74274526Y-59079025D01*
X74347513Y-59130132D01*
X74347521Y-59130136D01*
X74553668Y-59226264D01*
X74553682Y-59226269D01*
X74773389Y-59285139D01*
X74773400Y-59285141D01*
X74999998Y-59304966D01*
X75000002Y-59304966D01*
X75226599Y-59285141D01*
X75226610Y-59285139D01*
X75446317Y-59226269D01*
X75446331Y-59226264D01*
X75652478Y-59130136D01*
X75725471Y-59079024D01*
X75046447Y-58400000D01*
X75052661Y-58400000D01*
X75154394Y-58372741D01*
X75245606Y-58320080D01*
X75320080Y-58245606D01*
X75372741Y-58154394D01*
X75400000Y-58052661D01*
X75400000Y-58046447D01*
X76079024Y-58725471D01*
X76130136Y-58652478D01*
X76226264Y-58446331D01*
X76226269Y-58446317D01*
X76285139Y-58226610D01*
X76285141Y-58226599D01*
X76304966Y-58000002D01*
X76304966Y-57999997D01*
X76285141Y-57773400D01*
X76285139Y-57773389D01*
X76226269Y-57553682D01*
X76226264Y-57553668D01*
X76130136Y-57347521D01*
X76130132Y-57347513D01*
X76079025Y-57274526D01*
X75400000Y-57953551D01*
X75400000Y-57947339D01*
X75372741Y-57845606D01*
X75320080Y-57754394D01*
X75245606Y-57679920D01*
X75154394Y-57627259D01*
X75052661Y-57600000D01*
X75046445Y-57600000D01*
X75725472Y-56920974D01*
X75652478Y-56869863D01*
X75446331Y-56773735D01*
X75446317Y-56773730D01*
X75226610Y-56714860D01*
X75226599Y-56714858D01*
X75000002Y-56695034D01*
X74999998Y-56695034D01*
X74773400Y-56714858D01*
X74773389Y-56714860D01*
X74553682Y-56773730D01*
X74553673Y-56773734D01*
X74347516Y-56869866D01*
X74347512Y-56869868D01*
X74274526Y-56920973D01*
X74274526Y-56920974D01*
X74953553Y-57600000D01*
X74947339Y-57600000D01*
X74845606Y-57627259D01*
X74754394Y-57679920D01*
X74679920Y-57754394D01*
X74627259Y-57845606D01*
X74600000Y-57947339D01*
X74600000Y-57953552D01*
X73920974Y-57274526D01*
X73920973Y-57274526D01*
X73869868Y-57347512D01*
X73869866Y-57347516D01*
X73773734Y-57553673D01*
X73773730Y-57553682D01*
X73714860Y-57773389D01*
X73714858Y-57773400D01*
X73695034Y-57999997D01*
X72505500Y-57999997D01*
X72505500Y-54624500D01*
X72525185Y-54557461D01*
X72577989Y-54511706D01*
X72629500Y-54500500D01*
X141375500Y-54500500D01*
X141442539Y-54520185D01*
G37*
%TD.AperFunction*%
%TD*%
%TA.AperFunction,Conductor*%
%TO.N,Net-(C1-Pad1)*%
G36*
X71943039Y-54520185D02*
G01*
X71988794Y-54572989D01*
X72000000Y-54624500D01*
X72000000Y-64876000D01*
X71980315Y-64943039D01*
X71927511Y-64988794D01*
X71876000Y-65000000D01*
X57624500Y-65000000D01*
X57557461Y-64980315D01*
X57511706Y-64927511D01*
X57500500Y-64876000D01*
X57500500Y-59000000D01*
X57995176Y-59000000D01*
X58014461Y-59392550D01*
X58072129Y-59781308D01*
X58167625Y-60162549D01*
X58300016Y-60532559D01*
X58300023Y-60532575D01*
X58468062Y-60887864D01*
X58670109Y-61224958D01*
X58904233Y-61540638D01*
X59000068Y-61646375D01*
X59000069Y-61646375D01*
X60598381Y-60048064D01*
X60681457Y-60156331D01*
X60843669Y-60318543D01*
X60951934Y-60401618D01*
X59353623Y-61999929D01*
X59459367Y-62095770D01*
X59775041Y-62329890D01*
X60112135Y-62531937D01*
X60467424Y-62699976D01*
X60467440Y-62699983D01*
X60837450Y-62832374D01*
X61218691Y-62927870D01*
X61607449Y-62985538D01*
X62000000Y-63004823D01*
X62392550Y-62985538D01*
X62781308Y-62927870D01*
X63162549Y-62832374D01*
X63532559Y-62699983D01*
X63532575Y-62699976D01*
X63887864Y-62531937D01*
X64224958Y-62329890D01*
X64540638Y-62095766D01*
X64646375Y-61999930D01*
X64646375Y-61999928D01*
X63048064Y-60401618D01*
X63156331Y-60318543D01*
X63318543Y-60156331D01*
X63401618Y-60048065D01*
X64999928Y-61646375D01*
X64999930Y-61646375D01*
X65095766Y-61540638D01*
X65329890Y-61224958D01*
X65531937Y-60887864D01*
X65699976Y-60532575D01*
X65699983Y-60532559D01*
X65832374Y-60162549D01*
X65927870Y-59781308D01*
X65985538Y-59392550D01*
X66004823Y-59000000D01*
X65985538Y-58607449D01*
X65927870Y-58218691D01*
X65873090Y-57999997D01*
X68695034Y-57999997D01*
X68695034Y-58000002D01*
X68714858Y-58226599D01*
X68714860Y-58226610D01*
X68773730Y-58446317D01*
X68773735Y-58446331D01*
X68869863Y-58652478D01*
X68920974Y-58725472D01*
X69600000Y-58046446D01*
X69600000Y-58052661D01*
X69627259Y-58154394D01*
X69679920Y-58245606D01*
X69754394Y-58320080D01*
X69845606Y-58372741D01*
X69947339Y-58400000D01*
X69953553Y-58400000D01*
X69274526Y-59079025D01*
X69347513Y-59130132D01*
X69347521Y-59130136D01*
X69553668Y-59226264D01*
X69553682Y-59226269D01*
X69773389Y-59285139D01*
X69773400Y-59285141D01*
X69999998Y-59304966D01*
X70000002Y-59304966D01*
X70226599Y-59285141D01*
X70226610Y-59285139D01*
X70446317Y-59226269D01*
X70446331Y-59226264D01*
X70652478Y-59130136D01*
X70725471Y-59079024D01*
X70046447Y-58400000D01*
X70052661Y-58400000D01*
X70154394Y-58372741D01*
X70245606Y-58320080D01*
X70320080Y-58245606D01*
X70372741Y-58154394D01*
X70400000Y-58052661D01*
X70400000Y-58046447D01*
X71079024Y-58725471D01*
X71130136Y-58652478D01*
X71226264Y-58446331D01*
X71226269Y-58446317D01*
X71285139Y-58226610D01*
X71285141Y-58226599D01*
X71304966Y-58000002D01*
X71304966Y-57999997D01*
X71285141Y-57773400D01*
X71285139Y-57773389D01*
X71226269Y-57553682D01*
X71226264Y-57553668D01*
X71130136Y-57347521D01*
X71130132Y-57347513D01*
X71079025Y-57274526D01*
X70400000Y-57953551D01*
X70400000Y-57947339D01*
X70372741Y-57845606D01*
X70320080Y-57754394D01*
X70245606Y-57679920D01*
X70154394Y-57627259D01*
X70052661Y-57600000D01*
X70046445Y-57600000D01*
X70725472Y-56920974D01*
X70652478Y-56869863D01*
X70446331Y-56773735D01*
X70446317Y-56773730D01*
X70226610Y-56714860D01*
X70226599Y-56714858D01*
X70000002Y-56695034D01*
X69999998Y-56695034D01*
X69773400Y-56714858D01*
X69773389Y-56714860D01*
X69553682Y-56773730D01*
X69553673Y-56773734D01*
X69347516Y-56869866D01*
X69347512Y-56869868D01*
X69274526Y-56920973D01*
X69274526Y-56920974D01*
X69953553Y-57600000D01*
X69947339Y-57600000D01*
X69845606Y-57627259D01*
X69754394Y-57679920D01*
X69679920Y-57754394D01*
X69627259Y-57845606D01*
X69600000Y-57947339D01*
X69600000Y-57953552D01*
X68920974Y-57274526D01*
X68920973Y-57274526D01*
X68869868Y-57347512D01*
X68869866Y-57347516D01*
X68773734Y-57553673D01*
X68773730Y-57553682D01*
X68714860Y-57773389D01*
X68714858Y-57773400D01*
X68695034Y-57999997D01*
X65873090Y-57999997D01*
X65832374Y-57837450D01*
X65699983Y-57467440D01*
X65699976Y-57467424D01*
X65531937Y-57112135D01*
X65329890Y-56775041D01*
X65095770Y-56459367D01*
X64999929Y-56353623D01*
X63401617Y-57951934D01*
X63318543Y-57843669D01*
X63156331Y-57681457D01*
X63048064Y-57598381D01*
X64646375Y-56000069D01*
X64646375Y-56000068D01*
X64540638Y-55904233D01*
X64224958Y-55670109D01*
X63887864Y-55468062D01*
X63532575Y-55300023D01*
X63532559Y-55300016D01*
X63162549Y-55167625D01*
X62781308Y-55072129D01*
X62392550Y-55014461D01*
X62000000Y-54995176D01*
X61607449Y-55014461D01*
X61218691Y-55072129D01*
X60837450Y-55167625D01*
X60467440Y-55300016D01*
X60467424Y-55300023D01*
X60112135Y-55468062D01*
X59775041Y-55670109D01*
X59459367Y-55904228D01*
X59353623Y-56000068D01*
X59353623Y-56000069D01*
X60951935Y-57598381D01*
X60843669Y-57681457D01*
X60681457Y-57843669D01*
X60598381Y-57951935D01*
X59000069Y-56353623D01*
X59000068Y-56353623D01*
X58904228Y-56459367D01*
X58670109Y-56775041D01*
X58468062Y-57112135D01*
X58300023Y-57467424D01*
X58300016Y-57467440D01*
X58167625Y-57837450D01*
X58072129Y-58218691D01*
X58014461Y-58607449D01*
X57995176Y-59000000D01*
X57500500Y-59000000D01*
X57500500Y-54624500D01*
X57520185Y-54557461D01*
X57572989Y-54511706D01*
X57624500Y-54500500D01*
X71876000Y-54500500D01*
X71943039Y-54520185D01*
G37*
%TD.AperFunction*%
%TD*%
M02*
