%TF.GenerationSoftware,KiCad,Pcbnew,8.0.8*%
%TF.CreationDate,2025-06-20T17:29:20+09:00*%
%TF.ProjectId,2ndfloor_pole,326e6466-6c6f-46f7-925f-706f6c652e6b,rev?*%
%TF.SameCoordinates,Original*%
%TF.FileFunction,Legend,Top*%
%TF.FilePolarity,Positive*%
%FSLAX46Y46*%
G04 Gerber Fmt 4.6, Leading zero omitted, Abs format (unit mm)*
G04 Created by KiCad (PCBNEW 8.0.8) date 2025-06-20 17:29:20*
%MOMM*%
%LPD*%
G01*
G04 APERTURE LIST*
%ADD10C,0.150000*%
%ADD11C,0.124999*%
%ADD12C,0.120000*%
%ADD13C,0.200000*%
G04 APERTURE END LIST*
D10*
X97754819Y-97833333D02*
X98469104Y-97833333D01*
X98469104Y-97833333D02*
X98611961Y-97880952D01*
X98611961Y-97880952D02*
X98707200Y-97976190D01*
X98707200Y-97976190D02*
X98754819Y-98119047D01*
X98754819Y-98119047D02*
X98754819Y-98214285D01*
X98088152Y-96928571D02*
X98754819Y-96928571D01*
X97707200Y-97166666D02*
X98421485Y-97404761D01*
X98421485Y-97404761D02*
X98421485Y-96785714D01*
X132238095Y-56454819D02*
X132238095Y-55454819D01*
X132238095Y-55931009D02*
X132809523Y-55931009D01*
X132809523Y-56454819D02*
X132809523Y-55454819D01*
X133809523Y-56454819D02*
X133238095Y-56454819D01*
X133523809Y-56454819D02*
X133523809Y-55454819D01*
X133523809Y-55454819D02*
X133428571Y-55597676D01*
X133428571Y-55597676D02*
X133333333Y-55692914D01*
X133333333Y-55692914D02*
X133238095Y-55740533D01*
X98104819Y-81583333D02*
X98819104Y-81583333D01*
X98819104Y-81583333D02*
X98961961Y-81630952D01*
X98961961Y-81630952D02*
X99057200Y-81726190D01*
X99057200Y-81726190D02*
X99104819Y-81869047D01*
X99104819Y-81869047D02*
X99104819Y-81964285D01*
X98104819Y-81202380D02*
X98104819Y-80583333D01*
X98104819Y-80583333D02*
X98485771Y-80916666D01*
X98485771Y-80916666D02*
X98485771Y-80773809D01*
X98485771Y-80773809D02*
X98533390Y-80678571D01*
X98533390Y-80678571D02*
X98581009Y-80630952D01*
X98581009Y-80630952D02*
X98676247Y-80583333D01*
X98676247Y-80583333D02*
X98914342Y-80583333D01*
X98914342Y-80583333D02*
X99009580Y-80630952D01*
X99009580Y-80630952D02*
X99057200Y-80678571D01*
X99057200Y-80678571D02*
X99104819Y-80773809D01*
X99104819Y-80773809D02*
X99104819Y-81059523D01*
X99104819Y-81059523D02*
X99057200Y-81154761D01*
X99057200Y-81154761D02*
X99009580Y-81202380D01*
X72333333Y-55859580D02*
X72285714Y-55907200D01*
X72285714Y-55907200D02*
X72142857Y-55954819D01*
X72142857Y-55954819D02*
X72047619Y-55954819D01*
X72047619Y-55954819D02*
X71904762Y-55907200D01*
X71904762Y-55907200D02*
X71809524Y-55811961D01*
X71809524Y-55811961D02*
X71761905Y-55716723D01*
X71761905Y-55716723D02*
X71714286Y-55526247D01*
X71714286Y-55526247D02*
X71714286Y-55383390D01*
X71714286Y-55383390D02*
X71761905Y-55192914D01*
X71761905Y-55192914D02*
X71809524Y-55097676D01*
X71809524Y-55097676D02*
X71904762Y-55002438D01*
X71904762Y-55002438D02*
X72047619Y-54954819D01*
X72047619Y-54954819D02*
X72142857Y-54954819D01*
X72142857Y-54954819D02*
X72285714Y-55002438D01*
X72285714Y-55002438D02*
X72333333Y-55050057D01*
X73285714Y-55954819D02*
X72714286Y-55954819D01*
X73000000Y-55954819D02*
X73000000Y-54954819D01*
X73000000Y-54954819D02*
X72904762Y-55097676D01*
X72904762Y-55097676D02*
X72809524Y-55192914D01*
X72809524Y-55192914D02*
X72714286Y-55240533D01*
X128234819Y-106563332D02*
X127234819Y-106563332D01*
X127234819Y-106563332D02*
X127949104Y-106229999D01*
X127949104Y-106229999D02*
X127234819Y-105896666D01*
X127234819Y-105896666D02*
X128234819Y-105896666D01*
X127234819Y-105229999D02*
X127234819Y-105039523D01*
X127234819Y-105039523D02*
X127282438Y-104944285D01*
X127282438Y-104944285D02*
X127377676Y-104849047D01*
X127377676Y-104849047D02*
X127568152Y-104801428D01*
X127568152Y-104801428D02*
X127901485Y-104801428D01*
X127901485Y-104801428D02*
X128091961Y-104849047D01*
X128091961Y-104849047D02*
X128187200Y-104944285D01*
X128187200Y-104944285D02*
X128234819Y-105039523D01*
X128234819Y-105039523D02*
X128234819Y-105229999D01*
X128234819Y-105229999D02*
X128187200Y-105325237D01*
X128187200Y-105325237D02*
X128091961Y-105420475D01*
X128091961Y-105420475D02*
X127901485Y-105468094D01*
X127901485Y-105468094D02*
X127568152Y-105468094D01*
X127568152Y-105468094D02*
X127377676Y-105420475D01*
X127377676Y-105420475D02*
X127282438Y-105325237D01*
X127282438Y-105325237D02*
X127234819Y-105229999D01*
X128234819Y-104372856D02*
X127234819Y-104372856D01*
X127234819Y-104372856D02*
X127234819Y-104134761D01*
X127234819Y-104134761D02*
X127282438Y-103991904D01*
X127282438Y-103991904D02*
X127377676Y-103896666D01*
X127377676Y-103896666D02*
X127472914Y-103849047D01*
X127472914Y-103849047D02*
X127663390Y-103801428D01*
X127663390Y-103801428D02*
X127806247Y-103801428D01*
X127806247Y-103801428D02*
X127996723Y-103849047D01*
X127996723Y-103849047D02*
X128091961Y-103896666D01*
X128091961Y-103896666D02*
X128187200Y-103991904D01*
X128187200Y-103991904D02*
X128234819Y-104134761D01*
X128234819Y-104134761D02*
X128234819Y-104372856D01*
X127330057Y-103420475D02*
X127282438Y-103372856D01*
X127282438Y-103372856D02*
X127234819Y-103277618D01*
X127234819Y-103277618D02*
X127234819Y-103039523D01*
X127234819Y-103039523D02*
X127282438Y-102944285D01*
X127282438Y-102944285D02*
X127330057Y-102896666D01*
X127330057Y-102896666D02*
X127425295Y-102849047D01*
X127425295Y-102849047D02*
X127520533Y-102849047D01*
X127520533Y-102849047D02*
X127663390Y-102896666D01*
X127663390Y-102896666D02*
X128234819Y-103468094D01*
X128234819Y-103468094D02*
X128234819Y-102849047D01*
D11*
X131670375Y-101300843D02*
X131670375Y-100300845D01*
X131670375Y-100300845D02*
X131884660Y-100300845D01*
X131884660Y-100300845D02*
X132013231Y-100348464D01*
X132013231Y-100348464D02*
X132098945Y-100443702D01*
X132098945Y-100443702D02*
X132141802Y-100538940D01*
X132141802Y-100538940D02*
X132184659Y-100729416D01*
X132184659Y-100729416D02*
X132184659Y-100872273D01*
X132184659Y-100872273D02*
X132141802Y-101062749D01*
X132141802Y-101062749D02*
X132098945Y-101157987D01*
X132098945Y-101157987D02*
X132013231Y-101253225D01*
X132013231Y-101253225D02*
X131884660Y-101300843D01*
X131884660Y-101300843D02*
X131670375Y-101300843D01*
X132484659Y-100300845D02*
X133041800Y-100300845D01*
X133041800Y-100300845D02*
X132741801Y-100681797D01*
X132741801Y-100681797D02*
X132870372Y-100681797D01*
X132870372Y-100681797D02*
X132956086Y-100729416D01*
X132956086Y-100729416D02*
X132998943Y-100777035D01*
X132998943Y-100777035D02*
X133041800Y-100872273D01*
X133041800Y-100872273D02*
X133041800Y-101110368D01*
X133041800Y-101110368D02*
X132998943Y-101205606D01*
X132998943Y-101205606D02*
X132956086Y-101253225D01*
X132956086Y-101253225D02*
X132870372Y-101300843D01*
X132870372Y-101300843D02*
X132613230Y-101300843D01*
X132613230Y-101300843D02*
X132527516Y-101253225D01*
X132527516Y-101253225D02*
X132484659Y-101205606D01*
X133813227Y-100634178D02*
X133813227Y-101300843D01*
X133598942Y-100253227D02*
X133384657Y-100967511D01*
X133384657Y-100967511D02*
X133941798Y-100967511D01*
X111350375Y-78694843D02*
X111350375Y-77694845D01*
X111350375Y-77694845D02*
X111564660Y-77694845D01*
X111564660Y-77694845D02*
X111693231Y-77742464D01*
X111693231Y-77742464D02*
X111778945Y-77837702D01*
X111778945Y-77837702D02*
X111821802Y-77932940D01*
X111821802Y-77932940D02*
X111864659Y-78123416D01*
X111864659Y-78123416D02*
X111864659Y-78266273D01*
X111864659Y-78266273D02*
X111821802Y-78456749D01*
X111821802Y-78456749D02*
X111778945Y-78551987D01*
X111778945Y-78551987D02*
X111693231Y-78647225D01*
X111693231Y-78647225D02*
X111564660Y-78694843D01*
X111564660Y-78694843D02*
X111350375Y-78694843D01*
X112721800Y-78694843D02*
X112207516Y-78694843D01*
X112464658Y-78694843D02*
X112464658Y-77694845D01*
X112464658Y-77694845D02*
X112378944Y-77837702D01*
X112378944Y-77837702D02*
X112293230Y-77932940D01*
X112293230Y-77932940D02*
X112207516Y-77980559D01*
X113536084Y-77694845D02*
X113107514Y-77694845D01*
X113107514Y-77694845D02*
X113064657Y-78171035D01*
X113064657Y-78171035D02*
X113107514Y-78123416D01*
X113107514Y-78123416D02*
X113193228Y-78075797D01*
X113193228Y-78075797D02*
X113407513Y-78075797D01*
X113407513Y-78075797D02*
X113493227Y-78123416D01*
X113493227Y-78123416D02*
X113536084Y-78171035D01*
X113536084Y-78171035D02*
X113578941Y-78266273D01*
X113578941Y-78266273D02*
X113578941Y-78504368D01*
X113578941Y-78504368D02*
X113536084Y-78599606D01*
X113536084Y-78599606D02*
X113493227Y-78647225D01*
X113493227Y-78647225D02*
X113407513Y-78694843D01*
X113407513Y-78694843D02*
X113193228Y-78694843D01*
X113193228Y-78694843D02*
X113107514Y-78647225D01*
X113107514Y-78647225D02*
X113064657Y-78599606D01*
X111350375Y-106380843D02*
X111350375Y-105380845D01*
X111350375Y-105380845D02*
X111564660Y-105380845D01*
X111564660Y-105380845D02*
X111693231Y-105428464D01*
X111693231Y-105428464D02*
X111778945Y-105523702D01*
X111778945Y-105523702D02*
X111821802Y-105618940D01*
X111821802Y-105618940D02*
X111864659Y-105809416D01*
X111864659Y-105809416D02*
X111864659Y-105952273D01*
X111864659Y-105952273D02*
X111821802Y-106142749D01*
X111821802Y-106142749D02*
X111778945Y-106237987D01*
X111778945Y-106237987D02*
X111693231Y-106333225D01*
X111693231Y-106333225D02*
X111564660Y-106380843D01*
X111564660Y-106380843D02*
X111350375Y-106380843D01*
X112207516Y-105476083D02*
X112250373Y-105428464D01*
X112250373Y-105428464D02*
X112336087Y-105380845D01*
X112336087Y-105380845D02*
X112550372Y-105380845D01*
X112550372Y-105380845D02*
X112636086Y-105428464D01*
X112636086Y-105428464D02*
X112678943Y-105476083D01*
X112678943Y-105476083D02*
X112721800Y-105571321D01*
X112721800Y-105571321D02*
X112721800Y-105666559D01*
X112721800Y-105666559D02*
X112678943Y-105809416D01*
X112678943Y-105809416D02*
X112164659Y-106380843D01*
X112164659Y-106380843D02*
X112721800Y-106380843D01*
X113064657Y-105476083D02*
X113107514Y-105428464D01*
X113107514Y-105428464D02*
X113193228Y-105380845D01*
X113193228Y-105380845D02*
X113407513Y-105380845D01*
X113407513Y-105380845D02*
X113493227Y-105428464D01*
X113493227Y-105428464D02*
X113536084Y-105476083D01*
X113536084Y-105476083D02*
X113578941Y-105571321D01*
X113578941Y-105571321D02*
X113578941Y-105666559D01*
X113578941Y-105666559D02*
X113536084Y-105809416D01*
X113536084Y-105809416D02*
X113021800Y-106380843D01*
X113021800Y-106380843D02*
X113578941Y-106380843D01*
X131670375Y-103840843D02*
X131670375Y-102840845D01*
X131670375Y-102840845D02*
X131884660Y-102840845D01*
X131884660Y-102840845D02*
X132013231Y-102888464D01*
X132013231Y-102888464D02*
X132098945Y-102983702D01*
X132098945Y-102983702D02*
X132141802Y-103078940D01*
X132141802Y-103078940D02*
X132184659Y-103269416D01*
X132184659Y-103269416D02*
X132184659Y-103412273D01*
X132184659Y-103412273D02*
X132141802Y-103602749D01*
X132141802Y-103602749D02*
X132098945Y-103697987D01*
X132098945Y-103697987D02*
X132013231Y-103793225D01*
X132013231Y-103793225D02*
X131884660Y-103840843D01*
X131884660Y-103840843D02*
X131670375Y-103840843D01*
X132484659Y-102840845D02*
X133041800Y-102840845D01*
X133041800Y-102840845D02*
X132741801Y-103221797D01*
X132741801Y-103221797D02*
X132870372Y-103221797D01*
X132870372Y-103221797D02*
X132956086Y-103269416D01*
X132956086Y-103269416D02*
X132998943Y-103317035D01*
X132998943Y-103317035D02*
X133041800Y-103412273D01*
X133041800Y-103412273D02*
X133041800Y-103650368D01*
X133041800Y-103650368D02*
X132998943Y-103745606D01*
X132998943Y-103745606D02*
X132956086Y-103793225D01*
X132956086Y-103793225D02*
X132870372Y-103840843D01*
X132870372Y-103840843D02*
X132613230Y-103840843D01*
X132613230Y-103840843D02*
X132527516Y-103793225D01*
X132527516Y-103793225D02*
X132484659Y-103745606D01*
X133470371Y-103840843D02*
X133641799Y-103840843D01*
X133641799Y-103840843D02*
X133727513Y-103793225D01*
X133727513Y-103793225D02*
X133770370Y-103745606D01*
X133770370Y-103745606D02*
X133856084Y-103602749D01*
X133856084Y-103602749D02*
X133898941Y-103412273D01*
X133898941Y-103412273D02*
X133898941Y-103031321D01*
X133898941Y-103031321D02*
X133856084Y-102936083D01*
X133856084Y-102936083D02*
X133813227Y-102888464D01*
X133813227Y-102888464D02*
X133727513Y-102840845D01*
X133727513Y-102840845D02*
X133556085Y-102840845D01*
X133556085Y-102840845D02*
X133470371Y-102888464D01*
X133470371Y-102888464D02*
X133427514Y-102936083D01*
X133427514Y-102936083D02*
X133384657Y-103031321D01*
X133384657Y-103031321D02*
X133384657Y-103269416D01*
X133384657Y-103269416D02*
X133427514Y-103364654D01*
X133427514Y-103364654D02*
X133470371Y-103412273D01*
X133470371Y-103412273D02*
X133556085Y-103459892D01*
X133556085Y-103459892D02*
X133727513Y-103459892D01*
X133727513Y-103459892D02*
X133813227Y-103412273D01*
X133813227Y-103412273D02*
X133856084Y-103364654D01*
X133856084Y-103364654D02*
X133898941Y-103269416D01*
X111350375Y-83520843D02*
X111350375Y-82520845D01*
X111350375Y-82520845D02*
X111564660Y-82520845D01*
X111564660Y-82520845D02*
X111693231Y-82568464D01*
X111693231Y-82568464D02*
X111778945Y-82663702D01*
X111778945Y-82663702D02*
X111821802Y-82758940D01*
X111821802Y-82758940D02*
X111864659Y-82949416D01*
X111864659Y-82949416D02*
X111864659Y-83092273D01*
X111864659Y-83092273D02*
X111821802Y-83282749D01*
X111821802Y-83282749D02*
X111778945Y-83377987D01*
X111778945Y-83377987D02*
X111693231Y-83473225D01*
X111693231Y-83473225D02*
X111564660Y-83520843D01*
X111564660Y-83520843D02*
X111350375Y-83520843D01*
X112421801Y-82520845D02*
X112507515Y-82520845D01*
X112507515Y-82520845D02*
X112593229Y-82568464D01*
X112593229Y-82568464D02*
X112636086Y-82616083D01*
X112636086Y-82616083D02*
X112678943Y-82711321D01*
X112678943Y-82711321D02*
X112721800Y-82901797D01*
X112721800Y-82901797D02*
X112721800Y-83139892D01*
X112721800Y-83139892D02*
X112678943Y-83330368D01*
X112678943Y-83330368D02*
X112636086Y-83425606D01*
X112636086Y-83425606D02*
X112593229Y-83473225D01*
X112593229Y-83473225D02*
X112507515Y-83520843D01*
X112507515Y-83520843D02*
X112421801Y-83520843D01*
X112421801Y-83520843D02*
X112336087Y-83473225D01*
X112336087Y-83473225D02*
X112293230Y-83425606D01*
X112293230Y-83425606D02*
X112250373Y-83330368D01*
X112250373Y-83330368D02*
X112207516Y-83139892D01*
X112207516Y-83139892D02*
X112207516Y-82901797D01*
X112207516Y-82901797D02*
X112250373Y-82711321D01*
X112250373Y-82711321D02*
X112293230Y-82616083D01*
X112293230Y-82616083D02*
X112336087Y-82568464D01*
X112336087Y-82568464D02*
X112421801Y-82520845D01*
X113493227Y-82854178D02*
X113493227Y-83520843D01*
X113278942Y-82473227D02*
X113064657Y-83187511D01*
X113064657Y-83187511D02*
X113621798Y-83187511D01*
X131670375Y-106380843D02*
X131670375Y-105380845D01*
X131670375Y-105380845D02*
X131884660Y-105380845D01*
X131884660Y-105380845D02*
X132013231Y-105428464D01*
X132013231Y-105428464D02*
X132098945Y-105523702D01*
X132098945Y-105523702D02*
X132141802Y-105618940D01*
X132141802Y-105618940D02*
X132184659Y-105809416D01*
X132184659Y-105809416D02*
X132184659Y-105952273D01*
X132184659Y-105952273D02*
X132141802Y-106142749D01*
X132141802Y-106142749D02*
X132098945Y-106237987D01*
X132098945Y-106237987D02*
X132013231Y-106333225D01*
X132013231Y-106333225D02*
X131884660Y-106380843D01*
X131884660Y-106380843D02*
X131670375Y-106380843D01*
X132484659Y-105380845D02*
X133041800Y-105380845D01*
X133041800Y-105380845D02*
X132741801Y-105761797D01*
X132741801Y-105761797D02*
X132870372Y-105761797D01*
X132870372Y-105761797D02*
X132956086Y-105809416D01*
X132956086Y-105809416D02*
X132998943Y-105857035D01*
X132998943Y-105857035D02*
X133041800Y-105952273D01*
X133041800Y-105952273D02*
X133041800Y-106190368D01*
X133041800Y-106190368D02*
X132998943Y-106285606D01*
X132998943Y-106285606D02*
X132956086Y-106333225D01*
X132956086Y-106333225D02*
X132870372Y-106380843D01*
X132870372Y-106380843D02*
X132613230Y-106380843D01*
X132613230Y-106380843D02*
X132527516Y-106333225D01*
X132527516Y-106333225D02*
X132484659Y-106285606D01*
X133813227Y-105380845D02*
X133641799Y-105380845D01*
X133641799Y-105380845D02*
X133556085Y-105428464D01*
X133556085Y-105428464D02*
X133513228Y-105476083D01*
X133513228Y-105476083D02*
X133427514Y-105618940D01*
X133427514Y-105618940D02*
X133384657Y-105809416D01*
X133384657Y-105809416D02*
X133384657Y-106190368D01*
X133384657Y-106190368D02*
X133427514Y-106285606D01*
X133427514Y-106285606D02*
X133470371Y-106333225D01*
X133470371Y-106333225D02*
X133556085Y-106380843D01*
X133556085Y-106380843D02*
X133727513Y-106380843D01*
X133727513Y-106380843D02*
X133813227Y-106333225D01*
X133813227Y-106333225D02*
X133856084Y-106285606D01*
X133856084Y-106285606D02*
X133898941Y-106190368D01*
X133898941Y-106190368D02*
X133898941Y-105952273D01*
X133898941Y-105952273D02*
X133856084Y-105857035D01*
X133856084Y-105857035D02*
X133813227Y-105809416D01*
X133813227Y-105809416D02*
X133727513Y-105761797D01*
X133727513Y-105761797D02*
X133556085Y-105761797D01*
X133556085Y-105761797D02*
X133470371Y-105809416D01*
X133470371Y-105809416D02*
X133427514Y-105857035D01*
X133427514Y-105857035D02*
X133384657Y-105952273D01*
X131670375Y-86060843D02*
X131670375Y-85060845D01*
X131670375Y-85060845D02*
X131884660Y-85060845D01*
X131884660Y-85060845D02*
X132013231Y-85108464D01*
X132013231Y-85108464D02*
X132098945Y-85203702D01*
X132098945Y-85203702D02*
X132141802Y-85298940D01*
X132141802Y-85298940D02*
X132184659Y-85489416D01*
X132184659Y-85489416D02*
X132184659Y-85632273D01*
X132184659Y-85632273D02*
X132141802Y-85822749D01*
X132141802Y-85822749D02*
X132098945Y-85917987D01*
X132098945Y-85917987D02*
X132013231Y-86013225D01*
X132013231Y-86013225D02*
X131884660Y-86060843D01*
X131884660Y-86060843D02*
X131670375Y-86060843D01*
X132527516Y-85156083D02*
X132570373Y-85108464D01*
X132570373Y-85108464D02*
X132656087Y-85060845D01*
X132656087Y-85060845D02*
X132870372Y-85060845D01*
X132870372Y-85060845D02*
X132956086Y-85108464D01*
X132956086Y-85108464D02*
X132998943Y-85156083D01*
X132998943Y-85156083D02*
X133041800Y-85251321D01*
X133041800Y-85251321D02*
X133041800Y-85346559D01*
X133041800Y-85346559D02*
X132998943Y-85489416D01*
X132998943Y-85489416D02*
X132484659Y-86060843D01*
X132484659Y-86060843D02*
X133041800Y-86060843D01*
X133341800Y-85060845D02*
X133941798Y-85060845D01*
X133941798Y-85060845D02*
X133556085Y-86060843D01*
X131670375Y-80980843D02*
X131670375Y-79980845D01*
X131670375Y-79980845D02*
X131884660Y-79980845D01*
X131884660Y-79980845D02*
X132013231Y-80028464D01*
X132013231Y-80028464D02*
X132098945Y-80123702D01*
X132098945Y-80123702D02*
X132141802Y-80218940D01*
X132141802Y-80218940D02*
X132184659Y-80409416D01*
X132184659Y-80409416D02*
X132184659Y-80552273D01*
X132184659Y-80552273D02*
X132141802Y-80742749D01*
X132141802Y-80742749D02*
X132098945Y-80837987D01*
X132098945Y-80837987D02*
X132013231Y-80933225D01*
X132013231Y-80933225D02*
X131884660Y-80980843D01*
X131884660Y-80980843D02*
X131670375Y-80980843D01*
X133041800Y-80980843D02*
X132527516Y-80980843D01*
X132784658Y-80980843D02*
X132784658Y-79980845D01*
X132784658Y-79980845D02*
X132698944Y-80123702D01*
X132698944Y-80123702D02*
X132613230Y-80218940D01*
X132613230Y-80218940D02*
X132527516Y-80266559D01*
X133384657Y-80076083D02*
X133427514Y-80028464D01*
X133427514Y-80028464D02*
X133513228Y-79980845D01*
X133513228Y-79980845D02*
X133727513Y-79980845D01*
X133727513Y-79980845D02*
X133813227Y-80028464D01*
X133813227Y-80028464D02*
X133856084Y-80076083D01*
X133856084Y-80076083D02*
X133898941Y-80171321D01*
X133898941Y-80171321D02*
X133898941Y-80266559D01*
X133898941Y-80266559D02*
X133856084Y-80409416D01*
X133856084Y-80409416D02*
X133341800Y-80980843D01*
X133341800Y-80980843D02*
X133898941Y-80980843D01*
X111580634Y-86060843D02*
X111580634Y-85060845D01*
X111580634Y-85060845D02*
X111794919Y-85060845D01*
X111794919Y-85060845D02*
X111923490Y-85108464D01*
X111923490Y-85108464D02*
X112009204Y-85203702D01*
X112009204Y-85203702D02*
X112052061Y-85298940D01*
X112052061Y-85298940D02*
X112094918Y-85489416D01*
X112094918Y-85489416D02*
X112094918Y-85632273D01*
X112094918Y-85632273D02*
X112052061Y-85822749D01*
X112052061Y-85822749D02*
X112009204Y-85917987D01*
X112009204Y-85917987D02*
X111923490Y-86013225D01*
X111923490Y-86013225D02*
X111794919Y-86060843D01*
X111794919Y-86060843D02*
X111580634Y-86060843D01*
X112952059Y-86060843D02*
X112437775Y-86060843D01*
X112694917Y-86060843D02*
X112694917Y-85060845D01*
X112694917Y-85060845D02*
X112609203Y-85203702D01*
X112609203Y-85203702D02*
X112523489Y-85298940D01*
X112523489Y-85298940D02*
X112437775Y-85346559D01*
X113723486Y-85060845D02*
X113552058Y-85060845D01*
X113552058Y-85060845D02*
X113466344Y-85108464D01*
X113466344Y-85108464D02*
X113423487Y-85156083D01*
X113423487Y-85156083D02*
X113337773Y-85298940D01*
X113337773Y-85298940D02*
X113294916Y-85489416D01*
X113294916Y-85489416D02*
X113294916Y-85870368D01*
X113294916Y-85870368D02*
X113337773Y-85965606D01*
X113337773Y-85965606D02*
X113380630Y-86013225D01*
X113380630Y-86013225D02*
X113466344Y-86060843D01*
X113466344Y-86060843D02*
X113637772Y-86060843D01*
X113637772Y-86060843D02*
X113723486Y-86013225D01*
X113723486Y-86013225D02*
X113766343Y-85965606D01*
X113766343Y-85965606D02*
X113809200Y-85870368D01*
X113809200Y-85870368D02*
X113809200Y-85632273D01*
X113809200Y-85632273D02*
X113766343Y-85537035D01*
X113766343Y-85537035D02*
X113723486Y-85489416D01*
X113723486Y-85489416D02*
X113637772Y-85441797D01*
X113637772Y-85441797D02*
X113466344Y-85441797D01*
X113466344Y-85441797D02*
X113380630Y-85489416D01*
X113380630Y-85489416D02*
X113337773Y-85537035D01*
X113337773Y-85537035D02*
X113294916Y-85632273D01*
X114837769Y-85013227D02*
X114066343Y-86298938D01*
X115652053Y-86060843D02*
X115352054Y-85584654D01*
X115137769Y-86060843D02*
X115137769Y-85060845D01*
X115137769Y-85060845D02*
X115480625Y-85060845D01*
X115480625Y-85060845D02*
X115566339Y-85108464D01*
X115566339Y-85108464D02*
X115609196Y-85156083D01*
X115609196Y-85156083D02*
X115652053Y-85251321D01*
X115652053Y-85251321D02*
X115652053Y-85394178D01*
X115652053Y-85394178D02*
X115609196Y-85489416D01*
X115609196Y-85489416D02*
X115566339Y-85537035D01*
X115566339Y-85537035D02*
X115480625Y-85584654D01*
X115480625Y-85584654D02*
X115137769Y-85584654D01*
X115952053Y-85060845D02*
X116552051Y-86060843D01*
X116552051Y-85060845D02*
X115952053Y-86060843D01*
X116852051Y-85156083D02*
X116894908Y-85108464D01*
X116894908Y-85108464D02*
X116980622Y-85060845D01*
X116980622Y-85060845D02*
X117194907Y-85060845D01*
X117194907Y-85060845D02*
X117280621Y-85108464D01*
X117280621Y-85108464D02*
X117323478Y-85156083D01*
X117323478Y-85156083D02*
X117366335Y-85251321D01*
X117366335Y-85251321D02*
X117366335Y-85346559D01*
X117366335Y-85346559D02*
X117323478Y-85489416D01*
X117323478Y-85489416D02*
X116809194Y-86060843D01*
X116809194Y-86060843D02*
X117366335Y-86060843D01*
X114015640Y-68675583D02*
X114144211Y-68723202D01*
X114144211Y-68723202D02*
X114187068Y-68770821D01*
X114187068Y-68770821D02*
X114229925Y-68866059D01*
X114229925Y-68866059D02*
X114229925Y-69008916D01*
X114229925Y-69008916D02*
X114187068Y-69104154D01*
X114187068Y-69104154D02*
X114144211Y-69151773D01*
X114144211Y-69151773D02*
X114058497Y-69199391D01*
X114058497Y-69199391D02*
X113715641Y-69199391D01*
X113715641Y-69199391D02*
X113715641Y-68199393D01*
X113715641Y-68199393D02*
X114015640Y-68199393D01*
X114015640Y-68199393D02*
X114101354Y-68247012D01*
X114101354Y-68247012D02*
X114144211Y-68294631D01*
X114144211Y-68294631D02*
X114187068Y-68389869D01*
X114187068Y-68389869D02*
X114187068Y-68485107D01*
X114187068Y-68485107D02*
X114144211Y-68580345D01*
X114144211Y-68580345D02*
X114101354Y-68627964D01*
X114101354Y-68627964D02*
X114015640Y-68675583D01*
X114015640Y-68675583D02*
X113715641Y-68675583D01*
X114744210Y-69199391D02*
X114658496Y-69151773D01*
X114658496Y-69151773D02*
X114615639Y-69104154D01*
X114615639Y-69104154D02*
X114572782Y-69008916D01*
X114572782Y-69008916D02*
X114572782Y-68723202D01*
X114572782Y-68723202D02*
X114615639Y-68627964D01*
X114615639Y-68627964D02*
X114658496Y-68580345D01*
X114658496Y-68580345D02*
X114744210Y-68532726D01*
X114744210Y-68532726D02*
X114872781Y-68532726D01*
X114872781Y-68532726D02*
X114958495Y-68580345D01*
X114958495Y-68580345D02*
X115001352Y-68627964D01*
X115001352Y-68627964D02*
X115044209Y-68723202D01*
X115044209Y-68723202D02*
X115044209Y-69008916D01*
X115044209Y-69008916D02*
X115001352Y-69104154D01*
X115001352Y-69104154D02*
X114958495Y-69151773D01*
X114958495Y-69151773D02*
X114872781Y-69199391D01*
X114872781Y-69199391D02*
X114744210Y-69199391D01*
X115558494Y-69199391D02*
X115472780Y-69151773D01*
X115472780Y-69151773D02*
X115429923Y-69104154D01*
X115429923Y-69104154D02*
X115387066Y-69008916D01*
X115387066Y-69008916D02*
X115387066Y-68723202D01*
X115387066Y-68723202D02*
X115429923Y-68627964D01*
X115429923Y-68627964D02*
X115472780Y-68580345D01*
X115472780Y-68580345D02*
X115558494Y-68532726D01*
X115558494Y-68532726D02*
X115687065Y-68532726D01*
X115687065Y-68532726D02*
X115772779Y-68580345D01*
X115772779Y-68580345D02*
X115815636Y-68627964D01*
X115815636Y-68627964D02*
X115858493Y-68723202D01*
X115858493Y-68723202D02*
X115858493Y-69008916D01*
X115858493Y-69008916D02*
X115815636Y-69104154D01*
X115815636Y-69104154D02*
X115772779Y-69151773D01*
X115772779Y-69151773D02*
X115687065Y-69199391D01*
X115687065Y-69199391D02*
X115558494Y-69199391D01*
X116115636Y-68532726D02*
X116458492Y-68532726D01*
X116244207Y-68199393D02*
X116244207Y-69056535D01*
X116244207Y-69056535D02*
X116287064Y-69151773D01*
X116287064Y-69151773D02*
X116372778Y-69199391D01*
X116372778Y-69199391D02*
X116458492Y-69199391D01*
X131670375Y-78694843D02*
X131670375Y-77694845D01*
X131670375Y-77694845D02*
X131884660Y-77694845D01*
X131884660Y-77694845D02*
X132013231Y-77742464D01*
X132013231Y-77742464D02*
X132098945Y-77837702D01*
X132098945Y-77837702D02*
X132141802Y-77932940D01*
X132141802Y-77932940D02*
X132184659Y-78123416D01*
X132184659Y-78123416D02*
X132184659Y-78266273D01*
X132184659Y-78266273D02*
X132141802Y-78456749D01*
X132141802Y-78456749D02*
X132098945Y-78551987D01*
X132098945Y-78551987D02*
X132013231Y-78647225D01*
X132013231Y-78647225D02*
X131884660Y-78694843D01*
X131884660Y-78694843D02*
X131670375Y-78694843D01*
X133041800Y-78694843D02*
X132527516Y-78694843D01*
X132784658Y-78694843D02*
X132784658Y-77694845D01*
X132784658Y-77694845D02*
X132698944Y-77837702D01*
X132698944Y-77837702D02*
X132613230Y-77932940D01*
X132613230Y-77932940D02*
X132527516Y-77980559D01*
X133341800Y-77694845D02*
X133898941Y-77694845D01*
X133898941Y-77694845D02*
X133598942Y-78075797D01*
X133598942Y-78075797D02*
X133727513Y-78075797D01*
X133727513Y-78075797D02*
X133813227Y-78123416D01*
X133813227Y-78123416D02*
X133856084Y-78171035D01*
X133856084Y-78171035D02*
X133898941Y-78266273D01*
X133898941Y-78266273D02*
X133898941Y-78504368D01*
X133898941Y-78504368D02*
X133856084Y-78599606D01*
X133856084Y-78599606D02*
X133813227Y-78647225D01*
X133813227Y-78647225D02*
X133727513Y-78694843D01*
X133727513Y-78694843D02*
X133470371Y-78694843D01*
X133470371Y-78694843D02*
X133384657Y-78647225D01*
X133384657Y-78647225D02*
X133341800Y-78599606D01*
X131670375Y-93680843D02*
X131670375Y-92680845D01*
X131670375Y-92680845D02*
X131884660Y-92680845D01*
X131884660Y-92680845D02*
X132013231Y-92728464D01*
X132013231Y-92728464D02*
X132098945Y-92823702D01*
X132098945Y-92823702D02*
X132141802Y-92918940D01*
X132141802Y-92918940D02*
X132184659Y-93109416D01*
X132184659Y-93109416D02*
X132184659Y-93252273D01*
X132184659Y-93252273D02*
X132141802Y-93442749D01*
X132141802Y-93442749D02*
X132098945Y-93537987D01*
X132098945Y-93537987D02*
X132013231Y-93633225D01*
X132013231Y-93633225D02*
X131884660Y-93680843D01*
X131884660Y-93680843D02*
X131670375Y-93680843D01*
X132484659Y-92680845D02*
X133041800Y-92680845D01*
X133041800Y-92680845D02*
X132741801Y-93061797D01*
X132741801Y-93061797D02*
X132870372Y-93061797D01*
X132870372Y-93061797D02*
X132956086Y-93109416D01*
X132956086Y-93109416D02*
X132998943Y-93157035D01*
X132998943Y-93157035D02*
X133041800Y-93252273D01*
X133041800Y-93252273D02*
X133041800Y-93490368D01*
X133041800Y-93490368D02*
X132998943Y-93585606D01*
X132998943Y-93585606D02*
X132956086Y-93633225D01*
X132956086Y-93633225D02*
X132870372Y-93680843D01*
X132870372Y-93680843D02*
X132613230Y-93680843D01*
X132613230Y-93680843D02*
X132527516Y-93633225D01*
X132527516Y-93633225D02*
X132484659Y-93585606D01*
X133341800Y-92680845D02*
X133898941Y-92680845D01*
X133898941Y-92680845D02*
X133598942Y-93061797D01*
X133598942Y-93061797D02*
X133727513Y-93061797D01*
X133727513Y-93061797D02*
X133813227Y-93109416D01*
X133813227Y-93109416D02*
X133856084Y-93157035D01*
X133856084Y-93157035D02*
X133898941Y-93252273D01*
X133898941Y-93252273D02*
X133898941Y-93490368D01*
X133898941Y-93490368D02*
X133856084Y-93585606D01*
X133856084Y-93585606D02*
X133813227Y-93633225D01*
X133813227Y-93633225D02*
X133727513Y-93680843D01*
X133727513Y-93680843D02*
X133470371Y-93680843D01*
X133470371Y-93680843D02*
X133384657Y-93633225D01*
X133384657Y-93633225D02*
X133341800Y-93585606D01*
X111350375Y-108920843D02*
X111350375Y-107920845D01*
X111350375Y-107920845D02*
X111564660Y-107920845D01*
X111564660Y-107920845D02*
X111693231Y-107968464D01*
X111693231Y-107968464D02*
X111778945Y-108063702D01*
X111778945Y-108063702D02*
X111821802Y-108158940D01*
X111821802Y-108158940D02*
X111864659Y-108349416D01*
X111864659Y-108349416D02*
X111864659Y-108492273D01*
X111864659Y-108492273D02*
X111821802Y-108682749D01*
X111821802Y-108682749D02*
X111778945Y-108777987D01*
X111778945Y-108777987D02*
X111693231Y-108873225D01*
X111693231Y-108873225D02*
X111564660Y-108920843D01*
X111564660Y-108920843D02*
X111350375Y-108920843D01*
X112207516Y-108016083D02*
X112250373Y-107968464D01*
X112250373Y-107968464D02*
X112336087Y-107920845D01*
X112336087Y-107920845D02*
X112550372Y-107920845D01*
X112550372Y-107920845D02*
X112636086Y-107968464D01*
X112636086Y-107968464D02*
X112678943Y-108016083D01*
X112678943Y-108016083D02*
X112721800Y-108111321D01*
X112721800Y-108111321D02*
X112721800Y-108206559D01*
X112721800Y-108206559D02*
X112678943Y-108349416D01*
X112678943Y-108349416D02*
X112164659Y-108920843D01*
X112164659Y-108920843D02*
X112721800Y-108920843D01*
X113021800Y-107920845D02*
X113578941Y-107920845D01*
X113578941Y-107920845D02*
X113278942Y-108301797D01*
X113278942Y-108301797D02*
X113407513Y-108301797D01*
X113407513Y-108301797D02*
X113493227Y-108349416D01*
X113493227Y-108349416D02*
X113536084Y-108397035D01*
X113536084Y-108397035D02*
X113578941Y-108492273D01*
X113578941Y-108492273D02*
X113578941Y-108730368D01*
X113578941Y-108730368D02*
X113536084Y-108825606D01*
X113536084Y-108825606D02*
X113493227Y-108873225D01*
X113493227Y-108873225D02*
X113407513Y-108920843D01*
X113407513Y-108920843D02*
X113150371Y-108920843D01*
X113150371Y-108920843D02*
X113064657Y-108873225D01*
X113064657Y-108873225D02*
X113021800Y-108825606D01*
X111794919Y-88600843D02*
X111794919Y-87600845D01*
X111794919Y-87600845D02*
X112009204Y-87600845D01*
X112009204Y-87600845D02*
X112137775Y-87648464D01*
X112137775Y-87648464D02*
X112223489Y-87743702D01*
X112223489Y-87743702D02*
X112266346Y-87838940D01*
X112266346Y-87838940D02*
X112309203Y-88029416D01*
X112309203Y-88029416D02*
X112309203Y-88172273D01*
X112309203Y-88172273D02*
X112266346Y-88362749D01*
X112266346Y-88362749D02*
X112223489Y-88457987D01*
X112223489Y-88457987D02*
X112137775Y-88553225D01*
X112137775Y-88553225D02*
X112009204Y-88600843D01*
X112009204Y-88600843D02*
X111794919Y-88600843D01*
X113166344Y-88600843D02*
X112652060Y-88600843D01*
X112909202Y-88600843D02*
X112909202Y-87600845D01*
X112909202Y-87600845D02*
X112823488Y-87743702D01*
X112823488Y-87743702D02*
X112737774Y-87838940D01*
X112737774Y-87838940D02*
X112652060Y-87886559D01*
X113466344Y-87600845D02*
X114066342Y-87600845D01*
X114066342Y-87600845D02*
X113680629Y-88600843D01*
X115052054Y-87553227D02*
X114280628Y-88838938D01*
X115223483Y-87600845D02*
X115737767Y-87600845D01*
X115480625Y-88600843D02*
X115480625Y-87600845D01*
X115952053Y-87600845D02*
X116552051Y-88600843D01*
X116552051Y-87600845D02*
X115952053Y-88600843D01*
X116852051Y-87696083D02*
X116894908Y-87648464D01*
X116894908Y-87648464D02*
X116980622Y-87600845D01*
X116980622Y-87600845D02*
X117194907Y-87600845D01*
X117194907Y-87600845D02*
X117280621Y-87648464D01*
X117280621Y-87648464D02*
X117323478Y-87696083D01*
X117323478Y-87696083D02*
X117366335Y-87791321D01*
X117366335Y-87791321D02*
X117366335Y-87886559D01*
X117366335Y-87886559D02*
X117323478Y-88029416D01*
X117323478Y-88029416D02*
X116809194Y-88600843D01*
X116809194Y-88600843D02*
X117366335Y-88600843D01*
X111350375Y-93680843D02*
X111350375Y-92680845D01*
X111350375Y-92680845D02*
X111564660Y-92680845D01*
X111564660Y-92680845D02*
X111693231Y-92728464D01*
X111693231Y-92728464D02*
X111778945Y-92823702D01*
X111778945Y-92823702D02*
X111821802Y-92918940D01*
X111821802Y-92918940D02*
X111864659Y-93109416D01*
X111864659Y-93109416D02*
X111864659Y-93252273D01*
X111864659Y-93252273D02*
X111821802Y-93442749D01*
X111821802Y-93442749D02*
X111778945Y-93537987D01*
X111778945Y-93537987D02*
X111693231Y-93633225D01*
X111693231Y-93633225D02*
X111564660Y-93680843D01*
X111564660Y-93680843D02*
X111350375Y-93680843D01*
X112721800Y-93680843D02*
X112207516Y-93680843D01*
X112464658Y-93680843D02*
X112464658Y-92680845D01*
X112464658Y-92680845D02*
X112378944Y-92823702D01*
X112378944Y-92823702D02*
X112293230Y-92918940D01*
X112293230Y-92918940D02*
X112207516Y-92966559D01*
X113236085Y-93109416D02*
X113150371Y-93061797D01*
X113150371Y-93061797D02*
X113107514Y-93014178D01*
X113107514Y-93014178D02*
X113064657Y-92918940D01*
X113064657Y-92918940D02*
X113064657Y-92871321D01*
X113064657Y-92871321D02*
X113107514Y-92776083D01*
X113107514Y-92776083D02*
X113150371Y-92728464D01*
X113150371Y-92728464D02*
X113236085Y-92680845D01*
X113236085Y-92680845D02*
X113407513Y-92680845D01*
X113407513Y-92680845D02*
X113493227Y-92728464D01*
X113493227Y-92728464D02*
X113536084Y-92776083D01*
X113536084Y-92776083D02*
X113578941Y-92871321D01*
X113578941Y-92871321D02*
X113578941Y-92918940D01*
X113578941Y-92918940D02*
X113536084Y-93014178D01*
X113536084Y-93014178D02*
X113493227Y-93061797D01*
X113493227Y-93061797D02*
X113407513Y-93109416D01*
X113407513Y-93109416D02*
X113236085Y-93109416D01*
X113236085Y-93109416D02*
X113150371Y-93157035D01*
X113150371Y-93157035D02*
X113107514Y-93204654D01*
X113107514Y-93204654D02*
X113064657Y-93299892D01*
X113064657Y-93299892D02*
X113064657Y-93490368D01*
X113064657Y-93490368D02*
X113107514Y-93585606D01*
X113107514Y-93585606D02*
X113150371Y-93633225D01*
X113150371Y-93633225D02*
X113236085Y-93680843D01*
X113236085Y-93680843D02*
X113407513Y-93680843D01*
X113407513Y-93680843D02*
X113493227Y-93633225D01*
X113493227Y-93633225D02*
X113536084Y-93585606D01*
X113536084Y-93585606D02*
X113578941Y-93490368D01*
X113578941Y-93490368D02*
X113578941Y-93299892D01*
X113578941Y-93299892D02*
X113536084Y-93204654D01*
X113536084Y-93204654D02*
X113493227Y-93157035D01*
X113493227Y-93157035D02*
X113407513Y-93109416D01*
X111436089Y-102840845D02*
X111950373Y-102840845D01*
X111693231Y-103840843D02*
X111693231Y-102840845D01*
X112164659Y-102840845D02*
X112764657Y-103840843D01*
X112764657Y-102840845D02*
X112164659Y-103840843D01*
X113278942Y-102840845D02*
X113364656Y-102840845D01*
X113364656Y-102840845D02*
X113450370Y-102888464D01*
X113450370Y-102888464D02*
X113493227Y-102936083D01*
X113493227Y-102936083D02*
X113536084Y-103031321D01*
X113536084Y-103031321D02*
X113578941Y-103221797D01*
X113578941Y-103221797D02*
X113578941Y-103459892D01*
X113578941Y-103459892D02*
X113536084Y-103650368D01*
X113536084Y-103650368D02*
X113493227Y-103745606D01*
X113493227Y-103745606D02*
X113450370Y-103793225D01*
X113450370Y-103793225D02*
X113364656Y-103840843D01*
X113364656Y-103840843D02*
X113278942Y-103840843D01*
X113278942Y-103840843D02*
X113193228Y-103793225D01*
X113193228Y-103793225D02*
X113150371Y-103745606D01*
X113150371Y-103745606D02*
X113107514Y-103650368D01*
X113107514Y-103650368D02*
X113064657Y-103459892D01*
X113064657Y-103459892D02*
X113064657Y-103221797D01*
X113064657Y-103221797D02*
X113107514Y-103031321D01*
X113107514Y-103031321D02*
X113150371Y-102936083D01*
X113150371Y-102936083D02*
X113193228Y-102888464D01*
X113193228Y-102888464D02*
X113278942Y-102840845D01*
X111350375Y-96220843D02*
X111350375Y-95220845D01*
X111350375Y-95220845D02*
X111564660Y-95220845D01*
X111564660Y-95220845D02*
X111693231Y-95268464D01*
X111693231Y-95268464D02*
X111778945Y-95363702D01*
X111778945Y-95363702D02*
X111821802Y-95458940D01*
X111821802Y-95458940D02*
X111864659Y-95649416D01*
X111864659Y-95649416D02*
X111864659Y-95792273D01*
X111864659Y-95792273D02*
X111821802Y-95982749D01*
X111821802Y-95982749D02*
X111778945Y-96077987D01*
X111778945Y-96077987D02*
X111693231Y-96173225D01*
X111693231Y-96173225D02*
X111564660Y-96220843D01*
X111564660Y-96220843D02*
X111350375Y-96220843D01*
X112721800Y-96220843D02*
X112207516Y-96220843D01*
X112464658Y-96220843D02*
X112464658Y-95220845D01*
X112464658Y-95220845D02*
X112378944Y-95363702D01*
X112378944Y-95363702D02*
X112293230Y-95458940D01*
X112293230Y-95458940D02*
X112207516Y-95506559D01*
X113150371Y-96220843D02*
X113321799Y-96220843D01*
X113321799Y-96220843D02*
X113407513Y-96173225D01*
X113407513Y-96173225D02*
X113450370Y-96125606D01*
X113450370Y-96125606D02*
X113536084Y-95982749D01*
X113536084Y-95982749D02*
X113578941Y-95792273D01*
X113578941Y-95792273D02*
X113578941Y-95411321D01*
X113578941Y-95411321D02*
X113536084Y-95316083D01*
X113536084Y-95316083D02*
X113493227Y-95268464D01*
X113493227Y-95268464D02*
X113407513Y-95220845D01*
X113407513Y-95220845D02*
X113236085Y-95220845D01*
X113236085Y-95220845D02*
X113150371Y-95268464D01*
X113150371Y-95268464D02*
X113107514Y-95316083D01*
X113107514Y-95316083D02*
X113064657Y-95411321D01*
X113064657Y-95411321D02*
X113064657Y-95649416D01*
X113064657Y-95649416D02*
X113107514Y-95744654D01*
X113107514Y-95744654D02*
X113150371Y-95792273D01*
X113150371Y-95792273D02*
X113236085Y-95839892D01*
X113236085Y-95839892D02*
X113407513Y-95839892D01*
X113407513Y-95839892D02*
X113493227Y-95792273D01*
X113493227Y-95792273D02*
X113536084Y-95744654D01*
X113536084Y-95744654D02*
X113578941Y-95649416D01*
X131670375Y-98760843D02*
X131670375Y-97760845D01*
X131670375Y-97760845D02*
X131884660Y-97760845D01*
X131884660Y-97760845D02*
X132013231Y-97808464D01*
X132013231Y-97808464D02*
X132098945Y-97903702D01*
X132098945Y-97903702D02*
X132141802Y-97998940D01*
X132141802Y-97998940D02*
X132184659Y-98189416D01*
X132184659Y-98189416D02*
X132184659Y-98332273D01*
X132184659Y-98332273D02*
X132141802Y-98522749D01*
X132141802Y-98522749D02*
X132098945Y-98617987D01*
X132098945Y-98617987D02*
X132013231Y-98713225D01*
X132013231Y-98713225D02*
X131884660Y-98760843D01*
X131884660Y-98760843D02*
X131670375Y-98760843D01*
X132484659Y-97760845D02*
X133041800Y-97760845D01*
X133041800Y-97760845D02*
X132741801Y-98141797D01*
X132741801Y-98141797D02*
X132870372Y-98141797D01*
X132870372Y-98141797D02*
X132956086Y-98189416D01*
X132956086Y-98189416D02*
X132998943Y-98237035D01*
X132998943Y-98237035D02*
X133041800Y-98332273D01*
X133041800Y-98332273D02*
X133041800Y-98570368D01*
X133041800Y-98570368D02*
X132998943Y-98665606D01*
X132998943Y-98665606D02*
X132956086Y-98713225D01*
X132956086Y-98713225D02*
X132870372Y-98760843D01*
X132870372Y-98760843D02*
X132613230Y-98760843D01*
X132613230Y-98760843D02*
X132527516Y-98713225D01*
X132527516Y-98713225D02*
X132484659Y-98665606D01*
X133856084Y-97760845D02*
X133427514Y-97760845D01*
X133427514Y-97760845D02*
X133384657Y-98237035D01*
X133384657Y-98237035D02*
X133427514Y-98189416D01*
X133427514Y-98189416D02*
X133513228Y-98141797D01*
X133513228Y-98141797D02*
X133727513Y-98141797D01*
X133727513Y-98141797D02*
X133813227Y-98189416D01*
X133813227Y-98189416D02*
X133856084Y-98237035D01*
X133856084Y-98237035D02*
X133898941Y-98332273D01*
X133898941Y-98332273D02*
X133898941Y-98570368D01*
X133898941Y-98570368D02*
X133856084Y-98665606D01*
X133856084Y-98665606D02*
X133813227Y-98713225D01*
X133813227Y-98713225D02*
X133727513Y-98760843D01*
X133727513Y-98760843D02*
X133513228Y-98760843D01*
X133513228Y-98760843D02*
X133427514Y-98713225D01*
X133427514Y-98713225D02*
X133384657Y-98665606D01*
X128260501Y-68675583D02*
X128560500Y-68675583D01*
X128689071Y-69199391D02*
X128260501Y-69199391D01*
X128260501Y-69199391D02*
X128260501Y-68199393D01*
X128260501Y-68199393D02*
X128689071Y-68199393D01*
X129074785Y-68532726D02*
X129074785Y-69199391D01*
X129074785Y-68627964D02*
X129117642Y-68580345D01*
X129117642Y-68580345D02*
X129203356Y-68532726D01*
X129203356Y-68532726D02*
X129331927Y-68532726D01*
X129331927Y-68532726D02*
X129417641Y-68580345D01*
X129417641Y-68580345D02*
X129460498Y-68675583D01*
X129460498Y-68675583D02*
X129460498Y-69199391D01*
X130274782Y-69199391D02*
X130274782Y-68675583D01*
X130274782Y-68675583D02*
X130231925Y-68580345D01*
X130231925Y-68580345D02*
X130146211Y-68532726D01*
X130146211Y-68532726D02*
X129974783Y-68532726D01*
X129974783Y-68532726D02*
X129889069Y-68580345D01*
X130274782Y-69151773D02*
X130189068Y-69199391D01*
X130189068Y-69199391D02*
X129974783Y-69199391D01*
X129974783Y-69199391D02*
X129889069Y-69151773D01*
X129889069Y-69151773D02*
X129846212Y-69056535D01*
X129846212Y-69056535D02*
X129846212Y-68961297D01*
X129846212Y-68961297D02*
X129889069Y-68866059D01*
X129889069Y-68866059D02*
X129974783Y-68818440D01*
X129974783Y-68818440D02*
X130189068Y-68818440D01*
X130189068Y-68818440D02*
X130274782Y-68770821D01*
X130703353Y-69199391D02*
X130703353Y-68199393D01*
X130703353Y-68580345D02*
X130789067Y-68532726D01*
X130789067Y-68532726D02*
X130960495Y-68532726D01*
X130960495Y-68532726D02*
X131046209Y-68580345D01*
X131046209Y-68580345D02*
X131089066Y-68627964D01*
X131089066Y-68627964D02*
X131131923Y-68723202D01*
X131131923Y-68723202D02*
X131131923Y-69008916D01*
X131131923Y-69008916D02*
X131089066Y-69104154D01*
X131089066Y-69104154D02*
X131046209Y-69151773D01*
X131046209Y-69151773D02*
X130960495Y-69199391D01*
X130960495Y-69199391D02*
X130789067Y-69199391D01*
X130789067Y-69199391D02*
X130703353Y-69151773D01*
X131646208Y-69199391D02*
X131560494Y-69151773D01*
X131560494Y-69151773D02*
X131517637Y-69056535D01*
X131517637Y-69056535D02*
X131517637Y-68199393D01*
X132331921Y-69151773D02*
X132246207Y-69199391D01*
X132246207Y-69199391D02*
X132074779Y-69199391D01*
X132074779Y-69199391D02*
X131989065Y-69151773D01*
X131989065Y-69151773D02*
X131946208Y-69056535D01*
X131946208Y-69056535D02*
X131946208Y-68675583D01*
X131946208Y-68675583D02*
X131989065Y-68580345D01*
X131989065Y-68580345D02*
X132074779Y-68532726D01*
X132074779Y-68532726D02*
X132246207Y-68532726D01*
X132246207Y-68532726D02*
X132331921Y-68580345D01*
X132331921Y-68580345D02*
X132374778Y-68675583D01*
X132374778Y-68675583D02*
X132374778Y-68770821D01*
X132374778Y-68770821D02*
X131946208Y-68866059D01*
X131670375Y-83520843D02*
X131670375Y-82520845D01*
X131670375Y-82520845D02*
X131884660Y-82520845D01*
X131884660Y-82520845D02*
X132013231Y-82568464D01*
X132013231Y-82568464D02*
X132098945Y-82663702D01*
X132098945Y-82663702D02*
X132141802Y-82758940D01*
X132141802Y-82758940D02*
X132184659Y-82949416D01*
X132184659Y-82949416D02*
X132184659Y-83092273D01*
X132184659Y-83092273D02*
X132141802Y-83282749D01*
X132141802Y-83282749D02*
X132098945Y-83377987D01*
X132098945Y-83377987D02*
X132013231Y-83473225D01*
X132013231Y-83473225D02*
X131884660Y-83520843D01*
X131884660Y-83520843D02*
X131670375Y-83520843D01*
X133041800Y-83520843D02*
X132527516Y-83520843D01*
X132784658Y-83520843D02*
X132784658Y-82520845D01*
X132784658Y-82520845D02*
X132698944Y-82663702D01*
X132698944Y-82663702D02*
X132613230Y-82758940D01*
X132613230Y-82758940D02*
X132527516Y-82806559D01*
X133813227Y-82854178D02*
X133813227Y-83520843D01*
X133598942Y-82473227D02*
X133384657Y-83187511D01*
X133384657Y-83187511D02*
X133941798Y-83187511D01*
X132527516Y-108397035D02*
X132827515Y-108397035D01*
X132956086Y-108920843D02*
X132527516Y-108920843D01*
X132527516Y-108920843D02*
X132527516Y-107920845D01*
X132527516Y-107920845D02*
X132956086Y-107920845D01*
X133341800Y-108920843D02*
X133341800Y-107920845D01*
X133341800Y-107920845D02*
X133856084Y-108920843D01*
X133856084Y-108920843D02*
X133856084Y-107920845D01*
X111693231Y-74948464D02*
X111607517Y-74900845D01*
X111607517Y-74900845D02*
X111478946Y-74900845D01*
X111478946Y-74900845D02*
X111350375Y-74948464D01*
X111350375Y-74948464D02*
X111264661Y-75043702D01*
X111264661Y-75043702D02*
X111221804Y-75138940D01*
X111221804Y-75138940D02*
X111178947Y-75329416D01*
X111178947Y-75329416D02*
X111178947Y-75472273D01*
X111178947Y-75472273D02*
X111221804Y-75662749D01*
X111221804Y-75662749D02*
X111264661Y-75757987D01*
X111264661Y-75757987D02*
X111350375Y-75853225D01*
X111350375Y-75853225D02*
X111478946Y-75900843D01*
X111478946Y-75900843D02*
X111564660Y-75900843D01*
X111564660Y-75900843D02*
X111693231Y-75853225D01*
X111693231Y-75853225D02*
X111736088Y-75805606D01*
X111736088Y-75805606D02*
X111736088Y-75472273D01*
X111736088Y-75472273D02*
X111564660Y-75472273D01*
X112121802Y-75900843D02*
X112121802Y-74900845D01*
X112121802Y-74900845D02*
X112636086Y-75900843D01*
X112636086Y-75900843D02*
X112636086Y-74900845D01*
X113064657Y-75900843D02*
X113064657Y-74900845D01*
X113064657Y-74900845D02*
X113278942Y-74900845D01*
X113278942Y-74900845D02*
X113407513Y-74948464D01*
X113407513Y-74948464D02*
X113493227Y-75043702D01*
X113493227Y-75043702D02*
X113536084Y-75138940D01*
X113536084Y-75138940D02*
X113578941Y-75329416D01*
X113578941Y-75329416D02*
X113578941Y-75472273D01*
X113578941Y-75472273D02*
X113536084Y-75662749D01*
X113536084Y-75662749D02*
X113493227Y-75757987D01*
X113493227Y-75757987D02*
X113407513Y-75853225D01*
X113407513Y-75853225D02*
X113278942Y-75900843D01*
X113278942Y-75900843D02*
X113064657Y-75900843D01*
X111864659Y-101300843D02*
X111564660Y-100824654D01*
X111350375Y-101300843D02*
X111350375Y-100300845D01*
X111350375Y-100300845D02*
X111693231Y-100300845D01*
X111693231Y-100300845D02*
X111778945Y-100348464D01*
X111778945Y-100348464D02*
X111821802Y-100396083D01*
X111821802Y-100396083D02*
X111864659Y-100491321D01*
X111864659Y-100491321D02*
X111864659Y-100634178D01*
X111864659Y-100634178D02*
X111821802Y-100729416D01*
X111821802Y-100729416D02*
X111778945Y-100777035D01*
X111778945Y-100777035D02*
X111693231Y-100824654D01*
X111693231Y-100824654D02*
X111350375Y-100824654D01*
X112164659Y-100300845D02*
X112764657Y-101300843D01*
X112764657Y-100300845D02*
X112164659Y-101300843D01*
X113278942Y-100300845D02*
X113364656Y-100300845D01*
X113364656Y-100300845D02*
X113450370Y-100348464D01*
X113450370Y-100348464D02*
X113493227Y-100396083D01*
X113493227Y-100396083D02*
X113536084Y-100491321D01*
X113536084Y-100491321D02*
X113578941Y-100681797D01*
X113578941Y-100681797D02*
X113578941Y-100919892D01*
X113578941Y-100919892D02*
X113536084Y-101110368D01*
X113536084Y-101110368D02*
X113493227Y-101205606D01*
X113493227Y-101205606D02*
X113450370Y-101253225D01*
X113450370Y-101253225D02*
X113364656Y-101300843D01*
X113364656Y-101300843D02*
X113278942Y-101300843D01*
X113278942Y-101300843D02*
X113193228Y-101253225D01*
X113193228Y-101253225D02*
X113150371Y-101205606D01*
X113150371Y-101205606D02*
X113107514Y-101110368D01*
X113107514Y-101110368D02*
X113064657Y-100919892D01*
X113064657Y-100919892D02*
X113064657Y-100681797D01*
X113064657Y-100681797D02*
X113107514Y-100491321D01*
X113107514Y-100491321D02*
X113150371Y-100396083D01*
X113150371Y-100396083D02*
X113193228Y-100348464D01*
X113193228Y-100348464D02*
X113278942Y-100300845D01*
X123594225Y-63827047D02*
X123594225Y-64636570D01*
X123594225Y-64636570D02*
X123637082Y-64731808D01*
X123637082Y-64731808D02*
X123679939Y-64779427D01*
X123679939Y-64779427D02*
X123765653Y-64827045D01*
X123765653Y-64827045D02*
X123937081Y-64827045D01*
X123937081Y-64827045D02*
X124022795Y-64779427D01*
X124022795Y-64779427D02*
X124065652Y-64731808D01*
X124065652Y-64731808D02*
X124108509Y-64636570D01*
X124108509Y-64636570D02*
X124108509Y-63827047D01*
X124494223Y-64779427D02*
X124622794Y-64827045D01*
X124622794Y-64827045D02*
X124837079Y-64827045D01*
X124837079Y-64827045D02*
X124922793Y-64779427D01*
X124922793Y-64779427D02*
X124965650Y-64731808D01*
X124965650Y-64731808D02*
X125008507Y-64636570D01*
X125008507Y-64636570D02*
X125008507Y-64541332D01*
X125008507Y-64541332D02*
X124965650Y-64446094D01*
X124965650Y-64446094D02*
X124922793Y-64398475D01*
X124922793Y-64398475D02*
X124837079Y-64350856D01*
X124837079Y-64350856D02*
X124665651Y-64303237D01*
X124665651Y-64303237D02*
X124579937Y-64255618D01*
X124579937Y-64255618D02*
X124537080Y-64207999D01*
X124537080Y-64207999D02*
X124494223Y-64112761D01*
X124494223Y-64112761D02*
X124494223Y-64017523D01*
X124494223Y-64017523D02*
X124537080Y-63922285D01*
X124537080Y-63922285D02*
X124579937Y-63874666D01*
X124579937Y-63874666D02*
X124665651Y-63827047D01*
X124665651Y-63827047D02*
X124879936Y-63827047D01*
X124879936Y-63827047D02*
X125008507Y-63874666D01*
X125694220Y-64303237D02*
X125822791Y-64350856D01*
X125822791Y-64350856D02*
X125865648Y-64398475D01*
X125865648Y-64398475D02*
X125908505Y-64493713D01*
X125908505Y-64493713D02*
X125908505Y-64636570D01*
X125908505Y-64636570D02*
X125865648Y-64731808D01*
X125865648Y-64731808D02*
X125822791Y-64779427D01*
X125822791Y-64779427D02*
X125737077Y-64827045D01*
X125737077Y-64827045D02*
X125394221Y-64827045D01*
X125394221Y-64827045D02*
X125394221Y-63827047D01*
X125394221Y-63827047D02*
X125694220Y-63827047D01*
X125694220Y-63827047D02*
X125779934Y-63874666D01*
X125779934Y-63874666D02*
X125822791Y-63922285D01*
X125822791Y-63922285D02*
X125865648Y-64017523D01*
X125865648Y-64017523D02*
X125865648Y-64112761D01*
X125865648Y-64112761D02*
X125822791Y-64207999D01*
X125822791Y-64207999D02*
X125779934Y-64255618D01*
X125779934Y-64255618D02*
X125694220Y-64303237D01*
X125694220Y-64303237D02*
X125394221Y-64303237D01*
X111393232Y-72360845D02*
X111950373Y-72360845D01*
X111950373Y-72360845D02*
X111650374Y-72741797D01*
X111650374Y-72741797D02*
X111778945Y-72741797D01*
X111778945Y-72741797D02*
X111864659Y-72789416D01*
X111864659Y-72789416D02*
X111907516Y-72837035D01*
X111907516Y-72837035D02*
X111950373Y-72932273D01*
X111950373Y-72932273D02*
X111950373Y-73170368D01*
X111950373Y-73170368D02*
X111907516Y-73265606D01*
X111907516Y-73265606D02*
X111864659Y-73313225D01*
X111864659Y-73313225D02*
X111778945Y-73360843D01*
X111778945Y-73360843D02*
X111521803Y-73360843D01*
X111521803Y-73360843D02*
X111436089Y-73313225D01*
X111436089Y-73313225D02*
X111393232Y-73265606D01*
X112207516Y-72360845D02*
X112507515Y-73360843D01*
X112507515Y-73360843D02*
X112807514Y-72360845D01*
X113021800Y-72360845D02*
X113578941Y-72360845D01*
X113578941Y-72360845D02*
X113278942Y-72741797D01*
X113278942Y-72741797D02*
X113407513Y-72741797D01*
X113407513Y-72741797D02*
X113493227Y-72789416D01*
X113493227Y-72789416D02*
X113536084Y-72837035D01*
X113536084Y-72837035D02*
X113578941Y-72932273D01*
X113578941Y-72932273D02*
X113578941Y-73170368D01*
X113578941Y-73170368D02*
X113536084Y-73265606D01*
X113536084Y-73265606D02*
X113493227Y-73313225D01*
X113493227Y-73313225D02*
X113407513Y-73360843D01*
X113407513Y-73360843D02*
X113150371Y-73360843D01*
X113150371Y-73360843D02*
X113064657Y-73313225D01*
X113064657Y-73313225D02*
X113021800Y-73265606D01*
X111350375Y-98760843D02*
X111350375Y-97760845D01*
X111350375Y-97760845D02*
X111564660Y-97760845D01*
X111564660Y-97760845D02*
X111693231Y-97808464D01*
X111693231Y-97808464D02*
X111778945Y-97903702D01*
X111778945Y-97903702D02*
X111821802Y-97998940D01*
X111821802Y-97998940D02*
X111864659Y-98189416D01*
X111864659Y-98189416D02*
X111864659Y-98332273D01*
X111864659Y-98332273D02*
X111821802Y-98522749D01*
X111821802Y-98522749D02*
X111778945Y-98617987D01*
X111778945Y-98617987D02*
X111693231Y-98713225D01*
X111693231Y-98713225D02*
X111564660Y-98760843D01*
X111564660Y-98760843D02*
X111350375Y-98760843D01*
X112207516Y-97856083D02*
X112250373Y-97808464D01*
X112250373Y-97808464D02*
X112336087Y-97760845D01*
X112336087Y-97760845D02*
X112550372Y-97760845D01*
X112550372Y-97760845D02*
X112636086Y-97808464D01*
X112636086Y-97808464D02*
X112678943Y-97856083D01*
X112678943Y-97856083D02*
X112721800Y-97951321D01*
X112721800Y-97951321D02*
X112721800Y-98046559D01*
X112721800Y-98046559D02*
X112678943Y-98189416D01*
X112678943Y-98189416D02*
X112164659Y-98760843D01*
X112164659Y-98760843D02*
X112721800Y-98760843D01*
X113578941Y-98760843D02*
X113064657Y-98760843D01*
X113321799Y-98760843D02*
X113321799Y-97760845D01*
X113321799Y-97760845D02*
X113236085Y-97903702D01*
X113236085Y-97903702D02*
X113150371Y-97998940D01*
X113150371Y-97998940D02*
X113064657Y-98046559D01*
X111350375Y-80980843D02*
X111350375Y-79980845D01*
X111350375Y-79980845D02*
X111564660Y-79980845D01*
X111564660Y-79980845D02*
X111693231Y-80028464D01*
X111693231Y-80028464D02*
X111778945Y-80123702D01*
X111778945Y-80123702D02*
X111821802Y-80218940D01*
X111821802Y-80218940D02*
X111864659Y-80409416D01*
X111864659Y-80409416D02*
X111864659Y-80552273D01*
X111864659Y-80552273D02*
X111821802Y-80742749D01*
X111821802Y-80742749D02*
X111778945Y-80837987D01*
X111778945Y-80837987D02*
X111693231Y-80933225D01*
X111693231Y-80933225D02*
X111564660Y-80980843D01*
X111564660Y-80980843D02*
X111350375Y-80980843D01*
X112421801Y-79980845D02*
X112507515Y-79980845D01*
X112507515Y-79980845D02*
X112593229Y-80028464D01*
X112593229Y-80028464D02*
X112636086Y-80076083D01*
X112636086Y-80076083D02*
X112678943Y-80171321D01*
X112678943Y-80171321D02*
X112721800Y-80361797D01*
X112721800Y-80361797D02*
X112721800Y-80599892D01*
X112721800Y-80599892D02*
X112678943Y-80790368D01*
X112678943Y-80790368D02*
X112636086Y-80885606D01*
X112636086Y-80885606D02*
X112593229Y-80933225D01*
X112593229Y-80933225D02*
X112507515Y-80980843D01*
X112507515Y-80980843D02*
X112421801Y-80980843D01*
X112421801Y-80980843D02*
X112336087Y-80933225D01*
X112336087Y-80933225D02*
X112293230Y-80885606D01*
X112293230Y-80885606D02*
X112250373Y-80790368D01*
X112250373Y-80790368D02*
X112207516Y-80599892D01*
X112207516Y-80599892D02*
X112207516Y-80361797D01*
X112207516Y-80361797D02*
X112250373Y-80171321D01*
X112250373Y-80171321D02*
X112293230Y-80076083D01*
X112293230Y-80076083D02*
X112336087Y-80028464D01*
X112336087Y-80028464D02*
X112421801Y-79980845D01*
X113064657Y-80076083D02*
X113107514Y-80028464D01*
X113107514Y-80028464D02*
X113193228Y-79980845D01*
X113193228Y-79980845D02*
X113407513Y-79980845D01*
X113407513Y-79980845D02*
X113493227Y-80028464D01*
X113493227Y-80028464D02*
X113536084Y-80076083D01*
X113536084Y-80076083D02*
X113578941Y-80171321D01*
X113578941Y-80171321D02*
X113578941Y-80266559D01*
X113578941Y-80266559D02*
X113536084Y-80409416D01*
X113536084Y-80409416D02*
X113021800Y-80980843D01*
X113021800Y-80980843D02*
X113578941Y-80980843D01*
X111350375Y-91140843D02*
X111350375Y-90140845D01*
X111350375Y-90140845D02*
X111564660Y-90140845D01*
X111564660Y-90140845D02*
X111693231Y-90188464D01*
X111693231Y-90188464D02*
X111778945Y-90283702D01*
X111778945Y-90283702D02*
X111821802Y-90378940D01*
X111821802Y-90378940D02*
X111864659Y-90569416D01*
X111864659Y-90569416D02*
X111864659Y-90712273D01*
X111864659Y-90712273D02*
X111821802Y-90902749D01*
X111821802Y-90902749D02*
X111778945Y-90997987D01*
X111778945Y-90997987D02*
X111693231Y-91093225D01*
X111693231Y-91093225D02*
X111564660Y-91140843D01*
X111564660Y-91140843D02*
X111350375Y-91140843D01*
X112421801Y-90140845D02*
X112507515Y-90140845D01*
X112507515Y-90140845D02*
X112593229Y-90188464D01*
X112593229Y-90188464D02*
X112636086Y-90236083D01*
X112636086Y-90236083D02*
X112678943Y-90331321D01*
X112678943Y-90331321D02*
X112721800Y-90521797D01*
X112721800Y-90521797D02*
X112721800Y-90759892D01*
X112721800Y-90759892D02*
X112678943Y-90950368D01*
X112678943Y-90950368D02*
X112636086Y-91045606D01*
X112636086Y-91045606D02*
X112593229Y-91093225D01*
X112593229Y-91093225D02*
X112507515Y-91140843D01*
X112507515Y-91140843D02*
X112421801Y-91140843D01*
X112421801Y-91140843D02*
X112336087Y-91093225D01*
X112336087Y-91093225D02*
X112293230Y-91045606D01*
X112293230Y-91045606D02*
X112250373Y-90950368D01*
X112250373Y-90950368D02*
X112207516Y-90759892D01*
X112207516Y-90759892D02*
X112207516Y-90521797D01*
X112207516Y-90521797D02*
X112250373Y-90331321D01*
X112250373Y-90331321D02*
X112293230Y-90236083D01*
X112293230Y-90236083D02*
X112336087Y-90188464D01*
X112336087Y-90188464D02*
X112421801Y-90140845D01*
X113536084Y-90140845D02*
X113107514Y-90140845D01*
X113107514Y-90140845D02*
X113064657Y-90617035D01*
X113064657Y-90617035D02*
X113107514Y-90569416D01*
X113107514Y-90569416D02*
X113193228Y-90521797D01*
X113193228Y-90521797D02*
X113407513Y-90521797D01*
X113407513Y-90521797D02*
X113493227Y-90569416D01*
X113493227Y-90569416D02*
X113536084Y-90617035D01*
X113536084Y-90617035D02*
X113578941Y-90712273D01*
X113578941Y-90712273D02*
X113578941Y-90950368D01*
X113578941Y-90950368D02*
X113536084Y-91045606D01*
X113536084Y-91045606D02*
X113493227Y-91093225D01*
X113493227Y-91093225D02*
X113407513Y-91140843D01*
X113407513Y-91140843D02*
X113193228Y-91140843D01*
X113193228Y-91140843D02*
X113107514Y-91093225D01*
X113107514Y-91093225D02*
X113064657Y-91045606D01*
X131670375Y-91140843D02*
X131670375Y-90140845D01*
X131670375Y-90140845D02*
X131884660Y-90140845D01*
X131884660Y-90140845D02*
X132013231Y-90188464D01*
X132013231Y-90188464D02*
X132098945Y-90283702D01*
X132098945Y-90283702D02*
X132141802Y-90378940D01*
X132141802Y-90378940D02*
X132184659Y-90569416D01*
X132184659Y-90569416D02*
X132184659Y-90712273D01*
X132184659Y-90712273D02*
X132141802Y-90902749D01*
X132141802Y-90902749D02*
X132098945Y-90997987D01*
X132098945Y-90997987D02*
X132013231Y-91093225D01*
X132013231Y-91093225D02*
X131884660Y-91140843D01*
X131884660Y-91140843D02*
X131670375Y-91140843D01*
X132527516Y-90236083D02*
X132570373Y-90188464D01*
X132570373Y-90188464D02*
X132656087Y-90140845D01*
X132656087Y-90140845D02*
X132870372Y-90140845D01*
X132870372Y-90140845D02*
X132956086Y-90188464D01*
X132956086Y-90188464D02*
X132998943Y-90236083D01*
X132998943Y-90236083D02*
X133041800Y-90331321D01*
X133041800Y-90331321D02*
X133041800Y-90426559D01*
X133041800Y-90426559D02*
X132998943Y-90569416D01*
X132998943Y-90569416D02*
X132484659Y-91140843D01*
X132484659Y-91140843D02*
X133041800Y-91140843D01*
X133856084Y-90140845D02*
X133427514Y-90140845D01*
X133427514Y-90140845D02*
X133384657Y-90617035D01*
X133384657Y-90617035D02*
X133427514Y-90569416D01*
X133427514Y-90569416D02*
X133513228Y-90521797D01*
X133513228Y-90521797D02*
X133727513Y-90521797D01*
X133727513Y-90521797D02*
X133813227Y-90569416D01*
X133813227Y-90569416D02*
X133856084Y-90617035D01*
X133856084Y-90617035D02*
X133898941Y-90712273D01*
X133898941Y-90712273D02*
X133898941Y-90950368D01*
X133898941Y-90950368D02*
X133856084Y-91045606D01*
X133856084Y-91045606D02*
X133813227Y-91093225D01*
X133813227Y-91093225D02*
X133727513Y-91140843D01*
X133727513Y-91140843D02*
X133513228Y-91140843D01*
X133513228Y-91140843D02*
X133427514Y-91093225D01*
X133427514Y-91093225D02*
X133384657Y-91045606D01*
X132013232Y-72360845D02*
X132313231Y-73360843D01*
X132313231Y-73360843D02*
X132613230Y-72360845D01*
X132913230Y-73360843D02*
X132913230Y-72360845D01*
X133341800Y-73360843D02*
X133341800Y-72360845D01*
X133341800Y-72360845D02*
X133856084Y-73360843D01*
X133856084Y-73360843D02*
X133856084Y-72360845D01*
X132013231Y-74948464D02*
X131927517Y-74900845D01*
X131927517Y-74900845D02*
X131798946Y-74900845D01*
X131798946Y-74900845D02*
X131670375Y-74948464D01*
X131670375Y-74948464D02*
X131584661Y-75043702D01*
X131584661Y-75043702D02*
X131541804Y-75138940D01*
X131541804Y-75138940D02*
X131498947Y-75329416D01*
X131498947Y-75329416D02*
X131498947Y-75472273D01*
X131498947Y-75472273D02*
X131541804Y-75662749D01*
X131541804Y-75662749D02*
X131584661Y-75757987D01*
X131584661Y-75757987D02*
X131670375Y-75853225D01*
X131670375Y-75853225D02*
X131798946Y-75900843D01*
X131798946Y-75900843D02*
X131884660Y-75900843D01*
X131884660Y-75900843D02*
X132013231Y-75853225D01*
X132013231Y-75853225D02*
X132056088Y-75805606D01*
X132056088Y-75805606D02*
X132056088Y-75472273D01*
X132056088Y-75472273D02*
X131884660Y-75472273D01*
X132441802Y-75900843D02*
X132441802Y-74900845D01*
X132441802Y-74900845D02*
X132956086Y-75900843D01*
X132956086Y-75900843D02*
X132956086Y-74900845D01*
X133384657Y-75900843D02*
X133384657Y-74900845D01*
X133384657Y-74900845D02*
X133598942Y-74900845D01*
X133598942Y-74900845D02*
X133727513Y-74948464D01*
X133727513Y-74948464D02*
X133813227Y-75043702D01*
X133813227Y-75043702D02*
X133856084Y-75138940D01*
X133856084Y-75138940D02*
X133898941Y-75329416D01*
X133898941Y-75329416D02*
X133898941Y-75472273D01*
X133898941Y-75472273D02*
X133856084Y-75662749D01*
X133856084Y-75662749D02*
X133813227Y-75757987D01*
X133813227Y-75757987D02*
X133727513Y-75853225D01*
X133727513Y-75853225D02*
X133598942Y-75900843D01*
X133598942Y-75900843D02*
X133384657Y-75900843D01*
X131670375Y-96220843D02*
X131670375Y-95220845D01*
X131670375Y-95220845D02*
X131884660Y-95220845D01*
X131884660Y-95220845D02*
X132013231Y-95268464D01*
X132013231Y-95268464D02*
X132098945Y-95363702D01*
X132098945Y-95363702D02*
X132141802Y-95458940D01*
X132141802Y-95458940D02*
X132184659Y-95649416D01*
X132184659Y-95649416D02*
X132184659Y-95792273D01*
X132184659Y-95792273D02*
X132141802Y-95982749D01*
X132141802Y-95982749D02*
X132098945Y-96077987D01*
X132098945Y-96077987D02*
X132013231Y-96173225D01*
X132013231Y-96173225D02*
X131884660Y-96220843D01*
X131884660Y-96220843D02*
X131670375Y-96220843D01*
X132484659Y-95220845D02*
X133041800Y-95220845D01*
X133041800Y-95220845D02*
X132741801Y-95601797D01*
X132741801Y-95601797D02*
X132870372Y-95601797D01*
X132870372Y-95601797D02*
X132956086Y-95649416D01*
X132956086Y-95649416D02*
X132998943Y-95697035D01*
X132998943Y-95697035D02*
X133041800Y-95792273D01*
X133041800Y-95792273D02*
X133041800Y-96030368D01*
X133041800Y-96030368D02*
X132998943Y-96125606D01*
X132998943Y-96125606D02*
X132956086Y-96173225D01*
X132956086Y-96173225D02*
X132870372Y-96220843D01*
X132870372Y-96220843D02*
X132613230Y-96220843D01*
X132613230Y-96220843D02*
X132527516Y-96173225D01*
X132527516Y-96173225D02*
X132484659Y-96125606D01*
X133384657Y-95316083D02*
X133427514Y-95268464D01*
X133427514Y-95268464D02*
X133513228Y-95220845D01*
X133513228Y-95220845D02*
X133727513Y-95220845D01*
X133727513Y-95220845D02*
X133813227Y-95268464D01*
X133813227Y-95268464D02*
X133856084Y-95316083D01*
X133856084Y-95316083D02*
X133898941Y-95411321D01*
X133898941Y-95411321D02*
X133898941Y-95506559D01*
X133898941Y-95506559D02*
X133856084Y-95649416D01*
X133856084Y-95649416D02*
X133341800Y-96220843D01*
X133341800Y-96220843D02*
X133898941Y-96220843D01*
X131670375Y-88600843D02*
X131670375Y-87600845D01*
X131670375Y-87600845D02*
X131884660Y-87600845D01*
X131884660Y-87600845D02*
X132013231Y-87648464D01*
X132013231Y-87648464D02*
X132098945Y-87743702D01*
X132098945Y-87743702D02*
X132141802Y-87838940D01*
X132141802Y-87838940D02*
X132184659Y-88029416D01*
X132184659Y-88029416D02*
X132184659Y-88172273D01*
X132184659Y-88172273D02*
X132141802Y-88362749D01*
X132141802Y-88362749D02*
X132098945Y-88457987D01*
X132098945Y-88457987D02*
X132013231Y-88553225D01*
X132013231Y-88553225D02*
X131884660Y-88600843D01*
X131884660Y-88600843D02*
X131670375Y-88600843D01*
X132527516Y-87696083D02*
X132570373Y-87648464D01*
X132570373Y-87648464D02*
X132656087Y-87600845D01*
X132656087Y-87600845D02*
X132870372Y-87600845D01*
X132870372Y-87600845D02*
X132956086Y-87648464D01*
X132956086Y-87648464D02*
X132998943Y-87696083D01*
X132998943Y-87696083D02*
X133041800Y-87791321D01*
X133041800Y-87791321D02*
X133041800Y-87886559D01*
X133041800Y-87886559D02*
X132998943Y-88029416D01*
X132998943Y-88029416D02*
X132484659Y-88600843D01*
X132484659Y-88600843D02*
X133041800Y-88600843D01*
X133813227Y-87600845D02*
X133641799Y-87600845D01*
X133641799Y-87600845D02*
X133556085Y-87648464D01*
X133556085Y-87648464D02*
X133513228Y-87696083D01*
X133513228Y-87696083D02*
X133427514Y-87838940D01*
X133427514Y-87838940D02*
X133384657Y-88029416D01*
X133384657Y-88029416D02*
X133384657Y-88410368D01*
X133384657Y-88410368D02*
X133427514Y-88505606D01*
X133427514Y-88505606D02*
X133470371Y-88553225D01*
X133470371Y-88553225D02*
X133556085Y-88600843D01*
X133556085Y-88600843D02*
X133727513Y-88600843D01*
X133727513Y-88600843D02*
X133813227Y-88553225D01*
X133813227Y-88553225D02*
X133856084Y-88505606D01*
X133856084Y-88505606D02*
X133898941Y-88410368D01*
X133898941Y-88410368D02*
X133898941Y-88172273D01*
X133898941Y-88172273D02*
X133856084Y-88077035D01*
X133856084Y-88077035D02*
X133813227Y-88029416D01*
X133813227Y-88029416D02*
X133727513Y-87981797D01*
X133727513Y-87981797D02*
X133556085Y-87981797D01*
X133556085Y-87981797D02*
X133470371Y-88029416D01*
X133470371Y-88029416D02*
X133427514Y-88077035D01*
X133427514Y-88077035D02*
X133384657Y-88172273D01*
D10*
X65238095Y-56454819D02*
X65238095Y-55454819D01*
X65238095Y-55931009D02*
X65809523Y-55931009D01*
X65809523Y-56454819D02*
X65809523Y-55454819D01*
X66714285Y-55788152D02*
X66714285Y-56454819D01*
X66476190Y-55407200D02*
X66238095Y-56121485D01*
X66238095Y-56121485D02*
X66857142Y-56121485D01*
X137238095Y-114954819D02*
X137238095Y-113954819D01*
X137238095Y-114431009D02*
X137809523Y-114431009D01*
X137809523Y-114954819D02*
X137809523Y-113954819D01*
X138238095Y-114050057D02*
X138285714Y-114002438D01*
X138285714Y-114002438D02*
X138380952Y-113954819D01*
X138380952Y-113954819D02*
X138619047Y-113954819D01*
X138619047Y-113954819D02*
X138714285Y-114002438D01*
X138714285Y-114002438D02*
X138761904Y-114050057D01*
X138761904Y-114050057D02*
X138809523Y-114145295D01*
X138809523Y-114145295D02*
X138809523Y-114240533D01*
X138809523Y-114240533D02*
X138761904Y-114383390D01*
X138761904Y-114383390D02*
X138190476Y-114954819D01*
X138190476Y-114954819D02*
X138809523Y-114954819D01*
X70559892Y-71316941D02*
X71559892Y-71316941D01*
X71559892Y-71316941D02*
X70845607Y-71650274D01*
X70845607Y-71650274D02*
X71559892Y-71983607D01*
X71559892Y-71983607D02*
X70559892Y-71983607D01*
X71559892Y-72650274D02*
X71559892Y-72840750D01*
X71559892Y-72840750D02*
X71512273Y-72935988D01*
X71512273Y-72935988D02*
X71417035Y-73031226D01*
X71417035Y-73031226D02*
X71226559Y-73078845D01*
X71226559Y-73078845D02*
X70893226Y-73078845D01*
X70893226Y-73078845D02*
X70702750Y-73031226D01*
X70702750Y-73031226D02*
X70607512Y-72935988D01*
X70607512Y-72935988D02*
X70559892Y-72840750D01*
X70559892Y-72840750D02*
X70559892Y-72650274D01*
X70559892Y-72650274D02*
X70607512Y-72555036D01*
X70607512Y-72555036D02*
X70702750Y-72459798D01*
X70702750Y-72459798D02*
X70893226Y-72412179D01*
X70893226Y-72412179D02*
X71226559Y-72412179D01*
X71226559Y-72412179D02*
X71417035Y-72459798D01*
X71417035Y-72459798D02*
X71512273Y-72555036D01*
X71512273Y-72555036D02*
X71559892Y-72650274D01*
X70559892Y-73507417D02*
X71559892Y-73507417D01*
X71559892Y-73507417D02*
X71559892Y-73745512D01*
X71559892Y-73745512D02*
X71512273Y-73888369D01*
X71512273Y-73888369D02*
X71417035Y-73983607D01*
X71417035Y-73983607D02*
X71321797Y-74031226D01*
X71321797Y-74031226D02*
X71131321Y-74078845D01*
X71131321Y-74078845D02*
X70988464Y-74078845D01*
X70988464Y-74078845D02*
X70797988Y-74031226D01*
X70797988Y-74031226D02*
X70702750Y-73983607D01*
X70702750Y-73983607D02*
X70607512Y-73888369D01*
X70607512Y-73888369D02*
X70559892Y-73745512D01*
X70559892Y-73745512D02*
X70559892Y-73507417D01*
X70559892Y-75031226D02*
X70559892Y-74459798D01*
X70559892Y-74745512D02*
X71559892Y-74745512D01*
X71559892Y-74745512D02*
X71417035Y-74650274D01*
X71417035Y-74650274D02*
X71321797Y-74555036D01*
X71321797Y-74555036D02*
X71274178Y-74459798D01*
D11*
X85258627Y-97811666D02*
X85258627Y-96811668D01*
X85258627Y-96811668D02*
X85472912Y-96811668D01*
X85472912Y-96811668D02*
X85601483Y-96859287D01*
X85601483Y-96859287D02*
X85687197Y-96954525D01*
X85687197Y-96954525D02*
X85730054Y-97049763D01*
X85730054Y-97049763D02*
X85772911Y-97240239D01*
X85772911Y-97240239D02*
X85772911Y-97383096D01*
X85772911Y-97383096D02*
X85730054Y-97573572D01*
X85730054Y-97573572D02*
X85687197Y-97668810D01*
X85687197Y-97668810D02*
X85601483Y-97764048D01*
X85601483Y-97764048D02*
X85472912Y-97811666D01*
X85472912Y-97811666D02*
X85258627Y-97811666D01*
X86330053Y-96811668D02*
X86415767Y-96811668D01*
X86415767Y-96811668D02*
X86501481Y-96859287D01*
X86501481Y-96859287D02*
X86544338Y-96906906D01*
X86544338Y-96906906D02*
X86587195Y-97002144D01*
X86587195Y-97002144D02*
X86630052Y-97192620D01*
X86630052Y-97192620D02*
X86630052Y-97430715D01*
X86630052Y-97430715D02*
X86587195Y-97621191D01*
X86587195Y-97621191D02*
X86544338Y-97716429D01*
X86544338Y-97716429D02*
X86501481Y-97764048D01*
X86501481Y-97764048D02*
X86415767Y-97811666D01*
X86415767Y-97811666D02*
X86330053Y-97811666D01*
X86330053Y-97811666D02*
X86244339Y-97764048D01*
X86244339Y-97764048D02*
X86201482Y-97716429D01*
X86201482Y-97716429D02*
X86158625Y-97621191D01*
X86158625Y-97621191D02*
X86115768Y-97430715D01*
X86115768Y-97430715D02*
X86115768Y-97192620D01*
X86115768Y-97192620D02*
X86158625Y-97002144D01*
X86158625Y-97002144D02*
X86201482Y-96906906D01*
X86201482Y-96906906D02*
X86244339Y-96859287D01*
X86244339Y-96859287D02*
X86330053Y-96811668D01*
X86972909Y-96906906D02*
X87015766Y-96859287D01*
X87015766Y-96859287D02*
X87101480Y-96811668D01*
X87101480Y-96811668D02*
X87315765Y-96811668D01*
X87315765Y-96811668D02*
X87401479Y-96859287D01*
X87401479Y-96859287D02*
X87444336Y-96906906D01*
X87444336Y-96906906D02*
X87487193Y-97002144D01*
X87487193Y-97002144D02*
X87487193Y-97097382D01*
X87487193Y-97097382D02*
X87444336Y-97240239D01*
X87444336Y-97240239D02*
X86930052Y-97811666D01*
X86930052Y-97811666D02*
X87487193Y-97811666D01*
X64938627Y-69347858D02*
X65238626Y-69347858D01*
X65367197Y-69871666D02*
X64938627Y-69871666D01*
X64938627Y-69871666D02*
X64938627Y-68871668D01*
X64938627Y-68871668D02*
X65367197Y-68871668D01*
X65752911Y-69871666D02*
X65752911Y-68871668D01*
X65752911Y-68871668D02*
X66267195Y-69871666D01*
X66267195Y-69871666D02*
X66267195Y-68871668D01*
X85730054Y-101939287D02*
X85644340Y-101891668D01*
X85644340Y-101891668D02*
X85515769Y-101891668D01*
X85515769Y-101891668D02*
X85387198Y-101939287D01*
X85387198Y-101939287D02*
X85301484Y-102034525D01*
X85301484Y-102034525D02*
X85258627Y-102129763D01*
X85258627Y-102129763D02*
X85215770Y-102320239D01*
X85215770Y-102320239D02*
X85215770Y-102463096D01*
X85215770Y-102463096D02*
X85258627Y-102653572D01*
X85258627Y-102653572D02*
X85301484Y-102748810D01*
X85301484Y-102748810D02*
X85387198Y-102844048D01*
X85387198Y-102844048D02*
X85515769Y-102891666D01*
X85515769Y-102891666D02*
X85601483Y-102891666D01*
X85601483Y-102891666D02*
X85730054Y-102844048D01*
X85730054Y-102844048D02*
X85772911Y-102796429D01*
X85772911Y-102796429D02*
X85772911Y-102463096D01*
X85772911Y-102463096D02*
X85601483Y-102463096D01*
X86158625Y-102891666D02*
X86158625Y-101891668D01*
X86158625Y-101891668D02*
X86672909Y-102891666D01*
X86672909Y-102891666D02*
X86672909Y-101891668D01*
X87101480Y-102891666D02*
X87101480Y-101891668D01*
X87101480Y-101891668D02*
X87315765Y-101891668D01*
X87315765Y-101891668D02*
X87444336Y-101939287D01*
X87444336Y-101939287D02*
X87530050Y-102034525D01*
X87530050Y-102034525D02*
X87572907Y-102129763D01*
X87572907Y-102129763D02*
X87615764Y-102320239D01*
X87615764Y-102320239D02*
X87615764Y-102463096D01*
X87615764Y-102463096D02*
X87572907Y-102653572D01*
X87572907Y-102653572D02*
X87530050Y-102748810D01*
X87530050Y-102748810D02*
X87444336Y-102844048D01*
X87444336Y-102844048D02*
X87315765Y-102891666D01*
X87315765Y-102891666D02*
X87101480Y-102891666D01*
X65410054Y-101939287D02*
X65324340Y-101891668D01*
X65324340Y-101891668D02*
X65195769Y-101891668D01*
X65195769Y-101891668D02*
X65067198Y-101939287D01*
X65067198Y-101939287D02*
X64981484Y-102034525D01*
X64981484Y-102034525D02*
X64938627Y-102129763D01*
X64938627Y-102129763D02*
X64895770Y-102320239D01*
X64895770Y-102320239D02*
X64895770Y-102463096D01*
X64895770Y-102463096D02*
X64938627Y-102653572D01*
X64938627Y-102653572D02*
X64981484Y-102748810D01*
X64981484Y-102748810D02*
X65067198Y-102844048D01*
X65067198Y-102844048D02*
X65195769Y-102891666D01*
X65195769Y-102891666D02*
X65281483Y-102891666D01*
X65281483Y-102891666D02*
X65410054Y-102844048D01*
X65410054Y-102844048D02*
X65452911Y-102796429D01*
X65452911Y-102796429D02*
X65452911Y-102463096D01*
X65452911Y-102463096D02*
X65281483Y-102463096D01*
X65838625Y-102891666D02*
X65838625Y-101891668D01*
X65838625Y-101891668D02*
X66352909Y-102891666D01*
X66352909Y-102891666D02*
X66352909Y-101891668D01*
X66781480Y-102891666D02*
X66781480Y-101891668D01*
X66781480Y-101891668D02*
X66995765Y-101891668D01*
X66995765Y-101891668D02*
X67124336Y-101939287D01*
X67124336Y-101939287D02*
X67210050Y-102034525D01*
X67210050Y-102034525D02*
X67252907Y-102129763D01*
X67252907Y-102129763D02*
X67295764Y-102320239D01*
X67295764Y-102320239D02*
X67295764Y-102463096D01*
X67295764Y-102463096D02*
X67252907Y-102653572D01*
X67252907Y-102653572D02*
X67210050Y-102748810D01*
X67210050Y-102748810D02*
X67124336Y-102844048D01*
X67124336Y-102844048D02*
X66995765Y-102891666D01*
X66995765Y-102891666D02*
X66781480Y-102891666D01*
X64938627Y-85111666D02*
X64938627Y-84111668D01*
X64938627Y-84111668D02*
X65152912Y-84111668D01*
X65152912Y-84111668D02*
X65281483Y-84159287D01*
X65281483Y-84159287D02*
X65367197Y-84254525D01*
X65367197Y-84254525D02*
X65410054Y-84349763D01*
X65410054Y-84349763D02*
X65452911Y-84540239D01*
X65452911Y-84540239D02*
X65452911Y-84683096D01*
X65452911Y-84683096D02*
X65410054Y-84873572D01*
X65410054Y-84873572D02*
X65367197Y-84968810D01*
X65367197Y-84968810D02*
X65281483Y-85064048D01*
X65281483Y-85064048D02*
X65152912Y-85111666D01*
X65152912Y-85111666D02*
X64938627Y-85111666D01*
X65752911Y-84111668D02*
X66310052Y-84111668D01*
X66310052Y-84111668D02*
X66010053Y-84492620D01*
X66010053Y-84492620D02*
X66138624Y-84492620D01*
X66138624Y-84492620D02*
X66224338Y-84540239D01*
X66224338Y-84540239D02*
X66267195Y-84587858D01*
X66267195Y-84587858D02*
X66310052Y-84683096D01*
X66310052Y-84683096D02*
X66310052Y-84921191D01*
X66310052Y-84921191D02*
X66267195Y-85016429D01*
X66267195Y-85016429D02*
X66224338Y-85064048D01*
X66224338Y-85064048D02*
X66138624Y-85111666D01*
X66138624Y-85111666D02*
X65881482Y-85111666D01*
X65881482Y-85111666D02*
X65795768Y-85064048D01*
X65795768Y-85064048D02*
X65752911Y-85016429D01*
X66610052Y-84111668D02*
X67167193Y-84111668D01*
X67167193Y-84111668D02*
X66867194Y-84492620D01*
X66867194Y-84492620D02*
X66995765Y-84492620D01*
X66995765Y-84492620D02*
X67081479Y-84540239D01*
X67081479Y-84540239D02*
X67124336Y-84587858D01*
X67124336Y-84587858D02*
X67167193Y-84683096D01*
X67167193Y-84683096D02*
X67167193Y-84921191D01*
X67167193Y-84921191D02*
X67124336Y-85016429D01*
X67124336Y-85016429D02*
X67081479Y-85064048D01*
X67081479Y-85064048D02*
X66995765Y-85111666D01*
X66995765Y-85111666D02*
X66738623Y-85111666D01*
X66738623Y-85111666D02*
X66652909Y-85064048D01*
X66652909Y-85064048D02*
X66610052Y-85016429D01*
X81471233Y-92731666D02*
X81471233Y-91731668D01*
X81471233Y-91731668D02*
X81685518Y-91731668D01*
X81685518Y-91731668D02*
X81814089Y-91779287D01*
X81814089Y-91779287D02*
X81899803Y-91874525D01*
X81899803Y-91874525D02*
X81942660Y-91969763D01*
X81942660Y-91969763D02*
X81985517Y-92160239D01*
X81985517Y-92160239D02*
X81985517Y-92303096D01*
X81985517Y-92303096D02*
X81942660Y-92493572D01*
X81942660Y-92493572D02*
X81899803Y-92588810D01*
X81899803Y-92588810D02*
X81814089Y-92684048D01*
X81814089Y-92684048D02*
X81685518Y-92731666D01*
X81685518Y-92731666D02*
X81471233Y-92731666D01*
X82842658Y-92731666D02*
X82328374Y-92731666D01*
X82585516Y-92731666D02*
X82585516Y-91731668D01*
X82585516Y-91731668D02*
X82499802Y-91874525D01*
X82499802Y-91874525D02*
X82414088Y-91969763D01*
X82414088Y-91969763D02*
X82328374Y-92017382D01*
X83614085Y-91731668D02*
X83442657Y-91731668D01*
X83442657Y-91731668D02*
X83356943Y-91779287D01*
X83356943Y-91779287D02*
X83314086Y-91826906D01*
X83314086Y-91826906D02*
X83228372Y-91969763D01*
X83228372Y-91969763D02*
X83185515Y-92160239D01*
X83185515Y-92160239D02*
X83185515Y-92541191D01*
X83185515Y-92541191D02*
X83228372Y-92636429D01*
X83228372Y-92636429D02*
X83271229Y-92684048D01*
X83271229Y-92684048D02*
X83356943Y-92731666D01*
X83356943Y-92731666D02*
X83528371Y-92731666D01*
X83528371Y-92731666D02*
X83614085Y-92684048D01*
X83614085Y-92684048D02*
X83656942Y-92636429D01*
X83656942Y-92636429D02*
X83699799Y-92541191D01*
X83699799Y-92541191D02*
X83699799Y-92303096D01*
X83699799Y-92303096D02*
X83656942Y-92207858D01*
X83656942Y-92207858D02*
X83614085Y-92160239D01*
X83614085Y-92160239D02*
X83528371Y-92112620D01*
X83528371Y-92112620D02*
X83356943Y-92112620D01*
X83356943Y-92112620D02*
X83271229Y-92160239D01*
X83271229Y-92160239D02*
X83228372Y-92207858D01*
X83228372Y-92207858D02*
X83185515Y-92303096D01*
X84728368Y-91684050D02*
X83956942Y-92969761D01*
X85542652Y-92731666D02*
X85242653Y-92255477D01*
X85028368Y-92731666D02*
X85028368Y-91731668D01*
X85028368Y-91731668D02*
X85371224Y-91731668D01*
X85371224Y-91731668D02*
X85456938Y-91779287D01*
X85456938Y-91779287D02*
X85499795Y-91826906D01*
X85499795Y-91826906D02*
X85542652Y-91922144D01*
X85542652Y-91922144D02*
X85542652Y-92065001D01*
X85542652Y-92065001D02*
X85499795Y-92160239D01*
X85499795Y-92160239D02*
X85456938Y-92207858D01*
X85456938Y-92207858D02*
X85371224Y-92255477D01*
X85371224Y-92255477D02*
X85028368Y-92255477D01*
X85842652Y-91731668D02*
X86442650Y-92731666D01*
X86442650Y-91731668D02*
X85842652Y-92731666D01*
X86742650Y-91826906D02*
X86785507Y-91779287D01*
X86785507Y-91779287D02*
X86871221Y-91731668D01*
X86871221Y-91731668D02*
X87085506Y-91731668D01*
X87085506Y-91731668D02*
X87171220Y-91779287D01*
X87171220Y-91779287D02*
X87214077Y-91826906D01*
X87214077Y-91826906D02*
X87256934Y-91922144D01*
X87256934Y-91922144D02*
X87256934Y-92017382D01*
X87256934Y-92017382D02*
X87214077Y-92160239D01*
X87214077Y-92160239D02*
X86699793Y-92731666D01*
X86699793Y-92731666D02*
X87256934Y-92731666D01*
X85172913Y-104431668D02*
X85730054Y-104431668D01*
X85730054Y-104431668D02*
X85430055Y-104812620D01*
X85430055Y-104812620D02*
X85558626Y-104812620D01*
X85558626Y-104812620D02*
X85644340Y-104860239D01*
X85644340Y-104860239D02*
X85687197Y-104907858D01*
X85687197Y-104907858D02*
X85730054Y-105003096D01*
X85730054Y-105003096D02*
X85730054Y-105241191D01*
X85730054Y-105241191D02*
X85687197Y-105336429D01*
X85687197Y-105336429D02*
X85644340Y-105384048D01*
X85644340Y-105384048D02*
X85558626Y-105431666D01*
X85558626Y-105431666D02*
X85301484Y-105431666D01*
X85301484Y-105431666D02*
X85215770Y-105384048D01*
X85215770Y-105384048D02*
X85172913Y-105336429D01*
X85987197Y-104431668D02*
X86287196Y-105431666D01*
X86287196Y-105431666D02*
X86587195Y-104431668D01*
X86801481Y-104431668D02*
X87358622Y-104431668D01*
X87358622Y-104431668D02*
X87058623Y-104812620D01*
X87058623Y-104812620D02*
X87187194Y-104812620D01*
X87187194Y-104812620D02*
X87272908Y-104860239D01*
X87272908Y-104860239D02*
X87315765Y-104907858D01*
X87315765Y-104907858D02*
X87358622Y-105003096D01*
X87358622Y-105003096D02*
X87358622Y-105241191D01*
X87358622Y-105241191D02*
X87315765Y-105336429D01*
X87315765Y-105336429D02*
X87272908Y-105384048D01*
X87272908Y-105384048D02*
X87187194Y-105431666D01*
X87187194Y-105431666D02*
X86930052Y-105431666D01*
X86930052Y-105431666D02*
X86844338Y-105384048D01*
X86844338Y-105384048D02*
X86801481Y-105336429D01*
X64938627Y-72411666D02*
X64938627Y-71411668D01*
X64938627Y-71411668D02*
X65152912Y-71411668D01*
X65152912Y-71411668D02*
X65281483Y-71459287D01*
X65281483Y-71459287D02*
X65367197Y-71554525D01*
X65367197Y-71554525D02*
X65410054Y-71649763D01*
X65410054Y-71649763D02*
X65452911Y-71840239D01*
X65452911Y-71840239D02*
X65452911Y-71983096D01*
X65452911Y-71983096D02*
X65410054Y-72173572D01*
X65410054Y-72173572D02*
X65367197Y-72268810D01*
X65367197Y-72268810D02*
X65281483Y-72364048D01*
X65281483Y-72364048D02*
X65152912Y-72411666D01*
X65152912Y-72411666D02*
X64938627Y-72411666D01*
X65752911Y-71411668D02*
X66310052Y-71411668D01*
X66310052Y-71411668D02*
X66010053Y-71792620D01*
X66010053Y-71792620D02*
X66138624Y-71792620D01*
X66138624Y-71792620D02*
X66224338Y-71840239D01*
X66224338Y-71840239D02*
X66267195Y-71887858D01*
X66267195Y-71887858D02*
X66310052Y-71983096D01*
X66310052Y-71983096D02*
X66310052Y-72221191D01*
X66310052Y-72221191D02*
X66267195Y-72316429D01*
X66267195Y-72316429D02*
X66224338Y-72364048D01*
X66224338Y-72364048D02*
X66138624Y-72411666D01*
X66138624Y-72411666D02*
X65881482Y-72411666D01*
X65881482Y-72411666D02*
X65795768Y-72364048D01*
X65795768Y-72364048D02*
X65752911Y-72316429D01*
X67081479Y-71411668D02*
X66910051Y-71411668D01*
X66910051Y-71411668D02*
X66824337Y-71459287D01*
X66824337Y-71459287D02*
X66781480Y-71506906D01*
X66781480Y-71506906D02*
X66695766Y-71649763D01*
X66695766Y-71649763D02*
X66652909Y-71840239D01*
X66652909Y-71840239D02*
X66652909Y-72221191D01*
X66652909Y-72221191D02*
X66695766Y-72316429D01*
X66695766Y-72316429D02*
X66738623Y-72364048D01*
X66738623Y-72364048D02*
X66824337Y-72411666D01*
X66824337Y-72411666D02*
X66995765Y-72411666D01*
X66995765Y-72411666D02*
X67081479Y-72364048D01*
X67081479Y-72364048D02*
X67124336Y-72316429D01*
X67124336Y-72316429D02*
X67167193Y-72221191D01*
X67167193Y-72221191D02*
X67167193Y-71983096D01*
X67167193Y-71983096D02*
X67124336Y-71887858D01*
X67124336Y-71887858D02*
X67081479Y-71840239D01*
X67081479Y-71840239D02*
X66995765Y-71792620D01*
X66995765Y-71792620D02*
X66824337Y-71792620D01*
X66824337Y-71792620D02*
X66738623Y-71840239D01*
X66738623Y-71840239D02*
X66695766Y-71887858D01*
X66695766Y-71887858D02*
X66652909Y-71983096D01*
X64938627Y-95271666D02*
X64938627Y-94271668D01*
X64938627Y-94271668D02*
X65152912Y-94271668D01*
X65152912Y-94271668D02*
X65281483Y-94319287D01*
X65281483Y-94319287D02*
X65367197Y-94414525D01*
X65367197Y-94414525D02*
X65410054Y-94509763D01*
X65410054Y-94509763D02*
X65452911Y-94700239D01*
X65452911Y-94700239D02*
X65452911Y-94843096D01*
X65452911Y-94843096D02*
X65410054Y-95033572D01*
X65410054Y-95033572D02*
X65367197Y-95128810D01*
X65367197Y-95128810D02*
X65281483Y-95224048D01*
X65281483Y-95224048D02*
X65152912Y-95271666D01*
X65152912Y-95271666D02*
X64938627Y-95271666D01*
X66310052Y-95271666D02*
X65795768Y-95271666D01*
X66052910Y-95271666D02*
X66052910Y-94271668D01*
X66052910Y-94271668D02*
X65967196Y-94414525D01*
X65967196Y-94414525D02*
X65881482Y-94509763D01*
X65881482Y-94509763D02*
X65795768Y-94557382D01*
X67081479Y-94605001D02*
X67081479Y-95271666D01*
X66867194Y-94224050D02*
X66652909Y-94938334D01*
X66652909Y-94938334D02*
X67210050Y-94938334D01*
X85258627Y-69871666D02*
X85258627Y-68871668D01*
X85258627Y-68871668D02*
X85472912Y-68871668D01*
X85472912Y-68871668D02*
X85601483Y-68919287D01*
X85601483Y-68919287D02*
X85687197Y-69014525D01*
X85687197Y-69014525D02*
X85730054Y-69109763D01*
X85730054Y-69109763D02*
X85772911Y-69300239D01*
X85772911Y-69300239D02*
X85772911Y-69443096D01*
X85772911Y-69443096D02*
X85730054Y-69633572D01*
X85730054Y-69633572D02*
X85687197Y-69728810D01*
X85687197Y-69728810D02*
X85601483Y-69824048D01*
X85601483Y-69824048D02*
X85472912Y-69871666D01*
X85472912Y-69871666D02*
X85258627Y-69871666D01*
X86115768Y-68966906D02*
X86158625Y-68919287D01*
X86158625Y-68919287D02*
X86244339Y-68871668D01*
X86244339Y-68871668D02*
X86458624Y-68871668D01*
X86458624Y-68871668D02*
X86544338Y-68919287D01*
X86544338Y-68919287D02*
X86587195Y-68966906D01*
X86587195Y-68966906D02*
X86630052Y-69062144D01*
X86630052Y-69062144D02*
X86630052Y-69157382D01*
X86630052Y-69157382D02*
X86587195Y-69300239D01*
X86587195Y-69300239D02*
X86072911Y-69871666D01*
X86072911Y-69871666D02*
X86630052Y-69871666D01*
X86930052Y-68871668D02*
X87487193Y-68871668D01*
X87487193Y-68871668D02*
X87187194Y-69252620D01*
X87187194Y-69252620D02*
X87315765Y-69252620D01*
X87315765Y-69252620D02*
X87401479Y-69300239D01*
X87401479Y-69300239D02*
X87444336Y-69347858D01*
X87444336Y-69347858D02*
X87487193Y-69443096D01*
X87487193Y-69443096D02*
X87487193Y-69681191D01*
X87487193Y-69681191D02*
X87444336Y-69776429D01*
X87444336Y-69776429D02*
X87401479Y-69824048D01*
X87401479Y-69824048D02*
X87315765Y-69871666D01*
X87315765Y-69871666D02*
X87058623Y-69871666D01*
X87058623Y-69871666D02*
X86972909Y-69824048D01*
X86972909Y-69824048D02*
X86930052Y-69776429D01*
X64938627Y-87651666D02*
X64938627Y-86651668D01*
X64938627Y-86651668D02*
X65152912Y-86651668D01*
X65152912Y-86651668D02*
X65281483Y-86699287D01*
X65281483Y-86699287D02*
X65367197Y-86794525D01*
X65367197Y-86794525D02*
X65410054Y-86889763D01*
X65410054Y-86889763D02*
X65452911Y-87080239D01*
X65452911Y-87080239D02*
X65452911Y-87223096D01*
X65452911Y-87223096D02*
X65410054Y-87413572D01*
X65410054Y-87413572D02*
X65367197Y-87508810D01*
X65367197Y-87508810D02*
X65281483Y-87604048D01*
X65281483Y-87604048D02*
X65152912Y-87651666D01*
X65152912Y-87651666D02*
X64938627Y-87651666D01*
X65795768Y-86746906D02*
X65838625Y-86699287D01*
X65838625Y-86699287D02*
X65924339Y-86651668D01*
X65924339Y-86651668D02*
X66138624Y-86651668D01*
X66138624Y-86651668D02*
X66224338Y-86699287D01*
X66224338Y-86699287D02*
X66267195Y-86746906D01*
X66267195Y-86746906D02*
X66310052Y-86842144D01*
X66310052Y-86842144D02*
X66310052Y-86937382D01*
X66310052Y-86937382D02*
X66267195Y-87080239D01*
X66267195Y-87080239D02*
X65752911Y-87651666D01*
X65752911Y-87651666D02*
X66310052Y-87651666D01*
X67124336Y-86651668D02*
X66695766Y-86651668D01*
X66695766Y-86651668D02*
X66652909Y-87127858D01*
X66652909Y-87127858D02*
X66695766Y-87080239D01*
X66695766Y-87080239D02*
X66781480Y-87032620D01*
X66781480Y-87032620D02*
X66995765Y-87032620D01*
X66995765Y-87032620D02*
X67081479Y-87080239D01*
X67081479Y-87080239D02*
X67124336Y-87127858D01*
X67124336Y-87127858D02*
X67167193Y-87223096D01*
X67167193Y-87223096D02*
X67167193Y-87461191D01*
X67167193Y-87461191D02*
X67124336Y-87556429D01*
X67124336Y-87556429D02*
X67081479Y-87604048D01*
X67081479Y-87604048D02*
X66995765Y-87651666D01*
X66995765Y-87651666D02*
X66781480Y-87651666D01*
X66781480Y-87651666D02*
X66695766Y-87604048D01*
X66695766Y-87604048D02*
X66652909Y-87556429D01*
X85258627Y-87651666D02*
X85258627Y-86651668D01*
X85258627Y-86651668D02*
X85472912Y-86651668D01*
X85472912Y-86651668D02*
X85601483Y-86699287D01*
X85601483Y-86699287D02*
X85687197Y-86794525D01*
X85687197Y-86794525D02*
X85730054Y-86889763D01*
X85730054Y-86889763D02*
X85772911Y-87080239D01*
X85772911Y-87080239D02*
X85772911Y-87223096D01*
X85772911Y-87223096D02*
X85730054Y-87413572D01*
X85730054Y-87413572D02*
X85687197Y-87508810D01*
X85687197Y-87508810D02*
X85601483Y-87604048D01*
X85601483Y-87604048D02*
X85472912Y-87651666D01*
X85472912Y-87651666D02*
X85258627Y-87651666D01*
X86330053Y-86651668D02*
X86415767Y-86651668D01*
X86415767Y-86651668D02*
X86501481Y-86699287D01*
X86501481Y-86699287D02*
X86544338Y-86746906D01*
X86544338Y-86746906D02*
X86587195Y-86842144D01*
X86587195Y-86842144D02*
X86630052Y-87032620D01*
X86630052Y-87032620D02*
X86630052Y-87270715D01*
X86630052Y-87270715D02*
X86587195Y-87461191D01*
X86587195Y-87461191D02*
X86544338Y-87556429D01*
X86544338Y-87556429D02*
X86501481Y-87604048D01*
X86501481Y-87604048D02*
X86415767Y-87651666D01*
X86415767Y-87651666D02*
X86330053Y-87651666D01*
X86330053Y-87651666D02*
X86244339Y-87604048D01*
X86244339Y-87604048D02*
X86201482Y-87556429D01*
X86201482Y-87556429D02*
X86158625Y-87461191D01*
X86158625Y-87461191D02*
X86115768Y-87270715D01*
X86115768Y-87270715D02*
X86115768Y-87032620D01*
X86115768Y-87032620D02*
X86158625Y-86842144D01*
X86158625Y-86842144D02*
X86201482Y-86746906D01*
X86201482Y-86746906D02*
X86244339Y-86699287D01*
X86244339Y-86699287D02*
X86330053Y-86651668D01*
X87444336Y-86651668D02*
X87015766Y-86651668D01*
X87015766Y-86651668D02*
X86972909Y-87127858D01*
X86972909Y-87127858D02*
X87015766Y-87080239D01*
X87015766Y-87080239D02*
X87101480Y-87032620D01*
X87101480Y-87032620D02*
X87315765Y-87032620D01*
X87315765Y-87032620D02*
X87401479Y-87080239D01*
X87401479Y-87080239D02*
X87444336Y-87127858D01*
X87444336Y-87127858D02*
X87487193Y-87223096D01*
X87487193Y-87223096D02*
X87487193Y-87461191D01*
X87487193Y-87461191D02*
X87444336Y-87556429D01*
X87444336Y-87556429D02*
X87401479Y-87604048D01*
X87401479Y-87604048D02*
X87315765Y-87651666D01*
X87315765Y-87651666D02*
X87101480Y-87651666D01*
X87101480Y-87651666D02*
X87015766Y-87604048D01*
X87015766Y-87604048D02*
X86972909Y-87556429D01*
X64938627Y-80031666D02*
X64938627Y-79031668D01*
X64938627Y-79031668D02*
X65152912Y-79031668D01*
X65152912Y-79031668D02*
X65281483Y-79079287D01*
X65281483Y-79079287D02*
X65367197Y-79174525D01*
X65367197Y-79174525D02*
X65410054Y-79269763D01*
X65410054Y-79269763D02*
X65452911Y-79460239D01*
X65452911Y-79460239D02*
X65452911Y-79603096D01*
X65452911Y-79603096D02*
X65410054Y-79793572D01*
X65410054Y-79793572D02*
X65367197Y-79888810D01*
X65367197Y-79888810D02*
X65281483Y-79984048D01*
X65281483Y-79984048D02*
X65152912Y-80031666D01*
X65152912Y-80031666D02*
X64938627Y-80031666D01*
X65752911Y-79031668D02*
X66310052Y-79031668D01*
X66310052Y-79031668D02*
X66010053Y-79412620D01*
X66010053Y-79412620D02*
X66138624Y-79412620D01*
X66138624Y-79412620D02*
X66224338Y-79460239D01*
X66224338Y-79460239D02*
X66267195Y-79507858D01*
X66267195Y-79507858D02*
X66310052Y-79603096D01*
X66310052Y-79603096D02*
X66310052Y-79841191D01*
X66310052Y-79841191D02*
X66267195Y-79936429D01*
X66267195Y-79936429D02*
X66224338Y-79984048D01*
X66224338Y-79984048D02*
X66138624Y-80031666D01*
X66138624Y-80031666D02*
X65881482Y-80031666D01*
X65881482Y-80031666D02*
X65795768Y-79984048D01*
X65795768Y-79984048D02*
X65752911Y-79936429D01*
X67124336Y-79031668D02*
X66695766Y-79031668D01*
X66695766Y-79031668D02*
X66652909Y-79507858D01*
X66652909Y-79507858D02*
X66695766Y-79460239D01*
X66695766Y-79460239D02*
X66781480Y-79412620D01*
X66781480Y-79412620D02*
X66995765Y-79412620D01*
X66995765Y-79412620D02*
X67081479Y-79460239D01*
X67081479Y-79460239D02*
X67124336Y-79507858D01*
X67124336Y-79507858D02*
X67167193Y-79603096D01*
X67167193Y-79603096D02*
X67167193Y-79841191D01*
X67167193Y-79841191D02*
X67124336Y-79936429D01*
X67124336Y-79936429D02*
X67081479Y-79984048D01*
X67081479Y-79984048D02*
X66995765Y-80031666D01*
X66995765Y-80031666D02*
X66781480Y-80031666D01*
X66781480Y-80031666D02*
X66695766Y-79984048D01*
X66695766Y-79984048D02*
X66652909Y-79936429D01*
X64938627Y-92731666D02*
X64938627Y-91731668D01*
X64938627Y-91731668D02*
X65152912Y-91731668D01*
X65152912Y-91731668D02*
X65281483Y-91779287D01*
X65281483Y-91779287D02*
X65367197Y-91874525D01*
X65367197Y-91874525D02*
X65410054Y-91969763D01*
X65410054Y-91969763D02*
X65452911Y-92160239D01*
X65452911Y-92160239D02*
X65452911Y-92303096D01*
X65452911Y-92303096D02*
X65410054Y-92493572D01*
X65410054Y-92493572D02*
X65367197Y-92588810D01*
X65367197Y-92588810D02*
X65281483Y-92684048D01*
X65281483Y-92684048D02*
X65152912Y-92731666D01*
X65152912Y-92731666D02*
X64938627Y-92731666D01*
X65795768Y-91826906D02*
X65838625Y-91779287D01*
X65838625Y-91779287D02*
X65924339Y-91731668D01*
X65924339Y-91731668D02*
X66138624Y-91731668D01*
X66138624Y-91731668D02*
X66224338Y-91779287D01*
X66224338Y-91779287D02*
X66267195Y-91826906D01*
X66267195Y-91826906D02*
X66310052Y-91922144D01*
X66310052Y-91922144D02*
X66310052Y-92017382D01*
X66310052Y-92017382D02*
X66267195Y-92160239D01*
X66267195Y-92160239D02*
X65752911Y-92731666D01*
X65752911Y-92731666D02*
X66310052Y-92731666D01*
X66610052Y-91731668D02*
X67210050Y-91731668D01*
X67210050Y-91731668D02*
X66824337Y-92731666D01*
X64938627Y-77491666D02*
X64938627Y-76491668D01*
X64938627Y-76491668D02*
X65152912Y-76491668D01*
X65152912Y-76491668D02*
X65281483Y-76539287D01*
X65281483Y-76539287D02*
X65367197Y-76634525D01*
X65367197Y-76634525D02*
X65410054Y-76729763D01*
X65410054Y-76729763D02*
X65452911Y-76920239D01*
X65452911Y-76920239D02*
X65452911Y-77063096D01*
X65452911Y-77063096D02*
X65410054Y-77253572D01*
X65410054Y-77253572D02*
X65367197Y-77348810D01*
X65367197Y-77348810D02*
X65281483Y-77444048D01*
X65281483Y-77444048D02*
X65152912Y-77491666D01*
X65152912Y-77491666D02*
X64938627Y-77491666D01*
X65752911Y-76491668D02*
X66310052Y-76491668D01*
X66310052Y-76491668D02*
X66010053Y-76872620D01*
X66010053Y-76872620D02*
X66138624Y-76872620D01*
X66138624Y-76872620D02*
X66224338Y-76920239D01*
X66224338Y-76920239D02*
X66267195Y-76967858D01*
X66267195Y-76967858D02*
X66310052Y-77063096D01*
X66310052Y-77063096D02*
X66310052Y-77301191D01*
X66310052Y-77301191D02*
X66267195Y-77396429D01*
X66267195Y-77396429D02*
X66224338Y-77444048D01*
X66224338Y-77444048D02*
X66138624Y-77491666D01*
X66138624Y-77491666D02*
X65881482Y-77491666D01*
X65881482Y-77491666D02*
X65795768Y-77444048D01*
X65795768Y-77444048D02*
X65752911Y-77396429D01*
X67081479Y-76825001D02*
X67081479Y-77491666D01*
X66867194Y-76444050D02*
X66652909Y-77158334D01*
X66652909Y-77158334D02*
X67210050Y-77158334D01*
X64938627Y-100097666D02*
X64938627Y-99097668D01*
X64938627Y-99097668D02*
X65152912Y-99097668D01*
X65152912Y-99097668D02*
X65281483Y-99145287D01*
X65281483Y-99145287D02*
X65367197Y-99240525D01*
X65367197Y-99240525D02*
X65410054Y-99335763D01*
X65410054Y-99335763D02*
X65452911Y-99526239D01*
X65452911Y-99526239D02*
X65452911Y-99669096D01*
X65452911Y-99669096D02*
X65410054Y-99859572D01*
X65410054Y-99859572D02*
X65367197Y-99954810D01*
X65367197Y-99954810D02*
X65281483Y-100050048D01*
X65281483Y-100050048D02*
X65152912Y-100097666D01*
X65152912Y-100097666D02*
X64938627Y-100097666D01*
X66310052Y-100097666D02*
X65795768Y-100097666D01*
X66052910Y-100097666D02*
X66052910Y-99097668D01*
X66052910Y-99097668D02*
X65967196Y-99240525D01*
X65967196Y-99240525D02*
X65881482Y-99335763D01*
X65881482Y-99335763D02*
X65795768Y-99383382D01*
X66610052Y-99097668D02*
X67167193Y-99097668D01*
X67167193Y-99097668D02*
X66867194Y-99478620D01*
X66867194Y-99478620D02*
X66995765Y-99478620D01*
X66995765Y-99478620D02*
X67081479Y-99526239D01*
X67081479Y-99526239D02*
X67124336Y-99573858D01*
X67124336Y-99573858D02*
X67167193Y-99669096D01*
X67167193Y-99669096D02*
X67167193Y-99907191D01*
X67167193Y-99907191D02*
X67124336Y-100002429D01*
X67124336Y-100002429D02*
X67081479Y-100050048D01*
X67081479Y-100050048D02*
X66995765Y-100097666D01*
X66995765Y-100097666D02*
X66738623Y-100097666D01*
X66738623Y-100097666D02*
X66652909Y-100050048D01*
X66652909Y-100050048D02*
X66610052Y-100002429D01*
X66462790Y-109069310D02*
X66762789Y-109069310D01*
X66891360Y-109593118D02*
X66462790Y-109593118D01*
X66462790Y-109593118D02*
X66462790Y-108593120D01*
X66462790Y-108593120D02*
X66891360Y-108593120D01*
X67277074Y-108926453D02*
X67277074Y-109593118D01*
X67277074Y-109021691D02*
X67319931Y-108974072D01*
X67319931Y-108974072D02*
X67405645Y-108926453D01*
X67405645Y-108926453D02*
X67534216Y-108926453D01*
X67534216Y-108926453D02*
X67619930Y-108974072D01*
X67619930Y-108974072D02*
X67662787Y-109069310D01*
X67662787Y-109069310D02*
X67662787Y-109593118D01*
X68477071Y-109593118D02*
X68477071Y-109069310D01*
X68477071Y-109069310D02*
X68434214Y-108974072D01*
X68434214Y-108974072D02*
X68348500Y-108926453D01*
X68348500Y-108926453D02*
X68177072Y-108926453D01*
X68177072Y-108926453D02*
X68091358Y-108974072D01*
X68477071Y-109545500D02*
X68391357Y-109593118D01*
X68391357Y-109593118D02*
X68177072Y-109593118D01*
X68177072Y-109593118D02*
X68091358Y-109545500D01*
X68091358Y-109545500D02*
X68048501Y-109450262D01*
X68048501Y-109450262D02*
X68048501Y-109355024D01*
X68048501Y-109355024D02*
X68091358Y-109259786D01*
X68091358Y-109259786D02*
X68177072Y-109212167D01*
X68177072Y-109212167D02*
X68391357Y-109212167D01*
X68391357Y-109212167D02*
X68477071Y-109164548D01*
X68905642Y-109593118D02*
X68905642Y-108593120D01*
X68905642Y-108974072D02*
X68991356Y-108926453D01*
X68991356Y-108926453D02*
X69162784Y-108926453D01*
X69162784Y-108926453D02*
X69248498Y-108974072D01*
X69248498Y-108974072D02*
X69291355Y-109021691D01*
X69291355Y-109021691D02*
X69334212Y-109116929D01*
X69334212Y-109116929D02*
X69334212Y-109402643D01*
X69334212Y-109402643D02*
X69291355Y-109497881D01*
X69291355Y-109497881D02*
X69248498Y-109545500D01*
X69248498Y-109545500D02*
X69162784Y-109593118D01*
X69162784Y-109593118D02*
X68991356Y-109593118D01*
X68991356Y-109593118D02*
X68905642Y-109545500D01*
X69848497Y-109593118D02*
X69762783Y-109545500D01*
X69762783Y-109545500D02*
X69719926Y-109450262D01*
X69719926Y-109450262D02*
X69719926Y-108593120D01*
X70534210Y-109545500D02*
X70448496Y-109593118D01*
X70448496Y-109593118D02*
X70277068Y-109593118D01*
X70277068Y-109593118D02*
X70191354Y-109545500D01*
X70191354Y-109545500D02*
X70148497Y-109450262D01*
X70148497Y-109450262D02*
X70148497Y-109069310D01*
X70148497Y-109069310D02*
X70191354Y-108974072D01*
X70191354Y-108974072D02*
X70277068Y-108926453D01*
X70277068Y-108926453D02*
X70448496Y-108926453D01*
X70448496Y-108926453D02*
X70534210Y-108974072D01*
X70534210Y-108974072D02*
X70577067Y-109069310D01*
X70577067Y-109069310D02*
X70577067Y-109164548D01*
X70577067Y-109164548D02*
X70148497Y-109259786D01*
X85258627Y-85111666D02*
X85258627Y-84111668D01*
X85258627Y-84111668D02*
X85472912Y-84111668D01*
X85472912Y-84111668D02*
X85601483Y-84159287D01*
X85601483Y-84159287D02*
X85687197Y-84254525D01*
X85687197Y-84254525D02*
X85730054Y-84349763D01*
X85730054Y-84349763D02*
X85772911Y-84540239D01*
X85772911Y-84540239D02*
X85772911Y-84683096D01*
X85772911Y-84683096D02*
X85730054Y-84873572D01*
X85730054Y-84873572D02*
X85687197Y-84968810D01*
X85687197Y-84968810D02*
X85601483Y-85064048D01*
X85601483Y-85064048D02*
X85472912Y-85111666D01*
X85472912Y-85111666D02*
X85258627Y-85111666D01*
X86630052Y-85111666D02*
X86115768Y-85111666D01*
X86372910Y-85111666D02*
X86372910Y-84111668D01*
X86372910Y-84111668D02*
X86287196Y-84254525D01*
X86287196Y-84254525D02*
X86201482Y-84349763D01*
X86201482Y-84349763D02*
X86115768Y-84397382D01*
X87144337Y-84540239D02*
X87058623Y-84492620D01*
X87058623Y-84492620D02*
X87015766Y-84445001D01*
X87015766Y-84445001D02*
X86972909Y-84349763D01*
X86972909Y-84349763D02*
X86972909Y-84302144D01*
X86972909Y-84302144D02*
X87015766Y-84206906D01*
X87015766Y-84206906D02*
X87058623Y-84159287D01*
X87058623Y-84159287D02*
X87144337Y-84111668D01*
X87144337Y-84111668D02*
X87315765Y-84111668D01*
X87315765Y-84111668D02*
X87401479Y-84159287D01*
X87401479Y-84159287D02*
X87444336Y-84206906D01*
X87444336Y-84206906D02*
X87487193Y-84302144D01*
X87487193Y-84302144D02*
X87487193Y-84349763D01*
X87487193Y-84349763D02*
X87444336Y-84445001D01*
X87444336Y-84445001D02*
X87401479Y-84492620D01*
X87401479Y-84492620D02*
X87315765Y-84540239D01*
X87315765Y-84540239D02*
X87144337Y-84540239D01*
X87144337Y-84540239D02*
X87058623Y-84587858D01*
X87058623Y-84587858D02*
X87015766Y-84635477D01*
X87015766Y-84635477D02*
X86972909Y-84730715D01*
X86972909Y-84730715D02*
X86972909Y-84921191D01*
X86972909Y-84921191D02*
X87015766Y-85016429D01*
X87015766Y-85016429D02*
X87058623Y-85064048D01*
X87058623Y-85064048D02*
X87144337Y-85111666D01*
X87144337Y-85111666D02*
X87315765Y-85111666D01*
X87315765Y-85111666D02*
X87401479Y-85064048D01*
X87401479Y-85064048D02*
X87444336Y-85016429D01*
X87444336Y-85016429D02*
X87487193Y-84921191D01*
X87487193Y-84921191D02*
X87487193Y-84730715D01*
X87487193Y-84730715D02*
X87444336Y-84635477D01*
X87444336Y-84635477D02*
X87401479Y-84587858D01*
X87401479Y-84587858D02*
X87315765Y-84540239D01*
X64938627Y-74951666D02*
X64938627Y-73951668D01*
X64938627Y-73951668D02*
X65152912Y-73951668D01*
X65152912Y-73951668D02*
X65281483Y-73999287D01*
X65281483Y-73999287D02*
X65367197Y-74094525D01*
X65367197Y-74094525D02*
X65410054Y-74189763D01*
X65410054Y-74189763D02*
X65452911Y-74380239D01*
X65452911Y-74380239D02*
X65452911Y-74523096D01*
X65452911Y-74523096D02*
X65410054Y-74713572D01*
X65410054Y-74713572D02*
X65367197Y-74808810D01*
X65367197Y-74808810D02*
X65281483Y-74904048D01*
X65281483Y-74904048D02*
X65152912Y-74951666D01*
X65152912Y-74951666D02*
X64938627Y-74951666D01*
X65752911Y-73951668D02*
X66310052Y-73951668D01*
X66310052Y-73951668D02*
X66010053Y-74332620D01*
X66010053Y-74332620D02*
X66138624Y-74332620D01*
X66138624Y-74332620D02*
X66224338Y-74380239D01*
X66224338Y-74380239D02*
X66267195Y-74427858D01*
X66267195Y-74427858D02*
X66310052Y-74523096D01*
X66310052Y-74523096D02*
X66310052Y-74761191D01*
X66310052Y-74761191D02*
X66267195Y-74856429D01*
X66267195Y-74856429D02*
X66224338Y-74904048D01*
X66224338Y-74904048D02*
X66138624Y-74951666D01*
X66138624Y-74951666D02*
X65881482Y-74951666D01*
X65881482Y-74951666D02*
X65795768Y-74904048D01*
X65795768Y-74904048D02*
X65752911Y-74856429D01*
X66738623Y-74951666D02*
X66910051Y-74951666D01*
X66910051Y-74951666D02*
X66995765Y-74904048D01*
X66995765Y-74904048D02*
X67038622Y-74856429D01*
X67038622Y-74856429D02*
X67124336Y-74713572D01*
X67124336Y-74713572D02*
X67167193Y-74523096D01*
X67167193Y-74523096D02*
X67167193Y-74142144D01*
X67167193Y-74142144D02*
X67124336Y-74046906D01*
X67124336Y-74046906D02*
X67081479Y-73999287D01*
X67081479Y-73999287D02*
X66995765Y-73951668D01*
X66995765Y-73951668D02*
X66824337Y-73951668D01*
X66824337Y-73951668D02*
X66738623Y-73999287D01*
X66738623Y-73999287D02*
X66695766Y-74046906D01*
X66695766Y-74046906D02*
X66652909Y-74142144D01*
X66652909Y-74142144D02*
X66652909Y-74380239D01*
X66652909Y-74380239D02*
X66695766Y-74475477D01*
X66695766Y-74475477D02*
X66738623Y-74523096D01*
X66738623Y-74523096D02*
X66824337Y-74570715D01*
X66824337Y-74570715D02*
X66995765Y-74570715D01*
X66995765Y-74570715D02*
X67081479Y-74523096D01*
X67081479Y-74523096D02*
X67124336Y-74475477D01*
X67124336Y-74475477D02*
X67167193Y-74380239D01*
X81471233Y-90191666D02*
X81471233Y-89191668D01*
X81471233Y-89191668D02*
X81685518Y-89191668D01*
X81685518Y-89191668D02*
X81814089Y-89239287D01*
X81814089Y-89239287D02*
X81899803Y-89334525D01*
X81899803Y-89334525D02*
X81942660Y-89429763D01*
X81942660Y-89429763D02*
X81985517Y-89620239D01*
X81985517Y-89620239D02*
X81985517Y-89763096D01*
X81985517Y-89763096D02*
X81942660Y-89953572D01*
X81942660Y-89953572D02*
X81899803Y-90048810D01*
X81899803Y-90048810D02*
X81814089Y-90144048D01*
X81814089Y-90144048D02*
X81685518Y-90191666D01*
X81685518Y-90191666D02*
X81471233Y-90191666D01*
X82842658Y-90191666D02*
X82328374Y-90191666D01*
X82585516Y-90191666D02*
X82585516Y-89191668D01*
X82585516Y-89191668D02*
X82499802Y-89334525D01*
X82499802Y-89334525D02*
X82414088Y-89429763D01*
X82414088Y-89429763D02*
X82328374Y-89477382D01*
X83142658Y-89191668D02*
X83742656Y-89191668D01*
X83742656Y-89191668D02*
X83356943Y-90191666D01*
X84728368Y-89144050D02*
X83956942Y-90429761D01*
X84899797Y-89191668D02*
X85414081Y-89191668D01*
X85156939Y-90191666D02*
X85156939Y-89191668D01*
X85628367Y-89191668D02*
X86228365Y-90191666D01*
X86228365Y-89191668D02*
X85628367Y-90191666D01*
X86528365Y-89286906D02*
X86571222Y-89239287D01*
X86571222Y-89239287D02*
X86656936Y-89191668D01*
X86656936Y-89191668D02*
X86871221Y-89191668D01*
X86871221Y-89191668D02*
X86956935Y-89239287D01*
X86956935Y-89239287D02*
X86999792Y-89286906D01*
X86999792Y-89286906D02*
X87042649Y-89382144D01*
X87042649Y-89382144D02*
X87042649Y-89477382D01*
X87042649Y-89477382D02*
X86999792Y-89620239D01*
X86999792Y-89620239D02*
X86485508Y-90191666D01*
X86485508Y-90191666D02*
X87042649Y-90191666D01*
X85258627Y-80031666D02*
X85258627Y-79031668D01*
X85258627Y-79031668D02*
X85472912Y-79031668D01*
X85472912Y-79031668D02*
X85601483Y-79079287D01*
X85601483Y-79079287D02*
X85687197Y-79174525D01*
X85687197Y-79174525D02*
X85730054Y-79269763D01*
X85730054Y-79269763D02*
X85772911Y-79460239D01*
X85772911Y-79460239D02*
X85772911Y-79603096D01*
X85772911Y-79603096D02*
X85730054Y-79793572D01*
X85730054Y-79793572D02*
X85687197Y-79888810D01*
X85687197Y-79888810D02*
X85601483Y-79984048D01*
X85601483Y-79984048D02*
X85472912Y-80031666D01*
X85472912Y-80031666D02*
X85258627Y-80031666D01*
X86115768Y-79126906D02*
X86158625Y-79079287D01*
X86158625Y-79079287D02*
X86244339Y-79031668D01*
X86244339Y-79031668D02*
X86458624Y-79031668D01*
X86458624Y-79031668D02*
X86544338Y-79079287D01*
X86544338Y-79079287D02*
X86587195Y-79126906D01*
X86587195Y-79126906D02*
X86630052Y-79222144D01*
X86630052Y-79222144D02*
X86630052Y-79317382D01*
X86630052Y-79317382D02*
X86587195Y-79460239D01*
X86587195Y-79460239D02*
X86072911Y-80031666D01*
X86072911Y-80031666D02*
X86630052Y-80031666D01*
X87487193Y-80031666D02*
X86972909Y-80031666D01*
X87230051Y-80031666D02*
X87230051Y-79031668D01*
X87230051Y-79031668D02*
X87144337Y-79174525D01*
X87144337Y-79174525D02*
X87058623Y-79269763D01*
X87058623Y-79269763D02*
X86972909Y-79317382D01*
X64810056Y-104431668D02*
X65110055Y-105431666D01*
X65110055Y-105431666D02*
X65410054Y-104431668D01*
X65710054Y-105431666D02*
X65710054Y-104431668D01*
X66138624Y-105431666D02*
X66138624Y-104431668D01*
X66138624Y-104431668D02*
X66652908Y-105431666D01*
X66652908Y-105431666D02*
X66652908Y-104431668D01*
X64938627Y-97811666D02*
X64938627Y-96811668D01*
X64938627Y-96811668D02*
X65152912Y-96811668D01*
X65152912Y-96811668D02*
X65281483Y-96859287D01*
X65281483Y-96859287D02*
X65367197Y-96954525D01*
X65367197Y-96954525D02*
X65410054Y-97049763D01*
X65410054Y-97049763D02*
X65452911Y-97240239D01*
X65452911Y-97240239D02*
X65452911Y-97383096D01*
X65452911Y-97383096D02*
X65410054Y-97573572D01*
X65410054Y-97573572D02*
X65367197Y-97668810D01*
X65367197Y-97668810D02*
X65281483Y-97764048D01*
X65281483Y-97764048D02*
X65152912Y-97811666D01*
X65152912Y-97811666D02*
X64938627Y-97811666D01*
X66310052Y-97811666D02*
X65795768Y-97811666D01*
X66052910Y-97811666D02*
X66052910Y-96811668D01*
X66052910Y-96811668D02*
X65967196Y-96954525D01*
X65967196Y-96954525D02*
X65881482Y-97049763D01*
X65881482Y-97049763D02*
X65795768Y-97097382D01*
X66652909Y-96906906D02*
X66695766Y-96859287D01*
X66695766Y-96859287D02*
X66781480Y-96811668D01*
X66781480Y-96811668D02*
X66995765Y-96811668D01*
X66995765Y-96811668D02*
X67081479Y-96859287D01*
X67081479Y-96859287D02*
X67124336Y-96906906D01*
X67124336Y-96906906D02*
X67167193Y-97002144D01*
X67167193Y-97002144D02*
X67167193Y-97097382D01*
X67167193Y-97097382D02*
X67124336Y-97240239D01*
X67124336Y-97240239D02*
X66610052Y-97811666D01*
X66610052Y-97811666D02*
X67167193Y-97811666D01*
X64938627Y-90191666D02*
X64938627Y-89191668D01*
X64938627Y-89191668D02*
X65152912Y-89191668D01*
X65152912Y-89191668D02*
X65281483Y-89239287D01*
X65281483Y-89239287D02*
X65367197Y-89334525D01*
X65367197Y-89334525D02*
X65410054Y-89429763D01*
X65410054Y-89429763D02*
X65452911Y-89620239D01*
X65452911Y-89620239D02*
X65452911Y-89763096D01*
X65452911Y-89763096D02*
X65410054Y-89953572D01*
X65410054Y-89953572D02*
X65367197Y-90048810D01*
X65367197Y-90048810D02*
X65281483Y-90144048D01*
X65281483Y-90144048D02*
X65152912Y-90191666D01*
X65152912Y-90191666D02*
X64938627Y-90191666D01*
X65795768Y-89286906D02*
X65838625Y-89239287D01*
X65838625Y-89239287D02*
X65924339Y-89191668D01*
X65924339Y-89191668D02*
X66138624Y-89191668D01*
X66138624Y-89191668D02*
X66224338Y-89239287D01*
X66224338Y-89239287D02*
X66267195Y-89286906D01*
X66267195Y-89286906D02*
X66310052Y-89382144D01*
X66310052Y-89382144D02*
X66310052Y-89477382D01*
X66310052Y-89477382D02*
X66267195Y-89620239D01*
X66267195Y-89620239D02*
X65752911Y-90191666D01*
X65752911Y-90191666D02*
X66310052Y-90191666D01*
X67081479Y-89191668D02*
X66910051Y-89191668D01*
X66910051Y-89191668D02*
X66824337Y-89239287D01*
X66824337Y-89239287D02*
X66781480Y-89286906D01*
X66781480Y-89286906D02*
X66695766Y-89429763D01*
X66695766Y-89429763D02*
X66652909Y-89620239D01*
X66652909Y-89620239D02*
X66652909Y-90001191D01*
X66652909Y-90001191D02*
X66695766Y-90096429D01*
X66695766Y-90096429D02*
X66738623Y-90144048D01*
X66738623Y-90144048D02*
X66824337Y-90191666D01*
X66824337Y-90191666D02*
X66995765Y-90191666D01*
X66995765Y-90191666D02*
X67081479Y-90144048D01*
X67081479Y-90144048D02*
X67124336Y-90096429D01*
X67124336Y-90096429D02*
X67167193Y-90001191D01*
X67167193Y-90001191D02*
X67167193Y-89763096D01*
X67167193Y-89763096D02*
X67124336Y-89667858D01*
X67124336Y-89667858D02*
X67081479Y-89620239D01*
X67081479Y-89620239D02*
X66995765Y-89572620D01*
X66995765Y-89572620D02*
X66824337Y-89572620D01*
X66824337Y-89572620D02*
X66738623Y-89620239D01*
X66738623Y-89620239D02*
X66695766Y-89667858D01*
X66695766Y-89667858D02*
X66652909Y-89763096D01*
X75296521Y-109871121D02*
X75296521Y-110680644D01*
X75296521Y-110680644D02*
X75339378Y-110775882D01*
X75339378Y-110775882D02*
X75382235Y-110823501D01*
X75382235Y-110823501D02*
X75467949Y-110871119D01*
X75467949Y-110871119D02*
X75639377Y-110871119D01*
X75639377Y-110871119D02*
X75725091Y-110823501D01*
X75725091Y-110823501D02*
X75767948Y-110775882D01*
X75767948Y-110775882D02*
X75810805Y-110680644D01*
X75810805Y-110680644D02*
X75810805Y-109871121D01*
X76196519Y-110823501D02*
X76325090Y-110871119D01*
X76325090Y-110871119D02*
X76539375Y-110871119D01*
X76539375Y-110871119D02*
X76625089Y-110823501D01*
X76625089Y-110823501D02*
X76667946Y-110775882D01*
X76667946Y-110775882D02*
X76710803Y-110680644D01*
X76710803Y-110680644D02*
X76710803Y-110585406D01*
X76710803Y-110585406D02*
X76667946Y-110490168D01*
X76667946Y-110490168D02*
X76625089Y-110442549D01*
X76625089Y-110442549D02*
X76539375Y-110394930D01*
X76539375Y-110394930D02*
X76367947Y-110347311D01*
X76367947Y-110347311D02*
X76282233Y-110299692D01*
X76282233Y-110299692D02*
X76239376Y-110252073D01*
X76239376Y-110252073D02*
X76196519Y-110156835D01*
X76196519Y-110156835D02*
X76196519Y-110061597D01*
X76196519Y-110061597D02*
X76239376Y-109966359D01*
X76239376Y-109966359D02*
X76282233Y-109918740D01*
X76282233Y-109918740D02*
X76367947Y-109871121D01*
X76367947Y-109871121D02*
X76582232Y-109871121D01*
X76582232Y-109871121D02*
X76710803Y-109918740D01*
X77396516Y-110347311D02*
X77525087Y-110394930D01*
X77525087Y-110394930D02*
X77567944Y-110442549D01*
X77567944Y-110442549D02*
X77610801Y-110537787D01*
X77610801Y-110537787D02*
X77610801Y-110680644D01*
X77610801Y-110680644D02*
X77567944Y-110775882D01*
X77567944Y-110775882D02*
X77525087Y-110823501D01*
X77525087Y-110823501D02*
X77439373Y-110871119D01*
X77439373Y-110871119D02*
X77096517Y-110871119D01*
X77096517Y-110871119D02*
X77096517Y-109871121D01*
X77096517Y-109871121D02*
X77396516Y-109871121D01*
X77396516Y-109871121D02*
X77482230Y-109918740D01*
X77482230Y-109918740D02*
X77525087Y-109966359D01*
X77525087Y-109966359D02*
X77567944Y-110061597D01*
X77567944Y-110061597D02*
X77567944Y-110156835D01*
X77567944Y-110156835D02*
X77525087Y-110252073D01*
X77525087Y-110252073D02*
X77482230Y-110299692D01*
X77482230Y-110299692D02*
X77396516Y-110347311D01*
X77396516Y-110347311D02*
X77096517Y-110347311D01*
X64938627Y-82571666D02*
X64938627Y-81571668D01*
X64938627Y-81571668D02*
X65152912Y-81571668D01*
X65152912Y-81571668D02*
X65281483Y-81619287D01*
X65281483Y-81619287D02*
X65367197Y-81714525D01*
X65367197Y-81714525D02*
X65410054Y-81809763D01*
X65410054Y-81809763D02*
X65452911Y-82000239D01*
X65452911Y-82000239D02*
X65452911Y-82143096D01*
X65452911Y-82143096D02*
X65410054Y-82333572D01*
X65410054Y-82333572D02*
X65367197Y-82428810D01*
X65367197Y-82428810D02*
X65281483Y-82524048D01*
X65281483Y-82524048D02*
X65152912Y-82571666D01*
X65152912Y-82571666D02*
X64938627Y-82571666D01*
X65752911Y-81571668D02*
X66310052Y-81571668D01*
X66310052Y-81571668D02*
X66010053Y-81952620D01*
X66010053Y-81952620D02*
X66138624Y-81952620D01*
X66138624Y-81952620D02*
X66224338Y-82000239D01*
X66224338Y-82000239D02*
X66267195Y-82047858D01*
X66267195Y-82047858D02*
X66310052Y-82143096D01*
X66310052Y-82143096D02*
X66310052Y-82381191D01*
X66310052Y-82381191D02*
X66267195Y-82476429D01*
X66267195Y-82476429D02*
X66224338Y-82524048D01*
X66224338Y-82524048D02*
X66138624Y-82571666D01*
X66138624Y-82571666D02*
X65881482Y-82571666D01*
X65881482Y-82571666D02*
X65795768Y-82524048D01*
X65795768Y-82524048D02*
X65752911Y-82476429D01*
X66652909Y-81666906D02*
X66695766Y-81619287D01*
X66695766Y-81619287D02*
X66781480Y-81571668D01*
X66781480Y-81571668D02*
X66995765Y-81571668D01*
X66995765Y-81571668D02*
X67081479Y-81619287D01*
X67081479Y-81619287D02*
X67124336Y-81666906D01*
X67124336Y-81666906D02*
X67167193Y-81762144D01*
X67167193Y-81762144D02*
X67167193Y-81857382D01*
X67167193Y-81857382D02*
X67124336Y-82000239D01*
X67124336Y-82000239D02*
X66610052Y-82571666D01*
X66610052Y-82571666D02*
X67167193Y-82571666D01*
X85772911Y-77491666D02*
X85472912Y-77015477D01*
X85258627Y-77491666D02*
X85258627Y-76491668D01*
X85258627Y-76491668D02*
X85601483Y-76491668D01*
X85601483Y-76491668D02*
X85687197Y-76539287D01*
X85687197Y-76539287D02*
X85730054Y-76586906D01*
X85730054Y-76586906D02*
X85772911Y-76682144D01*
X85772911Y-76682144D02*
X85772911Y-76825001D01*
X85772911Y-76825001D02*
X85730054Y-76920239D01*
X85730054Y-76920239D02*
X85687197Y-76967858D01*
X85687197Y-76967858D02*
X85601483Y-77015477D01*
X85601483Y-77015477D02*
X85258627Y-77015477D01*
X86072911Y-76491668D02*
X86672909Y-77491666D01*
X86672909Y-76491668D02*
X86072911Y-77491666D01*
X87187194Y-76491668D02*
X87272908Y-76491668D01*
X87272908Y-76491668D02*
X87358622Y-76539287D01*
X87358622Y-76539287D02*
X87401479Y-76586906D01*
X87401479Y-76586906D02*
X87444336Y-76682144D01*
X87444336Y-76682144D02*
X87487193Y-76872620D01*
X87487193Y-76872620D02*
X87487193Y-77110715D01*
X87487193Y-77110715D02*
X87444336Y-77301191D01*
X87444336Y-77301191D02*
X87401479Y-77396429D01*
X87401479Y-77396429D02*
X87358622Y-77444048D01*
X87358622Y-77444048D02*
X87272908Y-77491666D01*
X87272908Y-77491666D02*
X87187194Y-77491666D01*
X87187194Y-77491666D02*
X87101480Y-77444048D01*
X87101480Y-77444048D02*
X87058623Y-77396429D01*
X87058623Y-77396429D02*
X87015766Y-77301191D01*
X87015766Y-77301191D02*
X86972909Y-77110715D01*
X86972909Y-77110715D02*
X86972909Y-76872620D01*
X86972909Y-76872620D02*
X87015766Y-76682144D01*
X87015766Y-76682144D02*
X87058623Y-76586906D01*
X87058623Y-76586906D02*
X87101480Y-76539287D01*
X87101480Y-76539287D02*
X87187194Y-76491668D01*
X85130056Y-73951668D02*
X85644340Y-73951668D01*
X85387198Y-74951666D02*
X85387198Y-73951668D01*
X85858626Y-73951668D02*
X86458624Y-74951666D01*
X86458624Y-73951668D02*
X85858626Y-74951666D01*
X86972909Y-73951668D02*
X87058623Y-73951668D01*
X87058623Y-73951668D02*
X87144337Y-73999287D01*
X87144337Y-73999287D02*
X87187194Y-74046906D01*
X87187194Y-74046906D02*
X87230051Y-74142144D01*
X87230051Y-74142144D02*
X87272908Y-74332620D01*
X87272908Y-74332620D02*
X87272908Y-74570715D01*
X87272908Y-74570715D02*
X87230051Y-74761191D01*
X87230051Y-74761191D02*
X87187194Y-74856429D01*
X87187194Y-74856429D02*
X87144337Y-74904048D01*
X87144337Y-74904048D02*
X87058623Y-74951666D01*
X87058623Y-74951666D02*
X86972909Y-74951666D01*
X86972909Y-74951666D02*
X86887195Y-74904048D01*
X86887195Y-74904048D02*
X86844338Y-74856429D01*
X86844338Y-74856429D02*
X86801481Y-74761191D01*
X86801481Y-74761191D02*
X86758624Y-74570715D01*
X86758624Y-74570715D02*
X86758624Y-74332620D01*
X86758624Y-74332620D02*
X86801481Y-74142144D01*
X86801481Y-74142144D02*
X86844338Y-74046906D01*
X86844338Y-74046906D02*
X86887195Y-73999287D01*
X86887195Y-73999287D02*
X86972909Y-73951668D01*
X85258627Y-82571666D02*
X85258627Y-81571668D01*
X85258627Y-81571668D02*
X85472912Y-81571668D01*
X85472912Y-81571668D02*
X85601483Y-81619287D01*
X85601483Y-81619287D02*
X85687197Y-81714525D01*
X85687197Y-81714525D02*
X85730054Y-81809763D01*
X85730054Y-81809763D02*
X85772911Y-82000239D01*
X85772911Y-82000239D02*
X85772911Y-82143096D01*
X85772911Y-82143096D02*
X85730054Y-82333572D01*
X85730054Y-82333572D02*
X85687197Y-82428810D01*
X85687197Y-82428810D02*
X85601483Y-82524048D01*
X85601483Y-82524048D02*
X85472912Y-82571666D01*
X85472912Y-82571666D02*
X85258627Y-82571666D01*
X86630052Y-82571666D02*
X86115768Y-82571666D01*
X86372910Y-82571666D02*
X86372910Y-81571668D01*
X86372910Y-81571668D02*
X86287196Y-81714525D01*
X86287196Y-81714525D02*
X86201482Y-81809763D01*
X86201482Y-81809763D02*
X86115768Y-81857382D01*
X87058623Y-82571666D02*
X87230051Y-82571666D01*
X87230051Y-82571666D02*
X87315765Y-82524048D01*
X87315765Y-82524048D02*
X87358622Y-82476429D01*
X87358622Y-82476429D02*
X87444336Y-82333572D01*
X87444336Y-82333572D02*
X87487193Y-82143096D01*
X87487193Y-82143096D02*
X87487193Y-81762144D01*
X87487193Y-81762144D02*
X87444336Y-81666906D01*
X87444336Y-81666906D02*
X87401479Y-81619287D01*
X87401479Y-81619287D02*
X87315765Y-81571668D01*
X87315765Y-81571668D02*
X87144337Y-81571668D01*
X87144337Y-81571668D02*
X87058623Y-81619287D01*
X87058623Y-81619287D02*
X87015766Y-81666906D01*
X87015766Y-81666906D02*
X86972909Y-81762144D01*
X86972909Y-81762144D02*
X86972909Y-82000239D01*
X86972909Y-82000239D02*
X87015766Y-82095477D01*
X87015766Y-82095477D02*
X87058623Y-82143096D01*
X87058623Y-82143096D02*
X87144337Y-82190715D01*
X87144337Y-82190715D02*
X87315765Y-82190715D01*
X87315765Y-82190715D02*
X87401479Y-82143096D01*
X87401479Y-82143096D02*
X87444336Y-82095477D01*
X87444336Y-82095477D02*
X87487193Y-82000239D01*
X85258627Y-95271666D02*
X85258627Y-94271668D01*
X85258627Y-94271668D02*
X85472912Y-94271668D01*
X85472912Y-94271668D02*
X85601483Y-94319287D01*
X85601483Y-94319287D02*
X85687197Y-94414525D01*
X85687197Y-94414525D02*
X85730054Y-94509763D01*
X85730054Y-94509763D02*
X85772911Y-94700239D01*
X85772911Y-94700239D02*
X85772911Y-94843096D01*
X85772911Y-94843096D02*
X85730054Y-95033572D01*
X85730054Y-95033572D02*
X85687197Y-95128810D01*
X85687197Y-95128810D02*
X85601483Y-95224048D01*
X85601483Y-95224048D02*
X85472912Y-95271666D01*
X85472912Y-95271666D02*
X85258627Y-95271666D01*
X86330053Y-94271668D02*
X86415767Y-94271668D01*
X86415767Y-94271668D02*
X86501481Y-94319287D01*
X86501481Y-94319287D02*
X86544338Y-94366906D01*
X86544338Y-94366906D02*
X86587195Y-94462144D01*
X86587195Y-94462144D02*
X86630052Y-94652620D01*
X86630052Y-94652620D02*
X86630052Y-94890715D01*
X86630052Y-94890715D02*
X86587195Y-95081191D01*
X86587195Y-95081191D02*
X86544338Y-95176429D01*
X86544338Y-95176429D02*
X86501481Y-95224048D01*
X86501481Y-95224048D02*
X86415767Y-95271666D01*
X86415767Y-95271666D02*
X86330053Y-95271666D01*
X86330053Y-95271666D02*
X86244339Y-95224048D01*
X86244339Y-95224048D02*
X86201482Y-95176429D01*
X86201482Y-95176429D02*
X86158625Y-95081191D01*
X86158625Y-95081191D02*
X86115768Y-94890715D01*
X86115768Y-94890715D02*
X86115768Y-94652620D01*
X86115768Y-94652620D02*
X86158625Y-94462144D01*
X86158625Y-94462144D02*
X86201482Y-94366906D01*
X86201482Y-94366906D02*
X86244339Y-94319287D01*
X86244339Y-94319287D02*
X86330053Y-94271668D01*
X87401479Y-94605001D02*
X87401479Y-95271666D01*
X87187194Y-94224050D02*
X86972909Y-94938334D01*
X86972909Y-94938334D02*
X87530050Y-94938334D01*
X85258627Y-100097666D02*
X85258627Y-99097668D01*
X85258627Y-99097668D02*
X85472912Y-99097668D01*
X85472912Y-99097668D02*
X85601483Y-99145287D01*
X85601483Y-99145287D02*
X85687197Y-99240525D01*
X85687197Y-99240525D02*
X85730054Y-99335763D01*
X85730054Y-99335763D02*
X85772911Y-99526239D01*
X85772911Y-99526239D02*
X85772911Y-99669096D01*
X85772911Y-99669096D02*
X85730054Y-99859572D01*
X85730054Y-99859572D02*
X85687197Y-99954810D01*
X85687197Y-99954810D02*
X85601483Y-100050048D01*
X85601483Y-100050048D02*
X85472912Y-100097666D01*
X85472912Y-100097666D02*
X85258627Y-100097666D01*
X86630052Y-100097666D02*
X86115768Y-100097666D01*
X86372910Y-100097666D02*
X86372910Y-99097668D01*
X86372910Y-99097668D02*
X86287196Y-99240525D01*
X86287196Y-99240525D02*
X86201482Y-99335763D01*
X86201482Y-99335763D02*
X86115768Y-99383382D01*
X87444336Y-99097668D02*
X87015766Y-99097668D01*
X87015766Y-99097668D02*
X86972909Y-99573858D01*
X86972909Y-99573858D02*
X87015766Y-99526239D01*
X87015766Y-99526239D02*
X87101480Y-99478620D01*
X87101480Y-99478620D02*
X87315765Y-99478620D01*
X87315765Y-99478620D02*
X87401479Y-99526239D01*
X87401479Y-99526239D02*
X87444336Y-99573858D01*
X87444336Y-99573858D02*
X87487193Y-99669096D01*
X87487193Y-99669096D02*
X87487193Y-99907191D01*
X87487193Y-99907191D02*
X87444336Y-100002429D01*
X87444336Y-100002429D02*
X87401479Y-100050048D01*
X87401479Y-100050048D02*
X87315765Y-100097666D01*
X87315765Y-100097666D02*
X87101480Y-100097666D01*
X87101480Y-100097666D02*
X87015766Y-100050048D01*
X87015766Y-100050048D02*
X86972909Y-100002429D01*
X82764789Y-109069310D02*
X82893360Y-109116929D01*
X82893360Y-109116929D02*
X82936217Y-109164548D01*
X82936217Y-109164548D02*
X82979074Y-109259786D01*
X82979074Y-109259786D02*
X82979074Y-109402643D01*
X82979074Y-109402643D02*
X82936217Y-109497881D01*
X82936217Y-109497881D02*
X82893360Y-109545500D01*
X82893360Y-109545500D02*
X82807646Y-109593118D01*
X82807646Y-109593118D02*
X82464790Y-109593118D01*
X82464790Y-109593118D02*
X82464790Y-108593120D01*
X82464790Y-108593120D02*
X82764789Y-108593120D01*
X82764789Y-108593120D02*
X82850503Y-108640739D01*
X82850503Y-108640739D02*
X82893360Y-108688358D01*
X82893360Y-108688358D02*
X82936217Y-108783596D01*
X82936217Y-108783596D02*
X82936217Y-108878834D01*
X82936217Y-108878834D02*
X82893360Y-108974072D01*
X82893360Y-108974072D02*
X82850503Y-109021691D01*
X82850503Y-109021691D02*
X82764789Y-109069310D01*
X82764789Y-109069310D02*
X82464790Y-109069310D01*
X83493359Y-109593118D02*
X83407645Y-109545500D01*
X83407645Y-109545500D02*
X83364788Y-109497881D01*
X83364788Y-109497881D02*
X83321931Y-109402643D01*
X83321931Y-109402643D02*
X83321931Y-109116929D01*
X83321931Y-109116929D02*
X83364788Y-109021691D01*
X83364788Y-109021691D02*
X83407645Y-108974072D01*
X83407645Y-108974072D02*
X83493359Y-108926453D01*
X83493359Y-108926453D02*
X83621930Y-108926453D01*
X83621930Y-108926453D02*
X83707644Y-108974072D01*
X83707644Y-108974072D02*
X83750501Y-109021691D01*
X83750501Y-109021691D02*
X83793358Y-109116929D01*
X83793358Y-109116929D02*
X83793358Y-109402643D01*
X83793358Y-109402643D02*
X83750501Y-109497881D01*
X83750501Y-109497881D02*
X83707644Y-109545500D01*
X83707644Y-109545500D02*
X83621930Y-109593118D01*
X83621930Y-109593118D02*
X83493359Y-109593118D01*
X84307643Y-109593118D02*
X84221929Y-109545500D01*
X84221929Y-109545500D02*
X84179072Y-109497881D01*
X84179072Y-109497881D02*
X84136215Y-109402643D01*
X84136215Y-109402643D02*
X84136215Y-109116929D01*
X84136215Y-109116929D02*
X84179072Y-109021691D01*
X84179072Y-109021691D02*
X84221929Y-108974072D01*
X84221929Y-108974072D02*
X84307643Y-108926453D01*
X84307643Y-108926453D02*
X84436214Y-108926453D01*
X84436214Y-108926453D02*
X84521928Y-108974072D01*
X84521928Y-108974072D02*
X84564785Y-109021691D01*
X84564785Y-109021691D02*
X84607642Y-109116929D01*
X84607642Y-109116929D02*
X84607642Y-109402643D01*
X84607642Y-109402643D02*
X84564785Y-109497881D01*
X84564785Y-109497881D02*
X84521928Y-109545500D01*
X84521928Y-109545500D02*
X84436214Y-109593118D01*
X84436214Y-109593118D02*
X84307643Y-109593118D01*
X84864785Y-108926453D02*
X85207641Y-108926453D01*
X84993356Y-108593120D02*
X84993356Y-109450262D01*
X84993356Y-109450262D02*
X85036213Y-109545500D01*
X85036213Y-109545500D02*
X85121927Y-109593118D01*
X85121927Y-109593118D02*
X85207641Y-109593118D01*
X85258627Y-72411666D02*
X85258627Y-71411668D01*
X85258627Y-71411668D02*
X85472912Y-71411668D01*
X85472912Y-71411668D02*
X85601483Y-71459287D01*
X85601483Y-71459287D02*
X85687197Y-71554525D01*
X85687197Y-71554525D02*
X85730054Y-71649763D01*
X85730054Y-71649763D02*
X85772911Y-71840239D01*
X85772911Y-71840239D02*
X85772911Y-71983096D01*
X85772911Y-71983096D02*
X85730054Y-72173572D01*
X85730054Y-72173572D02*
X85687197Y-72268810D01*
X85687197Y-72268810D02*
X85601483Y-72364048D01*
X85601483Y-72364048D02*
X85472912Y-72411666D01*
X85472912Y-72411666D02*
X85258627Y-72411666D01*
X86115768Y-71506906D02*
X86158625Y-71459287D01*
X86158625Y-71459287D02*
X86244339Y-71411668D01*
X86244339Y-71411668D02*
X86458624Y-71411668D01*
X86458624Y-71411668D02*
X86544338Y-71459287D01*
X86544338Y-71459287D02*
X86587195Y-71506906D01*
X86587195Y-71506906D02*
X86630052Y-71602144D01*
X86630052Y-71602144D02*
X86630052Y-71697382D01*
X86630052Y-71697382D02*
X86587195Y-71840239D01*
X86587195Y-71840239D02*
X86072911Y-72411666D01*
X86072911Y-72411666D02*
X86630052Y-72411666D01*
X86972909Y-71506906D02*
X87015766Y-71459287D01*
X87015766Y-71459287D02*
X87101480Y-71411668D01*
X87101480Y-71411668D02*
X87315765Y-71411668D01*
X87315765Y-71411668D02*
X87401479Y-71459287D01*
X87401479Y-71459287D02*
X87444336Y-71506906D01*
X87444336Y-71506906D02*
X87487193Y-71602144D01*
X87487193Y-71602144D02*
X87487193Y-71697382D01*
X87487193Y-71697382D02*
X87444336Y-71840239D01*
X87444336Y-71840239D02*
X86930052Y-72411666D01*
X86930052Y-72411666D02*
X87487193Y-72411666D01*
D10*
X106754819Y-97083333D02*
X107469104Y-97083333D01*
X107469104Y-97083333D02*
X107611961Y-97130952D01*
X107611961Y-97130952D02*
X107707200Y-97226190D01*
X107707200Y-97226190D02*
X107754819Y-97369047D01*
X107754819Y-97369047D02*
X107754819Y-97464285D01*
X106850057Y-96654761D02*
X106802438Y-96607142D01*
X106802438Y-96607142D02*
X106754819Y-96511904D01*
X106754819Y-96511904D02*
X106754819Y-96273809D01*
X106754819Y-96273809D02*
X106802438Y-96178571D01*
X106802438Y-96178571D02*
X106850057Y-96130952D01*
X106850057Y-96130952D02*
X106945295Y-96083333D01*
X106945295Y-96083333D02*
X107040533Y-96083333D01*
X107040533Y-96083333D02*
X107183390Y-96130952D01*
X107183390Y-96130952D02*
X107754819Y-96702380D01*
X107754819Y-96702380D02*
X107754819Y-96083333D01*
X99078944Y-127152480D02*
X99078944Y-127866765D01*
X99078944Y-127866765D02*
X99031325Y-128009622D01*
X99031325Y-128009622D02*
X98936087Y-128104861D01*
X98936087Y-128104861D02*
X98793230Y-128152480D01*
X98793230Y-128152480D02*
X98697992Y-128152480D01*
X100078944Y-128152480D02*
X99507516Y-128152480D01*
X99793230Y-128152480D02*
X99793230Y-127152480D01*
X99793230Y-127152480D02*
X99697992Y-127295337D01*
X99697992Y-127295337D02*
X99602754Y-127390575D01*
X99602754Y-127390575D02*
X99507516Y-127438194D01*
X58238095Y-115454819D02*
X58238095Y-114454819D01*
X58238095Y-114931009D02*
X58809523Y-114931009D01*
X58809523Y-115454819D02*
X58809523Y-114454819D01*
X59190476Y-114454819D02*
X59809523Y-114454819D01*
X59809523Y-114454819D02*
X59476190Y-114835771D01*
X59476190Y-114835771D02*
X59619047Y-114835771D01*
X59619047Y-114835771D02*
X59714285Y-114883390D01*
X59714285Y-114883390D02*
X59761904Y-114931009D01*
X59761904Y-114931009D02*
X59809523Y-115026247D01*
X59809523Y-115026247D02*
X59809523Y-115264342D01*
X59809523Y-115264342D02*
X59761904Y-115359580D01*
X59761904Y-115359580D02*
X59714285Y-115407200D01*
X59714285Y-115407200D02*
X59619047Y-115454819D01*
X59619047Y-115454819D02*
X59333333Y-115454819D01*
X59333333Y-115454819D02*
X59238095Y-115407200D01*
X59238095Y-115407200D02*
X59190476Y-115359580D01*
X89237639Y-61454498D02*
X89237639Y-62264506D01*
X89237639Y-62264506D02*
X89285287Y-62359801D01*
X89285287Y-62359801D02*
X89332934Y-62407449D01*
X89332934Y-62407449D02*
X89428229Y-62455096D01*
X89428229Y-62455096D02*
X89618819Y-62455096D01*
X89618819Y-62455096D02*
X89714114Y-62407449D01*
X89714114Y-62407449D02*
X89761762Y-62359801D01*
X89761762Y-62359801D02*
X89809409Y-62264506D01*
X89809409Y-62264506D02*
X89809409Y-61454498D01*
X90810008Y-62455096D02*
X90238238Y-62455096D01*
X90524123Y-62455096D02*
X90524123Y-61454498D01*
X90524123Y-61454498D02*
X90428828Y-61597441D01*
X90428828Y-61597441D02*
X90333533Y-61692736D01*
X90333533Y-61692736D02*
X90238238Y-61740383D01*
D12*
%TO.C,J4*%
X91790000Y-92140000D02*
X91790000Y-94550000D01*
X92090000Y-92440000D02*
X92090000Y-101560000D01*
X92090000Y-101560000D02*
X93090000Y-102560000D01*
X93090000Y-102560000D02*
X97210000Y-102560000D01*
X94200000Y-92140000D02*
X91790000Y-92140000D01*
X97210000Y-92440000D02*
X92090000Y-92440000D01*
X97210000Y-102560000D02*
X97210000Y-92440000D01*
%TO.C,J3*%
X92140000Y-74640000D02*
X92140000Y-77050000D01*
X92440000Y-74940000D02*
X92440000Y-86560000D01*
X92440000Y-86560000D02*
X93440000Y-87560000D01*
X93440000Y-87560000D02*
X97560000Y-87560000D01*
X94550000Y-74640000D02*
X92140000Y-74640000D01*
X97560000Y-74940000D02*
X92440000Y-74940000D01*
X97560000Y-87560000D02*
X97560000Y-74940000D01*
%TO.C,C1*%
X67880000Y-56630000D02*
X67880000Y-59370000D01*
X67880000Y-56630000D02*
X77120000Y-56630000D01*
X67880000Y-59370000D02*
X77120000Y-59370000D01*
X77120000Y-56630000D02*
X77120000Y-59370000D01*
D13*
%TO.C,MOD2*%
X113832570Y-63840402D02*
X116372570Y-63840402D01*
X113832570Y-67650402D02*
X113832570Y-63840402D01*
X113832570Y-67650402D02*
X113832570Y-67650402D01*
X114340570Y-108713744D02*
X131104570Y-108798402D01*
X115222458Y-89990337D02*
X130222428Y-89990337D01*
X115222458Y-107990326D02*
X115222458Y-89990337D01*
X115222458Y-107990326D02*
X115222458Y-107990326D01*
X116372570Y-63840402D02*
X113832570Y-67650402D01*
X120182570Y-110926287D02*
X120182570Y-112958287D01*
X120182570Y-112958287D02*
X115102570Y-109402287D01*
X122722570Y-110926287D02*
X120182570Y-110926287D01*
X122722570Y-112958287D02*
X122722570Y-110926287D01*
X125262570Y-110926287D02*
X125262570Y-112958287D01*
X125262570Y-112958287D02*
X122722570Y-112958287D01*
X126786570Y-63078402D02*
X126786570Y-69078390D01*
X126786570Y-69078390D02*
X118786586Y-63078402D01*
X127802570Y-110926287D02*
X125262570Y-110926287D01*
X127802570Y-112958287D02*
X127802570Y-110926287D01*
X129072570Y-67650402D02*
X131612570Y-63840402D01*
X130222428Y-89990337D02*
X115222458Y-107990326D01*
X130342570Y-109402287D02*
X130342570Y-112958287D01*
X130342570Y-112958287D02*
X127802570Y-112958287D01*
X131104570Y-108798402D02*
X114340570Y-113624402D01*
X131104570Y-108798402D02*
X114340570Y-113624402D01*
X131612570Y-63840402D02*
X131612570Y-63840402D01*
X131612570Y-63840402D02*
X131612570Y-67650402D01*
X131612570Y-63840402D02*
X131612570Y-67650402D01*
X131612570Y-67650402D02*
X129072570Y-67650402D01*
D12*
X136727815Y-114831462D02*
X108727815Y-114831462D01*
X108727815Y-62831462D01*
X136727815Y-62831462D01*
X136727815Y-114831462D01*
X136727815Y-114831462D02*
X108727815Y-114831462D01*
X108727815Y-62831462D01*
X136727815Y-62831462D01*
X136727815Y-114831462D01*
D13*
X108784803Y-65109894D02*
G75*
G02*
X110784551Y-63078403I1999745J31498D01*
G01*
X110790945Y-114567123D02*
G75*
G02*
X108752566Y-112862403I-60127J1999137D01*
G01*
X114602825Y-65684188D02*
G75*
G02*
X114602571Y-65689776I499353J-25518D01*
G01*
X127402647Y-91720204D02*
G75*
G02*
X127402647Y-91724522I399990J-2159D01*
G01*
X129842571Y-65684188D02*
G75*
G02*
X129842571Y-65689776I499866J-2794D01*
G01*
X134660545Y-63081653D02*
G75*
G02*
X136692443Y-65107430I32073J-1999737D01*
G01*
X136703060Y-112863875D02*
G75*
G02*
X134722669Y-114584522I-1980390J279348D01*
G01*
X112308443Y-65110275D02*
G75*
G02*
X109768443Y-65110275I-1270000J0D01*
G01*
X109768443Y-65110275D02*
G75*
G02*
X112308443Y-65110275I1270000J0D01*
G01*
X112475321Y-112608275D02*
G75*
G02*
X109601565Y-112608275I-1436878J0D01*
G01*
X109601565Y-112608275D02*
G75*
G02*
X112475321Y-112608275I1436878J0D01*
G01*
X135843321Y-65110275D02*
G75*
G02*
X132969565Y-65110275I-1436878J0D01*
G01*
X132969565Y-65110275D02*
G75*
G02*
X135843321Y-65110275I1436878J0D01*
G01*
X135676443Y-112608275D02*
G75*
G02*
X133136443Y-112608275I-1270000J0D01*
G01*
X133136443Y-112608275D02*
G75*
G02*
X135676443Y-112608275I1270000J0D01*
G01*
%TO.C,MOD1*%
X67182142Y-110229872D02*
X69722142Y-110229872D01*
X67182142Y-114039872D02*
X67182142Y-110229872D01*
X67182142Y-114039872D02*
X67182142Y-110229872D01*
X67182142Y-114039872D02*
X67182142Y-114039872D01*
X67690142Y-69081872D02*
X84454142Y-64255872D01*
X67690142Y-69081872D02*
X84454142Y-64255872D01*
X68452142Y-64921987D02*
X70992142Y-64921987D01*
X68452142Y-68477987D02*
X68452142Y-64921987D01*
X68572284Y-87889937D02*
X83572254Y-69889948D01*
X69722142Y-110229872D02*
X67182142Y-114039872D01*
X70992142Y-64921987D02*
X70992142Y-66953987D01*
X70992142Y-66953987D02*
X73532142Y-66953987D01*
X72008142Y-108801884D02*
X80008126Y-114801872D01*
X72008142Y-114801872D02*
X72008142Y-108801884D01*
X73532142Y-64921987D02*
X76072142Y-64921987D01*
X73532142Y-66953987D02*
X73532142Y-64921987D01*
X76072142Y-64921987D02*
X76072142Y-66953987D01*
X76072142Y-66953987D02*
X78612142Y-66953987D01*
X78612142Y-64921987D02*
X83692142Y-68477987D01*
X78612142Y-66953987D02*
X78612142Y-64921987D01*
X82422142Y-114039872D02*
X84962142Y-110229872D01*
X83572254Y-69889948D02*
X83572254Y-69889948D01*
X83572254Y-69889948D02*
X83572254Y-87889937D01*
X83572254Y-87889937D02*
X68572284Y-87889937D01*
X84454142Y-69166530D02*
X67690142Y-69081872D01*
X84962142Y-110229872D02*
X84962142Y-110229872D01*
X84962142Y-110229872D02*
X84962142Y-114039872D01*
X84962142Y-114039872D02*
X82422142Y-114039872D01*
D12*
X62066897Y-63048812D02*
X90066897Y-63048812D01*
X90066897Y-115048812D01*
X62066897Y-115048812D01*
X62066897Y-63048812D01*
X62066897Y-63048812D02*
X90066897Y-63048812D01*
X90066897Y-115048812D01*
X62066897Y-115048812D01*
X62066897Y-63048812D01*
D13*
X62091652Y-65016399D02*
G75*
G02*
X64072043Y-63295752I1980390J-279348D01*
G01*
X64134167Y-114798621D02*
G75*
G02*
X62102269Y-112772844I-32073J1999737D01*
G01*
X68952141Y-112196086D02*
G75*
G02*
X68952141Y-112190498I-499866J2794D01*
G01*
X71392065Y-86160070D02*
G75*
G02*
X71392065Y-86155752I-399990J2159D01*
G01*
X84191887Y-112196086D02*
G75*
G02*
X84192141Y-112190498I-499353J25518D01*
G01*
X88003767Y-63313151D02*
G75*
G02*
X90042146Y-65017871I60127J-1999137D01*
G01*
X90009909Y-112770380D02*
G75*
G02*
X88010161Y-114801871I-1999745J-31498D01*
G01*
X65658269Y-65271999D02*
G75*
G02*
X63118269Y-65271999I-1270000J0D01*
G01*
X63118269Y-65271999D02*
G75*
G02*
X65658269Y-65271999I1270000J0D01*
G01*
X65825147Y-112769999D02*
G75*
G02*
X62951391Y-112769999I-1436878J0D01*
G01*
X62951391Y-112769999D02*
G75*
G02*
X65825147Y-112769999I1436878J0D01*
G01*
X89193147Y-65271999D02*
G75*
G02*
X86319391Y-65271999I-1436878J0D01*
G01*
X86319391Y-65271999D02*
G75*
G02*
X89193147Y-65271999I1436878J0D01*
G01*
X89026269Y-112769999D02*
G75*
G02*
X86486269Y-112769999I-1270000J0D01*
G01*
X86486269Y-112769999D02*
G75*
G02*
X89026269Y-112769999I1270000J0D01*
G01*
D12*
%TO.C,J2*%
X100790000Y-90140000D02*
X100790000Y-92550000D01*
X101090000Y-90440000D02*
X101090000Y-102060000D01*
X101090000Y-102060000D02*
X102090000Y-103060000D01*
X102090000Y-103060000D02*
X106210000Y-103060000D01*
X103200000Y-90140000D02*
X100790000Y-90140000D01*
X106210000Y-90440000D02*
X101090000Y-90440000D01*
X106210000Y-103060000D02*
X106210000Y-90440000D01*
%TO.C,J1*%
X91602278Y-113587661D02*
X97412278Y-113587661D01*
X91602278Y-120007661D02*
X91602278Y-113587661D01*
X96602278Y-120007661D02*
X91602278Y-120007661D01*
X96602278Y-126607661D02*
X96602278Y-120007661D01*
X99112278Y-110487661D02*
X99112278Y-109207661D01*
X99412278Y-126607661D02*
X96602278Y-126607661D01*
X99412278Y-126607661D02*
X102222278Y-126607661D01*
X99712278Y-110487661D02*
X99712278Y-109207661D01*
X101412278Y-112597661D02*
X102012278Y-112297661D01*
X102012278Y-112297661D02*
X102012278Y-112897661D01*
X102012278Y-112897661D02*
X101412278Y-112597661D01*
X102222278Y-120007661D02*
X107222278Y-120007661D01*
X102222278Y-126607661D02*
X102222278Y-120007661D01*
X107222278Y-113587661D02*
X101412278Y-113587661D01*
X107222278Y-120007661D02*
X107222278Y-113587661D01*
%TD*%
M02*
