%TF.GenerationSoftware,KiCad,Pcbnew,8.0.8*%
%TF.CreationDate,2025-06-20T17:29:57+09:00*%
%TF.ProjectId,2ndfloor_pole,326e6466-6c6f-46f7-925f-706f6c652e6b,rev?*%
%TF.SameCoordinates,Original*%
%TF.FileFunction,Drillmap*%
%TF.FilePolarity,Positive*%
%FSLAX45Y45*%
G04 Gerber Fmt 4.5, Leading zero omitted, Abs format (unit mm)*
G04 Created by KiCad (PCBNEW 8.0.8) date 2025-06-20 17:29:57*
%MOMM*%
%LPD*%
G01*
G04 APERTURE LIST*
%ADD10C,0.050000*%
%ADD11C,0.200000*%
%ADD12C,0.320000*%
G04 APERTURE END LIST*
D10*
X5700000Y-5400000D02*
X14200000Y-5400000D01*
X14200000Y-12400000D01*
X5700000Y-12400000D01*
X5700000Y-5400000D01*
D11*
D12*
X9331228Y-11519766D02*
X9651228Y-11839766D01*
X9651228Y-11519766D02*
X9331228Y-11839766D01*
X10231228Y-11519766D02*
X10551228Y-11839766D01*
X10551228Y-11519766D02*
X10231228Y-11839766D01*
D11*
X5958277Y-12713984D02*
X5958277Y-12513984D01*
X5958277Y-12513984D02*
X6005896Y-12513984D01*
X6005896Y-12513984D02*
X6034467Y-12523508D01*
X6034467Y-12523508D02*
X6053515Y-12542555D01*
X6053515Y-12542555D02*
X6063039Y-12561603D01*
X6063039Y-12561603D02*
X6072562Y-12599698D01*
X6072562Y-12599698D02*
X6072562Y-12628269D01*
X6072562Y-12628269D02*
X6063039Y-12666365D01*
X6063039Y-12666365D02*
X6053515Y-12685412D01*
X6053515Y-12685412D02*
X6034467Y-12704460D01*
X6034467Y-12704460D02*
X6005896Y-12713984D01*
X6005896Y-12713984D02*
X5958277Y-12713984D01*
X6158277Y-12713984D02*
X6158277Y-12580650D01*
X6158277Y-12618746D02*
X6167801Y-12599698D01*
X6167801Y-12599698D02*
X6177324Y-12590174D01*
X6177324Y-12590174D02*
X6196372Y-12580650D01*
X6196372Y-12580650D02*
X6215420Y-12580650D01*
X6282086Y-12713984D02*
X6282086Y-12580650D01*
X6282086Y-12513984D02*
X6272562Y-12523508D01*
X6272562Y-12523508D02*
X6282086Y-12533031D01*
X6282086Y-12533031D02*
X6291610Y-12523508D01*
X6291610Y-12523508D02*
X6282086Y-12513984D01*
X6282086Y-12513984D02*
X6282086Y-12533031D01*
X6405896Y-12713984D02*
X6386848Y-12704460D01*
X6386848Y-12704460D02*
X6377324Y-12685412D01*
X6377324Y-12685412D02*
X6377324Y-12513984D01*
X6510658Y-12713984D02*
X6491610Y-12704460D01*
X6491610Y-12704460D02*
X6482086Y-12685412D01*
X6482086Y-12685412D02*
X6482086Y-12513984D01*
X6739229Y-12713984D02*
X6739229Y-12513984D01*
X6739229Y-12513984D02*
X6805896Y-12656841D01*
X6805896Y-12656841D02*
X6872562Y-12513984D01*
X6872562Y-12513984D02*
X6872562Y-12713984D01*
X7053515Y-12713984D02*
X7053515Y-12609222D01*
X7053515Y-12609222D02*
X7043991Y-12590174D01*
X7043991Y-12590174D02*
X7024943Y-12580650D01*
X7024943Y-12580650D02*
X6986848Y-12580650D01*
X6986848Y-12580650D02*
X6967801Y-12590174D01*
X7053515Y-12704460D02*
X7034467Y-12713984D01*
X7034467Y-12713984D02*
X6986848Y-12713984D01*
X6986848Y-12713984D02*
X6967801Y-12704460D01*
X6967801Y-12704460D02*
X6958277Y-12685412D01*
X6958277Y-12685412D02*
X6958277Y-12666365D01*
X6958277Y-12666365D02*
X6967801Y-12647317D01*
X6967801Y-12647317D02*
X6986848Y-12637793D01*
X6986848Y-12637793D02*
X7034467Y-12637793D01*
X7034467Y-12637793D02*
X7053515Y-12628269D01*
X7148753Y-12580650D02*
X7148753Y-12780650D01*
X7148753Y-12590174D02*
X7167801Y-12580650D01*
X7167801Y-12580650D02*
X7205896Y-12580650D01*
X7205896Y-12580650D02*
X7224943Y-12590174D01*
X7224943Y-12590174D02*
X7234467Y-12599698D01*
X7234467Y-12599698D02*
X7243991Y-12618746D01*
X7243991Y-12618746D02*
X7243991Y-12675888D01*
X7243991Y-12675888D02*
X7234467Y-12694936D01*
X7234467Y-12694936D02*
X7224943Y-12704460D01*
X7224943Y-12704460D02*
X7205896Y-12713984D01*
X7205896Y-12713984D02*
X7167801Y-12713984D01*
X7167801Y-12713984D02*
X7148753Y-12704460D01*
X7329705Y-12694936D02*
X7339229Y-12704460D01*
X7339229Y-12704460D02*
X7329705Y-12713984D01*
X7329705Y-12713984D02*
X7320182Y-12704460D01*
X7320182Y-12704460D02*
X7329705Y-12694936D01*
X7329705Y-12694936D02*
X7329705Y-12713984D01*
X7329705Y-12590174D02*
X7339229Y-12599698D01*
X7339229Y-12599698D02*
X7329705Y-12609222D01*
X7329705Y-12609222D02*
X7320182Y-12599698D01*
X7320182Y-12599698D02*
X7329705Y-12590174D01*
X7329705Y-12590174D02*
X7329705Y-12609222D01*
X5497500Y-12942500D02*
X5697500Y-13142500D01*
X5697500Y-12942500D02*
X5497500Y-13142500D01*
X5939229Y-12933984D02*
X6063039Y-12933984D01*
X6063039Y-12933984D02*
X5996372Y-13010174D01*
X5996372Y-13010174D02*
X6024943Y-13010174D01*
X6024943Y-13010174D02*
X6043991Y-13019698D01*
X6043991Y-13019698D02*
X6053515Y-13029222D01*
X6053515Y-13029222D02*
X6063039Y-13048269D01*
X6063039Y-13048269D02*
X6063039Y-13095888D01*
X6063039Y-13095888D02*
X6053515Y-13114936D01*
X6053515Y-13114936D02*
X6043991Y-13124460D01*
X6043991Y-13124460D02*
X6024943Y-13133984D01*
X6024943Y-13133984D02*
X5967801Y-13133984D01*
X5967801Y-13133984D02*
X5948753Y-13124460D01*
X5948753Y-13124460D02*
X5939229Y-13114936D01*
X6148753Y-13114936D02*
X6158277Y-13124460D01*
X6158277Y-13124460D02*
X6148753Y-13133984D01*
X6148753Y-13133984D02*
X6139229Y-13124460D01*
X6139229Y-13124460D02*
X6148753Y-13114936D01*
X6148753Y-13114936D02*
X6148753Y-13133984D01*
X6234467Y-12953031D02*
X6243991Y-12943508D01*
X6243991Y-12943508D02*
X6263039Y-12933984D01*
X6263039Y-12933984D02*
X6310658Y-12933984D01*
X6310658Y-12933984D02*
X6329705Y-12943508D01*
X6329705Y-12943508D02*
X6339229Y-12953031D01*
X6339229Y-12953031D02*
X6348753Y-12972079D01*
X6348753Y-12972079D02*
X6348753Y-12991127D01*
X6348753Y-12991127D02*
X6339229Y-13019698D01*
X6339229Y-13019698D02*
X6224943Y-13133984D01*
X6224943Y-13133984D02*
X6348753Y-13133984D01*
X6472562Y-12933984D02*
X6491610Y-12933984D01*
X6491610Y-12933984D02*
X6510658Y-12943508D01*
X6510658Y-12943508D02*
X6520182Y-12953031D01*
X6520182Y-12953031D02*
X6529705Y-12972079D01*
X6529705Y-12972079D02*
X6539229Y-13010174D01*
X6539229Y-13010174D02*
X6539229Y-13057793D01*
X6539229Y-13057793D02*
X6529705Y-13095888D01*
X6529705Y-13095888D02*
X6520182Y-13114936D01*
X6520182Y-13114936D02*
X6510658Y-13124460D01*
X6510658Y-13124460D02*
X6491610Y-13133984D01*
X6491610Y-13133984D02*
X6472562Y-13133984D01*
X6472562Y-13133984D02*
X6453515Y-13124460D01*
X6453515Y-13124460D02*
X6443991Y-13114936D01*
X6443991Y-13114936D02*
X6434467Y-13095888D01*
X6434467Y-13095888D02*
X6424943Y-13057793D01*
X6424943Y-13057793D02*
X6424943Y-13010174D01*
X6424943Y-13010174D02*
X6434467Y-12972079D01*
X6434467Y-12972079D02*
X6443991Y-12953031D01*
X6443991Y-12953031D02*
X6453515Y-12943508D01*
X6453515Y-12943508D02*
X6472562Y-12933984D01*
X6663039Y-12933984D02*
X6682086Y-12933984D01*
X6682086Y-12933984D02*
X6701134Y-12943508D01*
X6701134Y-12943508D02*
X6710658Y-12953031D01*
X6710658Y-12953031D02*
X6720182Y-12972079D01*
X6720182Y-12972079D02*
X6729705Y-13010174D01*
X6729705Y-13010174D02*
X6729705Y-13057793D01*
X6729705Y-13057793D02*
X6720182Y-13095888D01*
X6720182Y-13095888D02*
X6710658Y-13114936D01*
X6710658Y-13114936D02*
X6701134Y-13124460D01*
X6701134Y-13124460D02*
X6682086Y-13133984D01*
X6682086Y-13133984D02*
X6663039Y-13133984D01*
X6663039Y-13133984D02*
X6643991Y-13124460D01*
X6643991Y-13124460D02*
X6634467Y-13114936D01*
X6634467Y-13114936D02*
X6624943Y-13095888D01*
X6624943Y-13095888D02*
X6615420Y-13057793D01*
X6615420Y-13057793D02*
X6615420Y-13010174D01*
X6615420Y-13010174D02*
X6624943Y-12972079D01*
X6624943Y-12972079D02*
X6634467Y-12953031D01*
X6634467Y-12953031D02*
X6643991Y-12943508D01*
X6643991Y-12943508D02*
X6663039Y-12933984D01*
X6815420Y-13133984D02*
X6815420Y-13000650D01*
X6815420Y-13019698D02*
X6824943Y-13010174D01*
X6824943Y-13010174D02*
X6843991Y-13000650D01*
X6843991Y-13000650D02*
X6872563Y-13000650D01*
X6872563Y-13000650D02*
X6891610Y-13010174D01*
X6891610Y-13010174D02*
X6901134Y-13029222D01*
X6901134Y-13029222D02*
X6901134Y-13133984D01*
X6901134Y-13029222D02*
X6910658Y-13010174D01*
X6910658Y-13010174D02*
X6929705Y-13000650D01*
X6929705Y-13000650D02*
X6958277Y-13000650D01*
X6958277Y-13000650D02*
X6977324Y-13010174D01*
X6977324Y-13010174D02*
X6986848Y-13029222D01*
X6986848Y-13029222D02*
X6986848Y-13133984D01*
X7082086Y-13133984D02*
X7082086Y-13000650D01*
X7082086Y-13019698D02*
X7091610Y-13010174D01*
X7091610Y-13010174D02*
X7110658Y-13000650D01*
X7110658Y-13000650D02*
X7139229Y-13000650D01*
X7139229Y-13000650D02*
X7158277Y-13010174D01*
X7158277Y-13010174D02*
X7167801Y-13029222D01*
X7167801Y-13029222D02*
X7167801Y-13133984D01*
X7167801Y-13029222D02*
X7177324Y-13010174D01*
X7177324Y-13010174D02*
X7196372Y-13000650D01*
X7196372Y-13000650D02*
X7224943Y-13000650D01*
X7224943Y-13000650D02*
X7243991Y-13010174D01*
X7243991Y-13010174D02*
X7253515Y-13029222D01*
X7253515Y-13029222D02*
X7253515Y-13133984D01*
X7643991Y-12924460D02*
X7472563Y-13181603D01*
X7901134Y-12933984D02*
X7920182Y-12933984D01*
X7920182Y-12933984D02*
X7939229Y-12943508D01*
X7939229Y-12943508D02*
X7948753Y-12953031D01*
X7948753Y-12953031D02*
X7958277Y-12972079D01*
X7958277Y-12972079D02*
X7967801Y-13010174D01*
X7967801Y-13010174D02*
X7967801Y-13057793D01*
X7967801Y-13057793D02*
X7958277Y-13095888D01*
X7958277Y-13095888D02*
X7948753Y-13114936D01*
X7948753Y-13114936D02*
X7939229Y-13124460D01*
X7939229Y-13124460D02*
X7920182Y-13133984D01*
X7920182Y-13133984D02*
X7901134Y-13133984D01*
X7901134Y-13133984D02*
X7882086Y-13124460D01*
X7882086Y-13124460D02*
X7872563Y-13114936D01*
X7872563Y-13114936D02*
X7863039Y-13095888D01*
X7863039Y-13095888D02*
X7853515Y-13057793D01*
X7853515Y-13057793D02*
X7853515Y-13010174D01*
X7853515Y-13010174D02*
X7863039Y-12972079D01*
X7863039Y-12972079D02*
X7872563Y-12953031D01*
X7872563Y-12953031D02*
X7882086Y-12943508D01*
X7882086Y-12943508D02*
X7901134Y-12933984D01*
X8053515Y-13114936D02*
X8063039Y-13124460D01*
X8063039Y-13124460D02*
X8053515Y-13133984D01*
X8053515Y-13133984D02*
X8043991Y-13124460D01*
X8043991Y-13124460D02*
X8053515Y-13114936D01*
X8053515Y-13114936D02*
X8053515Y-13133984D01*
X8253515Y-13133984D02*
X8139229Y-13133984D01*
X8196372Y-13133984D02*
X8196372Y-12933984D01*
X8196372Y-12933984D02*
X8177325Y-12962555D01*
X8177325Y-12962555D02*
X8158277Y-12981603D01*
X8158277Y-12981603D02*
X8139229Y-12991127D01*
X8329706Y-12953031D02*
X8339229Y-12943508D01*
X8339229Y-12943508D02*
X8358277Y-12933984D01*
X8358277Y-12933984D02*
X8405896Y-12933984D01*
X8405896Y-12933984D02*
X8424944Y-12943508D01*
X8424944Y-12943508D02*
X8434468Y-12953031D01*
X8434468Y-12953031D02*
X8443991Y-12972079D01*
X8443991Y-12972079D02*
X8443991Y-12991127D01*
X8443991Y-12991127D02*
X8434468Y-13019698D01*
X8434468Y-13019698D02*
X8320182Y-13133984D01*
X8320182Y-13133984D02*
X8443991Y-13133984D01*
X8615420Y-12933984D02*
X8577325Y-12933984D01*
X8577325Y-12933984D02*
X8558277Y-12943508D01*
X8558277Y-12943508D02*
X8548753Y-12953031D01*
X8548753Y-12953031D02*
X8529706Y-12981603D01*
X8529706Y-12981603D02*
X8520182Y-13019698D01*
X8520182Y-13019698D02*
X8520182Y-13095888D01*
X8520182Y-13095888D02*
X8529706Y-13114936D01*
X8529706Y-13114936D02*
X8539229Y-13124460D01*
X8539229Y-13124460D02*
X8558277Y-13133984D01*
X8558277Y-13133984D02*
X8596372Y-13133984D01*
X8596372Y-13133984D02*
X8615420Y-13124460D01*
X8615420Y-13124460D02*
X8624944Y-13114936D01*
X8624944Y-13114936D02*
X8634468Y-13095888D01*
X8634468Y-13095888D02*
X8634468Y-13048269D01*
X8634468Y-13048269D02*
X8624944Y-13029222D01*
X8624944Y-13029222D02*
X8615420Y-13019698D01*
X8615420Y-13019698D02*
X8596372Y-13010174D01*
X8596372Y-13010174D02*
X8558277Y-13010174D01*
X8558277Y-13010174D02*
X8539229Y-13019698D01*
X8539229Y-13019698D02*
X8529706Y-13029222D01*
X8529706Y-13029222D02*
X8520182Y-13048269D01*
X8758277Y-12933984D02*
X8777325Y-12933984D01*
X8777325Y-12933984D02*
X8796372Y-12943508D01*
X8796372Y-12943508D02*
X8805896Y-12953031D01*
X8805896Y-12953031D02*
X8815420Y-12972079D01*
X8815420Y-12972079D02*
X8824944Y-13010174D01*
X8824944Y-13010174D02*
X8824944Y-13057793D01*
X8824944Y-13057793D02*
X8815420Y-13095888D01*
X8815420Y-13095888D02*
X8805896Y-13114936D01*
X8805896Y-13114936D02*
X8796372Y-13124460D01*
X8796372Y-13124460D02*
X8777325Y-13133984D01*
X8777325Y-13133984D02*
X8758277Y-13133984D01*
X8758277Y-13133984D02*
X8739229Y-13124460D01*
X8739229Y-13124460D02*
X8729706Y-13114936D01*
X8729706Y-13114936D02*
X8720182Y-13095888D01*
X8720182Y-13095888D02*
X8710658Y-13057793D01*
X8710658Y-13057793D02*
X8710658Y-13010174D01*
X8710658Y-13010174D02*
X8720182Y-12972079D01*
X8720182Y-12972079D02*
X8729706Y-12953031D01*
X8729706Y-12953031D02*
X8739229Y-12943508D01*
X8739229Y-12943508D02*
X8758277Y-12933984D01*
X8901134Y-12933984D02*
X8901134Y-12972079D01*
X8977325Y-12933984D02*
X8977325Y-12972079D01*
X9272563Y-13210174D02*
X9263039Y-13200650D01*
X9263039Y-13200650D02*
X9243991Y-13172079D01*
X9243991Y-13172079D02*
X9234468Y-13153031D01*
X9234468Y-13153031D02*
X9224944Y-13124460D01*
X9224944Y-13124460D02*
X9215420Y-13076841D01*
X9215420Y-13076841D02*
X9215420Y-13038746D01*
X9215420Y-13038746D02*
X9224944Y-12991127D01*
X9224944Y-12991127D02*
X9234468Y-12962555D01*
X9234468Y-12962555D02*
X9243991Y-12943508D01*
X9243991Y-12943508D02*
X9263039Y-12914936D01*
X9263039Y-12914936D02*
X9272563Y-12905412D01*
X9339230Y-12953031D02*
X9348753Y-12943508D01*
X9348753Y-12943508D02*
X9367801Y-12933984D01*
X9367801Y-12933984D02*
X9415420Y-12933984D01*
X9415420Y-12933984D02*
X9434468Y-12943508D01*
X9434468Y-12943508D02*
X9443991Y-12953031D01*
X9443991Y-12953031D02*
X9453515Y-12972079D01*
X9453515Y-12972079D02*
X9453515Y-12991127D01*
X9453515Y-12991127D02*
X9443991Y-13019698D01*
X9443991Y-13019698D02*
X9329706Y-13133984D01*
X9329706Y-13133984D02*
X9453515Y-13133984D01*
X9691611Y-13133984D02*
X9691611Y-12933984D01*
X9777325Y-13133984D02*
X9777325Y-13029222D01*
X9777325Y-13029222D02*
X9767801Y-13010174D01*
X9767801Y-13010174D02*
X9748753Y-13000650D01*
X9748753Y-13000650D02*
X9720182Y-13000650D01*
X9720182Y-13000650D02*
X9701134Y-13010174D01*
X9701134Y-13010174D02*
X9691611Y-13019698D01*
X9901134Y-13133984D02*
X9882087Y-13124460D01*
X9882087Y-13124460D02*
X9872563Y-13114936D01*
X9872563Y-13114936D02*
X9863039Y-13095888D01*
X9863039Y-13095888D02*
X9863039Y-13038746D01*
X9863039Y-13038746D02*
X9872563Y-13019698D01*
X9872563Y-13019698D02*
X9882087Y-13010174D01*
X9882087Y-13010174D02*
X9901134Y-13000650D01*
X9901134Y-13000650D02*
X9929706Y-13000650D01*
X9929706Y-13000650D02*
X9948753Y-13010174D01*
X9948753Y-13010174D02*
X9958277Y-13019698D01*
X9958277Y-13019698D02*
X9967801Y-13038746D01*
X9967801Y-13038746D02*
X9967801Y-13095888D01*
X9967801Y-13095888D02*
X9958277Y-13114936D01*
X9958277Y-13114936D02*
X9948753Y-13124460D01*
X9948753Y-13124460D02*
X9929706Y-13133984D01*
X9929706Y-13133984D02*
X9901134Y-13133984D01*
X10082087Y-13133984D02*
X10063039Y-13124460D01*
X10063039Y-13124460D02*
X10053515Y-13105412D01*
X10053515Y-13105412D02*
X10053515Y-12933984D01*
X10234468Y-13124460D02*
X10215420Y-13133984D01*
X10215420Y-13133984D02*
X10177325Y-13133984D01*
X10177325Y-13133984D02*
X10158277Y-13124460D01*
X10158277Y-13124460D02*
X10148753Y-13105412D01*
X10148753Y-13105412D02*
X10148753Y-13029222D01*
X10148753Y-13029222D02*
X10158277Y-13010174D01*
X10158277Y-13010174D02*
X10177325Y-13000650D01*
X10177325Y-13000650D02*
X10215420Y-13000650D01*
X10215420Y-13000650D02*
X10234468Y-13010174D01*
X10234468Y-13010174D02*
X10243992Y-13029222D01*
X10243992Y-13029222D02*
X10243992Y-13048269D01*
X10243992Y-13048269D02*
X10148753Y-13067317D01*
X10320182Y-13124460D02*
X10339230Y-13133984D01*
X10339230Y-13133984D02*
X10377325Y-13133984D01*
X10377325Y-13133984D02*
X10396373Y-13124460D01*
X10396373Y-13124460D02*
X10405896Y-13105412D01*
X10405896Y-13105412D02*
X10405896Y-13095888D01*
X10405896Y-13095888D02*
X10396373Y-13076841D01*
X10396373Y-13076841D02*
X10377325Y-13067317D01*
X10377325Y-13067317D02*
X10348753Y-13067317D01*
X10348753Y-13067317D02*
X10329706Y-13057793D01*
X10329706Y-13057793D02*
X10320182Y-13038746D01*
X10320182Y-13038746D02*
X10320182Y-13029222D01*
X10320182Y-13029222D02*
X10329706Y-13010174D01*
X10329706Y-13010174D02*
X10348753Y-13000650D01*
X10348753Y-13000650D02*
X10377325Y-13000650D01*
X10377325Y-13000650D02*
X10396373Y-13010174D01*
X10472563Y-13210174D02*
X10482087Y-13200650D01*
X10482087Y-13200650D02*
X10501134Y-13172079D01*
X10501134Y-13172079D02*
X10510658Y-13153031D01*
X10510658Y-13153031D02*
X10520182Y-13124460D01*
X10520182Y-13124460D02*
X10529706Y-13076841D01*
X10529706Y-13076841D02*
X10529706Y-13038746D01*
X10529706Y-13038746D02*
X10520182Y-12991127D01*
X10520182Y-12991127D02*
X10510658Y-12962555D01*
X10510658Y-12962555D02*
X10501134Y-12943508D01*
X10501134Y-12943508D02*
X10482087Y-12914936D01*
X10482087Y-12914936D02*
X10472563Y-12905412D01*
X10834468Y-13210174D02*
X10824944Y-13200650D01*
X10824944Y-13200650D02*
X10805896Y-13172079D01*
X10805896Y-13172079D02*
X10796373Y-13153031D01*
X10796373Y-13153031D02*
X10786849Y-13124460D01*
X10786849Y-13124460D02*
X10777325Y-13076841D01*
X10777325Y-13076841D02*
X10777325Y-13038746D01*
X10777325Y-13038746D02*
X10786849Y-12991127D01*
X10786849Y-12991127D02*
X10796373Y-12962555D01*
X10796373Y-12962555D02*
X10805896Y-12943508D01*
X10805896Y-12943508D02*
X10824944Y-12914936D01*
X10824944Y-12914936D02*
X10834468Y-12905412D01*
X10910658Y-13000650D02*
X10910658Y-13133984D01*
X10910658Y-13019698D02*
X10920182Y-13010174D01*
X10920182Y-13010174D02*
X10939230Y-13000650D01*
X10939230Y-13000650D02*
X10967801Y-13000650D01*
X10967801Y-13000650D02*
X10986849Y-13010174D01*
X10986849Y-13010174D02*
X10996373Y-13029222D01*
X10996373Y-13029222D02*
X10996373Y-13133984D01*
X11120182Y-13133984D02*
X11101134Y-13124460D01*
X11101134Y-13124460D02*
X11091611Y-13114936D01*
X11091611Y-13114936D02*
X11082087Y-13095888D01*
X11082087Y-13095888D02*
X11082087Y-13038746D01*
X11082087Y-13038746D02*
X11091611Y-13019698D01*
X11091611Y-13019698D02*
X11101134Y-13010174D01*
X11101134Y-13010174D02*
X11120182Y-13000650D01*
X11120182Y-13000650D02*
X11148754Y-13000650D01*
X11148754Y-13000650D02*
X11167801Y-13010174D01*
X11167801Y-13010174D02*
X11177325Y-13019698D01*
X11177325Y-13019698D02*
X11186849Y-13038746D01*
X11186849Y-13038746D02*
X11186849Y-13095888D01*
X11186849Y-13095888D02*
X11177325Y-13114936D01*
X11177325Y-13114936D02*
X11167801Y-13124460D01*
X11167801Y-13124460D02*
X11148754Y-13133984D01*
X11148754Y-13133984D02*
X11120182Y-13133984D01*
X11243992Y-13000650D02*
X11320182Y-13000650D01*
X11272563Y-12933984D02*
X11272563Y-13105412D01*
X11272563Y-13105412D02*
X11282087Y-13124460D01*
X11282087Y-13124460D02*
X11301134Y-13133984D01*
X11301134Y-13133984D02*
X11320182Y-13133984D01*
X11539230Y-13000650D02*
X11539230Y-13200650D01*
X11539230Y-13010174D02*
X11558277Y-13000650D01*
X11558277Y-13000650D02*
X11596373Y-13000650D01*
X11596373Y-13000650D02*
X11615420Y-13010174D01*
X11615420Y-13010174D02*
X11624944Y-13019698D01*
X11624944Y-13019698D02*
X11634468Y-13038746D01*
X11634468Y-13038746D02*
X11634468Y-13095888D01*
X11634468Y-13095888D02*
X11624944Y-13114936D01*
X11624944Y-13114936D02*
X11615420Y-13124460D01*
X11615420Y-13124460D02*
X11596373Y-13133984D01*
X11596373Y-13133984D02*
X11558277Y-13133984D01*
X11558277Y-13133984D02*
X11539230Y-13124460D01*
X11748753Y-13133984D02*
X11729706Y-13124460D01*
X11729706Y-13124460D02*
X11720182Y-13105412D01*
X11720182Y-13105412D02*
X11720182Y-12933984D01*
X11910658Y-13133984D02*
X11910658Y-13029222D01*
X11910658Y-13029222D02*
X11901134Y-13010174D01*
X11901134Y-13010174D02*
X11882087Y-13000650D01*
X11882087Y-13000650D02*
X11843992Y-13000650D01*
X11843992Y-13000650D02*
X11824944Y-13010174D01*
X11910658Y-13124460D02*
X11891611Y-13133984D01*
X11891611Y-13133984D02*
X11843992Y-13133984D01*
X11843992Y-13133984D02*
X11824944Y-13124460D01*
X11824944Y-13124460D02*
X11815420Y-13105412D01*
X11815420Y-13105412D02*
X11815420Y-13086365D01*
X11815420Y-13086365D02*
X11824944Y-13067317D01*
X11824944Y-13067317D02*
X11843992Y-13057793D01*
X11843992Y-13057793D02*
X11891611Y-13057793D01*
X11891611Y-13057793D02*
X11910658Y-13048269D01*
X11977325Y-13000650D02*
X12053515Y-13000650D01*
X12005896Y-12933984D02*
X12005896Y-13105412D01*
X12005896Y-13105412D02*
X12015420Y-13124460D01*
X12015420Y-13124460D02*
X12034468Y-13133984D01*
X12034468Y-13133984D02*
X12053515Y-13133984D01*
X12196373Y-13124460D02*
X12177325Y-13133984D01*
X12177325Y-13133984D02*
X12139230Y-13133984D01*
X12139230Y-13133984D02*
X12120182Y-13124460D01*
X12120182Y-13124460D02*
X12110658Y-13105412D01*
X12110658Y-13105412D02*
X12110658Y-13029222D01*
X12110658Y-13029222D02*
X12120182Y-13010174D01*
X12120182Y-13010174D02*
X12139230Y-13000650D01*
X12139230Y-13000650D02*
X12177325Y-13000650D01*
X12177325Y-13000650D02*
X12196373Y-13010174D01*
X12196373Y-13010174D02*
X12205896Y-13029222D01*
X12205896Y-13029222D02*
X12205896Y-13048269D01*
X12205896Y-13048269D02*
X12110658Y-13067317D01*
X12377325Y-13133984D02*
X12377325Y-12933984D01*
X12377325Y-13124460D02*
X12358277Y-13133984D01*
X12358277Y-13133984D02*
X12320182Y-13133984D01*
X12320182Y-13133984D02*
X12301134Y-13124460D01*
X12301134Y-13124460D02*
X12291611Y-13114936D01*
X12291611Y-13114936D02*
X12282087Y-13095888D01*
X12282087Y-13095888D02*
X12282087Y-13038746D01*
X12282087Y-13038746D02*
X12291611Y-13019698D01*
X12291611Y-13019698D02*
X12301134Y-13010174D01*
X12301134Y-13010174D02*
X12320182Y-13000650D01*
X12320182Y-13000650D02*
X12358277Y-13000650D01*
X12358277Y-13000650D02*
X12377325Y-13010174D01*
X12453515Y-13210174D02*
X12463039Y-13200650D01*
X12463039Y-13200650D02*
X12482087Y-13172079D01*
X12482087Y-13172079D02*
X12491611Y-13153031D01*
X12491611Y-13153031D02*
X12501134Y-13124460D01*
X12501134Y-13124460D02*
X12510658Y-13076841D01*
X12510658Y-13076841D02*
X12510658Y-13038746D01*
X12510658Y-13038746D02*
X12501134Y-12991127D01*
X12501134Y-12991127D02*
X12491611Y-12962555D01*
X12491611Y-12962555D02*
X12482087Y-12943508D01*
X12482087Y-12943508D02*
X12463039Y-12914936D01*
X12463039Y-12914936D02*
X12453515Y-12905412D01*
M02*
