M48
; DRILL file {KiCad 8.0.8} date 2025-06-20T17:39:11+0900
; FORMAT={-:-/ absolute / inch / decimal}
; #@! TF.CreationDate,2025-06-20T17:39:11+09:00
; #@! TF.GenerationSoftware,Kicad,Pcbnew,8.0.8
; #@! TF.FileFunction,Plated,1,2,PTH
FMAT,2
INCH
; #@! TA.AperFunction,Plated,PTH,ViaDrill
T1C0.0256
; #@! TA.AperFunction,Plated,PTH,ComponentDrill
T2C0.0300
; #@! TA.AperFunction,Plated,PTH,ComponentDrill
T3C0.0315
; #@! TA.AperFunction,Plated,PTH,ComponentDrill
T4C0.0335
; #@! TA.AperFunction,Plated,PTH,ViaDrill
T5C0.0512
; #@! TA.AperFunction,Plated,PTH,ComponentDrill
T6C0.0551
; #@! TA.AperFunction,Plated,PTH,ComponentDrill
T7C0.1378
%
G90
G05
T1
X8.1693Y-4.1142
X8.189Y-2.9528
X8.189Y-3.0512
X8.189Y-3.1496
X8.3071Y-2.9528
X8.3071Y-3.0512
X8.3071Y-3.1496
X8.3071Y-4.1142
X8.3071Y-4.2323
X8.4252Y-2.9528
X8.4252Y-3.0512
X8.4252Y-3.1496
X8.4449Y-4.1142
X8.4449Y-4.2323
X8.4449Y-4.3504
X9.0157Y-3.7008
X9.252Y-3.7008
X9.4685Y-2.8937
X9.4685Y-3.0118
X9.4685Y-3.1496
X9.626Y-2.8937
X9.626Y-3.0118
X9.626Y-3.1496
X9.7835Y-2.8937
X9.7835Y-3.0118
X9.7835Y-3.1496
T2
X7.6929Y-2.7596
X7.6929Y-2.8596
X7.6929Y-2.9596
X7.6929Y-3.0596
X7.6929Y-3.1596
X7.6929Y-3.2596
X8.685Y-2.8533
X8.685Y-2.9533
X8.685Y-3.0533
X8.685Y-3.1533
X9.1693Y-2.8506
X9.1693Y-2.9506
X9.1693Y-3.0506
X9.1693Y-3.1506
X10.1614Y-2.7443
X10.1614Y-2.8443
X10.1614Y-2.9443
X10.1614Y-3.0443
X10.1614Y-3.1443
X10.1614Y-3.2443
T3
X7.8617Y-3.8202
X7.8617Y-4.8202
X7.8937Y-2.3622
X7.9617Y-3.8202
X7.9617Y-4.8202
X8.0617Y-3.8202
X8.0617Y-4.8202
X8.0906Y-2.3622
X8.1617Y-3.8202
X8.1617Y-4.8202
X8.2617Y-3.8202
X8.2617Y-4.8202
X8.3617Y-3.8202
X8.3617Y-4.8202
X8.4617Y-3.8202
X8.4617Y-4.8202
X8.5617Y-3.8202
X8.5617Y-4.8202
X8.6617Y-3.8202
X8.6617Y-4.8202
X8.7617Y-3.8202
X8.7617Y-4.8202
X8.8617Y-3.8202
X8.8617Y-4.8202
X8.9617Y-3.8202
X8.9617Y-4.8202
X9.0617Y-3.8202
X9.0617Y-4.8202
X9.1617Y-3.8202
X9.1617Y-4.8202
X9.2617Y-3.8202
X9.2617Y-4.8202
T4
X7.7362Y-3.6024
X7.8346Y-3.6024
X7.9331Y-3.6024
X8.0315Y-3.6024
X8.5827Y-3.622
X8.6811Y-3.622
X9.5374Y-3.628
X9.6358Y-3.628
X9.9213Y-3.5827
X10.0197Y-3.5827
X10.1181Y-3.5827
X10.124Y-3.9272
X10.124Y-4.0256
X10.124Y-4.124
X10.124Y-4.2224
X10.2165Y-3.5827
T5
X9.685Y-3.9173
T6
X9.8228Y-4.5374
X9.8228Y-4.7539
T7
X7.6378Y-2.3622
X7.6378Y-4.7244
X10.1969Y-2.3622
X10.1969Y-4.7244
M30
