%TF.GenerationSoftware,KiCad,Pcbnew,8.0.8*%
%TF.CreationDate,2025-06-20T17:38:55+09:00*%
%TF.ProjectId,4thfloor_pole,34746866-6c6f-46f7-925f-706f6c652e6b,rev?*%
%TF.SameCoordinates,Original*%
%TF.FileFunction,Legend,Top*%
%TF.FilePolarity,Positive*%
%FSLAX46Y46*%
G04 Gerber Fmt 4.6, Leading zero omitted, Abs format (unit mm)*
G04 Created by KiCad (PCBNEW 8.0.8) date 2025-06-20 17:38:55*
%MOMM*%
%LPD*%
G01*
G04 APERTURE LIST*
%ADD10C,0.150000*%
%ADD11C,0.124999*%
%ADD12C,0.120000*%
%ADD13C,0.200000*%
G04 APERTURE END LIST*
D10*
X243166666Y-87304819D02*
X243166666Y-88019104D01*
X243166666Y-88019104D02*
X243119047Y-88161961D01*
X243119047Y-88161961D02*
X243023809Y-88257200D01*
X243023809Y-88257200D02*
X242880952Y-88304819D01*
X242880952Y-88304819D02*
X242785714Y-88304819D01*
X244071428Y-87304819D02*
X243880952Y-87304819D01*
X243880952Y-87304819D02*
X243785714Y-87352438D01*
X243785714Y-87352438D02*
X243738095Y-87400057D01*
X243738095Y-87400057D02*
X243642857Y-87542914D01*
X243642857Y-87542914D02*
X243595238Y-87733390D01*
X243595238Y-87733390D02*
X243595238Y-88114342D01*
X243595238Y-88114342D02*
X243642857Y-88209580D01*
X243642857Y-88209580D02*
X243690476Y-88257200D01*
X243690476Y-88257200D02*
X243785714Y-88304819D01*
X243785714Y-88304819D02*
X243976190Y-88304819D01*
X243976190Y-88304819D02*
X244071428Y-88257200D01*
X244071428Y-88257200D02*
X244119047Y-88209580D01*
X244119047Y-88209580D02*
X244166666Y-88114342D01*
X244166666Y-88114342D02*
X244166666Y-87876247D01*
X244166666Y-87876247D02*
X244119047Y-87781009D01*
X244119047Y-87781009D02*
X244071428Y-87733390D01*
X244071428Y-87733390D02*
X243976190Y-87685771D01*
X243976190Y-87685771D02*
X243785714Y-87685771D01*
X243785714Y-87685771D02*
X243690476Y-87733390D01*
X243690476Y-87733390D02*
X243642857Y-87781009D01*
X243642857Y-87781009D02*
X243595238Y-87876247D01*
X249166666Y-123654819D02*
X249166666Y-124369104D01*
X249166666Y-124369104D02*
X249119047Y-124511961D01*
X249119047Y-124511961D02*
X249023809Y-124607200D01*
X249023809Y-124607200D02*
X248880952Y-124654819D01*
X248880952Y-124654819D02*
X248785714Y-124654819D01*
X250119047Y-123654819D02*
X249642857Y-123654819D01*
X249642857Y-123654819D02*
X249595238Y-124131009D01*
X249595238Y-124131009D02*
X249642857Y-124083390D01*
X249642857Y-124083390D02*
X249738095Y-124035771D01*
X249738095Y-124035771D02*
X249976190Y-124035771D01*
X249976190Y-124035771D02*
X250071428Y-124083390D01*
X250071428Y-124083390D02*
X250119047Y-124131009D01*
X250119047Y-124131009D02*
X250166666Y-124226247D01*
X250166666Y-124226247D02*
X250166666Y-124464342D01*
X250166666Y-124464342D02*
X250119047Y-124559580D01*
X250119047Y-124559580D02*
X250071428Y-124607200D01*
X250071428Y-124607200D02*
X249976190Y-124654819D01*
X249976190Y-124654819D02*
X249738095Y-124654819D01*
X249738095Y-124654819D02*
X249642857Y-124607200D01*
X249642857Y-124607200D02*
X249595238Y-124559580D01*
X258238095Y-115954819D02*
X258238095Y-114954819D01*
X258238095Y-115431009D02*
X258809523Y-115431009D01*
X258809523Y-115954819D02*
X258809523Y-114954819D01*
X259714285Y-115288152D02*
X259714285Y-115954819D01*
X259476190Y-114907200D02*
X259238095Y-115621485D01*
X259238095Y-115621485D02*
X259857142Y-115621485D01*
X189738095Y-115954819D02*
X189738095Y-114954819D01*
X189738095Y-115431009D02*
X190309523Y-115431009D01*
X190309523Y-115954819D02*
X190309523Y-114954819D01*
X190690476Y-114954819D02*
X191309523Y-114954819D01*
X191309523Y-114954819D02*
X190976190Y-115335771D01*
X190976190Y-115335771D02*
X191119047Y-115335771D01*
X191119047Y-115335771D02*
X191214285Y-115383390D01*
X191214285Y-115383390D02*
X191261904Y-115431009D01*
X191261904Y-115431009D02*
X191309523Y-115526247D01*
X191309523Y-115526247D02*
X191309523Y-115764342D01*
X191309523Y-115764342D02*
X191261904Y-115859580D01*
X191261904Y-115859580D02*
X191214285Y-115907200D01*
X191214285Y-115907200D02*
X191119047Y-115954819D01*
X191119047Y-115954819D02*
X190833333Y-115954819D01*
X190833333Y-115954819D02*
X190738095Y-115907200D01*
X190738095Y-115907200D02*
X190690476Y-115859580D01*
X254238095Y-56954819D02*
X254238095Y-55954819D01*
X254238095Y-56431009D02*
X254809523Y-56431009D01*
X254809523Y-56954819D02*
X254809523Y-55954819D01*
X255238095Y-56050057D02*
X255285714Y-56002438D01*
X255285714Y-56002438D02*
X255380952Y-55954819D01*
X255380952Y-55954819D02*
X255619047Y-55954819D01*
X255619047Y-55954819D02*
X255714285Y-56002438D01*
X255714285Y-56002438D02*
X255761904Y-56050057D01*
X255761904Y-56050057D02*
X255809523Y-56145295D01*
X255809523Y-56145295D02*
X255809523Y-56240533D01*
X255809523Y-56240533D02*
X255761904Y-56383390D01*
X255761904Y-56383390D02*
X255190476Y-56954819D01*
X255190476Y-56954819D02*
X255809523Y-56954819D01*
X244238095Y-66954819D02*
X244238095Y-67764342D01*
X244238095Y-67764342D02*
X244285714Y-67859580D01*
X244285714Y-67859580D02*
X244333333Y-67907200D01*
X244333333Y-67907200D02*
X244428571Y-67954819D01*
X244428571Y-67954819D02*
X244619047Y-67954819D01*
X244619047Y-67954819D02*
X244714285Y-67907200D01*
X244714285Y-67907200D02*
X244761904Y-67859580D01*
X244761904Y-67859580D02*
X244809523Y-67764342D01*
X244809523Y-67764342D02*
X244809523Y-66954819D01*
X245238095Y-67050057D02*
X245285714Y-67002438D01*
X245285714Y-67002438D02*
X245380952Y-66954819D01*
X245380952Y-66954819D02*
X245619047Y-66954819D01*
X245619047Y-66954819D02*
X245714285Y-67002438D01*
X245714285Y-67002438D02*
X245761904Y-67050057D01*
X245761904Y-67050057D02*
X245809523Y-67145295D01*
X245809523Y-67145295D02*
X245809523Y-67240533D01*
X245809523Y-67240533D02*
X245761904Y-67383390D01*
X245761904Y-67383390D02*
X245190476Y-67954819D01*
X245190476Y-67954819D02*
X245809523Y-67954819D01*
X205738095Y-65954819D02*
X205738095Y-66764342D01*
X205738095Y-66764342D02*
X205785714Y-66859580D01*
X205785714Y-66859580D02*
X205833333Y-66907200D01*
X205833333Y-66907200D02*
X205928571Y-66954819D01*
X205928571Y-66954819D02*
X206119047Y-66954819D01*
X206119047Y-66954819D02*
X206214285Y-66907200D01*
X206214285Y-66907200D02*
X206261904Y-66859580D01*
X206261904Y-66859580D02*
X206309523Y-66764342D01*
X206309523Y-66764342D02*
X206309523Y-65954819D01*
X207309523Y-66954819D02*
X206738095Y-66954819D01*
X207023809Y-66954819D02*
X207023809Y-65954819D01*
X207023809Y-65954819D02*
X206928571Y-66097676D01*
X206928571Y-66097676D02*
X206833333Y-66192914D01*
X206833333Y-66192914D02*
X206738095Y-66240533D01*
X218916666Y-87154819D02*
X218916666Y-87869104D01*
X218916666Y-87869104D02*
X218869047Y-88011961D01*
X218869047Y-88011961D02*
X218773809Y-88107200D01*
X218773809Y-88107200D02*
X218630952Y-88154819D01*
X218630952Y-88154819D02*
X218535714Y-88154819D01*
X219821428Y-87488152D02*
X219821428Y-88154819D01*
X219583333Y-87107200D02*
X219345238Y-87821485D01*
X219345238Y-87821485D02*
X219964285Y-87821485D01*
X255416666Y-94754819D02*
X255416666Y-95469104D01*
X255416666Y-95469104D02*
X255369047Y-95611961D01*
X255369047Y-95611961D02*
X255273809Y-95707200D01*
X255273809Y-95707200D02*
X255130952Y-95754819D01*
X255130952Y-95754819D02*
X255035714Y-95754819D01*
X255797619Y-94754819D02*
X256416666Y-94754819D01*
X256416666Y-94754819D02*
X256083333Y-95135771D01*
X256083333Y-95135771D02*
X256226190Y-95135771D01*
X256226190Y-95135771D02*
X256321428Y-95183390D01*
X256321428Y-95183390D02*
X256369047Y-95231009D01*
X256369047Y-95231009D02*
X256416666Y-95326247D01*
X256416666Y-95326247D02*
X256416666Y-95564342D01*
X256416666Y-95564342D02*
X256369047Y-95659580D01*
X256369047Y-95659580D02*
X256321428Y-95707200D01*
X256321428Y-95707200D02*
X256226190Y-95754819D01*
X256226190Y-95754819D02*
X255940476Y-95754819D01*
X255940476Y-95754819D02*
X255845238Y-95707200D01*
X255845238Y-95707200D02*
X255797619Y-95659580D01*
X197166666Y-93454819D02*
X197166666Y-94169104D01*
X197166666Y-94169104D02*
X197119047Y-94311961D01*
X197119047Y-94311961D02*
X197023809Y-94407200D01*
X197023809Y-94407200D02*
X196880952Y-94454819D01*
X196880952Y-94454819D02*
X196785714Y-94454819D01*
X197595238Y-93550057D02*
X197642857Y-93502438D01*
X197642857Y-93502438D02*
X197738095Y-93454819D01*
X197738095Y-93454819D02*
X197976190Y-93454819D01*
X197976190Y-93454819D02*
X198071428Y-93502438D01*
X198071428Y-93502438D02*
X198119047Y-93550057D01*
X198119047Y-93550057D02*
X198166666Y-93645295D01*
X198166666Y-93645295D02*
X198166666Y-93740533D01*
X198166666Y-93740533D02*
X198119047Y-93883390D01*
X198119047Y-93883390D02*
X197547619Y-94454819D01*
X197547619Y-94454819D02*
X198166666Y-94454819D01*
X252304819Y-103833333D02*
X253019104Y-103833333D01*
X253019104Y-103833333D02*
X253161961Y-103880952D01*
X253161961Y-103880952D02*
X253257200Y-103976190D01*
X253257200Y-103976190D02*
X253304819Y-104119047D01*
X253304819Y-104119047D02*
X253304819Y-104214285D01*
X253304819Y-102833333D02*
X253304819Y-103404761D01*
X253304819Y-103119047D02*
X252304819Y-103119047D01*
X252304819Y-103119047D02*
X252447676Y-103214285D01*
X252447676Y-103214285D02*
X252542914Y-103309523D01*
X252542914Y-103309523D02*
X252590533Y-103404761D01*
X196738095Y-56954819D02*
X196738095Y-55954819D01*
X196738095Y-56431009D02*
X197309523Y-56431009D01*
X197309523Y-56954819D02*
X197309523Y-55954819D01*
X198309523Y-56954819D02*
X197738095Y-56954819D01*
X198023809Y-56954819D02*
X198023809Y-55954819D01*
X198023809Y-55954819D02*
X197928571Y-56097676D01*
X197928571Y-56097676D02*
X197833333Y-56192914D01*
X197833333Y-56192914D02*
X197738095Y-56240533D01*
X202833333Y-57859580D02*
X202785714Y-57907200D01*
X202785714Y-57907200D02*
X202642857Y-57954819D01*
X202642857Y-57954819D02*
X202547619Y-57954819D01*
X202547619Y-57954819D02*
X202404762Y-57907200D01*
X202404762Y-57907200D02*
X202309524Y-57811961D01*
X202309524Y-57811961D02*
X202261905Y-57716723D01*
X202261905Y-57716723D02*
X202214286Y-57526247D01*
X202214286Y-57526247D02*
X202214286Y-57383390D01*
X202214286Y-57383390D02*
X202261905Y-57192914D01*
X202261905Y-57192914D02*
X202309524Y-57097676D01*
X202309524Y-57097676D02*
X202404762Y-57002438D01*
X202404762Y-57002438D02*
X202547619Y-56954819D01*
X202547619Y-56954819D02*
X202642857Y-56954819D01*
X202642857Y-56954819D02*
X202785714Y-57002438D01*
X202785714Y-57002438D02*
X202833333Y-57050057D01*
X203785714Y-57954819D02*
X203214286Y-57954819D01*
X203500000Y-57954819D02*
X203500000Y-56954819D01*
X203500000Y-56954819D02*
X203404762Y-57097676D01*
X203404762Y-57097676D02*
X203309524Y-57192914D01*
X203309524Y-57192914D02*
X203214286Y-57240533D01*
X201663473Y-115266841D02*
X201663473Y-114266841D01*
X201663473Y-114266841D02*
X201996806Y-114981126D01*
X201996806Y-114981126D02*
X202330139Y-114266841D01*
X202330139Y-114266841D02*
X202330139Y-115266841D01*
X202996806Y-114266841D02*
X203187282Y-114266841D01*
X203187282Y-114266841D02*
X203282520Y-114314460D01*
X203282520Y-114314460D02*
X203377758Y-114409698D01*
X203377758Y-114409698D02*
X203425377Y-114600174D01*
X203425377Y-114600174D02*
X203425377Y-114933507D01*
X203425377Y-114933507D02*
X203377758Y-115123983D01*
X203377758Y-115123983D02*
X203282520Y-115219222D01*
X203282520Y-115219222D02*
X203187282Y-115266841D01*
X203187282Y-115266841D02*
X202996806Y-115266841D01*
X202996806Y-115266841D02*
X202901568Y-115219222D01*
X202901568Y-115219222D02*
X202806330Y-115123983D01*
X202806330Y-115123983D02*
X202758711Y-114933507D01*
X202758711Y-114933507D02*
X202758711Y-114600174D01*
X202758711Y-114600174D02*
X202806330Y-114409698D01*
X202806330Y-114409698D02*
X202901568Y-114314460D01*
X202901568Y-114314460D02*
X202996806Y-114266841D01*
X203853949Y-115266841D02*
X203853949Y-114266841D01*
X203853949Y-114266841D02*
X204092044Y-114266841D01*
X204092044Y-114266841D02*
X204234901Y-114314460D01*
X204234901Y-114314460D02*
X204330139Y-114409698D01*
X204330139Y-114409698D02*
X204377758Y-114504936D01*
X204377758Y-114504936D02*
X204425377Y-114695412D01*
X204425377Y-114695412D02*
X204425377Y-114838269D01*
X204425377Y-114838269D02*
X204377758Y-115028745D01*
X204377758Y-115028745D02*
X204330139Y-115123983D01*
X204330139Y-115123983D02*
X204234901Y-115219222D01*
X204234901Y-115219222D02*
X204092044Y-115266841D01*
X204092044Y-115266841D02*
X203853949Y-115266841D01*
X205377758Y-115266841D02*
X204806330Y-115266841D01*
X205092044Y-115266841D02*
X205092044Y-114266841D01*
X205092044Y-114266841D02*
X204996806Y-114409698D01*
X204996806Y-114409698D02*
X204901568Y-114504936D01*
X204901568Y-114504936D02*
X204806330Y-114552555D01*
D11*
X210378198Y-100568106D02*
X209378200Y-100568106D01*
X209378200Y-100568106D02*
X209378200Y-100353821D01*
X209378200Y-100353821D02*
X209425819Y-100225250D01*
X209425819Y-100225250D02*
X209521057Y-100139536D01*
X209521057Y-100139536D02*
X209616295Y-100096679D01*
X209616295Y-100096679D02*
X209806771Y-100053822D01*
X209806771Y-100053822D02*
X209949628Y-100053822D01*
X209949628Y-100053822D02*
X210140104Y-100096679D01*
X210140104Y-100096679D02*
X210235342Y-100139536D01*
X210235342Y-100139536D02*
X210330580Y-100225250D01*
X210330580Y-100225250D02*
X210378198Y-100353821D01*
X210378198Y-100353821D02*
X210378198Y-100568106D01*
X209473438Y-99710965D02*
X209425819Y-99668108D01*
X209425819Y-99668108D02*
X209378200Y-99582394D01*
X209378200Y-99582394D02*
X209378200Y-99368109D01*
X209378200Y-99368109D02*
X209425819Y-99282395D01*
X209425819Y-99282395D02*
X209473438Y-99239538D01*
X209473438Y-99239538D02*
X209568676Y-99196681D01*
X209568676Y-99196681D02*
X209663914Y-99196681D01*
X209663914Y-99196681D02*
X209806771Y-99239538D01*
X209806771Y-99239538D02*
X210378198Y-99753822D01*
X210378198Y-99753822D02*
X210378198Y-99196681D01*
X210378198Y-98339540D02*
X210378198Y-98853824D01*
X210378198Y-98596682D02*
X209378200Y-98596682D01*
X209378200Y-98596682D02*
X209521057Y-98682396D01*
X209521057Y-98682396D02*
X209616295Y-98768110D01*
X209616295Y-98768110D02*
X209663914Y-98853824D01*
X225618198Y-100568106D02*
X224618200Y-100568106D01*
X224618200Y-100568106D02*
X224618200Y-100353821D01*
X224618200Y-100353821D02*
X224665819Y-100225250D01*
X224665819Y-100225250D02*
X224761057Y-100139536D01*
X224761057Y-100139536D02*
X224856295Y-100096679D01*
X224856295Y-100096679D02*
X225046771Y-100053822D01*
X225046771Y-100053822D02*
X225189628Y-100053822D01*
X225189628Y-100053822D02*
X225380104Y-100096679D01*
X225380104Y-100096679D02*
X225475342Y-100139536D01*
X225475342Y-100139536D02*
X225570580Y-100225250D01*
X225570580Y-100225250D02*
X225618198Y-100353821D01*
X225618198Y-100353821D02*
X225618198Y-100568106D01*
X224618200Y-99496680D02*
X224618200Y-99410966D01*
X224618200Y-99410966D02*
X224665819Y-99325252D01*
X224665819Y-99325252D02*
X224713438Y-99282395D01*
X224713438Y-99282395D02*
X224808676Y-99239538D01*
X224808676Y-99239538D02*
X224999152Y-99196681D01*
X224999152Y-99196681D02*
X225237247Y-99196681D01*
X225237247Y-99196681D02*
X225427723Y-99239538D01*
X225427723Y-99239538D02*
X225522961Y-99282395D01*
X225522961Y-99282395D02*
X225570580Y-99325252D01*
X225570580Y-99325252D02*
X225618198Y-99410966D01*
X225618198Y-99410966D02*
X225618198Y-99496680D01*
X225618198Y-99496680D02*
X225570580Y-99582394D01*
X225570580Y-99582394D02*
X225522961Y-99625251D01*
X225522961Y-99625251D02*
X225427723Y-99668108D01*
X225427723Y-99668108D02*
X225237247Y-99710965D01*
X225237247Y-99710965D02*
X224999152Y-99710965D01*
X224999152Y-99710965D02*
X224808676Y-99668108D01*
X224808676Y-99668108D02*
X224713438Y-99625251D01*
X224713438Y-99625251D02*
X224665819Y-99582394D01*
X224665819Y-99582394D02*
X224618200Y-99496680D01*
X224951533Y-98425254D02*
X225618198Y-98425254D01*
X224570582Y-98639539D02*
X225284866Y-98853824D01*
X225284866Y-98853824D02*
X225284866Y-98296683D01*
X220538198Y-104355500D02*
X219538200Y-104355500D01*
X219538200Y-104355500D02*
X219538200Y-104141215D01*
X219538200Y-104141215D02*
X219585819Y-104012644D01*
X219585819Y-104012644D02*
X219681057Y-103926930D01*
X219681057Y-103926930D02*
X219776295Y-103884073D01*
X219776295Y-103884073D02*
X219966771Y-103841216D01*
X219966771Y-103841216D02*
X220109628Y-103841216D01*
X220109628Y-103841216D02*
X220300104Y-103884073D01*
X220300104Y-103884073D02*
X220395342Y-103926930D01*
X220395342Y-103926930D02*
X220490580Y-104012644D01*
X220490580Y-104012644D02*
X220538198Y-104141215D01*
X220538198Y-104141215D02*
X220538198Y-104355500D01*
X220538198Y-102984075D02*
X220538198Y-103498359D01*
X220538198Y-103241217D02*
X219538200Y-103241217D01*
X219538200Y-103241217D02*
X219681057Y-103326931D01*
X219681057Y-103326931D02*
X219776295Y-103412645D01*
X219776295Y-103412645D02*
X219823914Y-103498359D01*
X219538200Y-102684075D02*
X219538200Y-102084077D01*
X219538200Y-102084077D02*
X220538198Y-102469790D01*
X219490582Y-101098365D02*
X220776293Y-101869791D01*
X219538200Y-100926936D02*
X219538200Y-100412652D01*
X220538198Y-100669794D02*
X219538200Y-100669794D01*
X219538200Y-100198366D02*
X220538198Y-99598368D01*
X219538200Y-99598368D02*
X220538198Y-100198366D01*
X219633438Y-99298368D02*
X219585819Y-99255511D01*
X219585819Y-99255511D02*
X219538200Y-99169797D01*
X219538200Y-99169797D02*
X219538200Y-98955512D01*
X219538200Y-98955512D02*
X219585819Y-98869798D01*
X219585819Y-98869798D02*
X219633438Y-98826941D01*
X219633438Y-98826941D02*
X219728676Y-98784084D01*
X219728676Y-98784084D02*
X219823914Y-98784084D01*
X219823914Y-98784084D02*
X219966771Y-98826941D01*
X219966771Y-98826941D02*
X220538198Y-99341225D01*
X220538198Y-99341225D02*
X220538198Y-98784084D01*
X232285819Y-120416679D02*
X232238200Y-120502393D01*
X232238200Y-120502393D02*
X232238200Y-120630964D01*
X232238200Y-120630964D02*
X232285819Y-120759535D01*
X232285819Y-120759535D02*
X232381057Y-120845249D01*
X232381057Y-120845249D02*
X232476295Y-120888106D01*
X232476295Y-120888106D02*
X232666771Y-120930963D01*
X232666771Y-120930963D02*
X232809628Y-120930963D01*
X232809628Y-120930963D02*
X233000104Y-120888106D01*
X233000104Y-120888106D02*
X233095342Y-120845249D01*
X233095342Y-120845249D02*
X233190580Y-120759535D01*
X233190580Y-120759535D02*
X233238198Y-120630964D01*
X233238198Y-120630964D02*
X233238198Y-120545250D01*
X233238198Y-120545250D02*
X233190580Y-120416679D01*
X233190580Y-120416679D02*
X233142961Y-120373822D01*
X233142961Y-120373822D02*
X232809628Y-120373822D01*
X232809628Y-120373822D02*
X232809628Y-120545250D01*
X233238198Y-119988108D02*
X232238200Y-119988108D01*
X232238200Y-119988108D02*
X233238198Y-119473824D01*
X233238198Y-119473824D02*
X232238200Y-119473824D01*
X233238198Y-119045253D02*
X232238200Y-119045253D01*
X232238200Y-119045253D02*
X232238200Y-118830968D01*
X232238200Y-118830968D02*
X232285819Y-118702397D01*
X232285819Y-118702397D02*
X232381057Y-118616683D01*
X232381057Y-118616683D02*
X232476295Y-118573826D01*
X232476295Y-118573826D02*
X232666771Y-118530969D01*
X232666771Y-118530969D02*
X232809628Y-118530969D01*
X232809628Y-118530969D02*
X233000104Y-118573826D01*
X233000104Y-118573826D02*
X233095342Y-118616683D01*
X233095342Y-118616683D02*
X233190580Y-118702397D01*
X233190580Y-118702397D02*
X233238198Y-118830968D01*
X233238198Y-118830968D02*
X233238198Y-119045253D01*
X202758198Y-120888106D02*
X201758200Y-120888106D01*
X201758200Y-120888106D02*
X201758200Y-120673821D01*
X201758200Y-120673821D02*
X201805819Y-120545250D01*
X201805819Y-120545250D02*
X201901057Y-120459536D01*
X201901057Y-120459536D02*
X201996295Y-120416679D01*
X201996295Y-120416679D02*
X202186771Y-120373822D01*
X202186771Y-120373822D02*
X202329628Y-120373822D01*
X202329628Y-120373822D02*
X202520104Y-120416679D01*
X202520104Y-120416679D02*
X202615342Y-120459536D01*
X202615342Y-120459536D02*
X202710580Y-120545250D01*
X202710580Y-120545250D02*
X202758198Y-120673821D01*
X202758198Y-120673821D02*
X202758198Y-120888106D01*
X201758200Y-120073822D02*
X201758200Y-119516681D01*
X201758200Y-119516681D02*
X202139152Y-119816680D01*
X202139152Y-119816680D02*
X202139152Y-119688109D01*
X202139152Y-119688109D02*
X202186771Y-119602395D01*
X202186771Y-119602395D02*
X202234390Y-119559538D01*
X202234390Y-119559538D02*
X202329628Y-119516681D01*
X202329628Y-119516681D02*
X202567723Y-119516681D01*
X202567723Y-119516681D02*
X202662961Y-119559538D01*
X202662961Y-119559538D02*
X202710580Y-119602395D01*
X202710580Y-119602395D02*
X202758198Y-119688109D01*
X202758198Y-119688109D02*
X202758198Y-119945251D01*
X202758198Y-119945251D02*
X202710580Y-120030965D01*
X202710580Y-120030965D02*
X202662961Y-120073822D01*
X201758200Y-118745254D02*
X201758200Y-118916682D01*
X201758200Y-118916682D02*
X201805819Y-119002396D01*
X201805819Y-119002396D02*
X201853438Y-119045253D01*
X201853438Y-119045253D02*
X201996295Y-119130967D01*
X201996295Y-119130967D02*
X202186771Y-119173824D01*
X202186771Y-119173824D02*
X202567723Y-119173824D01*
X202567723Y-119173824D02*
X202662961Y-119130967D01*
X202662961Y-119130967D02*
X202710580Y-119088110D01*
X202710580Y-119088110D02*
X202758198Y-119002396D01*
X202758198Y-119002396D02*
X202758198Y-118830968D01*
X202758198Y-118830968D02*
X202710580Y-118745254D01*
X202710580Y-118745254D02*
X202662961Y-118702397D01*
X202662961Y-118702397D02*
X202567723Y-118659540D01*
X202567723Y-118659540D02*
X202329628Y-118659540D01*
X202329628Y-118659540D02*
X202234390Y-118702397D01*
X202234390Y-118702397D02*
X202186771Y-118745254D01*
X202186771Y-118745254D02*
X202139152Y-118830968D01*
X202139152Y-118830968D02*
X202139152Y-119002396D01*
X202139152Y-119002396D02*
X202186771Y-119088110D01*
X202186771Y-119088110D02*
X202234390Y-119130967D01*
X202234390Y-119130967D02*
X202329628Y-119173824D01*
X215458198Y-120888106D02*
X214458200Y-120888106D01*
X214458200Y-120888106D02*
X214458200Y-120673821D01*
X214458200Y-120673821D02*
X214505819Y-120545250D01*
X214505819Y-120545250D02*
X214601057Y-120459536D01*
X214601057Y-120459536D02*
X214696295Y-120416679D01*
X214696295Y-120416679D02*
X214886771Y-120373822D01*
X214886771Y-120373822D02*
X215029628Y-120373822D01*
X215029628Y-120373822D02*
X215220104Y-120416679D01*
X215220104Y-120416679D02*
X215315342Y-120459536D01*
X215315342Y-120459536D02*
X215410580Y-120545250D01*
X215410580Y-120545250D02*
X215458198Y-120673821D01*
X215458198Y-120673821D02*
X215458198Y-120888106D01*
X214458200Y-120073822D02*
X214458200Y-119516681D01*
X214458200Y-119516681D02*
X214839152Y-119816680D01*
X214839152Y-119816680D02*
X214839152Y-119688109D01*
X214839152Y-119688109D02*
X214886771Y-119602395D01*
X214886771Y-119602395D02*
X214934390Y-119559538D01*
X214934390Y-119559538D02*
X215029628Y-119516681D01*
X215029628Y-119516681D02*
X215267723Y-119516681D01*
X215267723Y-119516681D02*
X215362961Y-119559538D01*
X215362961Y-119559538D02*
X215410580Y-119602395D01*
X215410580Y-119602395D02*
X215458198Y-119688109D01*
X215458198Y-119688109D02*
X215458198Y-119945251D01*
X215458198Y-119945251D02*
X215410580Y-120030965D01*
X215410580Y-120030965D02*
X215362961Y-120073822D01*
X214458200Y-119216681D02*
X214458200Y-118659540D01*
X214458200Y-118659540D02*
X214839152Y-118959539D01*
X214839152Y-118959539D02*
X214839152Y-118830968D01*
X214839152Y-118830968D02*
X214886771Y-118745254D01*
X214886771Y-118745254D02*
X214934390Y-118702397D01*
X214934390Y-118702397D02*
X215029628Y-118659540D01*
X215029628Y-118659540D02*
X215267723Y-118659540D01*
X215267723Y-118659540D02*
X215362961Y-118702397D01*
X215362961Y-118702397D02*
X215410580Y-118745254D01*
X215410580Y-118745254D02*
X215458198Y-118830968D01*
X215458198Y-118830968D02*
X215458198Y-119088110D01*
X215458198Y-119088110D02*
X215410580Y-119173824D01*
X215410580Y-119173824D02*
X215362961Y-119216681D01*
X204298200Y-100696677D02*
X204298200Y-100182393D01*
X205298198Y-100439535D02*
X204298200Y-100439535D01*
X204298200Y-99968107D02*
X205298198Y-99368109D01*
X204298200Y-99368109D02*
X205298198Y-99968107D01*
X204298200Y-98853824D02*
X204298200Y-98768110D01*
X204298200Y-98768110D02*
X204345819Y-98682396D01*
X204345819Y-98682396D02*
X204393438Y-98639539D01*
X204393438Y-98639539D02*
X204488676Y-98596682D01*
X204488676Y-98596682D02*
X204679152Y-98553825D01*
X204679152Y-98553825D02*
X204917247Y-98553825D01*
X204917247Y-98553825D02*
X205107723Y-98596682D01*
X205107723Y-98596682D02*
X205202961Y-98639539D01*
X205202961Y-98639539D02*
X205250580Y-98682396D01*
X205250580Y-98682396D02*
X205298198Y-98768110D01*
X205298198Y-98768110D02*
X205298198Y-98853824D01*
X205298198Y-98853824D02*
X205250580Y-98939538D01*
X205250580Y-98939538D02*
X205202961Y-98982395D01*
X205202961Y-98982395D02*
X205107723Y-99025252D01*
X205107723Y-99025252D02*
X204917247Y-99068109D01*
X204917247Y-99068109D02*
X204679152Y-99068109D01*
X204679152Y-99068109D02*
X204488676Y-99025252D01*
X204488676Y-99025252D02*
X204393438Y-98982395D01*
X204393438Y-98982395D02*
X204345819Y-98939538D01*
X204345819Y-98939538D02*
X204298200Y-98853824D01*
X199694390Y-120888106D02*
X199694390Y-120588107D01*
X200218198Y-120459536D02*
X200218198Y-120888106D01*
X200218198Y-120888106D02*
X199218200Y-120888106D01*
X199218200Y-120888106D02*
X199218200Y-120459536D01*
X200218198Y-120073822D02*
X199218200Y-120073822D01*
X199218200Y-120073822D02*
X200218198Y-119559538D01*
X200218198Y-119559538D02*
X199218200Y-119559538D01*
X217998198Y-120888106D02*
X216998200Y-120888106D01*
X216998200Y-120888106D02*
X216998200Y-120673821D01*
X216998200Y-120673821D02*
X217045819Y-120545250D01*
X217045819Y-120545250D02*
X217141057Y-120459536D01*
X217141057Y-120459536D02*
X217236295Y-120416679D01*
X217236295Y-120416679D02*
X217426771Y-120373822D01*
X217426771Y-120373822D02*
X217569628Y-120373822D01*
X217569628Y-120373822D02*
X217760104Y-120416679D01*
X217760104Y-120416679D02*
X217855342Y-120459536D01*
X217855342Y-120459536D02*
X217950580Y-120545250D01*
X217950580Y-120545250D02*
X217998198Y-120673821D01*
X217998198Y-120673821D02*
X217998198Y-120888106D01*
X217093438Y-120030965D02*
X217045819Y-119988108D01*
X217045819Y-119988108D02*
X216998200Y-119902394D01*
X216998200Y-119902394D02*
X216998200Y-119688109D01*
X216998200Y-119688109D02*
X217045819Y-119602395D01*
X217045819Y-119602395D02*
X217093438Y-119559538D01*
X217093438Y-119559538D02*
X217188676Y-119516681D01*
X217188676Y-119516681D02*
X217283914Y-119516681D01*
X217283914Y-119516681D02*
X217426771Y-119559538D01*
X217426771Y-119559538D02*
X217998198Y-120073822D01*
X217998198Y-120073822D02*
X217998198Y-119516681D01*
X216998200Y-118702397D02*
X216998200Y-119130967D01*
X216998200Y-119130967D02*
X217474390Y-119173824D01*
X217474390Y-119173824D02*
X217426771Y-119130967D01*
X217426771Y-119130967D02*
X217379152Y-119045253D01*
X217379152Y-119045253D02*
X217379152Y-118830968D01*
X217379152Y-118830968D02*
X217426771Y-118745254D01*
X217426771Y-118745254D02*
X217474390Y-118702397D01*
X217474390Y-118702397D02*
X217569628Y-118659540D01*
X217569628Y-118659540D02*
X217807723Y-118659540D01*
X217807723Y-118659540D02*
X217902961Y-118702397D01*
X217902961Y-118702397D02*
X217950580Y-118745254D01*
X217950580Y-118745254D02*
X217998198Y-118830968D01*
X217998198Y-118830968D02*
X217998198Y-119045253D01*
X217998198Y-119045253D02*
X217950580Y-119130967D01*
X217950580Y-119130967D02*
X217902961Y-119173824D01*
X200218198Y-100568106D02*
X199218200Y-100568106D01*
X199218200Y-100568106D02*
X199218200Y-100353821D01*
X199218200Y-100353821D02*
X199265819Y-100225250D01*
X199265819Y-100225250D02*
X199361057Y-100139536D01*
X199361057Y-100139536D02*
X199456295Y-100096679D01*
X199456295Y-100096679D02*
X199646771Y-100053822D01*
X199646771Y-100053822D02*
X199789628Y-100053822D01*
X199789628Y-100053822D02*
X199980104Y-100096679D01*
X199980104Y-100096679D02*
X200075342Y-100139536D01*
X200075342Y-100139536D02*
X200170580Y-100225250D01*
X200170580Y-100225250D02*
X200218198Y-100353821D01*
X200218198Y-100353821D02*
X200218198Y-100568106D01*
X199313438Y-99710965D02*
X199265819Y-99668108D01*
X199265819Y-99668108D02*
X199218200Y-99582394D01*
X199218200Y-99582394D02*
X199218200Y-99368109D01*
X199218200Y-99368109D02*
X199265819Y-99282395D01*
X199265819Y-99282395D02*
X199313438Y-99239538D01*
X199313438Y-99239538D02*
X199408676Y-99196681D01*
X199408676Y-99196681D02*
X199503914Y-99196681D01*
X199503914Y-99196681D02*
X199646771Y-99239538D01*
X199646771Y-99239538D02*
X200218198Y-99753822D01*
X200218198Y-99753822D02*
X200218198Y-99196681D01*
X199218200Y-98896681D02*
X199218200Y-98339540D01*
X199218200Y-98339540D02*
X199599152Y-98639539D01*
X199599152Y-98639539D02*
X199599152Y-98510968D01*
X199599152Y-98510968D02*
X199646771Y-98425254D01*
X199646771Y-98425254D02*
X199694390Y-98382397D01*
X199694390Y-98382397D02*
X199789628Y-98339540D01*
X199789628Y-98339540D02*
X200027723Y-98339540D01*
X200027723Y-98339540D02*
X200122961Y-98382397D01*
X200122961Y-98382397D02*
X200170580Y-98425254D01*
X200170580Y-98425254D02*
X200218198Y-98510968D01*
X200218198Y-98510968D02*
X200218198Y-98768110D01*
X200218198Y-98768110D02*
X200170580Y-98853824D01*
X200170580Y-98853824D02*
X200122961Y-98896681D01*
X207838198Y-120888106D02*
X206838200Y-120888106D01*
X206838200Y-120888106D02*
X206838200Y-120673821D01*
X206838200Y-120673821D02*
X206885819Y-120545250D01*
X206885819Y-120545250D02*
X206981057Y-120459536D01*
X206981057Y-120459536D02*
X207076295Y-120416679D01*
X207076295Y-120416679D02*
X207266771Y-120373822D01*
X207266771Y-120373822D02*
X207409628Y-120373822D01*
X207409628Y-120373822D02*
X207600104Y-120416679D01*
X207600104Y-120416679D02*
X207695342Y-120459536D01*
X207695342Y-120459536D02*
X207790580Y-120545250D01*
X207790580Y-120545250D02*
X207838198Y-120673821D01*
X207838198Y-120673821D02*
X207838198Y-120888106D01*
X206838200Y-120073822D02*
X206838200Y-119516681D01*
X206838200Y-119516681D02*
X207219152Y-119816680D01*
X207219152Y-119816680D02*
X207219152Y-119688109D01*
X207219152Y-119688109D02*
X207266771Y-119602395D01*
X207266771Y-119602395D02*
X207314390Y-119559538D01*
X207314390Y-119559538D02*
X207409628Y-119516681D01*
X207409628Y-119516681D02*
X207647723Y-119516681D01*
X207647723Y-119516681D02*
X207742961Y-119559538D01*
X207742961Y-119559538D02*
X207790580Y-119602395D01*
X207790580Y-119602395D02*
X207838198Y-119688109D01*
X207838198Y-119688109D02*
X207838198Y-119945251D01*
X207838198Y-119945251D02*
X207790580Y-120030965D01*
X207790580Y-120030965D02*
X207742961Y-120073822D01*
X207171533Y-118745254D02*
X207838198Y-118745254D01*
X206790582Y-118959539D02*
X207504866Y-119173824D01*
X207504866Y-119173824D02*
X207504866Y-118616683D01*
X205298198Y-120888106D02*
X204298200Y-120888106D01*
X204298200Y-120888106D02*
X204298200Y-120673821D01*
X204298200Y-120673821D02*
X204345819Y-120545250D01*
X204345819Y-120545250D02*
X204441057Y-120459536D01*
X204441057Y-120459536D02*
X204536295Y-120416679D01*
X204536295Y-120416679D02*
X204726771Y-120373822D01*
X204726771Y-120373822D02*
X204869628Y-120373822D01*
X204869628Y-120373822D02*
X205060104Y-120416679D01*
X205060104Y-120416679D02*
X205155342Y-120459536D01*
X205155342Y-120459536D02*
X205250580Y-120545250D01*
X205250580Y-120545250D02*
X205298198Y-120673821D01*
X205298198Y-120673821D02*
X205298198Y-120888106D01*
X204298200Y-120073822D02*
X204298200Y-119516681D01*
X204298200Y-119516681D02*
X204679152Y-119816680D01*
X204679152Y-119816680D02*
X204679152Y-119688109D01*
X204679152Y-119688109D02*
X204726771Y-119602395D01*
X204726771Y-119602395D02*
X204774390Y-119559538D01*
X204774390Y-119559538D02*
X204869628Y-119516681D01*
X204869628Y-119516681D02*
X205107723Y-119516681D01*
X205107723Y-119516681D02*
X205202961Y-119559538D01*
X205202961Y-119559538D02*
X205250580Y-119602395D01*
X205250580Y-119602395D02*
X205298198Y-119688109D01*
X205298198Y-119688109D02*
X205298198Y-119945251D01*
X205298198Y-119945251D02*
X205250580Y-120030965D01*
X205250580Y-120030965D02*
X205202961Y-120073822D01*
X205298198Y-119088110D02*
X205298198Y-118916682D01*
X205298198Y-118916682D02*
X205250580Y-118830968D01*
X205250580Y-118830968D02*
X205202961Y-118788111D01*
X205202961Y-118788111D02*
X205060104Y-118702397D01*
X205060104Y-118702397D02*
X204869628Y-118659540D01*
X204869628Y-118659540D02*
X204488676Y-118659540D01*
X204488676Y-118659540D02*
X204393438Y-118702397D01*
X204393438Y-118702397D02*
X204345819Y-118745254D01*
X204345819Y-118745254D02*
X204298200Y-118830968D01*
X204298200Y-118830968D02*
X204298200Y-119002396D01*
X204298200Y-119002396D02*
X204345819Y-119088110D01*
X204345819Y-119088110D02*
X204393438Y-119130967D01*
X204393438Y-119130967D02*
X204488676Y-119173824D01*
X204488676Y-119173824D02*
X204726771Y-119173824D01*
X204726771Y-119173824D02*
X204822009Y-119130967D01*
X204822009Y-119130967D02*
X204869628Y-119088110D01*
X204869628Y-119088110D02*
X204917247Y-119002396D01*
X204917247Y-119002396D02*
X204917247Y-118830968D01*
X204917247Y-118830968D02*
X204869628Y-118745254D01*
X204869628Y-118745254D02*
X204822009Y-118702397D01*
X204822009Y-118702397D02*
X204726771Y-118659540D01*
X223078198Y-120888106D02*
X222078200Y-120888106D01*
X222078200Y-120888106D02*
X222078200Y-120673821D01*
X222078200Y-120673821D02*
X222125819Y-120545250D01*
X222125819Y-120545250D02*
X222221057Y-120459536D01*
X222221057Y-120459536D02*
X222316295Y-120416679D01*
X222316295Y-120416679D02*
X222506771Y-120373822D01*
X222506771Y-120373822D02*
X222649628Y-120373822D01*
X222649628Y-120373822D02*
X222840104Y-120416679D01*
X222840104Y-120416679D02*
X222935342Y-120459536D01*
X222935342Y-120459536D02*
X223030580Y-120545250D01*
X223030580Y-120545250D02*
X223078198Y-120673821D01*
X223078198Y-120673821D02*
X223078198Y-120888106D01*
X222173438Y-120030965D02*
X222125819Y-119988108D01*
X222125819Y-119988108D02*
X222078200Y-119902394D01*
X222078200Y-119902394D02*
X222078200Y-119688109D01*
X222078200Y-119688109D02*
X222125819Y-119602395D01*
X222125819Y-119602395D02*
X222173438Y-119559538D01*
X222173438Y-119559538D02*
X222268676Y-119516681D01*
X222268676Y-119516681D02*
X222363914Y-119516681D01*
X222363914Y-119516681D02*
X222506771Y-119559538D01*
X222506771Y-119559538D02*
X223078198Y-120073822D01*
X223078198Y-120073822D02*
X223078198Y-119516681D01*
X222078200Y-119216681D02*
X222078200Y-118616683D01*
X222078200Y-118616683D02*
X223078198Y-119002396D01*
X230444198Y-120888106D02*
X229444200Y-120888106D01*
X229444200Y-120888106D02*
X229444200Y-120673821D01*
X229444200Y-120673821D02*
X229491819Y-120545250D01*
X229491819Y-120545250D02*
X229587057Y-120459536D01*
X229587057Y-120459536D02*
X229682295Y-120416679D01*
X229682295Y-120416679D02*
X229872771Y-120373822D01*
X229872771Y-120373822D02*
X230015628Y-120373822D01*
X230015628Y-120373822D02*
X230206104Y-120416679D01*
X230206104Y-120416679D02*
X230301342Y-120459536D01*
X230301342Y-120459536D02*
X230396580Y-120545250D01*
X230396580Y-120545250D02*
X230444198Y-120673821D01*
X230444198Y-120673821D02*
X230444198Y-120888106D01*
X230444198Y-119516681D02*
X230444198Y-120030965D01*
X230444198Y-119773823D02*
X229444200Y-119773823D01*
X229444200Y-119773823D02*
X229587057Y-119859537D01*
X229587057Y-119859537D02*
X229682295Y-119945251D01*
X229682295Y-119945251D02*
X229729914Y-120030965D01*
X229444200Y-119216681D02*
X229444200Y-118659540D01*
X229444200Y-118659540D02*
X229825152Y-118959539D01*
X229825152Y-118959539D02*
X229825152Y-118830968D01*
X229825152Y-118830968D02*
X229872771Y-118745254D01*
X229872771Y-118745254D02*
X229920390Y-118702397D01*
X229920390Y-118702397D02*
X230015628Y-118659540D01*
X230015628Y-118659540D02*
X230253723Y-118659540D01*
X230253723Y-118659540D02*
X230348961Y-118702397D01*
X230348961Y-118702397D02*
X230396580Y-118745254D01*
X230396580Y-118745254D02*
X230444198Y-118830968D01*
X230444198Y-118830968D02*
X230444198Y-119088110D01*
X230444198Y-119088110D02*
X230396580Y-119173824D01*
X230396580Y-119173824D02*
X230348961Y-119216681D01*
X228158198Y-120888106D02*
X227158200Y-120888106D01*
X227158200Y-120888106D02*
X227158200Y-120673821D01*
X227158200Y-120673821D02*
X227205819Y-120545250D01*
X227205819Y-120545250D02*
X227301057Y-120459536D01*
X227301057Y-120459536D02*
X227396295Y-120416679D01*
X227396295Y-120416679D02*
X227586771Y-120373822D01*
X227586771Y-120373822D02*
X227729628Y-120373822D01*
X227729628Y-120373822D02*
X227920104Y-120416679D01*
X227920104Y-120416679D02*
X228015342Y-120459536D01*
X228015342Y-120459536D02*
X228110580Y-120545250D01*
X228110580Y-120545250D02*
X228158198Y-120673821D01*
X228158198Y-120673821D02*
X228158198Y-120888106D01*
X228158198Y-119516681D02*
X228158198Y-120030965D01*
X228158198Y-119773823D02*
X227158200Y-119773823D01*
X227158200Y-119773823D02*
X227301057Y-119859537D01*
X227301057Y-119859537D02*
X227396295Y-119945251D01*
X227396295Y-119945251D02*
X227443914Y-120030965D01*
X227253438Y-119173824D02*
X227205819Y-119130967D01*
X227205819Y-119130967D02*
X227158200Y-119045253D01*
X227158200Y-119045253D02*
X227158200Y-118830968D01*
X227158200Y-118830968D02*
X227205819Y-118745254D01*
X227205819Y-118745254D02*
X227253438Y-118702397D01*
X227253438Y-118702397D02*
X227348676Y-118659540D01*
X227348676Y-118659540D02*
X227443914Y-118659540D01*
X227443914Y-118659540D02*
X227586771Y-118702397D01*
X227586771Y-118702397D02*
X228158198Y-119216681D01*
X228158198Y-119216681D02*
X228158198Y-118659540D01*
X223078198Y-104355500D02*
X222078200Y-104355500D01*
X222078200Y-104355500D02*
X222078200Y-104141215D01*
X222078200Y-104141215D02*
X222125819Y-104012644D01*
X222125819Y-104012644D02*
X222221057Y-103926930D01*
X222221057Y-103926930D02*
X222316295Y-103884073D01*
X222316295Y-103884073D02*
X222506771Y-103841216D01*
X222506771Y-103841216D02*
X222649628Y-103841216D01*
X222649628Y-103841216D02*
X222840104Y-103884073D01*
X222840104Y-103884073D02*
X222935342Y-103926930D01*
X222935342Y-103926930D02*
X223030580Y-104012644D01*
X223030580Y-104012644D02*
X223078198Y-104141215D01*
X223078198Y-104141215D02*
X223078198Y-104355500D01*
X223078198Y-102984075D02*
X223078198Y-103498359D01*
X223078198Y-103241217D02*
X222078200Y-103241217D01*
X222078200Y-103241217D02*
X222221057Y-103326931D01*
X222221057Y-103326931D02*
X222316295Y-103412645D01*
X222316295Y-103412645D02*
X222363914Y-103498359D01*
X222078200Y-102212648D02*
X222078200Y-102384076D01*
X222078200Y-102384076D02*
X222125819Y-102469790D01*
X222125819Y-102469790D02*
X222173438Y-102512647D01*
X222173438Y-102512647D02*
X222316295Y-102598361D01*
X222316295Y-102598361D02*
X222506771Y-102641218D01*
X222506771Y-102641218D02*
X222887723Y-102641218D01*
X222887723Y-102641218D02*
X222982961Y-102598361D01*
X222982961Y-102598361D02*
X223030580Y-102555504D01*
X223030580Y-102555504D02*
X223078198Y-102469790D01*
X223078198Y-102469790D02*
X223078198Y-102298362D01*
X223078198Y-102298362D02*
X223030580Y-102212648D01*
X223030580Y-102212648D02*
X222982961Y-102169791D01*
X222982961Y-102169791D02*
X222887723Y-102126934D01*
X222887723Y-102126934D02*
X222649628Y-102126934D01*
X222649628Y-102126934D02*
X222554390Y-102169791D01*
X222554390Y-102169791D02*
X222506771Y-102212648D01*
X222506771Y-102212648D02*
X222459152Y-102298362D01*
X222459152Y-102298362D02*
X222459152Y-102469790D01*
X222459152Y-102469790D02*
X222506771Y-102555504D01*
X222506771Y-102555504D02*
X222554390Y-102598361D01*
X222554390Y-102598361D02*
X222649628Y-102641218D01*
X222030582Y-101098365D02*
X223316293Y-101869791D01*
X223078198Y-100284081D02*
X222602009Y-100584080D01*
X223078198Y-100798365D02*
X222078200Y-100798365D01*
X222078200Y-100798365D02*
X222078200Y-100455509D01*
X222078200Y-100455509D02*
X222125819Y-100369795D01*
X222125819Y-100369795D02*
X222173438Y-100326938D01*
X222173438Y-100326938D02*
X222268676Y-100284081D01*
X222268676Y-100284081D02*
X222411533Y-100284081D01*
X222411533Y-100284081D02*
X222506771Y-100326938D01*
X222506771Y-100326938D02*
X222554390Y-100369795D01*
X222554390Y-100369795D02*
X222602009Y-100455509D01*
X222602009Y-100455509D02*
X222602009Y-100798365D01*
X222078200Y-99984081D02*
X223078198Y-99384083D01*
X222078200Y-99384083D02*
X223078198Y-99984081D01*
X222173438Y-99084083D02*
X222125819Y-99041226D01*
X222125819Y-99041226D02*
X222078200Y-98955512D01*
X222078200Y-98955512D02*
X222078200Y-98741227D01*
X222078200Y-98741227D02*
X222125819Y-98655513D01*
X222125819Y-98655513D02*
X222173438Y-98612656D01*
X222173438Y-98612656D02*
X222268676Y-98569799D01*
X222268676Y-98569799D02*
X222363914Y-98569799D01*
X222363914Y-98569799D02*
X222506771Y-98612656D01*
X222506771Y-98612656D02*
X223078198Y-99126940D01*
X223078198Y-99126940D02*
X223078198Y-98569799D01*
X234778200Y-121016677D02*
X235778198Y-120716678D01*
X235778198Y-120716678D02*
X234778200Y-120416679D01*
X235778198Y-120116679D02*
X234778200Y-120116679D01*
X235778198Y-119688109D02*
X234778200Y-119688109D01*
X234778200Y-119688109D02*
X235778198Y-119173825D01*
X235778198Y-119173825D02*
X234778200Y-119173825D01*
X215458198Y-100568106D02*
X214458200Y-100568106D01*
X214458200Y-100568106D02*
X214458200Y-100353821D01*
X214458200Y-100353821D02*
X214505819Y-100225250D01*
X214505819Y-100225250D02*
X214601057Y-100139536D01*
X214601057Y-100139536D02*
X214696295Y-100096679D01*
X214696295Y-100096679D02*
X214886771Y-100053822D01*
X214886771Y-100053822D02*
X215029628Y-100053822D01*
X215029628Y-100053822D02*
X215220104Y-100096679D01*
X215220104Y-100096679D02*
X215315342Y-100139536D01*
X215315342Y-100139536D02*
X215410580Y-100225250D01*
X215410580Y-100225250D02*
X215458198Y-100353821D01*
X215458198Y-100353821D02*
X215458198Y-100568106D01*
X215458198Y-99196681D02*
X215458198Y-99710965D01*
X215458198Y-99453823D02*
X214458200Y-99453823D01*
X214458200Y-99453823D02*
X214601057Y-99539537D01*
X214601057Y-99539537D02*
X214696295Y-99625251D01*
X214696295Y-99625251D02*
X214743914Y-99710965D01*
X214886771Y-98682396D02*
X214839152Y-98768110D01*
X214839152Y-98768110D02*
X214791533Y-98810967D01*
X214791533Y-98810967D02*
X214696295Y-98853824D01*
X214696295Y-98853824D02*
X214648676Y-98853824D01*
X214648676Y-98853824D02*
X214553438Y-98810967D01*
X214553438Y-98810967D02*
X214505819Y-98768110D01*
X214505819Y-98768110D02*
X214458200Y-98682396D01*
X214458200Y-98682396D02*
X214458200Y-98510968D01*
X214458200Y-98510968D02*
X214505819Y-98425254D01*
X214505819Y-98425254D02*
X214553438Y-98382397D01*
X214553438Y-98382397D02*
X214648676Y-98339540D01*
X214648676Y-98339540D02*
X214696295Y-98339540D01*
X214696295Y-98339540D02*
X214791533Y-98382397D01*
X214791533Y-98382397D02*
X214839152Y-98425254D01*
X214839152Y-98425254D02*
X214886771Y-98510968D01*
X214886771Y-98510968D02*
X214886771Y-98682396D01*
X214886771Y-98682396D02*
X214934390Y-98768110D01*
X214934390Y-98768110D02*
X214982009Y-98810967D01*
X214982009Y-98810967D02*
X215077247Y-98853824D01*
X215077247Y-98853824D02*
X215267723Y-98853824D01*
X215267723Y-98853824D02*
X215362961Y-98810967D01*
X215362961Y-98810967D02*
X215410580Y-98768110D01*
X215410580Y-98768110D02*
X215458198Y-98682396D01*
X215458198Y-98682396D02*
X215458198Y-98510968D01*
X215458198Y-98510968D02*
X215410580Y-98425254D01*
X215410580Y-98425254D02*
X215362961Y-98382397D01*
X215362961Y-98382397D02*
X215267723Y-98339540D01*
X215267723Y-98339540D02*
X215077247Y-98339540D01*
X215077247Y-98339540D02*
X214982009Y-98382397D01*
X214982009Y-98382397D02*
X214934390Y-98425254D01*
X214934390Y-98425254D02*
X214886771Y-98510968D01*
X207838198Y-100053822D02*
X207362009Y-100353821D01*
X207838198Y-100568106D02*
X206838200Y-100568106D01*
X206838200Y-100568106D02*
X206838200Y-100225250D01*
X206838200Y-100225250D02*
X206885819Y-100139536D01*
X206885819Y-100139536D02*
X206933438Y-100096679D01*
X206933438Y-100096679D02*
X207028676Y-100053822D01*
X207028676Y-100053822D02*
X207171533Y-100053822D01*
X207171533Y-100053822D02*
X207266771Y-100096679D01*
X207266771Y-100096679D02*
X207314390Y-100139536D01*
X207314390Y-100139536D02*
X207362009Y-100225250D01*
X207362009Y-100225250D02*
X207362009Y-100568106D01*
X206838200Y-99753822D02*
X207838198Y-99153824D01*
X206838200Y-99153824D02*
X207838198Y-99753822D01*
X206838200Y-98639539D02*
X206838200Y-98553825D01*
X206838200Y-98553825D02*
X206885819Y-98468111D01*
X206885819Y-98468111D02*
X206933438Y-98425254D01*
X206933438Y-98425254D02*
X207028676Y-98382397D01*
X207028676Y-98382397D02*
X207219152Y-98339540D01*
X207219152Y-98339540D02*
X207457247Y-98339540D01*
X207457247Y-98339540D02*
X207647723Y-98382397D01*
X207647723Y-98382397D02*
X207742961Y-98425254D01*
X207742961Y-98425254D02*
X207790580Y-98468111D01*
X207790580Y-98468111D02*
X207838198Y-98553825D01*
X207838198Y-98553825D02*
X207838198Y-98639539D01*
X207838198Y-98639539D02*
X207790580Y-98725253D01*
X207790580Y-98725253D02*
X207742961Y-98768110D01*
X207742961Y-98768110D02*
X207647723Y-98810967D01*
X207647723Y-98810967D02*
X207457247Y-98853824D01*
X207457247Y-98853824D02*
X207219152Y-98853824D01*
X207219152Y-98853824D02*
X207028676Y-98810967D01*
X207028676Y-98810967D02*
X206933438Y-98768110D01*
X206933438Y-98768110D02*
X206885819Y-98725253D01*
X206885819Y-98725253D02*
X206838200Y-98639539D01*
X217998198Y-100568106D02*
X216998200Y-100568106D01*
X216998200Y-100568106D02*
X216998200Y-100353821D01*
X216998200Y-100353821D02*
X217045819Y-100225250D01*
X217045819Y-100225250D02*
X217141057Y-100139536D01*
X217141057Y-100139536D02*
X217236295Y-100096679D01*
X217236295Y-100096679D02*
X217426771Y-100053822D01*
X217426771Y-100053822D02*
X217569628Y-100053822D01*
X217569628Y-100053822D02*
X217760104Y-100096679D01*
X217760104Y-100096679D02*
X217855342Y-100139536D01*
X217855342Y-100139536D02*
X217950580Y-100225250D01*
X217950580Y-100225250D02*
X217998198Y-100353821D01*
X217998198Y-100353821D02*
X217998198Y-100568106D01*
X216998200Y-99496680D02*
X216998200Y-99410966D01*
X216998200Y-99410966D02*
X217045819Y-99325252D01*
X217045819Y-99325252D02*
X217093438Y-99282395D01*
X217093438Y-99282395D02*
X217188676Y-99239538D01*
X217188676Y-99239538D02*
X217379152Y-99196681D01*
X217379152Y-99196681D02*
X217617247Y-99196681D01*
X217617247Y-99196681D02*
X217807723Y-99239538D01*
X217807723Y-99239538D02*
X217902961Y-99282395D01*
X217902961Y-99282395D02*
X217950580Y-99325252D01*
X217950580Y-99325252D02*
X217998198Y-99410966D01*
X217998198Y-99410966D02*
X217998198Y-99496680D01*
X217998198Y-99496680D02*
X217950580Y-99582394D01*
X217950580Y-99582394D02*
X217902961Y-99625251D01*
X217902961Y-99625251D02*
X217807723Y-99668108D01*
X217807723Y-99668108D02*
X217617247Y-99710965D01*
X217617247Y-99710965D02*
X217379152Y-99710965D01*
X217379152Y-99710965D02*
X217188676Y-99668108D01*
X217188676Y-99668108D02*
X217093438Y-99625251D01*
X217093438Y-99625251D02*
X217045819Y-99582394D01*
X217045819Y-99582394D02*
X216998200Y-99496680D01*
X216998200Y-98382397D02*
X216998200Y-98810967D01*
X216998200Y-98810967D02*
X217474390Y-98853824D01*
X217474390Y-98853824D02*
X217426771Y-98810967D01*
X217426771Y-98810967D02*
X217379152Y-98725253D01*
X217379152Y-98725253D02*
X217379152Y-98510968D01*
X217379152Y-98510968D02*
X217426771Y-98425254D01*
X217426771Y-98425254D02*
X217474390Y-98382397D01*
X217474390Y-98382397D02*
X217569628Y-98339540D01*
X217569628Y-98339540D02*
X217807723Y-98339540D01*
X217807723Y-98339540D02*
X217902961Y-98382397D01*
X217902961Y-98382397D02*
X217950580Y-98425254D01*
X217950580Y-98425254D02*
X217998198Y-98510968D01*
X217998198Y-98510968D02*
X217998198Y-98725253D01*
X217998198Y-98725253D02*
X217950580Y-98810967D01*
X217950580Y-98810967D02*
X217902961Y-98853824D01*
X230444198Y-100568106D02*
X229444200Y-100568106D01*
X229444200Y-100568106D02*
X229444200Y-100353821D01*
X229444200Y-100353821D02*
X229491819Y-100225250D01*
X229491819Y-100225250D02*
X229587057Y-100139536D01*
X229587057Y-100139536D02*
X229682295Y-100096679D01*
X229682295Y-100096679D02*
X229872771Y-100053822D01*
X229872771Y-100053822D02*
X230015628Y-100053822D01*
X230015628Y-100053822D02*
X230206104Y-100096679D01*
X230206104Y-100096679D02*
X230301342Y-100139536D01*
X230301342Y-100139536D02*
X230396580Y-100225250D01*
X230396580Y-100225250D02*
X230444198Y-100353821D01*
X230444198Y-100353821D02*
X230444198Y-100568106D01*
X230444198Y-99196681D02*
X230444198Y-99710965D01*
X230444198Y-99453823D02*
X229444200Y-99453823D01*
X229444200Y-99453823D02*
X229587057Y-99539537D01*
X229587057Y-99539537D02*
X229682295Y-99625251D01*
X229682295Y-99625251D02*
X229729914Y-99710965D01*
X229444200Y-98382397D02*
X229444200Y-98810967D01*
X229444200Y-98810967D02*
X229920390Y-98853824D01*
X229920390Y-98853824D02*
X229872771Y-98810967D01*
X229872771Y-98810967D02*
X229825152Y-98725253D01*
X229825152Y-98725253D02*
X229825152Y-98510968D01*
X229825152Y-98510968D02*
X229872771Y-98425254D01*
X229872771Y-98425254D02*
X229920390Y-98382397D01*
X229920390Y-98382397D02*
X230015628Y-98339540D01*
X230015628Y-98339540D02*
X230253723Y-98339540D01*
X230253723Y-98339540D02*
X230348961Y-98382397D01*
X230348961Y-98382397D02*
X230396580Y-98425254D01*
X230396580Y-98425254D02*
X230444198Y-98510968D01*
X230444198Y-98510968D02*
X230444198Y-98725253D01*
X230444198Y-98725253D02*
X230396580Y-98810967D01*
X230396580Y-98810967D02*
X230348961Y-98853824D01*
X212918198Y-120888106D02*
X211918200Y-120888106D01*
X211918200Y-120888106D02*
X211918200Y-120673821D01*
X211918200Y-120673821D02*
X211965819Y-120545250D01*
X211965819Y-120545250D02*
X212061057Y-120459536D01*
X212061057Y-120459536D02*
X212156295Y-120416679D01*
X212156295Y-120416679D02*
X212346771Y-120373822D01*
X212346771Y-120373822D02*
X212489628Y-120373822D01*
X212489628Y-120373822D02*
X212680104Y-120416679D01*
X212680104Y-120416679D02*
X212775342Y-120459536D01*
X212775342Y-120459536D02*
X212870580Y-120545250D01*
X212870580Y-120545250D02*
X212918198Y-120673821D01*
X212918198Y-120673821D02*
X212918198Y-120888106D01*
X211918200Y-120073822D02*
X211918200Y-119516681D01*
X211918200Y-119516681D02*
X212299152Y-119816680D01*
X212299152Y-119816680D02*
X212299152Y-119688109D01*
X212299152Y-119688109D02*
X212346771Y-119602395D01*
X212346771Y-119602395D02*
X212394390Y-119559538D01*
X212394390Y-119559538D02*
X212489628Y-119516681D01*
X212489628Y-119516681D02*
X212727723Y-119516681D01*
X212727723Y-119516681D02*
X212822961Y-119559538D01*
X212822961Y-119559538D02*
X212870580Y-119602395D01*
X212870580Y-119602395D02*
X212918198Y-119688109D01*
X212918198Y-119688109D02*
X212918198Y-119945251D01*
X212918198Y-119945251D02*
X212870580Y-120030965D01*
X212870580Y-120030965D02*
X212822961Y-120073822D01*
X212013438Y-119173824D02*
X211965819Y-119130967D01*
X211965819Y-119130967D02*
X211918200Y-119045253D01*
X211918200Y-119045253D02*
X211918200Y-118830968D01*
X211918200Y-118830968D02*
X211965819Y-118745254D01*
X211965819Y-118745254D02*
X212013438Y-118702397D01*
X212013438Y-118702397D02*
X212108676Y-118659540D01*
X212108676Y-118659540D02*
X212203914Y-118659540D01*
X212203914Y-118659540D02*
X212346771Y-118702397D01*
X212346771Y-118702397D02*
X212918198Y-119216681D01*
X212918198Y-119216681D02*
X212918198Y-118659540D01*
X239415842Y-103061944D02*
X239463461Y-102933373D01*
X239463461Y-102933373D02*
X239511080Y-102890516D01*
X239511080Y-102890516D02*
X239606318Y-102847659D01*
X239606318Y-102847659D02*
X239749175Y-102847659D01*
X239749175Y-102847659D02*
X239844413Y-102890516D01*
X239844413Y-102890516D02*
X239892032Y-102933373D01*
X239892032Y-102933373D02*
X239939650Y-103019087D01*
X239939650Y-103019087D02*
X239939650Y-103361943D01*
X239939650Y-103361943D02*
X238939652Y-103361943D01*
X238939652Y-103361943D02*
X238939652Y-103061944D01*
X238939652Y-103061944D02*
X238987271Y-102976230D01*
X238987271Y-102976230D02*
X239034890Y-102933373D01*
X239034890Y-102933373D02*
X239130128Y-102890516D01*
X239130128Y-102890516D02*
X239225366Y-102890516D01*
X239225366Y-102890516D02*
X239320604Y-102933373D01*
X239320604Y-102933373D02*
X239368223Y-102976230D01*
X239368223Y-102976230D02*
X239415842Y-103061944D01*
X239415842Y-103061944D02*
X239415842Y-103361943D01*
X239939650Y-102333374D02*
X239892032Y-102419088D01*
X239892032Y-102419088D02*
X239844413Y-102461945D01*
X239844413Y-102461945D02*
X239749175Y-102504802D01*
X239749175Y-102504802D02*
X239463461Y-102504802D01*
X239463461Y-102504802D02*
X239368223Y-102461945D01*
X239368223Y-102461945D02*
X239320604Y-102419088D01*
X239320604Y-102419088D02*
X239272985Y-102333374D01*
X239272985Y-102333374D02*
X239272985Y-102204803D01*
X239272985Y-102204803D02*
X239320604Y-102119089D01*
X239320604Y-102119089D02*
X239368223Y-102076232D01*
X239368223Y-102076232D02*
X239463461Y-102033375D01*
X239463461Y-102033375D02*
X239749175Y-102033375D01*
X239749175Y-102033375D02*
X239844413Y-102076232D01*
X239844413Y-102076232D02*
X239892032Y-102119089D01*
X239892032Y-102119089D02*
X239939650Y-102204803D01*
X239939650Y-102204803D02*
X239939650Y-102333374D01*
X239939650Y-101519090D02*
X239892032Y-101604804D01*
X239892032Y-101604804D02*
X239844413Y-101647661D01*
X239844413Y-101647661D02*
X239749175Y-101690518D01*
X239749175Y-101690518D02*
X239463461Y-101690518D01*
X239463461Y-101690518D02*
X239368223Y-101647661D01*
X239368223Y-101647661D02*
X239320604Y-101604804D01*
X239320604Y-101604804D02*
X239272985Y-101519090D01*
X239272985Y-101519090D02*
X239272985Y-101390519D01*
X239272985Y-101390519D02*
X239320604Y-101304805D01*
X239320604Y-101304805D02*
X239368223Y-101261948D01*
X239368223Y-101261948D02*
X239463461Y-101219091D01*
X239463461Y-101219091D02*
X239749175Y-101219091D01*
X239749175Y-101219091D02*
X239844413Y-101261948D01*
X239844413Y-101261948D02*
X239892032Y-101304805D01*
X239892032Y-101304805D02*
X239939650Y-101390519D01*
X239939650Y-101390519D02*
X239939650Y-101519090D01*
X239272985Y-100961948D02*
X239272985Y-100619092D01*
X238939652Y-100833377D02*
X239796794Y-100833377D01*
X239796794Y-100833377D02*
X239892032Y-100790520D01*
X239892032Y-100790520D02*
X239939650Y-100704806D01*
X239939650Y-100704806D02*
X239939650Y-100619092D01*
X239415842Y-119363943D02*
X239415842Y-119063944D01*
X239939650Y-118935373D02*
X239939650Y-119363943D01*
X239939650Y-119363943D02*
X238939652Y-119363943D01*
X238939652Y-119363943D02*
X238939652Y-118935373D01*
X239272985Y-118549659D02*
X239939650Y-118549659D01*
X239368223Y-118549659D02*
X239320604Y-118506802D01*
X239320604Y-118506802D02*
X239272985Y-118421088D01*
X239272985Y-118421088D02*
X239272985Y-118292517D01*
X239272985Y-118292517D02*
X239320604Y-118206803D01*
X239320604Y-118206803D02*
X239415842Y-118163946D01*
X239415842Y-118163946D02*
X239939650Y-118163946D01*
X239939650Y-117349662D02*
X239415842Y-117349662D01*
X239415842Y-117349662D02*
X239320604Y-117392519D01*
X239320604Y-117392519D02*
X239272985Y-117478233D01*
X239272985Y-117478233D02*
X239272985Y-117649661D01*
X239272985Y-117649661D02*
X239320604Y-117735375D01*
X239892032Y-117349662D02*
X239939650Y-117435376D01*
X239939650Y-117435376D02*
X239939650Y-117649661D01*
X239939650Y-117649661D02*
X239892032Y-117735375D01*
X239892032Y-117735375D02*
X239796794Y-117778232D01*
X239796794Y-117778232D02*
X239701556Y-117778232D01*
X239701556Y-117778232D02*
X239606318Y-117735375D01*
X239606318Y-117735375D02*
X239558699Y-117649661D01*
X239558699Y-117649661D02*
X239558699Y-117435376D01*
X239558699Y-117435376D02*
X239511080Y-117349662D01*
X239939650Y-116921091D02*
X238939652Y-116921091D01*
X239320604Y-116921091D02*
X239272985Y-116835377D01*
X239272985Y-116835377D02*
X239272985Y-116663949D01*
X239272985Y-116663949D02*
X239320604Y-116578235D01*
X239320604Y-116578235D02*
X239368223Y-116535378D01*
X239368223Y-116535378D02*
X239463461Y-116492521D01*
X239463461Y-116492521D02*
X239749175Y-116492521D01*
X239749175Y-116492521D02*
X239844413Y-116535378D01*
X239844413Y-116535378D02*
X239892032Y-116578235D01*
X239892032Y-116578235D02*
X239939650Y-116663949D01*
X239939650Y-116663949D02*
X239939650Y-116835377D01*
X239939650Y-116835377D02*
X239892032Y-116921091D01*
X239939650Y-115978236D02*
X239892032Y-116063950D01*
X239892032Y-116063950D02*
X239796794Y-116106807D01*
X239796794Y-116106807D02*
X238939652Y-116106807D01*
X239892032Y-115292523D02*
X239939650Y-115378237D01*
X239939650Y-115378237D02*
X239939650Y-115549665D01*
X239939650Y-115549665D02*
X239892032Y-115635379D01*
X239892032Y-115635379D02*
X239796794Y-115678236D01*
X239796794Y-115678236D02*
X239415842Y-115678236D01*
X239415842Y-115678236D02*
X239320604Y-115635379D01*
X239320604Y-115635379D02*
X239272985Y-115549665D01*
X239272985Y-115549665D02*
X239272985Y-115378237D01*
X239272985Y-115378237D02*
X239320604Y-115292523D01*
X239320604Y-115292523D02*
X239415842Y-115249666D01*
X239415842Y-115249666D02*
X239511080Y-115249666D01*
X239511080Y-115249666D02*
X239606318Y-115678236D01*
X212918198Y-100568106D02*
X211918200Y-100568106D01*
X211918200Y-100568106D02*
X211918200Y-100353821D01*
X211918200Y-100353821D02*
X211965819Y-100225250D01*
X211965819Y-100225250D02*
X212061057Y-100139536D01*
X212061057Y-100139536D02*
X212156295Y-100096679D01*
X212156295Y-100096679D02*
X212346771Y-100053822D01*
X212346771Y-100053822D02*
X212489628Y-100053822D01*
X212489628Y-100053822D02*
X212680104Y-100096679D01*
X212680104Y-100096679D02*
X212775342Y-100139536D01*
X212775342Y-100139536D02*
X212870580Y-100225250D01*
X212870580Y-100225250D02*
X212918198Y-100353821D01*
X212918198Y-100353821D02*
X212918198Y-100568106D01*
X212918198Y-99196681D02*
X212918198Y-99710965D01*
X212918198Y-99453823D02*
X211918200Y-99453823D01*
X211918200Y-99453823D02*
X212061057Y-99539537D01*
X212061057Y-99539537D02*
X212156295Y-99625251D01*
X212156295Y-99625251D02*
X212203914Y-99710965D01*
X212918198Y-98768110D02*
X212918198Y-98596682D01*
X212918198Y-98596682D02*
X212870580Y-98510968D01*
X212870580Y-98510968D02*
X212822961Y-98468111D01*
X212822961Y-98468111D02*
X212680104Y-98382397D01*
X212680104Y-98382397D02*
X212489628Y-98339540D01*
X212489628Y-98339540D02*
X212108676Y-98339540D01*
X212108676Y-98339540D02*
X212013438Y-98382397D01*
X212013438Y-98382397D02*
X211965819Y-98425254D01*
X211965819Y-98425254D02*
X211918200Y-98510968D01*
X211918200Y-98510968D02*
X211918200Y-98682396D01*
X211918200Y-98682396D02*
X211965819Y-98768110D01*
X211965819Y-98768110D02*
X212013438Y-98810967D01*
X212013438Y-98810967D02*
X212108676Y-98853824D01*
X212108676Y-98853824D02*
X212346771Y-98853824D01*
X212346771Y-98853824D02*
X212442009Y-98810967D01*
X212442009Y-98810967D02*
X212489628Y-98768110D01*
X212489628Y-98768110D02*
X212537247Y-98682396D01*
X212537247Y-98682396D02*
X212537247Y-98510968D01*
X212537247Y-98510968D02*
X212489628Y-98425254D01*
X212489628Y-98425254D02*
X212442009Y-98382397D01*
X212442009Y-98382397D02*
X212346771Y-98339540D01*
X232285819Y-100096679D02*
X232238200Y-100182393D01*
X232238200Y-100182393D02*
X232238200Y-100310964D01*
X232238200Y-100310964D02*
X232285819Y-100439535D01*
X232285819Y-100439535D02*
X232381057Y-100525249D01*
X232381057Y-100525249D02*
X232476295Y-100568106D01*
X232476295Y-100568106D02*
X232666771Y-100610963D01*
X232666771Y-100610963D02*
X232809628Y-100610963D01*
X232809628Y-100610963D02*
X233000104Y-100568106D01*
X233000104Y-100568106D02*
X233095342Y-100525249D01*
X233095342Y-100525249D02*
X233190580Y-100439535D01*
X233190580Y-100439535D02*
X233238198Y-100310964D01*
X233238198Y-100310964D02*
X233238198Y-100225250D01*
X233238198Y-100225250D02*
X233190580Y-100096679D01*
X233190580Y-100096679D02*
X233142961Y-100053822D01*
X233142961Y-100053822D02*
X232809628Y-100053822D01*
X232809628Y-100053822D02*
X232809628Y-100225250D01*
X233238198Y-99668108D02*
X232238200Y-99668108D01*
X232238200Y-99668108D02*
X233238198Y-99153824D01*
X233238198Y-99153824D02*
X232238200Y-99153824D01*
X233238198Y-98725253D02*
X232238200Y-98725253D01*
X232238200Y-98725253D02*
X232238200Y-98510968D01*
X232238200Y-98510968D02*
X232285819Y-98382397D01*
X232285819Y-98382397D02*
X232381057Y-98296683D01*
X232381057Y-98296683D02*
X232476295Y-98253826D01*
X232476295Y-98253826D02*
X232666771Y-98210969D01*
X232666771Y-98210969D02*
X232809628Y-98210969D01*
X232809628Y-98210969D02*
X233000104Y-98253826D01*
X233000104Y-98253826D02*
X233095342Y-98296683D01*
X233095342Y-98296683D02*
X233190580Y-98382397D01*
X233190580Y-98382397D02*
X233238198Y-98510968D01*
X233238198Y-98510968D02*
X233238198Y-98725253D01*
X210378198Y-120888106D02*
X209378200Y-120888106D01*
X209378200Y-120888106D02*
X209378200Y-120673821D01*
X209378200Y-120673821D02*
X209425819Y-120545250D01*
X209425819Y-120545250D02*
X209521057Y-120459536D01*
X209521057Y-120459536D02*
X209616295Y-120416679D01*
X209616295Y-120416679D02*
X209806771Y-120373822D01*
X209806771Y-120373822D02*
X209949628Y-120373822D01*
X209949628Y-120373822D02*
X210140104Y-120416679D01*
X210140104Y-120416679D02*
X210235342Y-120459536D01*
X210235342Y-120459536D02*
X210330580Y-120545250D01*
X210330580Y-120545250D02*
X210378198Y-120673821D01*
X210378198Y-120673821D02*
X210378198Y-120888106D01*
X209378200Y-120073822D02*
X209378200Y-119516681D01*
X209378200Y-119516681D02*
X209759152Y-119816680D01*
X209759152Y-119816680D02*
X209759152Y-119688109D01*
X209759152Y-119688109D02*
X209806771Y-119602395D01*
X209806771Y-119602395D02*
X209854390Y-119559538D01*
X209854390Y-119559538D02*
X209949628Y-119516681D01*
X209949628Y-119516681D02*
X210187723Y-119516681D01*
X210187723Y-119516681D02*
X210282961Y-119559538D01*
X210282961Y-119559538D02*
X210330580Y-119602395D01*
X210330580Y-119602395D02*
X210378198Y-119688109D01*
X210378198Y-119688109D02*
X210378198Y-119945251D01*
X210378198Y-119945251D02*
X210330580Y-120030965D01*
X210330580Y-120030965D02*
X210282961Y-120073822D01*
X209378200Y-118702397D02*
X209378200Y-119130967D01*
X209378200Y-119130967D02*
X209854390Y-119173824D01*
X209854390Y-119173824D02*
X209806771Y-119130967D01*
X209806771Y-119130967D02*
X209759152Y-119045253D01*
X209759152Y-119045253D02*
X209759152Y-118830968D01*
X209759152Y-118830968D02*
X209806771Y-118745254D01*
X209806771Y-118745254D02*
X209854390Y-118702397D01*
X209854390Y-118702397D02*
X209949628Y-118659540D01*
X209949628Y-118659540D02*
X210187723Y-118659540D01*
X210187723Y-118659540D02*
X210282961Y-118702397D01*
X210282961Y-118702397D02*
X210330580Y-118745254D01*
X210330580Y-118745254D02*
X210378198Y-118830968D01*
X210378198Y-118830968D02*
X210378198Y-119045253D01*
X210378198Y-119045253D02*
X210330580Y-119130967D01*
X210330580Y-119130967D02*
X210282961Y-119173824D01*
X228158198Y-100568106D02*
X227158200Y-100568106D01*
X227158200Y-100568106D02*
X227158200Y-100353821D01*
X227158200Y-100353821D02*
X227205819Y-100225250D01*
X227205819Y-100225250D02*
X227301057Y-100139536D01*
X227301057Y-100139536D02*
X227396295Y-100096679D01*
X227396295Y-100096679D02*
X227586771Y-100053822D01*
X227586771Y-100053822D02*
X227729628Y-100053822D01*
X227729628Y-100053822D02*
X227920104Y-100096679D01*
X227920104Y-100096679D02*
X228015342Y-100139536D01*
X228015342Y-100139536D02*
X228110580Y-100225250D01*
X228110580Y-100225250D02*
X228158198Y-100353821D01*
X228158198Y-100353821D02*
X228158198Y-100568106D01*
X227158200Y-99496680D02*
X227158200Y-99410966D01*
X227158200Y-99410966D02*
X227205819Y-99325252D01*
X227205819Y-99325252D02*
X227253438Y-99282395D01*
X227253438Y-99282395D02*
X227348676Y-99239538D01*
X227348676Y-99239538D02*
X227539152Y-99196681D01*
X227539152Y-99196681D02*
X227777247Y-99196681D01*
X227777247Y-99196681D02*
X227967723Y-99239538D01*
X227967723Y-99239538D02*
X228062961Y-99282395D01*
X228062961Y-99282395D02*
X228110580Y-99325252D01*
X228110580Y-99325252D02*
X228158198Y-99410966D01*
X228158198Y-99410966D02*
X228158198Y-99496680D01*
X228158198Y-99496680D02*
X228110580Y-99582394D01*
X228110580Y-99582394D02*
X228062961Y-99625251D01*
X228062961Y-99625251D02*
X227967723Y-99668108D01*
X227967723Y-99668108D02*
X227777247Y-99710965D01*
X227777247Y-99710965D02*
X227539152Y-99710965D01*
X227539152Y-99710965D02*
X227348676Y-99668108D01*
X227348676Y-99668108D02*
X227253438Y-99625251D01*
X227253438Y-99625251D02*
X227205819Y-99582394D01*
X227205819Y-99582394D02*
X227158200Y-99496680D01*
X227253438Y-98853824D02*
X227205819Y-98810967D01*
X227205819Y-98810967D02*
X227158200Y-98725253D01*
X227158200Y-98725253D02*
X227158200Y-98510968D01*
X227158200Y-98510968D02*
X227205819Y-98425254D01*
X227205819Y-98425254D02*
X227253438Y-98382397D01*
X227253438Y-98382397D02*
X227348676Y-98339540D01*
X227348676Y-98339540D02*
X227443914Y-98339540D01*
X227443914Y-98339540D02*
X227586771Y-98382397D01*
X227586771Y-98382397D02*
X228158198Y-98896681D01*
X228158198Y-98896681D02*
X228158198Y-98339540D01*
X234778200Y-100653820D02*
X234778200Y-100096679D01*
X234778200Y-100096679D02*
X235159152Y-100396678D01*
X235159152Y-100396678D02*
X235159152Y-100268107D01*
X235159152Y-100268107D02*
X235206771Y-100182393D01*
X235206771Y-100182393D02*
X235254390Y-100139536D01*
X235254390Y-100139536D02*
X235349628Y-100096679D01*
X235349628Y-100096679D02*
X235587723Y-100096679D01*
X235587723Y-100096679D02*
X235682961Y-100139536D01*
X235682961Y-100139536D02*
X235730580Y-100182393D01*
X235730580Y-100182393D02*
X235778198Y-100268107D01*
X235778198Y-100268107D02*
X235778198Y-100525249D01*
X235778198Y-100525249D02*
X235730580Y-100610963D01*
X235730580Y-100610963D02*
X235682961Y-100653820D01*
X234778200Y-99839536D02*
X235778198Y-99539537D01*
X235778198Y-99539537D02*
X234778200Y-99239538D01*
X234778200Y-99025252D02*
X234778200Y-98468111D01*
X234778200Y-98468111D02*
X235159152Y-98768110D01*
X235159152Y-98768110D02*
X235159152Y-98639539D01*
X235159152Y-98639539D02*
X235206771Y-98553825D01*
X235206771Y-98553825D02*
X235254390Y-98510968D01*
X235254390Y-98510968D02*
X235349628Y-98468111D01*
X235349628Y-98468111D02*
X235587723Y-98468111D01*
X235587723Y-98468111D02*
X235682961Y-98510968D01*
X235682961Y-98510968D02*
X235730580Y-98553825D01*
X235730580Y-98553825D02*
X235778198Y-98639539D01*
X235778198Y-98639539D02*
X235778198Y-98896681D01*
X235778198Y-98896681D02*
X235730580Y-98982395D01*
X235730580Y-98982395D02*
X235682961Y-99025252D01*
X202758198Y-100568106D02*
X201758200Y-100568106D01*
X201758200Y-100568106D02*
X201758200Y-100353821D01*
X201758200Y-100353821D02*
X201805819Y-100225250D01*
X201805819Y-100225250D02*
X201901057Y-100139536D01*
X201901057Y-100139536D02*
X201996295Y-100096679D01*
X201996295Y-100096679D02*
X202186771Y-100053822D01*
X202186771Y-100053822D02*
X202329628Y-100053822D01*
X202329628Y-100053822D02*
X202520104Y-100096679D01*
X202520104Y-100096679D02*
X202615342Y-100139536D01*
X202615342Y-100139536D02*
X202710580Y-100225250D01*
X202710580Y-100225250D02*
X202758198Y-100353821D01*
X202758198Y-100353821D02*
X202758198Y-100568106D01*
X201853438Y-99710965D02*
X201805819Y-99668108D01*
X201805819Y-99668108D02*
X201758200Y-99582394D01*
X201758200Y-99582394D02*
X201758200Y-99368109D01*
X201758200Y-99368109D02*
X201805819Y-99282395D01*
X201805819Y-99282395D02*
X201853438Y-99239538D01*
X201853438Y-99239538D02*
X201948676Y-99196681D01*
X201948676Y-99196681D02*
X202043914Y-99196681D01*
X202043914Y-99196681D02*
X202186771Y-99239538D01*
X202186771Y-99239538D02*
X202758198Y-99753822D01*
X202758198Y-99753822D02*
X202758198Y-99196681D01*
X201853438Y-98853824D02*
X201805819Y-98810967D01*
X201805819Y-98810967D02*
X201758200Y-98725253D01*
X201758200Y-98725253D02*
X201758200Y-98510968D01*
X201758200Y-98510968D02*
X201805819Y-98425254D01*
X201805819Y-98425254D02*
X201853438Y-98382397D01*
X201853438Y-98382397D02*
X201948676Y-98339540D01*
X201948676Y-98339540D02*
X202043914Y-98339540D01*
X202043914Y-98339540D02*
X202186771Y-98382397D01*
X202186771Y-98382397D02*
X202758198Y-98896681D01*
X202758198Y-98896681D02*
X202758198Y-98339540D01*
X220538198Y-120888106D02*
X219538200Y-120888106D01*
X219538200Y-120888106D02*
X219538200Y-120673821D01*
X219538200Y-120673821D02*
X219585819Y-120545250D01*
X219585819Y-120545250D02*
X219681057Y-120459536D01*
X219681057Y-120459536D02*
X219776295Y-120416679D01*
X219776295Y-120416679D02*
X219966771Y-120373822D01*
X219966771Y-120373822D02*
X220109628Y-120373822D01*
X220109628Y-120373822D02*
X220300104Y-120416679D01*
X220300104Y-120416679D02*
X220395342Y-120459536D01*
X220395342Y-120459536D02*
X220490580Y-120545250D01*
X220490580Y-120545250D02*
X220538198Y-120673821D01*
X220538198Y-120673821D02*
X220538198Y-120888106D01*
X219633438Y-120030965D02*
X219585819Y-119988108D01*
X219585819Y-119988108D02*
X219538200Y-119902394D01*
X219538200Y-119902394D02*
X219538200Y-119688109D01*
X219538200Y-119688109D02*
X219585819Y-119602395D01*
X219585819Y-119602395D02*
X219633438Y-119559538D01*
X219633438Y-119559538D02*
X219728676Y-119516681D01*
X219728676Y-119516681D02*
X219823914Y-119516681D01*
X219823914Y-119516681D02*
X219966771Y-119559538D01*
X219966771Y-119559538D02*
X220538198Y-120073822D01*
X220538198Y-120073822D02*
X220538198Y-119516681D01*
X219538200Y-118745254D02*
X219538200Y-118916682D01*
X219538200Y-118916682D02*
X219585819Y-119002396D01*
X219585819Y-119002396D02*
X219633438Y-119045253D01*
X219633438Y-119045253D02*
X219776295Y-119130967D01*
X219776295Y-119130967D02*
X219966771Y-119173824D01*
X219966771Y-119173824D02*
X220347723Y-119173824D01*
X220347723Y-119173824D02*
X220442961Y-119130967D01*
X220442961Y-119130967D02*
X220490580Y-119088110D01*
X220490580Y-119088110D02*
X220538198Y-119002396D01*
X220538198Y-119002396D02*
X220538198Y-118830968D01*
X220538198Y-118830968D02*
X220490580Y-118745254D01*
X220490580Y-118745254D02*
X220442961Y-118702397D01*
X220442961Y-118702397D02*
X220347723Y-118659540D01*
X220347723Y-118659540D02*
X220109628Y-118659540D01*
X220109628Y-118659540D02*
X220014390Y-118702397D01*
X220014390Y-118702397D02*
X219966771Y-118745254D01*
X219966771Y-118745254D02*
X219919152Y-118830968D01*
X219919152Y-118830968D02*
X219919152Y-119002396D01*
X219919152Y-119002396D02*
X219966771Y-119088110D01*
X219966771Y-119088110D02*
X220014390Y-119130967D01*
X220014390Y-119130967D02*
X220109628Y-119173824D01*
X225618198Y-120888106D02*
X224618200Y-120888106D01*
X224618200Y-120888106D02*
X224618200Y-120673821D01*
X224618200Y-120673821D02*
X224665819Y-120545250D01*
X224665819Y-120545250D02*
X224761057Y-120459536D01*
X224761057Y-120459536D02*
X224856295Y-120416679D01*
X224856295Y-120416679D02*
X225046771Y-120373822D01*
X225046771Y-120373822D02*
X225189628Y-120373822D01*
X225189628Y-120373822D02*
X225380104Y-120416679D01*
X225380104Y-120416679D02*
X225475342Y-120459536D01*
X225475342Y-120459536D02*
X225570580Y-120545250D01*
X225570580Y-120545250D02*
X225618198Y-120673821D01*
X225618198Y-120673821D02*
X225618198Y-120888106D01*
X225618198Y-119516681D02*
X225618198Y-120030965D01*
X225618198Y-119773823D02*
X224618200Y-119773823D01*
X224618200Y-119773823D02*
X224761057Y-119859537D01*
X224761057Y-119859537D02*
X224856295Y-119945251D01*
X224856295Y-119945251D02*
X224903914Y-120030965D01*
X224951533Y-118745254D02*
X225618198Y-118745254D01*
X224570582Y-118959539D02*
X225284866Y-119173824D01*
X225284866Y-119173824D02*
X225284866Y-118616683D01*
D12*
%TO.C,J6*%
X247310000Y-93060000D02*
X247310000Y-88940000D01*
X247310000Y-88940000D02*
X239690000Y-88940000D01*
X246310000Y-94060000D02*
X247310000Y-93060000D01*
X239690000Y-94060000D02*
X246310000Y-94060000D01*
X239690000Y-88940000D02*
X239690000Y-94060000D01*
X239390000Y-94360000D02*
X241800000Y-94360000D01*
X239390000Y-91950000D02*
X239390000Y-94360000D01*
%TO.C,J5*%
X252550000Y-123350000D02*
X252550000Y-120500000D01*
X252310000Y-123110000D02*
X252310000Y-113290000D01*
X252310000Y-113290000D02*
X251310000Y-113290000D01*
X251310000Y-113290000D02*
X251310000Y-111890000D01*
X251310000Y-111890000D02*
X249500000Y-111890000D01*
X249700000Y-123350000D02*
X252550000Y-123350000D01*
X249500000Y-123110000D02*
X252310000Y-123110000D01*
X249500000Y-123110000D02*
X246690000Y-123110000D01*
X247690000Y-113290000D02*
X247690000Y-111890000D01*
X247690000Y-111890000D02*
X249500000Y-111890000D01*
X246690000Y-123110000D02*
X246690000Y-113290000D01*
X246690000Y-113290000D02*
X247690000Y-113290000D01*
%TO.C,U2*%
X262000000Y-66405000D02*
X228400000Y-66405000D01*
X262000000Y-66405000D02*
X262000000Y-86905000D01*
X228400000Y-66405000D02*
X228400000Y-86905000D01*
X262000000Y-86905000D02*
X228400000Y-86905000D01*
%TO.C,U1*%
X191500000Y-86095000D02*
X225100000Y-86095000D01*
X191500000Y-86095000D02*
X191500000Y-65595000D01*
X225100000Y-86095000D02*
X225100000Y-65595000D01*
X191500000Y-65595000D02*
X225100000Y-65595000D01*
%TO.C,J4*%
X223060000Y-92910000D02*
X223060000Y-88790000D01*
X223060000Y-88790000D02*
X215440000Y-88790000D01*
X222060000Y-93910000D02*
X223060000Y-92910000D01*
X215440000Y-93910000D02*
X222060000Y-93910000D01*
X215440000Y-88790000D02*
X215440000Y-93910000D01*
X215140000Y-94210000D02*
X217550000Y-94210000D01*
X215140000Y-91800000D02*
X215140000Y-94210000D01*
%TO.C,J3*%
X262360000Y-91200000D02*
X262360000Y-88790000D01*
X262360000Y-88790000D02*
X259950000Y-88790000D01*
X262060000Y-94210000D02*
X262060000Y-89090000D01*
X262060000Y-89090000D02*
X250440000Y-89090000D01*
X250440000Y-89090000D02*
X249440000Y-90090000D01*
X249440000Y-94210000D02*
X262060000Y-94210000D01*
X249440000Y-90090000D02*
X249440000Y-94210000D01*
%TO.C,J2*%
X193940000Y-90590000D02*
X193940000Y-94710000D01*
X193940000Y-94710000D02*
X206560000Y-94710000D01*
X194940000Y-89590000D02*
X193940000Y-90590000D01*
X206560000Y-89590000D02*
X194940000Y-89590000D01*
X206560000Y-94710000D02*
X206560000Y-89590000D01*
X206860000Y-89290000D02*
X204450000Y-89290000D01*
X206860000Y-91700000D02*
X206860000Y-89290000D01*
%TO.C,J1*%
X256950000Y-110110000D02*
X259360000Y-110110000D01*
X259360000Y-110110000D02*
X259360000Y-107700000D01*
X253940000Y-109810000D02*
X259060000Y-109810000D01*
X259060000Y-109810000D02*
X259060000Y-98190000D01*
X259060000Y-98190000D02*
X258060000Y-97190000D01*
X253940000Y-97190000D02*
X253940000Y-109810000D01*
X258060000Y-97190000D02*
X253940000Y-97190000D01*
%TO.C,C1*%
X198380000Y-58630000D02*
X198380000Y-61370000D01*
X198380000Y-58630000D02*
X207620000Y-58630000D01*
X198380000Y-61370000D02*
X207620000Y-61370000D01*
X207620000Y-58630000D02*
X207620000Y-61370000D01*
D13*
%TO.C,MOD1*%
X240576404Y-118644592D02*
X240576404Y-116104592D01*
X244386404Y-118644592D02*
X240576404Y-118644592D01*
X244386404Y-118644592D02*
X240576404Y-118644592D01*
X244386404Y-118644592D02*
X244386404Y-118644592D01*
X199428404Y-118136592D02*
X194602404Y-101372592D01*
X199428404Y-118136592D02*
X194602404Y-101372592D01*
X195268519Y-117374592D02*
X195268519Y-114834592D01*
X198824519Y-117374592D02*
X195268519Y-117374592D01*
X218236469Y-117254450D02*
X200236480Y-102254480D01*
X240576404Y-116104592D02*
X244386404Y-118644592D01*
X195268519Y-114834592D02*
X197300519Y-114834592D01*
X197300519Y-114834592D02*
X197300519Y-112294592D01*
X239148416Y-113818592D02*
X245148404Y-105818608D01*
X245148404Y-113818592D02*
X239148416Y-113818592D01*
X195268519Y-112294592D02*
X195268519Y-109754592D01*
X197300519Y-112294592D02*
X195268519Y-112294592D01*
X195268519Y-109754592D02*
X197300519Y-109754592D01*
X197300519Y-109754592D02*
X197300519Y-107214592D01*
X195268519Y-107214592D02*
X198824519Y-102134592D01*
X197300519Y-107214592D02*
X195268519Y-107214592D01*
X244386404Y-103404592D02*
X240576404Y-100864592D01*
X200236480Y-102254480D02*
X200236480Y-102254480D01*
X200236480Y-102254480D02*
X218236469Y-102254480D01*
X218236469Y-102254480D02*
X218236469Y-117254450D01*
X199513062Y-101372592D02*
X199428404Y-118136592D01*
X240576404Y-100864592D02*
X240576404Y-100864592D01*
X240576404Y-100864592D02*
X244386404Y-100864592D01*
X244386404Y-100864592D02*
X244386404Y-103404592D01*
D12*
X193395344Y-123759837D02*
X245395344Y-123759837D01*
X245395344Y-95759837D01*
X193395344Y-95759837D01*
X193395344Y-123759837D01*
X193395344Y-123759837D02*
X245395344Y-123759837D01*
X245395344Y-95759837D01*
X193395344Y-95759837D01*
X193395344Y-123759837D01*
D13*
X195362931Y-123735082D02*
G75*
G02*
X193642284Y-121754691I279348J1980390D01*
G01*
X245145153Y-121692567D02*
G75*
G02*
X243119376Y-123724465I-1999737J-32073D01*
G01*
X242542618Y-116874593D02*
G75*
G02*
X242537030Y-116874593I-2794J-499866D01*
G01*
X216506602Y-114434669D02*
G75*
G02*
X216502284Y-114434669I-2159J-399990D01*
G01*
X242542618Y-101634847D02*
G75*
G02*
X242537030Y-101634593I-25518J-499353D01*
G01*
X193659683Y-97822967D02*
G75*
G02*
X195364405Y-95784596I1999127J60127D01*
G01*
X243116912Y-95816825D02*
G75*
G02*
X245148403Y-97816573I31498J-1999745D01*
G01*
X196888531Y-121438465D02*
G75*
G02*
X194348531Y-121438465I-1270000J0D01*
G01*
X194348531Y-121438465D02*
G75*
G02*
X196888531Y-121438465I1270000J0D01*
G01*
X244553409Y-121438465D02*
G75*
G02*
X241679653Y-121438465I-1436878J0D01*
G01*
X241679653Y-121438465D02*
G75*
G02*
X244553409Y-121438465I1436878J0D01*
G01*
X197055409Y-98070465D02*
G75*
G02*
X194181653Y-98070465I-1436878J0D01*
G01*
X194181653Y-98070465D02*
G75*
G02*
X197055409Y-98070465I1436878J0D01*
G01*
X244386531Y-98070465D02*
G75*
G02*
X241846531Y-98070465I-1270000J0D01*
G01*
X241846531Y-98070465D02*
G75*
G02*
X244386531Y-98070465I1270000J0D01*
G01*
%TD*%
M02*
