%TF.GenerationSoftware,KiCad,Pcbnew,8.0.8*%
%TF.CreationDate,2025-06-20T17:38:55+09:00*%
%TF.ProjectId,4thfloor_pole,34746866-6c6f-46f7-925f-706f6c652e6b,rev?*%
%TF.SameCoordinates,Original*%
%TF.FileFunction,Copper,L2,Bot*%
%TF.FilePolarity,Positive*%
%FSLAX46Y46*%
G04 Gerber Fmt 4.6, Leading zero omitted, Abs format (unit mm)*
G04 Created by KiCad (PCBNEW 8.0.8) date 2025-06-20 17:38:55*
%MOMM*%
%LPD*%
G01*
G04 APERTURE LIST*
G04 Aperture macros list*
%AMRoundRect*
0 Rectangle with rounded corners*
0 $1 Rounding radius*
0 $2 $3 $4 $5 $6 $7 $8 $9 X,Y pos of 4 corners*
0 Add a 4 corners polygon primitive as box body*
4,1,4,$2,$3,$4,$5,$6,$7,$8,$9,$2,$3,0*
0 Add four circle primitives for the rounded corners*
1,1,$1+$1,$2,$3*
1,1,$1+$1,$4,$5*
1,1,$1+$1,$6,$7*
1,1,$1+$1,$8,$9*
0 Add four rect primitives between the rounded corners*
20,1,$1+$1,$2,$3,$4,$5,0*
20,1,$1+$1,$4,$5,$6,$7,0*
20,1,$1+$1,$6,$7,$8,$9,0*
20,1,$1+$1,$8,$9,$2,$3,0*%
G04 Aperture macros list end*
%TA.AperFunction,ComponentPad*%
%ADD10O,1.700000X1.850000*%
%TD*%
%TA.AperFunction,ComponentPad*%
%ADD11RoundRect,0.250000X-0.600000X-0.675000X0.600000X-0.675000X0.600000X0.675000X-0.600000X0.675000X0*%
%TD*%
%TA.AperFunction,ComponentPad*%
%ADD12RoundRect,0.250001X1.099999X1.399999X-1.099999X1.399999X-1.099999X-1.399999X1.099999X-1.399999X0*%
%TD*%
%TA.AperFunction,ComponentPad*%
%ADD13O,2.700000X3.300000*%
%TD*%
%TA.AperFunction,ComponentPad*%
%ADD14C,7.000000*%
%TD*%
%TA.AperFunction,ComponentPad*%
%ADD15C,1.524000*%
%TD*%
%TA.AperFunction,ComponentPad*%
%ADD16RoundRect,0.250000X0.600000X0.675000X-0.600000X0.675000X-0.600000X-0.675000X0.600000X-0.675000X0*%
%TD*%
%TA.AperFunction,ComponentPad*%
%ADD17RoundRect,0.250000X0.675000X-0.600000X0.675000X0.600000X-0.675000X0.600000X-0.675000X-0.600000X0*%
%TD*%
%TA.AperFunction,ComponentPad*%
%ADD18O,1.850000X1.700000*%
%TD*%
%TA.AperFunction,ComponentPad*%
%ADD19C,1.600000*%
%TD*%
%TA.AperFunction,ViaPad*%
%ADD20C,1.300000*%
%TD*%
%TA.AperFunction,ViaPad*%
%ADD21C,2.600000*%
%TD*%
%TA.AperFunction,Conductor*%
%ADD22C,1.000000*%
%TD*%
%TA.AperFunction,Conductor*%
%ADD23C,1.500000*%
%TD*%
G04 APERTURE END LIST*
D10*
%TO.P,J6,2,Pin_2*%
%TO.N,GND*%
X244750000Y-92150000D03*
D11*
%TO.P,J6,1,Pin_1*%
%TO.N,/LED_RIGHT*%
X242250000Y-92150000D03*
%TD*%
D12*
%TO.P,J5,1,Pin_1*%
%TO.N,+5V*%
X249500000Y-120750000D03*
D13*
%TO.P,J5,2,Pin_2*%
%TO.N,GND*%
X249500000Y-115250000D03*
%TD*%
D14*
%TO.P,H4,1*%
%TO.N,N/C*%
X259000000Y-120000000D03*
%TD*%
%TO.P,H3,1*%
%TO.N,N/C*%
X194000000Y-120000000D03*
%TD*%
%TO.P,H2,1*%
%TO.N,N/C*%
X259000000Y-60000000D03*
%TD*%
D15*
%TO.P,U2,1,GND*%
%TO.N,GND*%
X232900000Y-80025000D03*
%TO.P,U2,2,DT*%
%TO.N,/DT_RIGHT*%
X232900000Y-77485000D03*
%TO.P,U2,3,SCK*%
%TO.N,/CLK_RIGHT*%
X232900000Y-74945000D03*
%TO.P,U2,4,Vcc*%
%TO.N,+3V3*%
X232900000Y-72405000D03*
%TO.P,U2,5,E+*%
%TO.N,/E+_RIGHT*%
X258100000Y-82405000D03*
%TO.P,U2,6,E-*%
%TO.N,/E-_RIGHT*%
X258100000Y-79865000D03*
%TO.P,U2,7,A-*%
%TO.N,/A-_RIGHT*%
X258100000Y-77325000D03*
%TO.P,U2,8,A+*%
%TO.N,/A+_RIGHT*%
X258100000Y-74785000D03*
%TO.P,U2,9,B-*%
%TO.N,unconnected-(U2-B--Pad9)*%
X258100000Y-72245000D03*
%TO.P,U2,10,B+*%
%TO.N,unconnected-(U2-B+-Pad10)*%
X258100000Y-69705000D03*
%TD*%
%TO.P,U1,1,GND*%
%TO.N,GND*%
X220600000Y-72475000D03*
%TO.P,U1,2,DT*%
%TO.N,/DT_LEFT*%
X220600000Y-75015000D03*
%TO.P,U1,3,SCK*%
%TO.N,/CLK_LEFT*%
X220600000Y-77555000D03*
%TO.P,U1,4,Vcc*%
%TO.N,+3V3*%
X220600000Y-80095000D03*
%TO.P,U1,5,E+*%
%TO.N,/E+_LEFT*%
X195400000Y-70095000D03*
%TO.P,U1,6,E-*%
%TO.N,/E-_LEFT*%
X195400000Y-72635000D03*
%TO.P,U1,7,A-*%
%TO.N,/A-_LEFT*%
X195400000Y-75175000D03*
%TO.P,U1,8,A+*%
%TO.N,/A+_LEFT*%
X195400000Y-77715000D03*
%TO.P,U1,9,B-*%
%TO.N,unconnected-(U1-B--Pad9)*%
X195400000Y-80255000D03*
%TO.P,U1,10,B+*%
%TO.N,unconnected-(U1-B+-Pad10)*%
X195400000Y-82795000D03*
%TD*%
D10*
%TO.P,J4,2,Pin_2*%
%TO.N,GND*%
X220500000Y-92000000D03*
D11*
%TO.P,J4,1,Pin_1*%
%TO.N,/LED_LEFT*%
X218000000Y-92000000D03*
%TD*%
D16*
%TO.P,J3,1,Pin_1*%
%TO.N,/E+_RIGHT*%
X259500000Y-91000000D03*
D10*
%TO.P,J3,2,Pin_2*%
%TO.N,/E-_RIGHT*%
X257000000Y-91000000D03*
%TO.P,J3,3,Pin_3*%
%TO.N,/A-_RIGHT*%
X254500000Y-91000000D03*
%TO.P,J3,4,Pin_4*%
%TO.N,/A+_RIGHT*%
X252000000Y-91000000D03*
%TD*%
%TO.P,J2,4,Pin_4*%
%TO.N,/A+_LEFT*%
X196500000Y-91500000D03*
%TO.P,J2,3,Pin_3*%
%TO.N,/A-_LEFT*%
X199000000Y-91500000D03*
%TO.P,J2,2,Pin_2*%
%TO.N,/E-_LEFT*%
X201500000Y-91500000D03*
D16*
%TO.P,J2,1,Pin_1*%
%TO.N,/E+_LEFT*%
X204000000Y-91500000D03*
%TD*%
D17*
%TO.P,J1,1,Pin_1*%
%TO.N,+3V3*%
X257150000Y-107250000D03*
D18*
%TO.P,J1,2,Pin_2*%
%TO.N,/DISPLAY_RX*%
X257150000Y-104750000D03*
%TO.P,J1,3,Pin_3*%
%TO.N,/DISPLAY_TX*%
X257150000Y-102250000D03*
%TO.P,J1,4,Pin_4*%
%TO.N,GND*%
X257150000Y-99750000D03*
%TD*%
D14*
%TO.P,H1,1,1*%
%TO.N,Net-(C1-Pad1)*%
X194000000Y-60000000D03*
%TD*%
D19*
%TO.P,C1,1*%
%TO.N,Net-(C1-Pad1)*%
X200500000Y-60000000D03*
%TO.P,C1,2*%
%TO.N,GND*%
X205500000Y-60000000D03*
%TD*%
%TO.P,MOD1,1,GND*%
%TO.N,GND*%
X232706806Y-122432022D03*
X232706806Y-97032022D03*
%TO.P,MOD1,2,3V3*%
%TO.N,+3V3*%
X235246806Y-97032022D03*
%TO.P,MOD1,3,EN*%
%TO.N,unconnected-(MOD1-EN-Pad3)*%
X199686806Y-122432022D03*
%TO.P,MOD1,4,SENSOR_VP*%
%TO.N,unconnected-(MOD1-SENSOR_VP-Pad4)*%
X202226806Y-122432022D03*
%TO.P,MOD1,5,SENSOR_VN*%
%TO.N,unconnected-(MOD1-SENSOR_VN-Pad5)*%
X204766806Y-122432022D03*
%TO.P,MOD1,6,IO34*%
%TO.N,/DT_LEFT*%
X207306806Y-122432022D03*
%TO.P,MOD1,7,IO35*%
%TO.N,/DT_RIGHT*%
X209846806Y-122432022D03*
%TO.P,MOD1,8,IO32*%
%TO.N,unconnected-(MOD1-IO32-Pad8)*%
X212386806Y-122432022D03*
%TO.P,MOD1,9,IO33*%
%TO.N,unconnected-(MOD1-IO33-Pad9)*%
X214926806Y-122432022D03*
%TO.P,MOD1,10,IO25*%
%TO.N,/CLK_LEFT*%
X217466806Y-122432022D03*
%TO.P,MOD1,11,IO26*%
%TO.N,/CLK_RIGHT*%
X220006806Y-122432022D03*
%TO.P,MOD1,12,IO27*%
%TO.N,unconnected-(MOD1-IO27-Pad12)*%
X222546806Y-122432022D03*
%TO.P,MOD1,13,IO14*%
%TO.N,unconnected-(MOD1-IO14-Pad13)*%
X225086806Y-122432022D03*
%TO.P,MOD1,14,IO12*%
%TO.N,unconnected-(MOD1-IO12-Pad14)*%
X227626806Y-122432022D03*
%TO.P,MOD1,15,VIN*%
%TO.N,+5V*%
X235246806Y-122432022D03*
%TO.P,MOD1,16,IO13*%
%TO.N,unconnected-(MOD1-IO13-Pad16)*%
X230166806Y-122432022D03*
%TO.P,MOD1,23,IO15*%
%TO.N,unconnected-(MOD1-IO15-Pad23)*%
X230166806Y-97032022D03*
%TO.P,MOD1,24,IO2*%
%TO.N,unconnected-(MOD1-IO2-Pad24)*%
X227626806Y-97032022D03*
%TO.P,MOD1,26,IO4*%
%TO.N,unconnected-(MOD1-IO4-Pad26)*%
X225086806Y-97032022D03*
%TO.P,MOD1,27,IO16*%
%TO.N,/DISPLAY_TX*%
X222546806Y-97032022D03*
%TO.P,MOD1,28,IO17*%
%TO.N,/DISPLAY_RX*%
X220006806Y-97032022D03*
%TO.P,MOD1,29,IO5*%
%TO.N,unconnected-(MOD1-IO5-Pad29)*%
X217466806Y-97032022D03*
%TO.P,MOD1,30,IO18*%
%TO.N,/LED_RIGHT*%
X214926806Y-97032022D03*
%TO.P,MOD1,31,IO19*%
%TO.N,/LED_LEFT*%
X212386806Y-97032022D03*
%TO.P,MOD1,33,IO21*%
%TO.N,unconnected-(MOD1-IO21-Pad33)*%
X209846806Y-97032022D03*
%TO.P,MOD1,34,RXD0*%
%TO.N,unconnected-(MOD1-RXD0-Pad34)*%
X207306806Y-97032022D03*
%TO.P,MOD1,35,TXD0*%
%TO.N,unconnected-(MOD1-TXD0-Pad35)*%
X204766806Y-97032022D03*
%TO.P,MOD1,36,IO22*%
%TO.N,unconnected-(MOD1-IO22-Pad36)*%
X202226806Y-97032022D03*
%TO.P,MOD1,37,IO23*%
%TO.N,unconnected-(MOD1-IO23-Pad37)*%
X199686806Y-97032022D03*
%TD*%
D20*
%TO.N,/LED_RIGHT*%
X235000000Y-94000000D03*
X229000000Y-94000000D03*
D21*
%TO.N,+3V3*%
X246000000Y-99500000D03*
D20*
%TO.N,GND*%
X214000000Y-80000000D03*
X211000000Y-80000000D03*
X208000000Y-80000000D03*
X214000000Y-77500000D03*
X211000000Y-77500000D03*
X208000000Y-77500000D03*
X248500000Y-80000000D03*
X244500000Y-80000000D03*
X240500000Y-80000000D03*
X248500000Y-76500000D03*
X244500000Y-76500000D03*
X240500000Y-76500000D03*
X214500000Y-110500000D03*
X214500000Y-107500000D03*
X211000000Y-107500000D03*
X214500000Y-104500000D03*
X211000000Y-104500000D03*
X207500000Y-104500000D03*
X248500000Y-73500000D03*
X244500000Y-73500000D03*
X240500000Y-73500000D03*
X214000000Y-75000000D03*
X211000000Y-75000000D03*
X208000000Y-75000000D03*
%TD*%
D22*
%TO.N,/LED_RIGHT*%
X229000000Y-94000000D02*
X235000000Y-94000000D01*
D23*
%TO.N,+3V3*%
X253750000Y-107250000D02*
X257150000Y-107250000D01*
X246000000Y-99500000D02*
X253750000Y-107250000D01*
D22*
%TO.N,/CLK_RIGHT*%
X237946806Y-79991806D02*
X232900000Y-74945000D01*
X220006806Y-122432022D02*
X237946806Y-104492022D01*
X237946806Y-104492022D02*
X237946806Y-79991806D01*
%TO.N,/DT_RIGHT*%
X236746806Y-81331806D02*
X232900000Y-77485000D01*
X211346806Y-120932022D02*
X213567978Y-120932022D01*
X213567978Y-120932022D02*
X236746806Y-97753194D01*
X236746806Y-97753194D02*
X236746806Y-81331806D01*
X209846806Y-122432022D02*
X211346806Y-120932022D01*
%TO.N,/DT_LEFT*%
X205000000Y-93500000D02*
X217000000Y-81500000D01*
X217000000Y-81500000D02*
X217000000Y-77500000D01*
X201097507Y-93500000D02*
X205000000Y-93500000D01*
X198186806Y-96410701D02*
X201097507Y-93500000D01*
X198186806Y-113312022D02*
X198186806Y-96410701D01*
X217000000Y-77500000D02*
X219485000Y-75015000D01*
X207306806Y-122432022D02*
X198186806Y-113312022D01*
X219485000Y-75015000D02*
X220600000Y-75015000D01*
%TD*%
%TA.AperFunction,Conductor*%
%TO.N,GND*%
G36*
X232306806Y-97084683D02*
G01*
X232334065Y-97186416D01*
X232386726Y-97277628D01*
X232461200Y-97352102D01*
X232552412Y-97404763D01*
X232654145Y-97432022D01*
X232660359Y-97432022D01*
X231981332Y-98111047D01*
X232054319Y-98162154D01*
X232054327Y-98162158D01*
X232260474Y-98258286D01*
X232260488Y-98258291D01*
X232480195Y-98317161D01*
X232480206Y-98317163D01*
X232706804Y-98336988D01*
X232706808Y-98336988D01*
X232933405Y-98317163D01*
X232933416Y-98317161D01*
X233153123Y-98258291D01*
X233153137Y-98258286D01*
X233359284Y-98162158D01*
X233432277Y-98111046D01*
X232753253Y-97432022D01*
X232759467Y-97432022D01*
X232861200Y-97404763D01*
X232952412Y-97352102D01*
X233026886Y-97277628D01*
X233079547Y-97186416D01*
X233106806Y-97084683D01*
X233106806Y-97078469D01*
X233785830Y-97757493D01*
X233836939Y-97684504D01*
X233864147Y-97626157D01*
X233910319Y-97573718D01*
X233977513Y-97554565D01*
X234044394Y-97574780D01*
X234088911Y-97626154D01*
X234116238Y-97684756D01*
X234154724Y-97739720D01*
X234246760Y-97871163D01*
X234407664Y-98032067D01*
X234407667Y-98032069D01*
X234594072Y-98162590D01*
X234657549Y-98192190D01*
X234709988Y-98238363D01*
X234729140Y-98305556D01*
X234708924Y-98372438D01*
X234692825Y-98392253D01*
X213189877Y-119895203D01*
X213128554Y-119928688D01*
X213102196Y-119931522D01*
X211248262Y-119931522D01*
X211054977Y-119969969D01*
X211054969Y-119969971D01*
X210982474Y-120000000D01*
X210982473Y-120000000D01*
X210872898Y-120045386D01*
X210872885Y-120045393D01*
X210709024Y-120154882D01*
X210709020Y-120154885D01*
X209758772Y-121105133D01*
X209697449Y-121138618D01*
X209681901Y-121140980D01*
X209620113Y-121146387D01*
X209400317Y-121205280D01*
X209400308Y-121205283D01*
X209194073Y-121301453D01*
X209194071Y-121301454D01*
X209007664Y-121431976D01*
X208846760Y-121592880D01*
X208716238Y-121779287D01*
X208716237Y-121779289D01*
X208689188Y-121837297D01*
X208643015Y-121889736D01*
X208575822Y-121908888D01*
X208508941Y-121888672D01*
X208464424Y-121837297D01*
X208437374Y-121779288D01*
X208306853Y-121592883D01*
X208306851Y-121592880D01*
X208145947Y-121431976D01*
X207959540Y-121301454D01*
X207959538Y-121301453D01*
X207753303Y-121205283D01*
X207753294Y-121205280D01*
X207533503Y-121146388D01*
X207533493Y-121146386D01*
X207471711Y-121140981D01*
X207406642Y-121115528D01*
X207394838Y-121105134D01*
X199223625Y-112933920D01*
X199190140Y-112872597D01*
X199187306Y-112846239D01*
X199187306Y-98406158D01*
X199206991Y-98339119D01*
X199259795Y-98293364D01*
X199328953Y-98283420D01*
X199343388Y-98286380D01*
X199460114Y-98317657D01*
X199622036Y-98331823D01*
X199686804Y-98337490D01*
X199686806Y-98337490D01*
X199686808Y-98337490D01*
X199743479Y-98332531D01*
X199913498Y-98317657D01*
X200133302Y-98258761D01*
X200339540Y-98162590D01*
X200525945Y-98032069D01*
X200686853Y-97871161D01*
X200817374Y-97684756D01*
X200844424Y-97626746D01*
X200890596Y-97574307D01*
X200957789Y-97555155D01*
X201024671Y-97575370D01*
X201069188Y-97626747D01*
X201096235Y-97684750D01*
X201096238Y-97684756D01*
X201226760Y-97871163D01*
X201387664Y-98032067D01*
X201387667Y-98032069D01*
X201574072Y-98162590D01*
X201780310Y-98258761D01*
X202000114Y-98317657D01*
X202162036Y-98331823D01*
X202226804Y-98337490D01*
X202226806Y-98337490D01*
X202226808Y-98337490D01*
X202283479Y-98332531D01*
X202453498Y-98317657D01*
X202673302Y-98258761D01*
X202879540Y-98162590D01*
X203065945Y-98032069D01*
X203226853Y-97871161D01*
X203357374Y-97684756D01*
X203384424Y-97626746D01*
X203430596Y-97574307D01*
X203497789Y-97555155D01*
X203564671Y-97575370D01*
X203609188Y-97626747D01*
X203636235Y-97684750D01*
X203636238Y-97684756D01*
X203766760Y-97871163D01*
X203927664Y-98032067D01*
X203927667Y-98032069D01*
X204114072Y-98162590D01*
X204320310Y-98258761D01*
X204540114Y-98317657D01*
X204702036Y-98331823D01*
X204766804Y-98337490D01*
X204766806Y-98337490D01*
X204766808Y-98337490D01*
X204823479Y-98332531D01*
X204993498Y-98317657D01*
X205213302Y-98258761D01*
X205419540Y-98162590D01*
X205605945Y-98032069D01*
X205766853Y-97871161D01*
X205897374Y-97684756D01*
X205924424Y-97626746D01*
X205970596Y-97574307D01*
X206037789Y-97555155D01*
X206104671Y-97575370D01*
X206149188Y-97626747D01*
X206176235Y-97684750D01*
X206176238Y-97684756D01*
X206306760Y-97871163D01*
X206467664Y-98032067D01*
X206467667Y-98032069D01*
X206654072Y-98162590D01*
X206860310Y-98258761D01*
X207080114Y-98317657D01*
X207242036Y-98331823D01*
X207306804Y-98337490D01*
X207306806Y-98337490D01*
X207306808Y-98337490D01*
X207363479Y-98332531D01*
X207533498Y-98317657D01*
X207753302Y-98258761D01*
X207959540Y-98162590D01*
X208145945Y-98032069D01*
X208306853Y-97871161D01*
X208437374Y-97684756D01*
X208464424Y-97626746D01*
X208510596Y-97574307D01*
X208577789Y-97555155D01*
X208644671Y-97575370D01*
X208689188Y-97626747D01*
X208716235Y-97684750D01*
X208716238Y-97684756D01*
X208846760Y-97871163D01*
X209007664Y-98032067D01*
X209007667Y-98032069D01*
X209194072Y-98162590D01*
X209400310Y-98258761D01*
X209620114Y-98317657D01*
X209782036Y-98331823D01*
X209846804Y-98337490D01*
X209846806Y-98337490D01*
X209846808Y-98337490D01*
X209903479Y-98332531D01*
X210073498Y-98317657D01*
X210293302Y-98258761D01*
X210499540Y-98162590D01*
X210685945Y-98032069D01*
X210846853Y-97871161D01*
X210977374Y-97684756D01*
X211004424Y-97626746D01*
X211050596Y-97574307D01*
X211117789Y-97555155D01*
X211184671Y-97575370D01*
X211229188Y-97626747D01*
X211256235Y-97684750D01*
X211256238Y-97684756D01*
X211386760Y-97871163D01*
X211547664Y-98032067D01*
X211547667Y-98032069D01*
X211734072Y-98162590D01*
X211940310Y-98258761D01*
X212160114Y-98317657D01*
X212322036Y-98331823D01*
X212386804Y-98337490D01*
X212386806Y-98337490D01*
X212386808Y-98337490D01*
X212443479Y-98332531D01*
X212613498Y-98317657D01*
X212833302Y-98258761D01*
X213039540Y-98162590D01*
X213225945Y-98032069D01*
X213386853Y-97871161D01*
X213517374Y-97684756D01*
X213544424Y-97626746D01*
X213590596Y-97574307D01*
X213657789Y-97555155D01*
X213724671Y-97575370D01*
X213769188Y-97626747D01*
X213796235Y-97684750D01*
X213796238Y-97684756D01*
X213926760Y-97871163D01*
X214087664Y-98032067D01*
X214087667Y-98032069D01*
X214274072Y-98162590D01*
X214480310Y-98258761D01*
X214700114Y-98317657D01*
X214862036Y-98331823D01*
X214926804Y-98337490D01*
X214926806Y-98337490D01*
X214926808Y-98337490D01*
X214983479Y-98332531D01*
X215153498Y-98317657D01*
X215373302Y-98258761D01*
X215579540Y-98162590D01*
X215765945Y-98032069D01*
X215926853Y-97871161D01*
X216057374Y-97684756D01*
X216084424Y-97626746D01*
X216130596Y-97574307D01*
X216197789Y-97555155D01*
X216264671Y-97575370D01*
X216309188Y-97626747D01*
X216336235Y-97684750D01*
X216336238Y-97684756D01*
X216466760Y-97871163D01*
X216627664Y-98032067D01*
X216627667Y-98032069D01*
X216814072Y-98162590D01*
X217020310Y-98258761D01*
X217240114Y-98317657D01*
X217402036Y-98331823D01*
X217466804Y-98337490D01*
X217466806Y-98337490D01*
X217466808Y-98337490D01*
X217523479Y-98332531D01*
X217693498Y-98317657D01*
X217913302Y-98258761D01*
X218119540Y-98162590D01*
X218305945Y-98032069D01*
X218466853Y-97871161D01*
X218597374Y-97684756D01*
X218624424Y-97626746D01*
X218670596Y-97574307D01*
X218737789Y-97555155D01*
X218804671Y-97575370D01*
X218849188Y-97626747D01*
X218876235Y-97684750D01*
X218876238Y-97684756D01*
X219006760Y-97871163D01*
X219167664Y-98032067D01*
X219167667Y-98032069D01*
X219354072Y-98162590D01*
X219560310Y-98258761D01*
X219780114Y-98317657D01*
X219942036Y-98331823D01*
X220006804Y-98337490D01*
X220006806Y-98337490D01*
X220006808Y-98337490D01*
X220063479Y-98332531D01*
X220233498Y-98317657D01*
X220453302Y-98258761D01*
X220659540Y-98162590D01*
X220845945Y-98032069D01*
X221006853Y-97871161D01*
X221137374Y-97684756D01*
X221164424Y-97626746D01*
X221210596Y-97574307D01*
X221277789Y-97555155D01*
X221344671Y-97575370D01*
X221389188Y-97626747D01*
X221416235Y-97684750D01*
X221416238Y-97684756D01*
X221546760Y-97871163D01*
X221707664Y-98032067D01*
X221707667Y-98032069D01*
X221894072Y-98162590D01*
X222100310Y-98258761D01*
X222320114Y-98317657D01*
X222482036Y-98331823D01*
X222546804Y-98337490D01*
X222546806Y-98337490D01*
X222546808Y-98337490D01*
X222603479Y-98332531D01*
X222773498Y-98317657D01*
X222993302Y-98258761D01*
X223199540Y-98162590D01*
X223385945Y-98032069D01*
X223546853Y-97871161D01*
X223677374Y-97684756D01*
X223704424Y-97626746D01*
X223750596Y-97574307D01*
X223817789Y-97555155D01*
X223884671Y-97575370D01*
X223929188Y-97626747D01*
X223956235Y-97684750D01*
X223956238Y-97684756D01*
X224086760Y-97871163D01*
X224247664Y-98032067D01*
X224247667Y-98032069D01*
X224434072Y-98162590D01*
X224640310Y-98258761D01*
X224860114Y-98317657D01*
X225022036Y-98331823D01*
X225086804Y-98337490D01*
X225086806Y-98337490D01*
X225086808Y-98337490D01*
X225143479Y-98332531D01*
X225313498Y-98317657D01*
X225533302Y-98258761D01*
X225739540Y-98162590D01*
X225925945Y-98032069D01*
X226086853Y-97871161D01*
X226217374Y-97684756D01*
X226244424Y-97626746D01*
X226290596Y-97574307D01*
X226357789Y-97555155D01*
X226424671Y-97575370D01*
X226469188Y-97626747D01*
X226496235Y-97684750D01*
X226496238Y-97684756D01*
X226626760Y-97871163D01*
X226787664Y-98032067D01*
X226787667Y-98032069D01*
X226974072Y-98162590D01*
X227180310Y-98258761D01*
X227400114Y-98317657D01*
X227562036Y-98331823D01*
X227626804Y-98337490D01*
X227626806Y-98337490D01*
X227626808Y-98337490D01*
X227683479Y-98332531D01*
X227853498Y-98317657D01*
X228073302Y-98258761D01*
X228279540Y-98162590D01*
X228465945Y-98032069D01*
X228626853Y-97871161D01*
X228757374Y-97684756D01*
X228784424Y-97626746D01*
X228830596Y-97574307D01*
X228897789Y-97555155D01*
X228964671Y-97575370D01*
X229009188Y-97626747D01*
X229036235Y-97684750D01*
X229036238Y-97684756D01*
X229166760Y-97871163D01*
X229327664Y-98032067D01*
X229327667Y-98032069D01*
X229514072Y-98162590D01*
X229720310Y-98258761D01*
X229940114Y-98317657D01*
X230102036Y-98331823D01*
X230166804Y-98337490D01*
X230166806Y-98337490D01*
X230166808Y-98337490D01*
X230223479Y-98332531D01*
X230393498Y-98317657D01*
X230613302Y-98258761D01*
X230819540Y-98162590D01*
X231005945Y-98032069D01*
X231166853Y-97871161D01*
X231297374Y-97684756D01*
X231324699Y-97626156D01*
X231370871Y-97573717D01*
X231438064Y-97554565D01*
X231504945Y-97574780D01*
X231549463Y-97626156D01*
X231576670Y-97684502D01*
X231627780Y-97757494D01*
X232306806Y-97078468D01*
X232306806Y-97084683D01*
G37*
%TD.AperFunction*%
%TA.AperFunction,Conductor*%
G36*
X263442539Y-55520185D02*
G01*
X263488294Y-55572989D01*
X263499500Y-55624500D01*
X263499500Y-124375500D01*
X263479815Y-124442539D01*
X263427011Y-124488294D01*
X263375500Y-124499500D01*
X189624500Y-124499500D01*
X189557461Y-124479815D01*
X189511706Y-124427011D01*
X189500500Y-124375500D01*
X189500500Y-120000000D01*
X189994675Y-120000000D01*
X190013962Y-120392591D01*
X190013962Y-120392597D01*
X190013963Y-120392599D01*
X190071637Y-120781406D01*
X190167143Y-121162684D01*
X190299561Y-121532770D01*
X190299562Y-121532772D01*
X190467620Y-121888100D01*
X190646424Y-122186416D01*
X190669694Y-122225239D01*
X190850729Y-122469337D01*
X190903846Y-122540956D01*
X191167807Y-122832192D01*
X191459043Y-123096153D01*
X191459049Y-123096158D01*
X191774761Y-123330306D01*
X191774763Y-123330307D01*
X192111899Y-123532379D01*
X192111902Y-123532380D01*
X192111903Y-123532381D01*
X192467228Y-123700438D01*
X192837316Y-123832857D01*
X193218600Y-123928364D01*
X193607409Y-123986038D01*
X194000000Y-124005325D01*
X194392591Y-123986038D01*
X194781400Y-123928364D01*
X195162684Y-123832857D01*
X195532772Y-123700438D01*
X195888097Y-123532381D01*
X196225239Y-123330306D01*
X196540951Y-123096158D01*
X196832192Y-122832192D01*
X197096158Y-122540951D01*
X197330306Y-122225239D01*
X197532381Y-121888097D01*
X197700438Y-121532772D01*
X197832857Y-121162684D01*
X197928364Y-120781400D01*
X197986038Y-120392591D01*
X198005325Y-120000000D01*
X197986038Y-119607409D01*
X197928364Y-119218600D01*
X197832857Y-118837316D01*
X197700438Y-118467228D01*
X197532381Y-118111903D01*
X197330306Y-117774761D01*
X197096158Y-117459049D01*
X197096153Y-117459043D01*
X196832192Y-117167807D01*
X196540956Y-116903846D01*
X196363728Y-116772405D01*
X196225239Y-116669694D01*
X196075609Y-116580009D01*
X195888100Y-116467620D01*
X195532772Y-116299562D01*
X195532770Y-116299561D01*
X195162684Y-116167143D01*
X194781406Y-116071637D01*
X194781401Y-116071636D01*
X194781400Y-116071636D01*
X194637256Y-116050254D01*
X194392599Y-116013963D01*
X194392597Y-116013962D01*
X194392591Y-116013962D01*
X194000000Y-115994675D01*
X193607409Y-116013962D01*
X193607403Y-116013962D01*
X193607400Y-116013963D01*
X193218593Y-116071637D01*
X192837315Y-116167143D01*
X192467229Y-116299561D01*
X192467227Y-116299562D01*
X192111899Y-116467620D01*
X191774763Y-116669692D01*
X191459043Y-116903846D01*
X191167807Y-117167807D01*
X190903846Y-117459043D01*
X190669692Y-117774763D01*
X190467620Y-118111899D01*
X190299562Y-118467227D01*
X190299561Y-118467229D01*
X190167143Y-118837315D01*
X190071637Y-119218593D01*
X190071636Y-119218600D01*
X190013962Y-119607409D01*
X189994675Y-120000000D01*
X189500500Y-120000000D01*
X189500500Y-91318713D01*
X195149500Y-91318713D01*
X195149500Y-91681286D01*
X195182405Y-91889044D01*
X195182754Y-91891243D01*
X195236271Y-92055952D01*
X195248444Y-92093414D01*
X195344951Y-92282820D01*
X195469890Y-92454786D01*
X195620213Y-92605109D01*
X195792179Y-92730048D01*
X195792181Y-92730049D01*
X195792184Y-92730051D01*
X195981588Y-92826557D01*
X196183757Y-92892246D01*
X196393713Y-92925500D01*
X196393714Y-92925500D01*
X196606286Y-92925500D01*
X196606287Y-92925500D01*
X196816243Y-92892246D01*
X197018412Y-92826557D01*
X197207816Y-92730051D01*
X197255571Y-92695355D01*
X197379786Y-92605109D01*
X197379788Y-92605106D01*
X197379792Y-92605104D01*
X197530104Y-92454792D01*
X197649683Y-92290204D01*
X197705011Y-92247540D01*
X197774624Y-92241561D01*
X197836420Y-92274166D01*
X197850313Y-92290199D01*
X197930088Y-92400000D01*
X197969896Y-92454792D01*
X198120213Y-92605109D01*
X198292179Y-92730048D01*
X198292181Y-92730049D01*
X198292184Y-92730051D01*
X198481588Y-92826557D01*
X198683757Y-92892246D01*
X198893713Y-92925500D01*
X198893714Y-92925500D01*
X199106286Y-92925500D01*
X199106287Y-92925500D01*
X199316243Y-92892246D01*
X199518412Y-92826557D01*
X199707816Y-92730051D01*
X199755571Y-92695355D01*
X199879786Y-92605109D01*
X199879788Y-92605106D01*
X199879792Y-92605104D01*
X200030104Y-92454792D01*
X200149683Y-92290204D01*
X200205011Y-92247540D01*
X200274624Y-92241561D01*
X200336420Y-92274166D01*
X200350313Y-92290199D01*
X200430088Y-92400000D01*
X200469896Y-92454792D01*
X200519677Y-92504573D01*
X200553162Y-92565896D01*
X200548178Y-92635588D01*
X200506306Y-92691521D01*
X200500888Y-92695355D01*
X200459727Y-92722858D01*
X200459726Y-92722859D01*
X200400029Y-92782557D01*
X200320368Y-92862218D01*
X200320365Y-92862221D01*
X197549027Y-95633559D01*
X197549024Y-95633562D01*
X197479344Y-95703241D01*
X197409665Y-95772920D01*
X197300177Y-95936780D01*
X197300170Y-95936793D01*
X197260746Y-96031974D01*
X197260746Y-96031975D01*
X197224755Y-96118865D01*
X197215354Y-96166128D01*
X197186306Y-96312157D01*
X197186306Y-96312160D01*
X197186306Y-113410563D01*
X197186306Y-113410565D01*
X197186305Y-113410565D01*
X197224753Y-113603851D01*
X197224756Y-113603861D01*
X197300170Y-113785929D01*
X197300177Y-113785942D01*
X197409665Y-113949802D01*
X197409666Y-113949803D01*
X197409667Y-113949804D01*
X197549024Y-114089161D01*
X197549025Y-114089161D01*
X197556092Y-114096228D01*
X197556091Y-114096228D01*
X197556095Y-114096231D01*
X204440405Y-120980542D01*
X204473890Y-121041865D01*
X204468906Y-121111557D01*
X204427034Y-121167490D01*
X204384818Y-121187998D01*
X204320314Y-121205281D01*
X204320308Y-121205283D01*
X204114073Y-121301453D01*
X204114071Y-121301454D01*
X203927664Y-121431976D01*
X203766760Y-121592880D01*
X203636238Y-121779287D01*
X203636237Y-121779289D01*
X203609188Y-121837297D01*
X203563015Y-121889736D01*
X203495822Y-121908888D01*
X203428941Y-121888672D01*
X203384424Y-121837297D01*
X203357374Y-121779288D01*
X203226853Y-121592883D01*
X203226851Y-121592880D01*
X203065947Y-121431976D01*
X202879540Y-121301454D01*
X202879538Y-121301453D01*
X202673303Y-121205283D01*
X202673294Y-121205280D01*
X202453503Y-121146388D01*
X202453499Y-121146387D01*
X202453498Y-121146387D01*
X202453497Y-121146386D01*
X202453492Y-121146386D01*
X202226808Y-121126554D01*
X202226804Y-121126554D01*
X202000119Y-121146386D01*
X202000108Y-121146388D01*
X201780317Y-121205280D01*
X201780308Y-121205283D01*
X201574073Y-121301453D01*
X201574071Y-121301454D01*
X201387664Y-121431976D01*
X201226760Y-121592880D01*
X201096238Y-121779287D01*
X201096237Y-121779289D01*
X201069188Y-121837297D01*
X201023015Y-121889736D01*
X200955822Y-121908888D01*
X200888941Y-121888672D01*
X200844424Y-121837297D01*
X200817374Y-121779288D01*
X200686853Y-121592883D01*
X200686851Y-121592880D01*
X200525947Y-121431976D01*
X200339540Y-121301454D01*
X200339538Y-121301453D01*
X200133303Y-121205283D01*
X200133294Y-121205280D01*
X199913503Y-121146388D01*
X199913499Y-121146387D01*
X199913498Y-121146387D01*
X199913497Y-121146386D01*
X199913492Y-121146386D01*
X199686808Y-121126554D01*
X199686804Y-121126554D01*
X199460119Y-121146386D01*
X199460108Y-121146388D01*
X199240317Y-121205280D01*
X199240308Y-121205283D01*
X199034073Y-121301453D01*
X199034071Y-121301454D01*
X198847664Y-121431976D01*
X198686760Y-121592880D01*
X198556238Y-121779287D01*
X198556237Y-121779289D01*
X198460067Y-121985524D01*
X198460064Y-121985533D01*
X198401172Y-122205324D01*
X198401170Y-122205335D01*
X198381338Y-122432020D01*
X198381338Y-122432023D01*
X198401170Y-122658708D01*
X198401172Y-122658719D01*
X198460064Y-122878510D01*
X198460067Y-122878519D01*
X198556237Y-123084754D01*
X198556238Y-123084756D01*
X198686760Y-123271163D01*
X198847664Y-123432067D01*
X198847667Y-123432069D01*
X199034072Y-123562590D01*
X199240310Y-123658761D01*
X199460114Y-123717657D01*
X199622036Y-123731823D01*
X199686804Y-123737490D01*
X199686806Y-123737490D01*
X199686808Y-123737490D01*
X199743479Y-123732531D01*
X199913498Y-123717657D01*
X200133302Y-123658761D01*
X200339540Y-123562590D01*
X200525945Y-123432069D01*
X200686853Y-123271161D01*
X200817374Y-123084756D01*
X200844424Y-123026746D01*
X200890596Y-122974307D01*
X200957789Y-122955155D01*
X201024671Y-122975370D01*
X201069188Y-123026747D01*
X201096235Y-123084750D01*
X201096238Y-123084756D01*
X201226760Y-123271163D01*
X201387664Y-123432067D01*
X201387667Y-123432069D01*
X201574072Y-123562590D01*
X201780310Y-123658761D01*
X202000114Y-123717657D01*
X202162036Y-123731823D01*
X202226804Y-123737490D01*
X202226806Y-123737490D01*
X202226808Y-123737490D01*
X202283479Y-123732531D01*
X202453498Y-123717657D01*
X202673302Y-123658761D01*
X202879540Y-123562590D01*
X203065945Y-123432069D01*
X203226853Y-123271161D01*
X203357374Y-123084756D01*
X203384424Y-123026746D01*
X203430596Y-122974307D01*
X203497789Y-122955155D01*
X203564671Y-122975370D01*
X203609188Y-123026747D01*
X203636235Y-123084750D01*
X203636238Y-123084756D01*
X203766760Y-123271163D01*
X203927664Y-123432067D01*
X203927667Y-123432069D01*
X204114072Y-123562590D01*
X204320310Y-123658761D01*
X204540114Y-123717657D01*
X204702036Y-123731823D01*
X204766804Y-123737490D01*
X204766806Y-123737490D01*
X204766808Y-123737490D01*
X204823479Y-123732531D01*
X204993498Y-123717657D01*
X205213302Y-123658761D01*
X205419540Y-123562590D01*
X205605945Y-123432069D01*
X205766853Y-123271161D01*
X205897374Y-123084756D01*
X205924424Y-123026746D01*
X205970596Y-122974307D01*
X206037789Y-122955155D01*
X206104671Y-122975370D01*
X206149188Y-123026747D01*
X206176235Y-123084750D01*
X206176238Y-123084756D01*
X206306760Y-123271163D01*
X206467664Y-123432067D01*
X206467667Y-123432069D01*
X206654072Y-123562590D01*
X206860310Y-123658761D01*
X207080114Y-123717657D01*
X207242036Y-123731823D01*
X207306804Y-123737490D01*
X207306806Y-123737490D01*
X207306808Y-123737490D01*
X207363479Y-123732531D01*
X207533498Y-123717657D01*
X207753302Y-123658761D01*
X207959540Y-123562590D01*
X208145945Y-123432069D01*
X208306853Y-123271161D01*
X208437374Y-123084756D01*
X208464424Y-123026746D01*
X208510596Y-122974307D01*
X208577789Y-122955155D01*
X208644671Y-122975370D01*
X208689188Y-123026747D01*
X208716235Y-123084750D01*
X208716238Y-123084756D01*
X208846760Y-123271163D01*
X209007664Y-123432067D01*
X209007667Y-123432069D01*
X209194072Y-123562590D01*
X209400310Y-123658761D01*
X209620114Y-123717657D01*
X209782036Y-123731823D01*
X209846804Y-123737490D01*
X209846806Y-123737490D01*
X209846808Y-123737490D01*
X209903479Y-123732531D01*
X210073498Y-123717657D01*
X210293302Y-123658761D01*
X210499540Y-123562590D01*
X210685945Y-123432069D01*
X210846853Y-123271161D01*
X210977374Y-123084756D01*
X211004424Y-123026746D01*
X211050596Y-122974307D01*
X211117789Y-122955155D01*
X211184671Y-122975370D01*
X211229188Y-123026747D01*
X211256235Y-123084750D01*
X211256238Y-123084756D01*
X211386760Y-123271163D01*
X211547664Y-123432067D01*
X211547667Y-123432069D01*
X211734072Y-123562590D01*
X211940310Y-123658761D01*
X212160114Y-123717657D01*
X212322036Y-123731823D01*
X212386804Y-123737490D01*
X212386806Y-123737490D01*
X212386808Y-123737490D01*
X212443479Y-123732531D01*
X212613498Y-123717657D01*
X212833302Y-123658761D01*
X213039540Y-123562590D01*
X213225945Y-123432069D01*
X213386853Y-123271161D01*
X213517374Y-123084756D01*
X213544424Y-123026746D01*
X213590596Y-122974307D01*
X213657789Y-122955155D01*
X213724671Y-122975370D01*
X213769188Y-123026747D01*
X213796235Y-123084750D01*
X213796238Y-123084756D01*
X213926760Y-123271163D01*
X214087664Y-123432067D01*
X214087667Y-123432069D01*
X214274072Y-123562590D01*
X214480310Y-123658761D01*
X214700114Y-123717657D01*
X214862036Y-123731823D01*
X214926804Y-123737490D01*
X214926806Y-123737490D01*
X214926808Y-123737490D01*
X214983479Y-123732531D01*
X215153498Y-123717657D01*
X215373302Y-123658761D01*
X215579540Y-123562590D01*
X215765945Y-123432069D01*
X215926853Y-123271161D01*
X216057374Y-123084756D01*
X216084424Y-123026746D01*
X216130596Y-122974307D01*
X216197789Y-122955155D01*
X216264671Y-122975370D01*
X216309188Y-123026747D01*
X216336235Y-123084750D01*
X216336238Y-123084756D01*
X216466760Y-123271163D01*
X216627664Y-123432067D01*
X216627667Y-123432069D01*
X216814072Y-123562590D01*
X217020310Y-123658761D01*
X217240114Y-123717657D01*
X217402036Y-123731823D01*
X217466804Y-123737490D01*
X217466806Y-123737490D01*
X217466808Y-123737490D01*
X217523479Y-123732531D01*
X217693498Y-123717657D01*
X217913302Y-123658761D01*
X218119540Y-123562590D01*
X218305945Y-123432069D01*
X218466853Y-123271161D01*
X218597374Y-123084756D01*
X218624424Y-123026746D01*
X218670596Y-122974307D01*
X218737789Y-122955155D01*
X218804671Y-122975370D01*
X218849188Y-123026747D01*
X218876235Y-123084750D01*
X218876238Y-123084756D01*
X219006760Y-123271163D01*
X219167664Y-123432067D01*
X219167667Y-123432069D01*
X219354072Y-123562590D01*
X219560310Y-123658761D01*
X219780114Y-123717657D01*
X219942036Y-123731823D01*
X220006804Y-123737490D01*
X220006806Y-123737490D01*
X220006808Y-123737490D01*
X220063479Y-123732531D01*
X220233498Y-123717657D01*
X220453302Y-123658761D01*
X220659540Y-123562590D01*
X220845945Y-123432069D01*
X221006853Y-123271161D01*
X221137374Y-123084756D01*
X221158638Y-123039154D01*
X221168671Y-123021554D01*
X221175563Y-123011482D01*
X221229659Y-122967270D01*
X221299075Y-122959322D01*
X221361768Y-122990165D01*
X221390282Y-123029093D01*
X221416238Y-123084756D01*
X221416239Y-123084757D01*
X221546760Y-123271163D01*
X221707664Y-123432067D01*
X221707667Y-123432069D01*
X221894072Y-123562590D01*
X222100310Y-123658761D01*
X222320114Y-123717657D01*
X222482036Y-123731823D01*
X222546804Y-123737490D01*
X222546806Y-123737490D01*
X222546808Y-123737490D01*
X222603479Y-123732531D01*
X222773498Y-123717657D01*
X222993302Y-123658761D01*
X223199540Y-123562590D01*
X223385945Y-123432069D01*
X223546853Y-123271161D01*
X223677374Y-123084756D01*
X223704424Y-123026746D01*
X223750596Y-122974307D01*
X223817789Y-122955155D01*
X223884671Y-122975370D01*
X223929188Y-123026747D01*
X223956235Y-123084750D01*
X223956238Y-123084756D01*
X224086760Y-123271163D01*
X224247664Y-123432067D01*
X224247667Y-123432069D01*
X224434072Y-123562590D01*
X224640310Y-123658761D01*
X224860114Y-123717657D01*
X225022036Y-123731823D01*
X225086804Y-123737490D01*
X225086806Y-123737490D01*
X225086808Y-123737490D01*
X225143479Y-123732531D01*
X225313498Y-123717657D01*
X225533302Y-123658761D01*
X225739540Y-123562590D01*
X225925945Y-123432069D01*
X226086853Y-123271161D01*
X226217374Y-123084756D01*
X226244424Y-123026746D01*
X226290596Y-122974307D01*
X226357789Y-122955155D01*
X226424671Y-122975370D01*
X226469188Y-123026747D01*
X226496235Y-123084750D01*
X226496238Y-123084756D01*
X226626760Y-123271163D01*
X226787664Y-123432067D01*
X226787667Y-123432069D01*
X226974072Y-123562590D01*
X227180310Y-123658761D01*
X227400114Y-123717657D01*
X227562036Y-123731823D01*
X227626804Y-123737490D01*
X227626806Y-123737490D01*
X227626808Y-123737490D01*
X227683479Y-123732531D01*
X227853498Y-123717657D01*
X228073302Y-123658761D01*
X228279540Y-123562590D01*
X228465945Y-123432069D01*
X228626853Y-123271161D01*
X228757374Y-123084756D01*
X228784424Y-123026746D01*
X228830596Y-122974307D01*
X228897789Y-122955155D01*
X228964671Y-122975370D01*
X229009188Y-123026747D01*
X229036235Y-123084750D01*
X229036238Y-123084756D01*
X229166760Y-123271163D01*
X229327664Y-123432067D01*
X229327667Y-123432069D01*
X229514072Y-123562590D01*
X229720310Y-123658761D01*
X229940114Y-123717657D01*
X230102036Y-123731823D01*
X230166804Y-123737490D01*
X230166806Y-123737490D01*
X230166808Y-123737490D01*
X230223479Y-123732531D01*
X230393498Y-123717657D01*
X230613302Y-123658761D01*
X230819540Y-123562590D01*
X231005945Y-123432069D01*
X231166853Y-123271161D01*
X231297374Y-123084756D01*
X231324699Y-123026156D01*
X231370871Y-122973717D01*
X231438064Y-122954565D01*
X231504945Y-122974780D01*
X231549463Y-123026156D01*
X231576670Y-123084502D01*
X231627780Y-123157494D01*
X232306806Y-122478468D01*
X232306806Y-122484683D01*
X232334065Y-122586416D01*
X232386726Y-122677628D01*
X232461200Y-122752102D01*
X232552412Y-122804763D01*
X232654145Y-122832022D01*
X232660359Y-122832022D01*
X231981332Y-123511047D01*
X232054319Y-123562154D01*
X232054327Y-123562158D01*
X232260474Y-123658286D01*
X232260488Y-123658291D01*
X232480195Y-123717161D01*
X232480206Y-123717163D01*
X232706804Y-123736988D01*
X232706808Y-123736988D01*
X232933405Y-123717163D01*
X232933416Y-123717161D01*
X233153123Y-123658291D01*
X233153137Y-123658286D01*
X233359284Y-123562158D01*
X233432277Y-123511046D01*
X232753253Y-122832022D01*
X232759467Y-122832022D01*
X232861200Y-122804763D01*
X232952412Y-122752102D01*
X233026886Y-122677628D01*
X233079547Y-122586416D01*
X233106806Y-122484683D01*
X233106806Y-122478469D01*
X233785830Y-123157493D01*
X233836939Y-123084504D01*
X233864147Y-123026157D01*
X233910319Y-122973718D01*
X233977513Y-122954565D01*
X234044394Y-122974780D01*
X234088911Y-123026154D01*
X234116238Y-123084756D01*
X234116239Y-123084757D01*
X234246760Y-123271163D01*
X234407664Y-123432067D01*
X234407667Y-123432069D01*
X234594072Y-123562590D01*
X234800310Y-123658761D01*
X235020114Y-123717657D01*
X235182036Y-123731823D01*
X235246804Y-123737490D01*
X235246806Y-123737490D01*
X235246808Y-123737490D01*
X235303479Y-123732531D01*
X235473498Y-123717657D01*
X235693302Y-123658761D01*
X235899540Y-123562590D01*
X236085945Y-123432069D01*
X236246853Y-123271161D01*
X236377374Y-123084756D01*
X236473545Y-122878518D01*
X236532441Y-122658714D01*
X236552274Y-122432022D01*
X236532441Y-122205330D01*
X236473545Y-121985526D01*
X236377374Y-121779288D01*
X236246853Y-121592883D01*
X236246851Y-121592880D01*
X236085947Y-121431976D01*
X235899540Y-121301454D01*
X235899538Y-121301453D01*
X235693303Y-121205283D01*
X235693294Y-121205280D01*
X235473503Y-121146388D01*
X235473499Y-121146387D01*
X235473498Y-121146387D01*
X235473497Y-121146386D01*
X235473492Y-121146386D01*
X235246808Y-121126554D01*
X235246804Y-121126554D01*
X235020119Y-121146386D01*
X235020108Y-121146388D01*
X234800317Y-121205280D01*
X234800308Y-121205283D01*
X234594073Y-121301453D01*
X234594071Y-121301454D01*
X234407664Y-121431976D01*
X234246760Y-121592880D01*
X234116238Y-121779287D01*
X234116234Y-121779294D01*
X234088911Y-121837888D01*
X234042738Y-121890327D01*
X233975544Y-121909478D01*
X233908664Y-121889261D01*
X233864148Y-121837886D01*
X233836942Y-121779543D01*
X233836938Y-121779535D01*
X233785831Y-121706548D01*
X233106806Y-122385573D01*
X233106806Y-122379361D01*
X233079547Y-122277628D01*
X233026886Y-122186416D01*
X232952412Y-122111942D01*
X232861200Y-122059281D01*
X232759467Y-122032022D01*
X232753251Y-122032022D01*
X233432278Y-121352996D01*
X233359284Y-121301885D01*
X233153137Y-121205757D01*
X233153123Y-121205752D01*
X232933416Y-121146882D01*
X232933405Y-121146880D01*
X232706808Y-121127056D01*
X232706804Y-121127056D01*
X232480206Y-121146880D01*
X232480195Y-121146882D01*
X232260488Y-121205752D01*
X232260479Y-121205756D01*
X232054322Y-121301888D01*
X232054318Y-121301890D01*
X231981332Y-121352995D01*
X231981332Y-121352996D01*
X232660359Y-122032022D01*
X232654145Y-122032022D01*
X232552412Y-122059281D01*
X232461200Y-122111942D01*
X232386726Y-122186416D01*
X232334065Y-122277628D01*
X232306806Y-122379361D01*
X232306806Y-122385574D01*
X231627780Y-121706548D01*
X231627779Y-121706548D01*
X231576674Y-121779534D01*
X231576674Y-121779535D01*
X231549463Y-121837889D01*
X231503290Y-121890328D01*
X231436096Y-121909479D01*
X231369215Y-121889263D01*
X231324699Y-121837887D01*
X231297488Y-121779534D01*
X231297374Y-121779288D01*
X231166853Y-121592883D01*
X231166851Y-121592880D01*
X231005947Y-121431976D01*
X230819540Y-121301454D01*
X230819538Y-121301453D01*
X230613303Y-121205283D01*
X230613294Y-121205280D01*
X230393503Y-121146388D01*
X230393499Y-121146387D01*
X230393498Y-121146387D01*
X230393497Y-121146386D01*
X230393492Y-121146386D01*
X230166808Y-121126554D01*
X230166804Y-121126554D01*
X229940119Y-121146386D01*
X229940108Y-121146388D01*
X229720317Y-121205280D01*
X229720308Y-121205283D01*
X229514073Y-121301453D01*
X229514071Y-121301454D01*
X229327664Y-121431976D01*
X229166760Y-121592880D01*
X229036238Y-121779287D01*
X229036237Y-121779289D01*
X229009188Y-121837297D01*
X228963015Y-121889736D01*
X228895822Y-121908888D01*
X228828941Y-121888672D01*
X228784424Y-121837297D01*
X228757374Y-121779288D01*
X228626853Y-121592883D01*
X228626851Y-121592880D01*
X228465947Y-121431976D01*
X228279540Y-121301454D01*
X228279538Y-121301453D01*
X228073303Y-121205283D01*
X228073294Y-121205280D01*
X227853503Y-121146388D01*
X227853499Y-121146387D01*
X227853498Y-121146387D01*
X227853497Y-121146386D01*
X227853492Y-121146386D01*
X227626808Y-121126554D01*
X227626804Y-121126554D01*
X227400119Y-121146386D01*
X227400108Y-121146388D01*
X227180317Y-121205280D01*
X227180308Y-121205283D01*
X226974073Y-121301453D01*
X226974071Y-121301454D01*
X226787664Y-121431976D01*
X226626760Y-121592880D01*
X226496238Y-121779287D01*
X226496237Y-121779289D01*
X226469188Y-121837297D01*
X226423015Y-121889736D01*
X226355822Y-121908888D01*
X226288941Y-121888672D01*
X226244424Y-121837297D01*
X226217374Y-121779288D01*
X226086853Y-121592883D01*
X226086851Y-121592880D01*
X225925947Y-121431976D01*
X225739540Y-121301454D01*
X225739538Y-121301453D01*
X225533303Y-121205283D01*
X225533294Y-121205280D01*
X225313503Y-121146388D01*
X225313499Y-121146387D01*
X225313498Y-121146387D01*
X225313497Y-121146386D01*
X225313492Y-121146386D01*
X225086808Y-121126554D01*
X225086804Y-121126554D01*
X224860119Y-121146386D01*
X224860108Y-121146388D01*
X224640317Y-121205280D01*
X224640308Y-121205283D01*
X224434073Y-121301453D01*
X224434071Y-121301454D01*
X224247664Y-121431976D01*
X224086760Y-121592880D01*
X223956238Y-121779287D01*
X223956237Y-121779289D01*
X223929188Y-121837297D01*
X223883015Y-121889736D01*
X223815822Y-121908888D01*
X223748941Y-121888672D01*
X223704424Y-121837297D01*
X223677374Y-121779288D01*
X223546853Y-121592883D01*
X223546851Y-121592880D01*
X223385947Y-121431976D01*
X223199540Y-121301454D01*
X223199538Y-121301453D01*
X222993303Y-121205283D01*
X222993296Y-121205281D01*
X222928792Y-121187997D01*
X222869131Y-121151631D01*
X222838603Y-121088784D01*
X222846898Y-121019409D01*
X222873202Y-120980544D01*
X224553762Y-119299984D01*
X247649500Y-119299984D01*
X247649500Y-122200015D01*
X247660000Y-122302795D01*
X247660001Y-122302796D01*
X247715186Y-122469335D01*
X247715187Y-122469337D01*
X247807286Y-122618651D01*
X247807289Y-122618655D01*
X247931344Y-122742710D01*
X247931348Y-122742713D01*
X248080662Y-122834812D01*
X248080664Y-122834813D01*
X248080666Y-122834814D01*
X248247203Y-122889999D01*
X248349992Y-122900500D01*
X248349997Y-122900500D01*
X250650003Y-122900500D01*
X250650008Y-122900500D01*
X250752797Y-122889999D01*
X250919334Y-122834814D01*
X251068655Y-122742711D01*
X251192711Y-122618655D01*
X251284814Y-122469334D01*
X251339999Y-122302797D01*
X251350500Y-122200008D01*
X251350500Y-120000000D01*
X254994675Y-120000000D01*
X255013962Y-120392591D01*
X255013962Y-120392597D01*
X255013963Y-120392599D01*
X255071637Y-120781406D01*
X255167143Y-121162684D01*
X255299561Y-121532770D01*
X255299562Y-121532772D01*
X255467620Y-121888100D01*
X255646424Y-122186416D01*
X255669694Y-122225239D01*
X255850729Y-122469337D01*
X255903846Y-122540956D01*
X256167807Y-122832192D01*
X256459043Y-123096153D01*
X256459049Y-123096158D01*
X256774761Y-123330306D01*
X256774763Y-123330307D01*
X257111899Y-123532379D01*
X257111902Y-123532380D01*
X257111903Y-123532381D01*
X257467228Y-123700438D01*
X257837316Y-123832857D01*
X258218600Y-123928364D01*
X258607409Y-123986038D01*
X259000000Y-124005325D01*
X259392591Y-123986038D01*
X259781400Y-123928364D01*
X260162684Y-123832857D01*
X260532772Y-123700438D01*
X260888097Y-123532381D01*
X261225239Y-123330306D01*
X261540951Y-123096158D01*
X261832192Y-122832192D01*
X262096158Y-122540951D01*
X262330306Y-122225239D01*
X262532381Y-121888097D01*
X262700438Y-121532772D01*
X262832857Y-121162684D01*
X262928364Y-120781400D01*
X262986038Y-120392591D01*
X263005325Y-120000000D01*
X262986038Y-119607409D01*
X262928364Y-119218600D01*
X262832857Y-118837316D01*
X262700438Y-118467228D01*
X262532381Y-118111903D01*
X262330306Y-117774761D01*
X262096158Y-117459049D01*
X262096153Y-117459043D01*
X261832192Y-117167807D01*
X261540956Y-116903846D01*
X261363728Y-116772405D01*
X261225239Y-116669694D01*
X261075609Y-116580009D01*
X260888100Y-116467620D01*
X260532772Y-116299562D01*
X260532770Y-116299561D01*
X260162684Y-116167143D01*
X259781406Y-116071637D01*
X259781401Y-116071636D01*
X259781400Y-116071636D01*
X259637256Y-116050254D01*
X259392599Y-116013963D01*
X259392597Y-116013962D01*
X259392591Y-116013962D01*
X259000000Y-115994675D01*
X258607409Y-116013962D01*
X258607403Y-116013962D01*
X258607400Y-116013963D01*
X258218593Y-116071637D01*
X257837315Y-116167143D01*
X257467229Y-116299561D01*
X257467227Y-116299562D01*
X257111899Y-116467620D01*
X256774763Y-116669692D01*
X256459043Y-116903846D01*
X256167807Y-117167807D01*
X255903846Y-117459043D01*
X255669692Y-117774763D01*
X255467620Y-118111899D01*
X255299562Y-118467227D01*
X255299561Y-118467229D01*
X255167143Y-118837315D01*
X255071637Y-119218593D01*
X255071636Y-119218600D01*
X255013962Y-119607409D01*
X254994675Y-120000000D01*
X251350500Y-120000000D01*
X251350500Y-119299992D01*
X251339999Y-119197203D01*
X251284814Y-119030666D01*
X251192711Y-118881345D01*
X251068655Y-118757289D01*
X251068651Y-118757286D01*
X250919337Y-118665187D01*
X250919335Y-118665186D01*
X250836065Y-118637593D01*
X250752797Y-118610001D01*
X250752795Y-118610000D01*
X250650015Y-118599500D01*
X250650008Y-118599500D01*
X248349992Y-118599500D01*
X248349984Y-118599500D01*
X248247204Y-118610000D01*
X248247203Y-118610001D01*
X248080664Y-118665186D01*
X248080662Y-118665187D01*
X247931348Y-118757286D01*
X247931344Y-118757289D01*
X247807289Y-118881344D01*
X247807286Y-118881348D01*
X247715187Y-119030662D01*
X247715186Y-119030664D01*
X247660001Y-119197203D01*
X247660000Y-119197204D01*
X247649500Y-119299984D01*
X224553762Y-119299984D01*
X229024996Y-114828751D01*
X247650000Y-114828751D01*
X247650000Y-115000000D01*
X248845879Y-115000000D01*
X248826901Y-115045818D01*
X248800000Y-115181056D01*
X248800000Y-115318944D01*
X248826901Y-115454182D01*
X248845879Y-115500000D01*
X247650000Y-115500000D01*
X247650000Y-115671248D01*
X247650001Y-115671264D01*
X247681653Y-115911687D01*
X247744421Y-116145939D01*
X247837220Y-116369978D01*
X247837227Y-116369993D01*
X247958480Y-116580009D01*
X248106110Y-116772405D01*
X248106116Y-116772412D01*
X248277587Y-116943883D01*
X248277594Y-116943889D01*
X248469990Y-117091519D01*
X248680006Y-117212772D01*
X248680021Y-117212779D01*
X248904060Y-117305578D01*
X249138312Y-117368346D01*
X249250000Y-117383049D01*
X249250000Y-115904120D01*
X249295818Y-115923099D01*
X249431056Y-115950000D01*
X249568944Y-115950000D01*
X249704182Y-115923099D01*
X249750000Y-115904120D01*
X249750000Y-117383048D01*
X249861687Y-117368346D01*
X250095939Y-117305578D01*
X250319978Y-117212779D01*
X250319993Y-117212772D01*
X250530009Y-117091519D01*
X250722405Y-116943889D01*
X250722412Y-116943883D01*
X250893883Y-116772412D01*
X250893889Y-116772405D01*
X251041519Y-116580009D01*
X251162772Y-116369993D01*
X251162779Y-116369978D01*
X251255578Y-116145939D01*
X251318346Y-115911687D01*
X251349998Y-115671264D01*
X251350000Y-115671248D01*
X251350000Y-115500000D01*
X250154121Y-115500000D01*
X250173099Y-115454182D01*
X250200000Y-115318944D01*
X250200000Y-115181056D01*
X250173099Y-115045818D01*
X250154121Y-115000000D01*
X251350000Y-115000000D01*
X251350000Y-114828751D01*
X251349998Y-114828735D01*
X251318346Y-114588312D01*
X251255578Y-114354060D01*
X251162779Y-114130021D01*
X251162772Y-114130006D01*
X251041519Y-113919990D01*
X250893889Y-113727594D01*
X250893883Y-113727587D01*
X250722412Y-113556116D01*
X250722405Y-113556110D01*
X250530009Y-113408480D01*
X250319993Y-113287227D01*
X250319978Y-113287220D01*
X250095939Y-113194421D01*
X249861687Y-113131653D01*
X249750000Y-113116948D01*
X249750000Y-114595879D01*
X249704182Y-114576901D01*
X249568944Y-114550000D01*
X249431056Y-114550000D01*
X249295818Y-114576901D01*
X249250000Y-114595879D01*
X249250000Y-113116948D01*
X249249999Y-113116948D01*
X249138312Y-113131653D01*
X248904060Y-113194421D01*
X248680021Y-113287220D01*
X248680006Y-113287227D01*
X248469990Y-113408480D01*
X248277594Y-113556110D01*
X248277587Y-113556116D01*
X248106116Y-113727587D01*
X248106110Y-113727594D01*
X247958480Y-113919990D01*
X247837227Y-114130006D01*
X247837220Y-114130021D01*
X247744421Y-114354060D01*
X247681653Y-114588312D01*
X247650001Y-114828735D01*
X247650000Y-114828751D01*
X229024996Y-114828751D01*
X238723945Y-105129804D01*
X238766415Y-105066243D01*
X238833438Y-104965936D01*
X238908857Y-104783857D01*
X238947306Y-104590563D01*
X238947306Y-99499995D01*
X244194451Y-99499995D01*
X244194451Y-99500000D01*
X244214616Y-99769101D01*
X244269818Y-100010956D01*
X244274666Y-100032195D01*
X244373257Y-100283398D01*
X244508185Y-100517102D01*
X244597787Y-100629459D01*
X244676442Y-100728089D01*
X244861042Y-100899371D01*
X244874259Y-100911635D01*
X245097226Y-101063651D01*
X245340359Y-101180738D01*
X245598228Y-101260280D01*
X245598229Y-101260280D01*
X245598232Y-101260281D01*
X245865063Y-101300499D01*
X245865068Y-101300499D01*
X245865071Y-101300500D01*
X245980664Y-101300500D01*
X246047703Y-101320185D01*
X246068345Y-101336819D01*
X252935354Y-108203828D01*
X253094595Y-108319524D01*
X253177454Y-108361742D01*
X253269969Y-108408882D01*
X253269971Y-108408882D01*
X253269974Y-108408884D01*
X253370318Y-108441487D01*
X253457173Y-108469709D01*
X253651578Y-108500500D01*
X253651583Y-108500500D01*
X253848416Y-108500500D01*
X256064868Y-108500500D01*
X256129963Y-108518960D01*
X256155666Y-108534814D01*
X256322203Y-108589999D01*
X256424991Y-108600500D01*
X257875008Y-108600499D01*
X257977797Y-108589999D01*
X258144334Y-108534814D01*
X258293656Y-108442712D01*
X258417712Y-108318656D01*
X258509814Y-108169334D01*
X258564999Y-108002797D01*
X258575500Y-107900009D01*
X258575499Y-106599992D01*
X258564999Y-106497203D01*
X258509814Y-106330666D01*
X258417712Y-106181344D01*
X258293656Y-106057288D01*
X258144334Y-105965186D01*
X258144333Y-105965185D01*
X258138878Y-105961821D01*
X258092154Y-105909873D01*
X258080931Y-105840910D01*
X258108775Y-105776828D01*
X258116272Y-105768623D01*
X258255104Y-105629792D01*
X258380051Y-105457816D01*
X258476557Y-105268412D01*
X258542246Y-105066243D01*
X258575500Y-104856287D01*
X258575500Y-104643713D01*
X258542246Y-104433757D01*
X258476557Y-104231588D01*
X258380051Y-104042184D01*
X258380049Y-104042181D01*
X258380048Y-104042179D01*
X258255109Y-103870213D01*
X258104792Y-103719896D01*
X258104784Y-103719890D01*
X257940204Y-103600316D01*
X257897540Y-103544989D01*
X257891561Y-103475376D01*
X257924166Y-103413580D01*
X257940199Y-103399686D01*
X258104792Y-103280104D01*
X258255104Y-103129792D01*
X258255106Y-103129788D01*
X258255109Y-103129786D01*
X258380048Y-102957820D01*
X258380047Y-102957820D01*
X258380051Y-102957816D01*
X258476557Y-102768412D01*
X258542246Y-102566243D01*
X258575500Y-102356287D01*
X258575500Y-102143713D01*
X258542246Y-101933757D01*
X258476557Y-101731588D01*
X258380051Y-101542184D01*
X258380049Y-101542181D01*
X258380048Y-101542179D01*
X258255109Y-101370213D01*
X258104790Y-101219894D01*
X258104785Y-101219890D01*
X257939781Y-101100008D01*
X257897115Y-101044678D01*
X257891136Y-100975065D01*
X257923741Y-100913270D01*
X257939781Y-100899371D01*
X258104466Y-100779721D01*
X258254723Y-100629464D01*
X258254727Y-100629459D01*
X258379620Y-100457557D01*
X258476095Y-100268217D01*
X258541757Y-100066129D01*
X258541757Y-100066126D01*
X258552231Y-100000000D01*
X257496410Y-100000000D01*
X257546037Y-99914044D01*
X257575000Y-99805952D01*
X257575000Y-99694048D01*
X257546037Y-99585956D01*
X257496410Y-99500000D01*
X258552231Y-99500000D01*
X258541757Y-99433873D01*
X258541757Y-99433870D01*
X258476095Y-99231782D01*
X258379620Y-99042442D01*
X258254727Y-98870540D01*
X258254723Y-98870535D01*
X258104464Y-98720276D01*
X258104459Y-98720272D01*
X257932557Y-98595379D01*
X257743217Y-98498904D01*
X257541129Y-98433242D01*
X257400000Y-98410889D01*
X257400000Y-99403590D01*
X257314044Y-99353963D01*
X257205952Y-99325000D01*
X257094048Y-99325000D01*
X256985956Y-99353963D01*
X256900000Y-99403590D01*
X256900000Y-98410889D01*
X256758870Y-98433242D01*
X256758869Y-98433242D01*
X256556782Y-98498904D01*
X256367442Y-98595379D01*
X256195540Y-98720272D01*
X256195535Y-98720276D01*
X256045276Y-98870535D01*
X256045272Y-98870540D01*
X255920379Y-99042442D01*
X255823904Y-99231782D01*
X255758242Y-99433870D01*
X255758242Y-99433873D01*
X255747769Y-99500000D01*
X256803590Y-99500000D01*
X256753963Y-99585956D01*
X256725000Y-99694048D01*
X256725000Y-99805952D01*
X256753963Y-99914044D01*
X256803590Y-100000000D01*
X255747769Y-100000000D01*
X255758242Y-100066126D01*
X255758242Y-100066129D01*
X255823904Y-100268217D01*
X255920379Y-100457557D01*
X256045272Y-100629459D01*
X256045276Y-100629464D01*
X256195535Y-100779723D01*
X256195540Y-100779727D01*
X256360218Y-100899372D01*
X256402884Y-100954701D01*
X256408863Y-101024315D01*
X256376258Y-101086110D01*
X256360218Y-101100008D01*
X256195214Y-101219890D01*
X256195209Y-101219894D01*
X256044890Y-101370213D01*
X255919951Y-101542179D01*
X255823444Y-101731585D01*
X255757753Y-101933760D01*
X255724500Y-102143713D01*
X255724500Y-102356286D01*
X255757753Y-102566239D01*
X255823444Y-102768414D01*
X255919951Y-102957820D01*
X256044890Y-103129786D01*
X256195209Y-103280105D01*
X256195214Y-103280109D01*
X256359793Y-103399682D01*
X256402459Y-103455011D01*
X256408438Y-103524625D01*
X256375833Y-103586420D01*
X256359793Y-103600318D01*
X256195214Y-103719890D01*
X256195209Y-103719894D01*
X256044890Y-103870213D01*
X255919951Y-104042179D01*
X255823444Y-104231585D01*
X255757753Y-104433760D01*
X255732918Y-104590563D01*
X255724500Y-104643713D01*
X255724500Y-104856287D01*
X255757754Y-105066243D01*
X255778407Y-105129807D01*
X255823444Y-105268414D01*
X255919951Y-105457820D01*
X256044890Y-105629786D01*
X256183705Y-105768601D01*
X256217190Y-105829924D01*
X256212206Y-105899616D01*
X256170334Y-105955549D01*
X256161123Y-105961819D01*
X256129967Y-105981037D01*
X256064868Y-105999500D01*
X254319336Y-105999500D01*
X254252297Y-105979815D01*
X254231655Y-105963181D01*
X247841086Y-99572612D01*
X247807601Y-99511289D01*
X247805114Y-99494197D01*
X247800593Y-99433873D01*
X247785383Y-99230897D01*
X247725334Y-98967805D01*
X247626743Y-98716602D01*
X247491815Y-98482898D01*
X247323561Y-98271915D01*
X247323560Y-98271914D01*
X247323557Y-98271910D01*
X247125741Y-98088365D01*
X247043167Y-98032067D01*
X246902775Y-97936349D01*
X246902769Y-97936346D01*
X246902768Y-97936345D01*
X246902767Y-97936344D01*
X246659643Y-97819263D01*
X246659645Y-97819263D01*
X246401773Y-97739720D01*
X246401767Y-97739718D01*
X246134936Y-97699500D01*
X246134929Y-97699500D01*
X245865071Y-97699500D01*
X245865063Y-97699500D01*
X245598232Y-97739718D01*
X245598226Y-97739720D01*
X245340358Y-97819262D01*
X245097230Y-97936346D01*
X244874258Y-98088365D01*
X244676442Y-98271910D01*
X244508185Y-98482898D01*
X244373258Y-98716599D01*
X244373256Y-98716603D01*
X244274666Y-98967804D01*
X244274664Y-98967811D01*
X244214616Y-99230898D01*
X244194451Y-99499995D01*
X238947306Y-99499995D01*
X238947306Y-91424983D01*
X240899500Y-91424983D01*
X240899500Y-92875001D01*
X240899501Y-92875018D01*
X240910000Y-92977796D01*
X240910001Y-92977799D01*
X240953257Y-93108336D01*
X240965186Y-93144334D01*
X241057288Y-93293656D01*
X241181344Y-93417712D01*
X241330666Y-93509814D01*
X241497203Y-93564999D01*
X241599991Y-93575500D01*
X242900008Y-93575499D01*
X243002797Y-93564999D01*
X243169334Y-93509814D01*
X243318656Y-93417712D01*
X243442712Y-93293656D01*
X243534814Y-93144334D01*
X243534814Y-93144331D01*
X243538448Y-93138441D01*
X243590395Y-93091716D01*
X243659358Y-93080493D01*
X243723440Y-93108336D01*
X243731668Y-93115856D01*
X243870535Y-93254723D01*
X243870540Y-93254727D01*
X244042442Y-93379620D01*
X244231782Y-93476095D01*
X244433871Y-93541757D01*
X244500000Y-93552231D01*
X244500000Y-92496409D01*
X244585956Y-92546037D01*
X244694048Y-92575000D01*
X244805952Y-92575000D01*
X244914044Y-92546037D01*
X245000000Y-92496409D01*
X245000000Y-93552230D01*
X245066126Y-93541757D01*
X245066129Y-93541757D01*
X245268217Y-93476095D01*
X245457557Y-93379620D01*
X245629459Y-93254727D01*
X245629464Y-93254723D01*
X245779723Y-93104464D01*
X245779727Y-93104459D01*
X245904620Y-92932557D01*
X246001095Y-92743217D01*
X246066757Y-92541127D01*
X246089110Y-92400000D01*
X245096410Y-92400000D01*
X245146037Y-92314044D01*
X245175000Y-92205952D01*
X245175000Y-92094048D01*
X245146037Y-91985956D01*
X245096410Y-91900000D01*
X246089110Y-91900000D01*
X246066757Y-91758872D01*
X246001095Y-91556782D01*
X245904620Y-91367442D01*
X245779727Y-91195540D01*
X245779723Y-91195535D01*
X245629464Y-91045276D01*
X245629459Y-91045272D01*
X245457557Y-90920379D01*
X245268215Y-90823903D01*
X245252241Y-90818713D01*
X250649500Y-90818713D01*
X250649500Y-91181287D01*
X250655226Y-91217442D01*
X250664341Y-91274992D01*
X250682754Y-91391243D01*
X250734792Y-91551400D01*
X250748444Y-91593414D01*
X250844951Y-91782820D01*
X250969890Y-91954786D01*
X251120213Y-92105109D01*
X251292179Y-92230048D01*
X251292181Y-92230049D01*
X251292184Y-92230051D01*
X251481588Y-92326557D01*
X251683757Y-92392246D01*
X251893713Y-92425500D01*
X251893714Y-92425500D01*
X252106286Y-92425500D01*
X252106287Y-92425500D01*
X252316243Y-92392246D01*
X252518412Y-92326557D01*
X252707816Y-92230051D01*
X252740986Y-92205952D01*
X252879786Y-92105109D01*
X252879788Y-92105106D01*
X252879792Y-92105104D01*
X253030104Y-91954792D01*
X253149683Y-91790204D01*
X253205011Y-91747540D01*
X253274624Y-91741561D01*
X253336420Y-91774166D01*
X253350313Y-91790199D01*
X253430088Y-91900000D01*
X253469896Y-91954792D01*
X253620213Y-92105109D01*
X253792179Y-92230048D01*
X253792181Y-92230049D01*
X253792184Y-92230051D01*
X253981588Y-92326557D01*
X254183757Y-92392246D01*
X254393713Y-92425500D01*
X254393714Y-92425500D01*
X254606286Y-92425500D01*
X254606287Y-92425500D01*
X254816243Y-92392246D01*
X255018412Y-92326557D01*
X255207816Y-92230051D01*
X255240986Y-92205952D01*
X255379786Y-92105109D01*
X255379788Y-92105106D01*
X255379792Y-92105104D01*
X255530104Y-91954792D01*
X255649683Y-91790204D01*
X255705011Y-91747540D01*
X255774624Y-91741561D01*
X255836420Y-91774166D01*
X255850313Y-91790199D01*
X255930088Y-91900000D01*
X255969896Y-91954792D01*
X256120213Y-92105109D01*
X256292179Y-92230048D01*
X256292181Y-92230049D01*
X256292184Y-92230051D01*
X256481588Y-92326557D01*
X256683757Y-92392246D01*
X256893713Y-92425500D01*
X256893714Y-92425500D01*
X257106286Y-92425500D01*
X257106287Y-92425500D01*
X257316243Y-92392246D01*
X257518412Y-92326557D01*
X257707816Y-92230051D01*
X257765141Y-92188402D01*
X257879784Y-92105110D01*
X257879784Y-92105109D01*
X257879792Y-92105104D01*
X258018604Y-91966291D01*
X258079923Y-91932809D01*
X258149615Y-91937793D01*
X258205549Y-91979664D01*
X258211821Y-91988878D01*
X258215185Y-91994333D01*
X258215186Y-91994334D01*
X258307288Y-92143656D01*
X258431344Y-92267712D01*
X258580666Y-92359814D01*
X258747203Y-92414999D01*
X258849991Y-92425500D01*
X260150008Y-92425499D01*
X260252797Y-92414999D01*
X260419334Y-92359814D01*
X260568656Y-92267712D01*
X260692712Y-92143656D01*
X260784814Y-91994334D01*
X260839999Y-91827797D01*
X260850500Y-91725009D01*
X260850499Y-90274992D01*
X260839999Y-90172203D01*
X260784814Y-90005666D01*
X260692712Y-89856344D01*
X260568656Y-89732288D01*
X260419334Y-89640186D01*
X260252797Y-89585001D01*
X260252795Y-89585000D01*
X260150010Y-89574500D01*
X258849998Y-89574500D01*
X258849981Y-89574501D01*
X258747203Y-89585000D01*
X258747200Y-89585001D01*
X258580668Y-89640185D01*
X258580663Y-89640187D01*
X258431342Y-89732289D01*
X258307289Y-89856342D01*
X258211821Y-90011121D01*
X258159873Y-90057845D01*
X258090910Y-90069068D01*
X258026828Y-90041224D01*
X258018601Y-90033705D01*
X257879786Y-89894890D01*
X257707820Y-89769951D01*
X257518414Y-89673444D01*
X257518413Y-89673443D01*
X257518412Y-89673443D01*
X257316243Y-89607754D01*
X257316241Y-89607753D01*
X257316240Y-89607753D01*
X257154957Y-89582208D01*
X257106287Y-89574500D01*
X256893713Y-89574500D01*
X256845042Y-89582208D01*
X256683760Y-89607753D01*
X256481585Y-89673444D01*
X256292179Y-89769951D01*
X256120213Y-89894890D01*
X255969894Y-90045209D01*
X255969890Y-90045214D01*
X255850318Y-90209793D01*
X255794989Y-90252459D01*
X255725375Y-90258438D01*
X255663580Y-90225833D01*
X255649682Y-90209793D01*
X255530109Y-90045214D01*
X255530105Y-90045209D01*
X255379786Y-89894890D01*
X255207820Y-89769951D01*
X255018414Y-89673444D01*
X255018413Y-89673443D01*
X255018412Y-89673443D01*
X254816243Y-89607754D01*
X254816241Y-89607753D01*
X254816240Y-89607753D01*
X254654957Y-89582208D01*
X254606287Y-89574500D01*
X254393713Y-89574500D01*
X254345042Y-89582208D01*
X254183760Y-89607753D01*
X253981585Y-89673444D01*
X253792179Y-89769951D01*
X253620213Y-89894890D01*
X253469894Y-90045209D01*
X253469890Y-90045214D01*
X253350318Y-90209793D01*
X253294989Y-90252459D01*
X253225375Y-90258438D01*
X253163580Y-90225833D01*
X253149682Y-90209793D01*
X253030109Y-90045214D01*
X253030105Y-90045209D01*
X252879786Y-89894890D01*
X252707820Y-89769951D01*
X252518414Y-89673444D01*
X252518413Y-89673443D01*
X252518412Y-89673443D01*
X252316243Y-89607754D01*
X252316241Y-89607753D01*
X252316240Y-89607753D01*
X252154957Y-89582208D01*
X252106287Y-89574500D01*
X251893713Y-89574500D01*
X251845042Y-89582208D01*
X251683760Y-89607753D01*
X251481585Y-89673444D01*
X251292179Y-89769951D01*
X251120213Y-89894890D01*
X250969890Y-90045213D01*
X250844951Y-90217179D01*
X250748444Y-90406585D01*
X250682753Y-90608760D01*
X250656425Y-90774992D01*
X250649500Y-90818713D01*
X245252241Y-90818713D01*
X245066124Y-90758241D01*
X245000000Y-90747768D01*
X245000000Y-91803590D01*
X244914044Y-91753963D01*
X244805952Y-91725000D01*
X244694048Y-91725000D01*
X244585956Y-91753963D01*
X244500000Y-91803590D01*
X244500000Y-90747768D01*
X244499999Y-90747768D01*
X244433875Y-90758241D01*
X244231784Y-90823903D01*
X244042442Y-90920379D01*
X243870541Y-91045271D01*
X243731668Y-91184144D01*
X243670345Y-91217628D01*
X243600653Y-91212644D01*
X243544720Y-91170772D01*
X243538448Y-91161558D01*
X243442712Y-91006344D01*
X243318657Y-90882289D01*
X243318656Y-90882288D01*
X243169334Y-90790186D01*
X243002797Y-90735001D01*
X243002795Y-90735000D01*
X242900010Y-90724500D01*
X241599998Y-90724500D01*
X241599981Y-90724501D01*
X241497203Y-90735000D01*
X241497200Y-90735001D01*
X241330668Y-90790185D01*
X241330663Y-90790187D01*
X241181342Y-90882289D01*
X241057289Y-91006342D01*
X240965187Y-91155663D01*
X240965185Y-91155668D01*
X240960180Y-91170772D01*
X240910001Y-91322203D01*
X240910001Y-91322204D01*
X240910000Y-91322204D01*
X240899500Y-91424983D01*
X238947306Y-91424983D01*
X238947306Y-79893265D01*
X238947306Y-79893262D01*
X238947305Y-79893260D01*
X238908859Y-79699980D01*
X238908858Y-79699977D01*
X238908857Y-79699971D01*
X238906001Y-79693077D01*
X238855143Y-79570294D01*
X238833438Y-79517892D01*
X238723945Y-79354024D01*
X238584588Y-79214667D01*
X238584587Y-79214666D01*
X234185084Y-74815164D01*
X234151600Y-74753842D01*
X234149238Y-74738287D01*
X234148070Y-74724935D01*
X234148070Y-74724932D01*
X234090894Y-74511550D01*
X233997534Y-74311339D01*
X233934180Y-74220859D01*
X233870827Y-74130381D01*
X233793392Y-74052946D01*
X233714620Y-73974174D01*
X233714616Y-73974171D01*
X233714615Y-73974170D01*
X233533666Y-73847468D01*
X233533658Y-73847464D01*
X233404811Y-73787382D01*
X233352371Y-73741210D01*
X233333219Y-73674017D01*
X233353435Y-73607135D01*
X233404811Y-73562618D01*
X233410802Y-73559824D01*
X233533662Y-73502534D01*
X233714620Y-73375826D01*
X233870826Y-73219620D01*
X233997534Y-73038662D01*
X234090894Y-72838450D01*
X234148070Y-72625068D01*
X234167323Y-72405000D01*
X234148070Y-72184932D01*
X234090894Y-71971550D01*
X233997534Y-71771339D01*
X233934180Y-71680859D01*
X233870827Y-71590381D01*
X233817910Y-71537464D01*
X233714620Y-71434174D01*
X233714616Y-71434171D01*
X233714615Y-71434170D01*
X233533666Y-71307468D01*
X233533662Y-71307466D01*
X233511507Y-71297135D01*
X233333450Y-71214106D01*
X233333447Y-71214105D01*
X233333445Y-71214104D01*
X233120070Y-71156930D01*
X233120062Y-71156929D01*
X232900002Y-71137677D01*
X232899998Y-71137677D01*
X232679937Y-71156929D01*
X232679929Y-71156930D01*
X232466554Y-71214104D01*
X232466548Y-71214107D01*
X232266340Y-71307465D01*
X232266338Y-71307466D01*
X232085377Y-71434175D01*
X231929175Y-71590377D01*
X231802466Y-71771338D01*
X231802465Y-71771340D01*
X231709107Y-71971548D01*
X231709104Y-71971554D01*
X231651930Y-72184929D01*
X231651929Y-72184937D01*
X231632677Y-72404997D01*
X231632677Y-72405002D01*
X231651929Y-72625062D01*
X231651930Y-72625070D01*
X231709104Y-72838445D01*
X231709105Y-72838447D01*
X231709106Y-72838450D01*
X231741670Y-72908284D01*
X231802466Y-73038662D01*
X231802468Y-73038666D01*
X231929170Y-73219615D01*
X231929175Y-73219621D01*
X232085378Y-73375824D01*
X232085384Y-73375829D01*
X232266333Y-73502531D01*
X232266335Y-73502532D01*
X232266338Y-73502534D01*
X232340101Y-73536930D01*
X232395189Y-73562618D01*
X232447628Y-73608790D01*
X232466780Y-73675984D01*
X232446564Y-73742865D01*
X232395189Y-73787382D01*
X232266340Y-73847465D01*
X232266338Y-73847466D01*
X232085377Y-73974175D01*
X231929175Y-74130377D01*
X231802466Y-74311338D01*
X231802465Y-74311340D01*
X231709107Y-74511548D01*
X231709104Y-74511554D01*
X231651930Y-74724929D01*
X231651929Y-74724937D01*
X231632677Y-74944997D01*
X231632677Y-74945002D01*
X231651929Y-75165062D01*
X231651930Y-75165070D01*
X231709104Y-75378445D01*
X231709105Y-75378447D01*
X231709106Y-75378450D01*
X231741748Y-75448451D01*
X231802466Y-75578662D01*
X231802468Y-75578666D01*
X231929170Y-75759615D01*
X231929175Y-75759621D01*
X232085378Y-75915824D01*
X232085384Y-75915829D01*
X232266333Y-76042531D01*
X232266335Y-76042532D01*
X232266338Y-76042534D01*
X232368310Y-76090084D01*
X232395189Y-76102618D01*
X232447628Y-76148790D01*
X232466780Y-76215984D01*
X232446564Y-76282865D01*
X232395189Y-76327382D01*
X232266340Y-76387465D01*
X232266338Y-76387466D01*
X232085377Y-76514175D01*
X231929175Y-76670377D01*
X231802466Y-76851338D01*
X231802465Y-76851340D01*
X231709107Y-77051548D01*
X231709104Y-77051554D01*
X231651930Y-77264929D01*
X231651930Y-77264933D01*
X231632677Y-77484997D01*
X231632677Y-77485002D01*
X231651929Y-77705062D01*
X231651930Y-77705070D01*
X231709104Y-77918445D01*
X231709105Y-77918447D01*
X231709106Y-77918450D01*
X231741748Y-77988451D01*
X231802466Y-78118662D01*
X231802468Y-78118666D01*
X231929170Y-78299615D01*
X231929175Y-78299621D01*
X232085378Y-78455824D01*
X232085384Y-78455829D01*
X232266333Y-78582531D01*
X232266335Y-78582532D01*
X232266338Y-78582534D01*
X232340101Y-78616930D01*
X232395781Y-78642894D01*
X232448220Y-78689066D01*
X232467372Y-78756260D01*
X232447156Y-78823141D01*
X232395781Y-78867658D01*
X232266590Y-78927901D01*
X232201811Y-78973258D01*
X232872554Y-79644000D01*
X232849840Y-79644000D01*
X232752939Y-79669964D01*
X232666060Y-79720124D01*
X232595124Y-79791060D01*
X232544964Y-79877939D01*
X232519000Y-79974840D01*
X232519000Y-79997553D01*
X231848258Y-79326811D01*
X231802901Y-79391590D01*
X231709579Y-79591720D01*
X231709575Y-79591729D01*
X231652426Y-79805013D01*
X231652424Y-79805023D01*
X231633179Y-80024999D01*
X231633179Y-80025000D01*
X231652424Y-80244976D01*
X231652426Y-80244986D01*
X231709575Y-80458270D01*
X231709580Y-80458284D01*
X231802898Y-80658405D01*
X231802901Y-80658411D01*
X231848258Y-80723187D01*
X231848258Y-80723188D01*
X232519000Y-80052446D01*
X232519000Y-80075160D01*
X232544964Y-80172061D01*
X232595124Y-80258940D01*
X232666060Y-80329876D01*
X232752939Y-80380036D01*
X232849840Y-80406000D01*
X232872553Y-80406000D01*
X232201810Y-81076740D01*
X232266590Y-81122099D01*
X232266592Y-81122100D01*
X232466715Y-81215419D01*
X232466729Y-81215424D01*
X232680013Y-81272573D01*
X232680023Y-81272575D01*
X232899999Y-81291821D01*
X232900001Y-81291821D01*
X233119976Y-81272575D01*
X233119986Y-81272573D01*
X233333270Y-81215424D01*
X233333284Y-81215419D01*
X233533407Y-81122100D01*
X233533417Y-81122094D01*
X233598188Y-81076741D01*
X232927448Y-80406000D01*
X232950160Y-80406000D01*
X233047061Y-80380036D01*
X233133940Y-80329876D01*
X233204876Y-80258940D01*
X233255036Y-80172061D01*
X233281000Y-80075160D01*
X233281000Y-80052446D01*
X233951741Y-80723188D01*
X233997094Y-80658417D01*
X233997100Y-80658407D01*
X234090419Y-80458284D01*
X234090424Y-80458270D01*
X234112588Y-80375552D01*
X234148952Y-80315892D01*
X234211799Y-80285362D01*
X234281175Y-80293656D01*
X234320044Y-80319964D01*
X235709987Y-81709907D01*
X235743472Y-81771230D01*
X235746306Y-81797588D01*
X235746306Y-92886286D01*
X235726621Y-92953325D01*
X235673817Y-92999080D01*
X235604659Y-93009024D01*
X235557029Y-92991713D01*
X235515024Y-92965705D01*
X235515017Y-92965701D01*
X235411245Y-92925500D01*
X235316198Y-92888679D01*
X235106610Y-92849500D01*
X234893390Y-92849500D01*
X234683802Y-92888679D01*
X234683799Y-92888679D01*
X234683799Y-92888680D01*
X234484981Y-92965701D01*
X234484971Y-92965706D01*
X234460392Y-92980926D01*
X234395114Y-92999500D01*
X229604886Y-92999500D01*
X229539608Y-92980926D01*
X229515028Y-92965706D01*
X229515018Y-92965701D01*
X229369642Y-92909383D01*
X229316198Y-92888679D01*
X229106610Y-92849500D01*
X228893390Y-92849500D01*
X228683802Y-92888679D01*
X228683799Y-92888679D01*
X228683799Y-92888680D01*
X228484982Y-92965701D01*
X228484980Y-92965702D01*
X228303699Y-93077947D01*
X228146127Y-93221593D01*
X228017632Y-93391746D01*
X227922596Y-93582605D01*
X227922596Y-93582607D01*
X227864244Y-93787689D01*
X227844571Y-93999999D01*
X227844571Y-94000000D01*
X227864244Y-94212310D01*
X227922596Y-94417392D01*
X227922596Y-94417394D01*
X228017632Y-94608253D01*
X228017634Y-94608255D01*
X228146128Y-94778407D01*
X228303698Y-94922052D01*
X228484981Y-95034298D01*
X228683802Y-95111321D01*
X228893390Y-95150500D01*
X228893392Y-95150500D01*
X229106608Y-95150500D01*
X229106610Y-95150500D01*
X229316198Y-95111321D01*
X229515019Y-95034298D01*
X229515023Y-95034295D01*
X229515028Y-95034293D01*
X229539608Y-95019074D01*
X229604886Y-95000500D01*
X234395114Y-95000500D01*
X234460392Y-95019074D01*
X234484971Y-95034293D01*
X234484979Y-95034297D01*
X234484981Y-95034298D01*
X234683802Y-95111321D01*
X234893390Y-95150500D01*
X234893392Y-95150500D01*
X235106608Y-95150500D01*
X235106610Y-95150500D01*
X235316198Y-95111321D01*
X235515019Y-95034298D01*
X235557028Y-95008286D01*
X235624388Y-94989730D01*
X235691087Y-95010538D01*
X235735949Y-95064103D01*
X235746306Y-95113713D01*
X235746306Y-95657885D01*
X235726621Y-95724924D01*
X235673817Y-95770679D01*
X235604659Y-95780623D01*
X235590213Y-95777660D01*
X235473503Y-95746388D01*
X235473499Y-95746387D01*
X235473498Y-95746387D01*
X235473497Y-95746386D01*
X235473492Y-95746386D01*
X235246808Y-95726554D01*
X235246804Y-95726554D01*
X235020119Y-95746386D01*
X235020108Y-95746388D01*
X234800317Y-95805280D01*
X234800308Y-95805283D01*
X234594073Y-95901453D01*
X234594071Y-95901454D01*
X234407666Y-96031975D01*
X234246760Y-96192880D01*
X234116238Y-96379287D01*
X234116234Y-96379294D01*
X234088911Y-96437888D01*
X234042738Y-96490327D01*
X233975544Y-96509478D01*
X233908664Y-96489261D01*
X233864148Y-96437886D01*
X233836942Y-96379543D01*
X233836938Y-96379535D01*
X233785831Y-96306548D01*
X233106806Y-96985573D01*
X233106806Y-96979361D01*
X233079547Y-96877628D01*
X233026886Y-96786416D01*
X232952412Y-96711942D01*
X232861200Y-96659281D01*
X232759467Y-96632022D01*
X232753251Y-96632022D01*
X233432278Y-95952996D01*
X233359284Y-95901885D01*
X233153137Y-95805757D01*
X233153123Y-95805752D01*
X232933416Y-95746882D01*
X232933405Y-95746880D01*
X232706808Y-95727056D01*
X232706804Y-95727056D01*
X232480206Y-95746880D01*
X232480195Y-95746882D01*
X232260488Y-95805752D01*
X232260479Y-95805756D01*
X232054322Y-95901888D01*
X232054318Y-95901890D01*
X231981332Y-95952995D01*
X231981332Y-95952996D01*
X232660359Y-96632022D01*
X232654145Y-96632022D01*
X232552412Y-96659281D01*
X232461200Y-96711942D01*
X232386726Y-96786416D01*
X232334065Y-96877628D01*
X232306806Y-96979361D01*
X232306806Y-96985574D01*
X231627780Y-96306548D01*
X231627779Y-96306548D01*
X231576674Y-96379534D01*
X231576674Y-96379535D01*
X231549463Y-96437889D01*
X231503290Y-96490328D01*
X231436096Y-96509479D01*
X231369215Y-96489263D01*
X231324699Y-96437887D01*
X231297488Y-96379534D01*
X231297374Y-96379288D01*
X231166853Y-96192883D01*
X231166851Y-96192880D01*
X231005946Y-96031975D01*
X230819540Y-95901454D01*
X230819538Y-95901453D01*
X230613303Y-95805283D01*
X230613294Y-95805280D01*
X230393503Y-95746388D01*
X230393499Y-95746387D01*
X230393498Y-95746387D01*
X230393497Y-95746386D01*
X230393492Y-95746386D01*
X230166808Y-95726554D01*
X230166804Y-95726554D01*
X229940119Y-95746386D01*
X229940108Y-95746388D01*
X229720317Y-95805280D01*
X229720308Y-95805283D01*
X229514073Y-95901453D01*
X229514071Y-95901454D01*
X229327666Y-96031975D01*
X229166760Y-96192880D01*
X229036238Y-96379287D01*
X229036237Y-96379289D01*
X229009188Y-96437297D01*
X228963015Y-96489736D01*
X228895822Y-96508888D01*
X228828941Y-96488672D01*
X228784424Y-96437297D01*
X228757374Y-96379288D01*
X228626853Y-96192883D01*
X228626851Y-96192880D01*
X228465946Y-96031975D01*
X228279540Y-95901454D01*
X228279538Y-95901453D01*
X228073303Y-95805283D01*
X228073294Y-95805280D01*
X227853503Y-95746388D01*
X227853499Y-95746387D01*
X227853498Y-95746387D01*
X227853497Y-95746386D01*
X227853492Y-95746386D01*
X227626808Y-95726554D01*
X227626804Y-95726554D01*
X227400119Y-95746386D01*
X227400108Y-95746388D01*
X227180317Y-95805280D01*
X227180308Y-95805283D01*
X226974073Y-95901453D01*
X226974071Y-95901454D01*
X226787666Y-96031975D01*
X226626760Y-96192880D01*
X226496238Y-96379287D01*
X226496237Y-96379289D01*
X226469188Y-96437297D01*
X226423015Y-96489736D01*
X226355822Y-96508888D01*
X226288941Y-96488672D01*
X226244424Y-96437297D01*
X226217374Y-96379288D01*
X226086853Y-96192883D01*
X226086851Y-96192880D01*
X225925946Y-96031975D01*
X225739540Y-95901454D01*
X225739538Y-95901453D01*
X225533303Y-95805283D01*
X225533294Y-95805280D01*
X225313503Y-95746388D01*
X225313499Y-95746387D01*
X225313498Y-95746387D01*
X225313497Y-95746386D01*
X225313492Y-95746386D01*
X225086808Y-95726554D01*
X225086804Y-95726554D01*
X224860119Y-95746386D01*
X224860108Y-95746388D01*
X224640317Y-95805280D01*
X224640308Y-95805283D01*
X224434073Y-95901453D01*
X224434071Y-95901454D01*
X224247666Y-96031975D01*
X224086760Y-96192880D01*
X223956238Y-96379287D01*
X223956237Y-96379289D01*
X223929188Y-96437297D01*
X223883015Y-96489736D01*
X223815822Y-96508888D01*
X223748941Y-96488672D01*
X223704424Y-96437297D01*
X223677374Y-96379288D01*
X223546853Y-96192883D01*
X223546851Y-96192880D01*
X223385946Y-96031975D01*
X223199540Y-95901454D01*
X223199538Y-95901453D01*
X222993303Y-95805283D01*
X222993294Y-95805280D01*
X222773503Y-95746388D01*
X222773499Y-95746387D01*
X222773498Y-95746387D01*
X222773497Y-95746386D01*
X222773492Y-95746386D01*
X222546808Y-95726554D01*
X222546804Y-95726554D01*
X222320119Y-95746386D01*
X222320108Y-95746388D01*
X222100317Y-95805280D01*
X222100308Y-95805283D01*
X221894073Y-95901453D01*
X221894071Y-95901454D01*
X221707666Y-96031975D01*
X221546760Y-96192880D01*
X221416238Y-96379287D01*
X221416237Y-96379289D01*
X221389188Y-96437297D01*
X221343015Y-96489736D01*
X221275822Y-96508888D01*
X221208941Y-96488672D01*
X221164424Y-96437297D01*
X221137374Y-96379288D01*
X221006853Y-96192883D01*
X221006851Y-96192880D01*
X220845946Y-96031975D01*
X220659540Y-95901454D01*
X220659538Y-95901453D01*
X220453303Y-95805283D01*
X220453294Y-95805280D01*
X220233503Y-95746388D01*
X220233499Y-95746387D01*
X220233498Y-95746387D01*
X220233497Y-95746386D01*
X220233492Y-95746386D01*
X220006808Y-95726554D01*
X220006804Y-95726554D01*
X219780119Y-95746386D01*
X219780108Y-95746388D01*
X219560317Y-95805280D01*
X219560308Y-95805283D01*
X219354073Y-95901453D01*
X219354071Y-95901454D01*
X219167666Y-96031975D01*
X219006760Y-96192880D01*
X218876238Y-96379287D01*
X218876237Y-96379289D01*
X218849188Y-96437297D01*
X218803015Y-96489736D01*
X218735822Y-96508888D01*
X218668941Y-96488672D01*
X218624424Y-96437297D01*
X218597374Y-96379288D01*
X218466853Y-96192883D01*
X218466851Y-96192880D01*
X218305946Y-96031975D01*
X218119540Y-95901454D01*
X218119538Y-95901453D01*
X217913303Y-95805283D01*
X217913294Y-95805280D01*
X217693503Y-95746388D01*
X217693499Y-95746387D01*
X217693498Y-95746387D01*
X217693497Y-95746386D01*
X217693492Y-95746386D01*
X217466808Y-95726554D01*
X217466804Y-95726554D01*
X217240119Y-95746386D01*
X217240108Y-95746388D01*
X217020317Y-95805280D01*
X217020308Y-95805283D01*
X216814073Y-95901453D01*
X216814071Y-95901454D01*
X216627666Y-96031975D01*
X216466760Y-96192880D01*
X216336238Y-96379287D01*
X216336237Y-96379289D01*
X216309188Y-96437297D01*
X216263015Y-96489736D01*
X216195822Y-96508888D01*
X216128941Y-96488672D01*
X216084424Y-96437297D01*
X216057374Y-96379288D01*
X215926853Y-96192883D01*
X215926851Y-96192880D01*
X215765946Y-96031975D01*
X215579540Y-95901454D01*
X215579538Y-95901453D01*
X215373303Y-95805283D01*
X215373294Y-95805280D01*
X215153503Y-95746388D01*
X215153499Y-95746387D01*
X215153498Y-95746387D01*
X215153497Y-95746386D01*
X215153492Y-95746386D01*
X214926808Y-95726554D01*
X214926804Y-95726554D01*
X214700119Y-95746386D01*
X214700108Y-95746388D01*
X214480317Y-95805280D01*
X214480308Y-95805283D01*
X214274073Y-95901453D01*
X214274071Y-95901454D01*
X214087666Y-96031975D01*
X213926760Y-96192880D01*
X213796238Y-96379287D01*
X213796237Y-96379289D01*
X213769188Y-96437297D01*
X213723015Y-96489736D01*
X213655822Y-96508888D01*
X213588941Y-96488672D01*
X213544424Y-96437297D01*
X213517374Y-96379288D01*
X213386853Y-96192883D01*
X213386851Y-96192880D01*
X213225946Y-96031975D01*
X213039540Y-95901454D01*
X213039538Y-95901453D01*
X212833303Y-95805283D01*
X212833294Y-95805280D01*
X212613503Y-95746388D01*
X212613499Y-95746387D01*
X212613498Y-95746387D01*
X212613497Y-95746386D01*
X212613492Y-95746386D01*
X212386808Y-95726554D01*
X212386804Y-95726554D01*
X212160119Y-95746386D01*
X212160108Y-95746388D01*
X211940317Y-95805280D01*
X211940308Y-95805283D01*
X211734073Y-95901453D01*
X211734071Y-95901454D01*
X211547666Y-96031975D01*
X211386760Y-96192880D01*
X211256238Y-96379287D01*
X211256237Y-96379289D01*
X211229188Y-96437297D01*
X211183015Y-96489736D01*
X211115822Y-96508888D01*
X211048941Y-96488672D01*
X211004424Y-96437297D01*
X210977374Y-96379288D01*
X210846853Y-96192883D01*
X210846851Y-96192880D01*
X210685946Y-96031975D01*
X210499540Y-95901454D01*
X210499538Y-95901453D01*
X210293303Y-95805283D01*
X210293294Y-95805280D01*
X210073503Y-95746388D01*
X210073499Y-95746387D01*
X210073498Y-95746387D01*
X210073497Y-95746386D01*
X210073492Y-95746386D01*
X209846808Y-95726554D01*
X209846804Y-95726554D01*
X209620119Y-95746386D01*
X209620108Y-95746388D01*
X209400317Y-95805280D01*
X209400308Y-95805283D01*
X209194073Y-95901453D01*
X209194071Y-95901454D01*
X209007666Y-96031975D01*
X208846760Y-96192880D01*
X208716238Y-96379287D01*
X208716237Y-96379289D01*
X208689188Y-96437297D01*
X208643015Y-96489736D01*
X208575822Y-96508888D01*
X208508941Y-96488672D01*
X208464424Y-96437297D01*
X208437374Y-96379288D01*
X208306853Y-96192883D01*
X208306851Y-96192880D01*
X208145946Y-96031975D01*
X207959540Y-95901454D01*
X207959538Y-95901453D01*
X207753303Y-95805283D01*
X207753294Y-95805280D01*
X207533503Y-95746388D01*
X207533499Y-95746387D01*
X207533498Y-95746387D01*
X207533497Y-95746386D01*
X207533492Y-95746386D01*
X207306808Y-95726554D01*
X207306804Y-95726554D01*
X207080119Y-95746386D01*
X207080108Y-95746388D01*
X206860317Y-95805280D01*
X206860308Y-95805283D01*
X206654073Y-95901453D01*
X206654071Y-95901454D01*
X206467666Y-96031975D01*
X206306760Y-96192880D01*
X206176238Y-96379287D01*
X206176237Y-96379289D01*
X206149188Y-96437297D01*
X206103015Y-96489736D01*
X206035822Y-96508888D01*
X205968941Y-96488672D01*
X205924424Y-96437297D01*
X205897374Y-96379288D01*
X205766853Y-96192883D01*
X205766851Y-96192880D01*
X205605946Y-96031975D01*
X205419540Y-95901454D01*
X205419538Y-95901453D01*
X205213303Y-95805283D01*
X205213294Y-95805280D01*
X204993503Y-95746388D01*
X204993499Y-95746387D01*
X204993498Y-95746387D01*
X204993497Y-95746386D01*
X204993492Y-95746386D01*
X204766808Y-95726554D01*
X204766804Y-95726554D01*
X204540119Y-95746386D01*
X204540108Y-95746388D01*
X204320317Y-95805280D01*
X204320308Y-95805283D01*
X204114073Y-95901453D01*
X204114071Y-95901454D01*
X203927666Y-96031975D01*
X203766760Y-96192880D01*
X203636238Y-96379287D01*
X203636237Y-96379289D01*
X203609188Y-96437297D01*
X203563015Y-96489736D01*
X203495822Y-96508888D01*
X203428941Y-96488672D01*
X203384424Y-96437297D01*
X203357374Y-96379288D01*
X203226853Y-96192883D01*
X203226851Y-96192880D01*
X203065946Y-96031975D01*
X202879540Y-95901454D01*
X202879538Y-95901453D01*
X202673303Y-95805283D01*
X202673294Y-95805280D01*
X202453503Y-95746388D01*
X202453499Y-95746387D01*
X202453498Y-95746387D01*
X202453497Y-95746386D01*
X202453492Y-95746386D01*
X202226808Y-95726554D01*
X202226804Y-95726554D01*
X202000119Y-95746386D01*
X202000108Y-95746388D01*
X201780317Y-95805280D01*
X201780308Y-95805283D01*
X201574073Y-95901453D01*
X201574071Y-95901454D01*
X201387666Y-96031975D01*
X201226760Y-96192880D01*
X201096238Y-96379287D01*
X201096237Y-96379289D01*
X201069188Y-96437297D01*
X201023015Y-96489736D01*
X200955822Y-96508888D01*
X200888941Y-96488672D01*
X200844424Y-96437297D01*
X200817374Y-96379288D01*
X200686853Y-96192883D01*
X200686851Y-96192880D01*
X200525946Y-96031975D01*
X200340160Y-95901888D01*
X200339540Y-95901454D01*
X200339539Y-95901453D01*
X200339537Y-95901452D01*
X200334845Y-95898743D01*
X200336129Y-95896518D01*
X200291761Y-95857503D01*
X200272565Y-95790322D01*
X200292738Y-95723428D01*
X200308876Y-95703549D01*
X201475608Y-94536819D01*
X201536931Y-94503334D01*
X201563289Y-94500500D01*
X205098542Y-94500500D01*
X205117870Y-94496655D01*
X205195188Y-94481275D01*
X205291836Y-94462051D01*
X205345165Y-94439961D01*
X205473914Y-94386632D01*
X205637782Y-94277139D01*
X205777139Y-94137782D01*
X205777139Y-94137780D01*
X205787347Y-94127573D01*
X205787348Y-94127570D01*
X208639936Y-91274983D01*
X216649500Y-91274983D01*
X216649500Y-92725001D01*
X216649501Y-92725018D01*
X216660000Y-92827796D01*
X216660001Y-92827799D01*
X216705749Y-92965856D01*
X216715186Y-92994334D01*
X216807288Y-93143656D01*
X216931344Y-93267712D01*
X217080666Y-93359814D01*
X217247203Y-93414999D01*
X217349991Y-93425500D01*
X218650008Y-93425499D01*
X218752797Y-93414999D01*
X218919334Y-93359814D01*
X219068656Y-93267712D01*
X219192712Y-93143656D01*
X219284814Y-92994334D01*
X219284814Y-92994331D01*
X219288448Y-92988441D01*
X219340395Y-92941716D01*
X219409358Y-92930493D01*
X219473440Y-92958336D01*
X219481668Y-92965856D01*
X219620535Y-93104723D01*
X219620540Y-93104727D01*
X219792442Y-93229620D01*
X219981782Y-93326095D01*
X220183871Y-93391757D01*
X220250000Y-93402231D01*
X220250000Y-92346409D01*
X220335956Y-92396037D01*
X220444048Y-92425000D01*
X220555952Y-92425000D01*
X220664044Y-92396037D01*
X220750000Y-92346409D01*
X220750000Y-93402230D01*
X220816126Y-93391757D01*
X220816129Y-93391757D01*
X221018217Y-93326095D01*
X221207557Y-93229620D01*
X221379459Y-93104727D01*
X221379464Y-93104723D01*
X221529723Y-92954464D01*
X221529727Y-92954459D01*
X221654620Y-92782557D01*
X221751095Y-92593217D01*
X221816757Y-92391127D01*
X221839110Y-92250000D01*
X220846410Y-92250000D01*
X220896037Y-92164044D01*
X220925000Y-92055952D01*
X220925000Y-91944048D01*
X220896037Y-91835956D01*
X220846410Y-91750000D01*
X221839110Y-91750000D01*
X221816757Y-91608872D01*
X221751095Y-91406782D01*
X221654620Y-91217442D01*
X221529727Y-91045540D01*
X221529723Y-91045535D01*
X221379464Y-90895276D01*
X221379459Y-90895272D01*
X221207557Y-90770379D01*
X221018215Y-90673903D01*
X220816124Y-90608241D01*
X220750000Y-90597768D01*
X220750000Y-91653590D01*
X220664044Y-91603963D01*
X220555952Y-91575000D01*
X220444048Y-91575000D01*
X220335956Y-91603963D01*
X220250000Y-91653590D01*
X220250000Y-90597768D01*
X220249999Y-90597768D01*
X220183875Y-90608241D01*
X219981784Y-90673903D01*
X219792442Y-90770379D01*
X219620541Y-90895271D01*
X219481668Y-91034144D01*
X219420345Y-91067628D01*
X219350653Y-91062644D01*
X219294720Y-91020772D01*
X219288448Y-91011558D01*
X219192712Y-90856344D01*
X219068657Y-90732289D01*
X219068656Y-90732288D01*
X218919334Y-90640186D01*
X218752797Y-90585001D01*
X218752795Y-90585000D01*
X218650010Y-90574500D01*
X217349998Y-90574500D01*
X217349981Y-90574501D01*
X217247203Y-90585000D01*
X217247200Y-90585001D01*
X217080668Y-90640185D01*
X217080663Y-90640187D01*
X216931342Y-90732289D01*
X216807289Y-90856342D01*
X216715187Y-91005663D01*
X216715185Y-91005668D01*
X216701975Y-91045535D01*
X216660001Y-91172203D01*
X216660001Y-91172204D01*
X216660000Y-91172204D01*
X216649500Y-91274983D01*
X208639936Y-91274983D01*
X217777140Y-82137781D01*
X217859964Y-82013825D01*
X217886632Y-81973914D01*
X217962051Y-81791835D01*
X218000500Y-81598541D01*
X218000500Y-77965781D01*
X218020185Y-77898742D01*
X218036814Y-77878105D01*
X219796335Y-76118583D01*
X219857656Y-76085100D01*
X219927348Y-76090084D01*
X219955137Y-76104690D01*
X219966338Y-76112534D01*
X220037740Y-76145829D01*
X220095189Y-76172618D01*
X220147628Y-76218790D01*
X220166780Y-76285984D01*
X220146564Y-76352865D01*
X220095189Y-76397382D01*
X219966340Y-76457465D01*
X219966338Y-76457466D01*
X219785377Y-76584175D01*
X219629175Y-76740377D01*
X219502466Y-76921338D01*
X219502465Y-76921340D01*
X219409107Y-77121548D01*
X219409106Y-77121550D01*
X219351930Y-77334929D01*
X219351929Y-77334937D01*
X219332677Y-77554997D01*
X219332677Y-77555002D01*
X219351929Y-77775062D01*
X219351930Y-77775070D01*
X219409104Y-77988445D01*
X219409105Y-77988447D01*
X219409106Y-77988450D01*
X219479598Y-78139621D01*
X219502466Y-78188662D01*
X219502468Y-78188666D01*
X219629170Y-78369615D01*
X219629175Y-78369621D01*
X219785378Y-78525824D01*
X219785384Y-78525829D01*
X219966333Y-78652531D01*
X219966335Y-78652532D01*
X219966338Y-78652534D01*
X220083960Y-78707382D01*
X220095189Y-78712618D01*
X220147628Y-78758790D01*
X220166780Y-78825984D01*
X220146564Y-78892865D01*
X220095189Y-78937382D01*
X219966340Y-78997465D01*
X219966338Y-78997466D01*
X219785377Y-79124175D01*
X219629175Y-79280377D01*
X219502466Y-79461338D01*
X219502465Y-79461340D01*
X219409107Y-79661548D01*
X219409104Y-79661554D01*
X219351930Y-79874929D01*
X219351929Y-79874937D01*
X219332677Y-80094997D01*
X219332677Y-80095002D01*
X219351929Y-80315062D01*
X219351930Y-80315070D01*
X219409104Y-80528445D01*
X219409105Y-80528447D01*
X219409106Y-80528450D01*
X219479598Y-80679621D01*
X219502466Y-80728662D01*
X219502468Y-80728666D01*
X219629170Y-80909615D01*
X219629175Y-80909621D01*
X219785378Y-81065824D01*
X219785384Y-81065829D01*
X219966333Y-81192531D01*
X219966335Y-81192532D01*
X219966338Y-81192534D01*
X220166550Y-81285894D01*
X220379932Y-81343070D01*
X220537123Y-81356822D01*
X220599998Y-81362323D01*
X220600000Y-81362323D01*
X220600002Y-81362323D01*
X220655017Y-81357509D01*
X220820068Y-81343070D01*
X221033450Y-81285894D01*
X221233662Y-81192534D01*
X221414620Y-81065826D01*
X221570826Y-80909620D01*
X221697534Y-80728662D01*
X221790894Y-80528450D01*
X221848070Y-80315068D01*
X221867323Y-80095000D01*
X221848070Y-79874932D01*
X221790894Y-79661550D01*
X221697534Y-79461339D01*
X221603337Y-79326811D01*
X221570827Y-79280381D01*
X221505112Y-79214666D01*
X221414620Y-79124174D01*
X221414616Y-79124171D01*
X221414615Y-79124170D01*
X221233666Y-78997468D01*
X221233658Y-78997464D01*
X221104811Y-78937382D01*
X221052371Y-78891210D01*
X221033219Y-78824017D01*
X221053435Y-78757135D01*
X221104811Y-78712618D01*
X221116040Y-78707382D01*
X221233662Y-78652534D01*
X221414620Y-78525826D01*
X221570826Y-78369620D01*
X221697534Y-78188662D01*
X221790894Y-77988450D01*
X221848070Y-77775068D01*
X221867323Y-77555000D01*
X221848070Y-77334932D01*
X221790894Y-77121550D01*
X221697534Y-76921339D01*
X221634180Y-76830859D01*
X221570827Y-76740381D01*
X221500823Y-76670377D01*
X221414620Y-76584174D01*
X221414616Y-76584171D01*
X221414615Y-76584170D01*
X221233666Y-76457468D01*
X221233658Y-76457464D01*
X221104811Y-76397382D01*
X221052371Y-76351210D01*
X221033219Y-76284017D01*
X221053435Y-76217135D01*
X221104811Y-76172618D01*
X221162260Y-76145829D01*
X221233662Y-76112534D01*
X221414620Y-75985826D01*
X221570826Y-75829620D01*
X221697534Y-75648662D01*
X221790894Y-75448450D01*
X221848070Y-75235068D01*
X221867323Y-75015000D01*
X221848070Y-74794932D01*
X221790894Y-74581550D01*
X221697534Y-74381339D01*
X221597069Y-74237859D01*
X221570827Y-74200381D01*
X221498812Y-74128366D01*
X221414620Y-74044174D01*
X221414616Y-74044171D01*
X221414615Y-74044170D01*
X221233666Y-73917468D01*
X221233662Y-73917466D01*
X221104218Y-73857105D01*
X221051779Y-73810932D01*
X221032627Y-73743739D01*
X221052843Y-73676858D01*
X221104219Y-73632340D01*
X221233416Y-73572095D01*
X221233417Y-73572094D01*
X221298188Y-73526741D01*
X220627448Y-72856000D01*
X220650160Y-72856000D01*
X220747061Y-72830036D01*
X220833940Y-72779876D01*
X220904876Y-72708940D01*
X220955036Y-72622061D01*
X220981000Y-72525160D01*
X220981000Y-72502447D01*
X221651741Y-73173188D01*
X221697094Y-73108417D01*
X221697100Y-73108407D01*
X221790419Y-72908284D01*
X221790424Y-72908270D01*
X221847573Y-72694986D01*
X221847575Y-72694976D01*
X221866821Y-72475000D01*
X221866821Y-72474999D01*
X221847575Y-72255023D01*
X221847573Y-72255013D01*
X221790424Y-72041729D01*
X221790420Y-72041720D01*
X221697096Y-71841586D01*
X221651741Y-71776811D01*
X221651740Y-71776810D01*
X220981000Y-72447551D01*
X220981000Y-72424840D01*
X220955036Y-72327939D01*
X220904876Y-72241060D01*
X220833940Y-72170124D01*
X220747061Y-72119964D01*
X220650160Y-72094000D01*
X220627447Y-72094000D01*
X221298188Y-71423258D01*
X221233411Y-71377901D01*
X221233405Y-71377898D01*
X221033284Y-71284580D01*
X221033270Y-71284575D01*
X220819986Y-71227426D01*
X220819976Y-71227424D01*
X220600001Y-71208179D01*
X220599999Y-71208179D01*
X220380023Y-71227424D01*
X220380013Y-71227426D01*
X220166729Y-71284575D01*
X220166720Y-71284579D01*
X219966590Y-71377901D01*
X219901811Y-71423258D01*
X220572554Y-72094000D01*
X220549840Y-72094000D01*
X220452939Y-72119964D01*
X220366060Y-72170124D01*
X220295124Y-72241060D01*
X220244964Y-72327939D01*
X220219000Y-72424840D01*
X220219000Y-72447553D01*
X219548258Y-71776811D01*
X219502901Y-71841590D01*
X219409579Y-72041720D01*
X219409575Y-72041729D01*
X219352426Y-72255013D01*
X219352424Y-72255023D01*
X219333179Y-72474999D01*
X219333179Y-72475000D01*
X219352424Y-72694976D01*
X219352426Y-72694986D01*
X219409575Y-72908270D01*
X219409580Y-72908284D01*
X219502898Y-73108405D01*
X219502901Y-73108411D01*
X219548258Y-73173187D01*
X219548258Y-73173188D01*
X220219000Y-72502446D01*
X220219000Y-72525160D01*
X220244964Y-72622061D01*
X220295124Y-72708940D01*
X220366060Y-72779876D01*
X220452939Y-72830036D01*
X220549840Y-72856000D01*
X220572553Y-72856000D01*
X219901810Y-73526740D01*
X219966589Y-73572098D01*
X220095781Y-73632342D01*
X220148220Y-73678514D01*
X220167372Y-73745708D01*
X220147156Y-73812589D01*
X220095781Y-73857106D01*
X219966340Y-73917465D01*
X219966338Y-73917466D01*
X219896691Y-73966233D01*
X219859784Y-73992075D01*
X219793580Y-74014402D01*
X219788663Y-74014500D01*
X219386454Y-74014500D01*
X219354391Y-74020876D01*
X219354392Y-74020877D01*
X219193170Y-74052946D01*
X219193164Y-74052948D01*
X219011088Y-74128366D01*
X219011079Y-74128371D01*
X218847219Y-74237859D01*
X218847215Y-74237862D01*
X216982461Y-76102618D01*
X216362220Y-76722859D01*
X216362218Y-76722861D01*
X216292538Y-76792540D01*
X216222859Y-76862219D01*
X216113371Y-77026080D01*
X216113364Y-77026093D01*
X216073826Y-77121549D01*
X216073826Y-77121550D01*
X216037949Y-77208162D01*
X216037949Y-77208164D01*
X216026657Y-77264932D01*
X216023351Y-77281554D01*
X215999500Y-77401456D01*
X215999500Y-81034217D01*
X215979815Y-81101256D01*
X215963181Y-81121898D01*
X205562180Y-91522899D01*
X205500857Y-91556384D01*
X205431165Y-91551400D01*
X205375232Y-91509528D01*
X205350815Y-91444064D01*
X205350499Y-91435218D01*
X205350499Y-90774998D01*
X205350498Y-90774981D01*
X205339999Y-90672203D01*
X205339998Y-90672200D01*
X205329390Y-90640187D01*
X205284814Y-90505666D01*
X205192712Y-90356344D01*
X205068656Y-90232288D01*
X204919334Y-90140186D01*
X204752797Y-90085001D01*
X204752795Y-90085000D01*
X204650010Y-90074500D01*
X203349998Y-90074500D01*
X203349981Y-90074501D01*
X203247203Y-90085000D01*
X203247200Y-90085001D01*
X203080668Y-90140185D01*
X203080663Y-90140187D01*
X202931342Y-90232289D01*
X202807289Y-90356342D01*
X202711821Y-90511121D01*
X202659873Y-90557845D01*
X202590910Y-90569068D01*
X202526828Y-90541224D01*
X202518601Y-90533705D01*
X202379786Y-90394890D01*
X202207820Y-90269951D01*
X202018414Y-90173444D01*
X202018413Y-90173443D01*
X202018412Y-90173443D01*
X201816243Y-90107754D01*
X201816241Y-90107753D01*
X201816240Y-90107753D01*
X201654957Y-90082208D01*
X201606287Y-90074500D01*
X201393713Y-90074500D01*
X201345042Y-90082208D01*
X201183760Y-90107753D01*
X200981585Y-90173444D01*
X200792179Y-90269951D01*
X200620213Y-90394890D01*
X200469894Y-90545209D01*
X200469890Y-90545214D01*
X200350318Y-90709793D01*
X200294989Y-90752459D01*
X200225375Y-90758438D01*
X200163580Y-90725833D01*
X200149682Y-90709793D01*
X200030109Y-90545214D01*
X200030105Y-90545209D01*
X199879786Y-90394890D01*
X199707820Y-90269951D01*
X199518414Y-90173444D01*
X199518413Y-90173443D01*
X199518412Y-90173443D01*
X199316243Y-90107754D01*
X199316241Y-90107753D01*
X199316240Y-90107753D01*
X199154957Y-90082208D01*
X199106287Y-90074500D01*
X198893713Y-90074500D01*
X198845042Y-90082208D01*
X198683760Y-90107753D01*
X198481585Y-90173444D01*
X198292179Y-90269951D01*
X198120213Y-90394890D01*
X197969894Y-90545209D01*
X197969890Y-90545214D01*
X197850318Y-90709793D01*
X197794989Y-90752459D01*
X197725375Y-90758438D01*
X197663580Y-90725833D01*
X197649682Y-90709793D01*
X197530109Y-90545214D01*
X197530105Y-90545209D01*
X197379786Y-90394890D01*
X197207820Y-90269951D01*
X197018414Y-90173444D01*
X197018413Y-90173443D01*
X197018412Y-90173443D01*
X196816243Y-90107754D01*
X196816241Y-90107753D01*
X196816240Y-90107753D01*
X196654957Y-90082208D01*
X196606287Y-90074500D01*
X196393713Y-90074500D01*
X196345042Y-90082208D01*
X196183760Y-90107753D01*
X195981585Y-90173444D01*
X195792179Y-90269951D01*
X195620213Y-90394890D01*
X195469890Y-90545213D01*
X195344951Y-90717179D01*
X195248444Y-90906585D01*
X195182753Y-91108760D01*
X195149500Y-91318713D01*
X189500500Y-91318713D01*
X189500500Y-70094997D01*
X194132677Y-70094997D01*
X194132677Y-70095002D01*
X194151929Y-70315062D01*
X194151930Y-70315070D01*
X194209104Y-70528445D01*
X194209105Y-70528447D01*
X194209106Y-70528450D01*
X194277827Y-70675824D01*
X194302466Y-70728662D01*
X194302468Y-70728666D01*
X194429170Y-70909615D01*
X194429175Y-70909621D01*
X194585378Y-71065824D01*
X194585384Y-71065829D01*
X194766333Y-71192531D01*
X194766335Y-71192532D01*
X194766338Y-71192534D01*
X194885748Y-71248215D01*
X194895189Y-71252618D01*
X194947628Y-71298790D01*
X194966780Y-71365984D01*
X194946564Y-71432865D01*
X194895189Y-71477382D01*
X194766340Y-71537465D01*
X194766338Y-71537466D01*
X194585377Y-71664175D01*
X194429175Y-71820377D01*
X194302466Y-72001338D01*
X194302465Y-72001340D01*
X194209107Y-72201548D01*
X194209104Y-72201554D01*
X194151930Y-72414929D01*
X194151929Y-72414937D01*
X194132677Y-72634997D01*
X194132677Y-72635002D01*
X194151929Y-72855062D01*
X194151930Y-72855070D01*
X194209104Y-73068445D01*
X194209105Y-73068447D01*
X194209106Y-73068450D01*
X194279598Y-73219621D01*
X194302466Y-73268662D01*
X194302468Y-73268666D01*
X194429170Y-73449615D01*
X194429175Y-73449621D01*
X194585378Y-73605824D01*
X194585384Y-73605829D01*
X194766333Y-73732531D01*
X194766335Y-73732532D01*
X194766338Y-73732534D01*
X194840101Y-73766930D01*
X194895189Y-73792618D01*
X194947628Y-73838790D01*
X194966780Y-73905984D01*
X194946564Y-73972865D01*
X194895189Y-74017382D01*
X194766340Y-74077465D01*
X194766338Y-74077466D01*
X194585377Y-74204175D01*
X194429175Y-74360377D01*
X194302466Y-74541338D01*
X194302465Y-74541340D01*
X194209107Y-74741548D01*
X194209104Y-74741554D01*
X194151930Y-74954929D01*
X194151929Y-74954937D01*
X194132677Y-75174997D01*
X194132677Y-75175002D01*
X194151929Y-75395062D01*
X194151930Y-75395070D01*
X194209104Y-75608445D01*
X194209105Y-75608447D01*
X194209106Y-75608450D01*
X194279598Y-75759621D01*
X194302466Y-75808662D01*
X194302468Y-75808666D01*
X194429170Y-75989615D01*
X194429175Y-75989621D01*
X194585378Y-76145824D01*
X194585384Y-76145829D01*
X194766333Y-76272531D01*
X194766335Y-76272532D01*
X194766338Y-76272534D01*
X194840101Y-76306930D01*
X194895189Y-76332618D01*
X194947628Y-76378790D01*
X194966780Y-76445984D01*
X194946564Y-76512865D01*
X194895189Y-76557382D01*
X194766340Y-76617465D01*
X194766338Y-76617466D01*
X194585377Y-76744175D01*
X194429175Y-76900377D01*
X194302466Y-77081338D01*
X194302465Y-77081340D01*
X194209107Y-77281548D01*
X194209104Y-77281554D01*
X194151930Y-77494929D01*
X194151929Y-77494937D01*
X194132677Y-77714997D01*
X194132677Y-77715002D01*
X194151929Y-77935062D01*
X194151930Y-77935070D01*
X194209104Y-78148445D01*
X194209105Y-78148447D01*
X194209106Y-78148450D01*
X194279598Y-78299621D01*
X194302466Y-78348662D01*
X194302468Y-78348666D01*
X194429170Y-78529615D01*
X194429175Y-78529621D01*
X194585378Y-78685824D01*
X194585384Y-78685829D01*
X194766333Y-78812531D01*
X194766335Y-78812532D01*
X194766338Y-78812534D01*
X194840101Y-78846930D01*
X194895189Y-78872618D01*
X194947628Y-78918790D01*
X194966780Y-78985984D01*
X194946564Y-79052865D01*
X194895189Y-79097382D01*
X194766340Y-79157465D01*
X194766338Y-79157466D01*
X194585377Y-79284175D01*
X194429175Y-79440377D01*
X194302466Y-79621338D01*
X194302465Y-79621340D01*
X194209107Y-79821548D01*
X194209104Y-79821554D01*
X194151930Y-80034929D01*
X194151929Y-80034937D01*
X194132677Y-80254997D01*
X194132677Y-80255002D01*
X194151929Y-80475062D01*
X194151930Y-80475070D01*
X194209104Y-80688445D01*
X194209105Y-80688447D01*
X194209106Y-80688450D01*
X194227859Y-80728666D01*
X194302466Y-80888662D01*
X194302468Y-80888666D01*
X194429170Y-81069615D01*
X194429175Y-81069621D01*
X194585378Y-81225824D01*
X194585384Y-81225829D01*
X194766333Y-81352531D01*
X194766335Y-81352532D01*
X194766338Y-81352534D01*
X194885748Y-81408215D01*
X194895189Y-81412618D01*
X194947628Y-81458790D01*
X194966780Y-81525984D01*
X194946564Y-81592865D01*
X194895189Y-81637382D01*
X194766340Y-81697465D01*
X194766338Y-81697466D01*
X194585377Y-81824175D01*
X194429175Y-81980377D01*
X194302466Y-82161338D01*
X194302465Y-82161340D01*
X194209107Y-82361548D01*
X194209104Y-82361554D01*
X194151930Y-82574929D01*
X194151929Y-82574937D01*
X194132677Y-82794997D01*
X194132677Y-82795002D01*
X194151929Y-83015062D01*
X194151930Y-83015070D01*
X194209104Y-83228445D01*
X194209105Y-83228447D01*
X194209106Y-83228450D01*
X194277827Y-83375824D01*
X194302466Y-83428662D01*
X194302468Y-83428666D01*
X194429170Y-83609615D01*
X194429175Y-83609621D01*
X194585378Y-83765824D01*
X194585384Y-83765829D01*
X194766333Y-83892531D01*
X194766335Y-83892532D01*
X194766338Y-83892534D01*
X194966550Y-83985894D01*
X195179932Y-84043070D01*
X195337123Y-84056822D01*
X195399998Y-84062323D01*
X195400000Y-84062323D01*
X195400002Y-84062323D01*
X195455017Y-84057509D01*
X195620068Y-84043070D01*
X195833450Y-83985894D01*
X196033662Y-83892534D01*
X196214620Y-83765826D01*
X196370826Y-83609620D01*
X196497534Y-83428662D01*
X196590894Y-83228450D01*
X196648070Y-83015068D01*
X196667323Y-82795000D01*
X196648070Y-82574932D01*
X196590894Y-82361550D01*
X196497534Y-82161339D01*
X196394244Y-82013825D01*
X196370827Y-81980381D01*
X196361994Y-81971548D01*
X196214620Y-81824174D01*
X196214616Y-81824171D01*
X196214615Y-81824170D01*
X196033666Y-81697468D01*
X196033658Y-81697464D01*
X195904811Y-81637382D01*
X195852371Y-81591210D01*
X195833219Y-81524017D01*
X195853435Y-81457135D01*
X195904811Y-81412618D01*
X195910802Y-81409824D01*
X196033662Y-81352534D01*
X196214620Y-81225826D01*
X196370826Y-81069620D01*
X196497534Y-80888662D01*
X196590894Y-80688450D01*
X196648070Y-80475068D01*
X196667323Y-80255000D01*
X196648070Y-80034932D01*
X196590894Y-79821550D01*
X196497534Y-79621339D01*
X196370826Y-79440380D01*
X196214620Y-79284174D01*
X196214616Y-79284171D01*
X196214615Y-79284170D01*
X196033666Y-79157468D01*
X196033658Y-79157464D01*
X195904811Y-79097382D01*
X195852371Y-79051210D01*
X195833219Y-78984017D01*
X195853435Y-78917135D01*
X195904811Y-78872618D01*
X195915448Y-78867658D01*
X196033662Y-78812534D01*
X196214620Y-78685826D01*
X196370826Y-78529620D01*
X196497534Y-78348662D01*
X196590894Y-78148450D01*
X196648070Y-77935068D01*
X196667323Y-77715000D01*
X196648070Y-77494932D01*
X196590894Y-77281550D01*
X196497534Y-77081339D01*
X196370826Y-76900380D01*
X196214620Y-76744174D01*
X196214616Y-76744171D01*
X196214615Y-76744170D01*
X196033666Y-76617468D01*
X196033658Y-76617464D01*
X195904811Y-76557382D01*
X195852371Y-76511210D01*
X195833219Y-76444017D01*
X195853435Y-76377135D01*
X195904811Y-76332618D01*
X195916040Y-76327382D01*
X196033662Y-76272534D01*
X196214620Y-76145826D01*
X196370826Y-75989620D01*
X196497534Y-75808662D01*
X196590894Y-75608450D01*
X196648070Y-75395068D01*
X196667323Y-75175000D01*
X196648070Y-74954932D01*
X196590894Y-74741550D01*
X196497534Y-74541339D01*
X196370826Y-74360380D01*
X196214620Y-74204174D01*
X196214616Y-74204171D01*
X196214615Y-74204170D01*
X196033666Y-74077468D01*
X196033658Y-74077464D01*
X195904811Y-74017382D01*
X195852371Y-73971210D01*
X195833219Y-73904017D01*
X195853435Y-73837135D01*
X195904811Y-73792618D01*
X195916040Y-73787382D01*
X196033662Y-73732534D01*
X196214620Y-73605826D01*
X196370826Y-73449620D01*
X196497534Y-73268662D01*
X196590894Y-73068450D01*
X196648070Y-72855068D01*
X196667323Y-72635000D01*
X196648070Y-72414932D01*
X196590894Y-72201550D01*
X196497534Y-72001339D01*
X196434180Y-71910859D01*
X196370827Y-71820381D01*
X196321784Y-71771338D01*
X196214620Y-71664174D01*
X196214616Y-71664171D01*
X196214615Y-71664170D01*
X196033666Y-71537468D01*
X196033658Y-71537464D01*
X195904811Y-71477382D01*
X195852371Y-71431210D01*
X195833219Y-71364017D01*
X195853435Y-71297135D01*
X195904811Y-71252618D01*
X195910802Y-71249824D01*
X196033662Y-71192534D01*
X196214620Y-71065826D01*
X196370826Y-70909620D01*
X196497534Y-70728662D01*
X196590894Y-70528450D01*
X196648070Y-70315068D01*
X196667323Y-70095000D01*
X196648070Y-69874932D01*
X196602536Y-69704997D01*
X256832677Y-69704997D01*
X256832677Y-69705002D01*
X256851929Y-69925062D01*
X256851930Y-69925070D01*
X256909104Y-70138445D01*
X256909105Y-70138447D01*
X256909106Y-70138450D01*
X256991461Y-70315062D01*
X257002466Y-70338662D01*
X257002468Y-70338666D01*
X257129170Y-70519615D01*
X257129175Y-70519621D01*
X257285378Y-70675824D01*
X257285384Y-70675829D01*
X257466333Y-70802531D01*
X257466335Y-70802532D01*
X257466338Y-70802534D01*
X257585748Y-70858215D01*
X257595189Y-70862618D01*
X257647628Y-70908790D01*
X257666780Y-70975984D01*
X257646564Y-71042865D01*
X257595189Y-71087382D01*
X257466340Y-71147465D01*
X257466338Y-71147466D01*
X257285377Y-71274175D01*
X257129175Y-71430377D01*
X257002466Y-71611338D01*
X257002465Y-71611340D01*
X256909107Y-71811548D01*
X256909104Y-71811554D01*
X256851930Y-72024929D01*
X256851929Y-72024937D01*
X256832677Y-72244997D01*
X256832677Y-72245002D01*
X256851929Y-72465062D01*
X256851930Y-72465070D01*
X256909104Y-72678445D01*
X256909105Y-72678447D01*
X256909106Y-72678450D01*
X256983713Y-72838445D01*
X257002466Y-72878662D01*
X257002468Y-72878666D01*
X257129170Y-73059615D01*
X257129175Y-73059621D01*
X257285378Y-73215824D01*
X257285384Y-73215829D01*
X257466333Y-73342531D01*
X257466335Y-73342532D01*
X257466338Y-73342534D01*
X257537740Y-73375829D01*
X257595189Y-73402618D01*
X257647628Y-73448790D01*
X257666780Y-73515984D01*
X257646564Y-73582865D01*
X257595189Y-73627382D01*
X257466340Y-73687465D01*
X257466338Y-73687466D01*
X257285377Y-73814175D01*
X257129175Y-73970377D01*
X257002466Y-74151338D01*
X257002465Y-74151340D01*
X256909107Y-74351548D01*
X256909104Y-74351554D01*
X256851930Y-74564929D01*
X256851929Y-74564937D01*
X256832677Y-74784997D01*
X256832677Y-74785002D01*
X256851929Y-75005062D01*
X256851930Y-75005070D01*
X256909104Y-75218445D01*
X256909105Y-75218447D01*
X256909106Y-75218450D01*
X256916856Y-75235070D01*
X257002466Y-75418662D01*
X257002468Y-75418666D01*
X257129170Y-75599615D01*
X257129175Y-75599621D01*
X257285378Y-75755824D01*
X257285384Y-75755829D01*
X257466333Y-75882531D01*
X257466335Y-75882532D01*
X257466338Y-75882534D01*
X257537740Y-75915829D01*
X257595189Y-75942618D01*
X257647628Y-75988790D01*
X257666780Y-76055984D01*
X257646564Y-76122865D01*
X257595189Y-76167382D01*
X257466340Y-76227465D01*
X257466338Y-76227466D01*
X257285377Y-76354175D01*
X257129175Y-76510377D01*
X257002466Y-76691338D01*
X257002465Y-76691340D01*
X256909107Y-76891548D01*
X256909104Y-76891554D01*
X256851930Y-77104929D01*
X256851929Y-77104937D01*
X256832677Y-77324997D01*
X256832677Y-77325002D01*
X256851929Y-77545062D01*
X256851930Y-77545070D01*
X256909104Y-77758445D01*
X256909105Y-77758447D01*
X256909106Y-77758450D01*
X256974525Y-77898742D01*
X257002466Y-77958662D01*
X257002468Y-77958666D01*
X257129170Y-78139615D01*
X257129175Y-78139621D01*
X257285378Y-78295824D01*
X257285384Y-78295829D01*
X257466333Y-78422531D01*
X257466335Y-78422532D01*
X257466338Y-78422534D01*
X257537740Y-78455829D01*
X257595189Y-78482618D01*
X257647628Y-78528790D01*
X257666780Y-78595984D01*
X257646564Y-78662865D01*
X257595189Y-78707382D01*
X257466340Y-78767465D01*
X257466338Y-78767466D01*
X257285377Y-78894175D01*
X257129175Y-79050377D01*
X257002466Y-79231338D01*
X257002465Y-79231340D01*
X256909107Y-79431548D01*
X256909104Y-79431554D01*
X256851930Y-79644929D01*
X256851929Y-79644937D01*
X256832677Y-79864997D01*
X256832677Y-79865002D01*
X256851929Y-80085062D01*
X256851930Y-80085070D01*
X256909104Y-80298445D01*
X256909105Y-80298447D01*
X256909106Y-80298450D01*
X256947150Y-80380036D01*
X257002466Y-80498662D01*
X257002468Y-80498666D01*
X257129170Y-80679615D01*
X257129175Y-80679621D01*
X257285378Y-80835824D01*
X257285384Y-80835829D01*
X257466333Y-80962531D01*
X257466335Y-80962532D01*
X257466338Y-80962534D01*
X257585748Y-81018215D01*
X257595189Y-81022618D01*
X257647628Y-81068790D01*
X257666780Y-81135984D01*
X257646564Y-81202865D01*
X257595189Y-81247382D01*
X257466340Y-81307465D01*
X257466338Y-81307466D01*
X257285377Y-81434175D01*
X257129175Y-81590377D01*
X257002466Y-81771338D01*
X257002465Y-81771340D01*
X256909107Y-81971548D01*
X256909104Y-81971554D01*
X256851930Y-82184929D01*
X256851929Y-82184937D01*
X256832677Y-82404997D01*
X256832677Y-82405002D01*
X256851929Y-82625062D01*
X256851930Y-82625070D01*
X256909104Y-82838445D01*
X256909105Y-82838447D01*
X256909106Y-82838450D01*
X256991461Y-83015062D01*
X257002466Y-83038662D01*
X257002468Y-83038666D01*
X257129170Y-83219615D01*
X257129175Y-83219621D01*
X257285378Y-83375824D01*
X257285384Y-83375829D01*
X257466333Y-83502531D01*
X257466335Y-83502532D01*
X257466338Y-83502534D01*
X257666550Y-83595894D01*
X257879932Y-83653070D01*
X258037123Y-83666822D01*
X258099998Y-83672323D01*
X258100000Y-83672323D01*
X258100002Y-83672323D01*
X258155017Y-83667509D01*
X258320068Y-83653070D01*
X258533450Y-83595894D01*
X258733662Y-83502534D01*
X258914620Y-83375826D01*
X259070826Y-83219620D01*
X259197534Y-83038662D01*
X259290894Y-82838450D01*
X259348070Y-82625068D01*
X259367323Y-82405000D01*
X259348070Y-82184932D01*
X259290894Y-81971550D01*
X259197534Y-81771339D01*
X259076542Y-81598543D01*
X259070827Y-81590381D01*
X259002769Y-81522323D01*
X258914620Y-81434174D01*
X258914616Y-81434171D01*
X258914615Y-81434170D01*
X258733666Y-81307468D01*
X258733658Y-81307464D01*
X258604811Y-81247382D01*
X258552371Y-81201210D01*
X258533219Y-81134017D01*
X258553435Y-81067135D01*
X258604811Y-81022618D01*
X258610802Y-81019824D01*
X258733662Y-80962534D01*
X258914620Y-80835826D01*
X259070826Y-80679620D01*
X259197534Y-80498662D01*
X259290894Y-80298450D01*
X259348070Y-80085068D01*
X259364850Y-79893265D01*
X259367323Y-79865002D01*
X259367323Y-79864997D01*
X259352282Y-79693077D01*
X259348070Y-79644932D01*
X259290894Y-79431550D01*
X259197534Y-79231339D01*
X259134180Y-79140859D01*
X259070827Y-79050381D01*
X258993704Y-78973258D01*
X258914620Y-78894174D01*
X258914616Y-78894171D01*
X258914615Y-78894170D01*
X258733666Y-78767468D01*
X258733658Y-78767464D01*
X258604811Y-78707382D01*
X258552371Y-78661210D01*
X258533219Y-78594017D01*
X258553435Y-78527135D01*
X258604811Y-78482618D01*
X258662260Y-78455829D01*
X258733662Y-78422534D01*
X258914620Y-78295826D01*
X259070826Y-78139620D01*
X259197534Y-77958662D01*
X259290894Y-77758450D01*
X259348070Y-77545068D01*
X259367323Y-77325000D01*
X259348070Y-77104932D01*
X259290894Y-76891550D01*
X259197534Y-76691339D01*
X259134180Y-76600859D01*
X259070827Y-76510381D01*
X259002769Y-76442323D01*
X258914620Y-76354174D01*
X258914616Y-76354171D01*
X258914615Y-76354170D01*
X258733666Y-76227468D01*
X258733658Y-76227464D01*
X258604811Y-76167382D01*
X258552371Y-76121210D01*
X258533219Y-76054017D01*
X258553435Y-75987135D01*
X258604811Y-75942618D01*
X258662260Y-75915829D01*
X258733662Y-75882534D01*
X258914620Y-75755826D01*
X259070826Y-75599620D01*
X259197534Y-75418662D01*
X259290894Y-75218450D01*
X259348070Y-75005068D01*
X259367323Y-74785000D01*
X259348070Y-74564932D01*
X259290894Y-74351550D01*
X259197534Y-74151339D01*
X259106184Y-74020877D01*
X259070827Y-73970381D01*
X259002769Y-73902323D01*
X258914620Y-73814174D01*
X258914616Y-73814171D01*
X258914615Y-73814170D01*
X258733666Y-73687468D01*
X258733658Y-73687464D01*
X258604811Y-73627382D01*
X258552371Y-73581210D01*
X258533219Y-73514017D01*
X258553435Y-73447135D01*
X258604811Y-73402618D01*
X258662260Y-73375829D01*
X258733662Y-73342534D01*
X258914620Y-73215826D01*
X259070826Y-73059620D01*
X259197534Y-72878662D01*
X259290894Y-72678450D01*
X259348070Y-72465068D01*
X259367323Y-72245000D01*
X259366978Y-72241060D01*
X259356384Y-72119964D01*
X259348070Y-72024932D01*
X259290894Y-71811550D01*
X259197534Y-71611339D01*
X259080437Y-71444106D01*
X259070827Y-71430381D01*
X259002769Y-71362323D01*
X258914620Y-71274174D01*
X258914616Y-71274171D01*
X258914615Y-71274170D01*
X258733666Y-71147468D01*
X258733658Y-71147464D01*
X258604811Y-71087382D01*
X258552371Y-71041210D01*
X258533219Y-70974017D01*
X258553435Y-70907135D01*
X258604811Y-70862618D01*
X258610802Y-70859824D01*
X258733662Y-70802534D01*
X258914620Y-70675826D01*
X259070826Y-70519620D01*
X259197534Y-70338662D01*
X259290894Y-70138450D01*
X259348070Y-69925068D01*
X259367323Y-69705000D01*
X259348070Y-69484932D01*
X259290894Y-69271550D01*
X259197534Y-69071339D01*
X259070826Y-68890380D01*
X258914620Y-68734174D01*
X258914616Y-68734171D01*
X258914615Y-68734170D01*
X258733666Y-68607468D01*
X258733662Y-68607466D01*
X258733660Y-68607465D01*
X258533450Y-68514106D01*
X258533447Y-68514105D01*
X258533445Y-68514104D01*
X258320070Y-68456930D01*
X258320062Y-68456929D01*
X258100002Y-68437677D01*
X258099998Y-68437677D01*
X257879937Y-68456929D01*
X257879929Y-68456930D01*
X257666554Y-68514104D01*
X257666548Y-68514107D01*
X257466340Y-68607465D01*
X257466338Y-68607466D01*
X257285377Y-68734175D01*
X257129175Y-68890377D01*
X257002466Y-69071338D01*
X257002465Y-69071340D01*
X256909107Y-69271548D01*
X256909104Y-69271554D01*
X256851930Y-69484929D01*
X256851929Y-69484937D01*
X256832677Y-69704997D01*
X196602536Y-69704997D01*
X196590894Y-69661550D01*
X196497534Y-69461339D01*
X196370826Y-69280380D01*
X196214620Y-69124174D01*
X196214616Y-69124171D01*
X196214615Y-69124170D01*
X196033666Y-68997468D01*
X196033662Y-68997466D01*
X196033660Y-68997465D01*
X195833450Y-68904106D01*
X195833447Y-68904105D01*
X195833445Y-68904104D01*
X195620070Y-68846930D01*
X195620062Y-68846929D01*
X195400002Y-68827677D01*
X195399998Y-68827677D01*
X195179937Y-68846929D01*
X195179929Y-68846930D01*
X194966554Y-68904104D01*
X194966548Y-68904107D01*
X194766340Y-68997465D01*
X194766338Y-68997466D01*
X194585377Y-69124175D01*
X194429175Y-69280377D01*
X194302466Y-69461338D01*
X194302465Y-69461340D01*
X194209107Y-69661548D01*
X194209104Y-69661554D01*
X194151930Y-69874929D01*
X194151929Y-69874937D01*
X194132677Y-70094997D01*
X189500500Y-70094997D01*
X189500500Y-60000000D01*
X189994675Y-60000000D01*
X190013962Y-60392591D01*
X190013962Y-60392597D01*
X190013963Y-60392599D01*
X190071637Y-60781406D01*
X190167143Y-61162684D01*
X190299561Y-61532770D01*
X190299562Y-61532772D01*
X190467620Y-61888100D01*
X190669692Y-62225236D01*
X190903846Y-62540956D01*
X191167807Y-62832192D01*
X191459043Y-63096153D01*
X191459049Y-63096158D01*
X191774761Y-63330306D01*
X191774763Y-63330307D01*
X192111899Y-63532379D01*
X192111902Y-63532380D01*
X192111903Y-63532381D01*
X192467228Y-63700438D01*
X192837316Y-63832857D01*
X193218600Y-63928364D01*
X193607409Y-63986038D01*
X194000000Y-64005325D01*
X194392591Y-63986038D01*
X194781400Y-63928364D01*
X195162684Y-63832857D01*
X195532772Y-63700438D01*
X195888097Y-63532381D01*
X196225239Y-63330306D01*
X196540951Y-63096158D01*
X196832192Y-62832192D01*
X197096158Y-62540951D01*
X197330306Y-62225239D01*
X197532381Y-61888097D01*
X197700438Y-61532772D01*
X197832857Y-61162684D01*
X197928364Y-60781400D01*
X197986038Y-60392591D01*
X198005325Y-60000000D01*
X198005325Y-59999998D01*
X199194532Y-59999998D01*
X199194532Y-60000001D01*
X199214364Y-60226686D01*
X199214366Y-60226697D01*
X199273258Y-60446488D01*
X199273261Y-60446497D01*
X199369431Y-60652732D01*
X199369432Y-60652734D01*
X199499954Y-60839141D01*
X199660858Y-61000045D01*
X199660861Y-61000047D01*
X199847266Y-61130568D01*
X200053504Y-61226739D01*
X200273308Y-61285635D01*
X200435230Y-61299801D01*
X200499998Y-61305468D01*
X200500000Y-61305468D01*
X200500002Y-61305468D01*
X200556673Y-61300509D01*
X200726692Y-61285635D01*
X200946496Y-61226739D01*
X201152734Y-61130568D01*
X201339139Y-61000047D01*
X201500047Y-60839139D01*
X201630568Y-60652734D01*
X201726739Y-60446496D01*
X201785635Y-60226692D01*
X201805468Y-60000000D01*
X201805468Y-59999997D01*
X204195034Y-59999997D01*
X204195034Y-60000002D01*
X204214858Y-60226599D01*
X204214860Y-60226610D01*
X204273730Y-60446317D01*
X204273735Y-60446331D01*
X204369863Y-60652478D01*
X204420974Y-60725472D01*
X205100000Y-60046446D01*
X205100000Y-60052661D01*
X205127259Y-60154394D01*
X205179920Y-60245606D01*
X205254394Y-60320080D01*
X205345606Y-60372741D01*
X205447339Y-60400000D01*
X205453553Y-60400000D01*
X204774526Y-61079025D01*
X204847513Y-61130132D01*
X204847521Y-61130136D01*
X205053668Y-61226264D01*
X205053682Y-61226269D01*
X205273389Y-61285139D01*
X205273400Y-61285141D01*
X205499998Y-61304966D01*
X205500002Y-61304966D01*
X205726599Y-61285141D01*
X205726610Y-61285139D01*
X205946317Y-61226269D01*
X205946331Y-61226264D01*
X206152478Y-61130136D01*
X206225471Y-61079024D01*
X205546447Y-60400000D01*
X205552661Y-60400000D01*
X205654394Y-60372741D01*
X205745606Y-60320080D01*
X205820080Y-60245606D01*
X205872741Y-60154394D01*
X205900000Y-60052661D01*
X205900000Y-60046447D01*
X206579024Y-60725471D01*
X206630136Y-60652478D01*
X206726264Y-60446331D01*
X206726269Y-60446317D01*
X206785139Y-60226610D01*
X206785141Y-60226599D01*
X206804966Y-60000002D01*
X206804966Y-60000000D01*
X254994675Y-60000000D01*
X255013962Y-60392591D01*
X255013962Y-60392597D01*
X255013963Y-60392599D01*
X255071637Y-60781406D01*
X255167143Y-61162684D01*
X255299561Y-61532770D01*
X255299562Y-61532772D01*
X255467620Y-61888100D01*
X255669692Y-62225236D01*
X255903846Y-62540956D01*
X256167807Y-62832192D01*
X256459043Y-63096153D01*
X256459049Y-63096158D01*
X256774761Y-63330306D01*
X256774763Y-63330307D01*
X257111899Y-63532379D01*
X257111902Y-63532380D01*
X257111903Y-63532381D01*
X257467228Y-63700438D01*
X257837316Y-63832857D01*
X258218600Y-63928364D01*
X258607409Y-63986038D01*
X259000000Y-64005325D01*
X259392591Y-63986038D01*
X259781400Y-63928364D01*
X260162684Y-63832857D01*
X260532772Y-63700438D01*
X260888097Y-63532381D01*
X261225239Y-63330306D01*
X261540951Y-63096158D01*
X261832192Y-62832192D01*
X262096158Y-62540951D01*
X262330306Y-62225239D01*
X262532381Y-61888097D01*
X262700438Y-61532772D01*
X262832857Y-61162684D01*
X262928364Y-60781400D01*
X262986038Y-60392591D01*
X263005325Y-60000000D01*
X262986038Y-59607409D01*
X262928364Y-59218600D01*
X262832857Y-58837316D01*
X262700438Y-58467228D01*
X262532381Y-58111903D01*
X262330306Y-57774761D01*
X262096158Y-57459049D01*
X262096153Y-57459043D01*
X261832192Y-57167807D01*
X261540956Y-56903846D01*
X261225236Y-56669692D01*
X260888100Y-56467620D01*
X260532772Y-56299562D01*
X260532770Y-56299561D01*
X260162684Y-56167143D01*
X259781406Y-56071637D01*
X259781401Y-56071636D01*
X259781400Y-56071636D01*
X259637256Y-56050254D01*
X259392599Y-56013963D01*
X259392597Y-56013962D01*
X259392591Y-56013962D01*
X259000000Y-55994675D01*
X258607409Y-56013962D01*
X258607403Y-56013962D01*
X258607400Y-56013963D01*
X258218593Y-56071637D01*
X257837315Y-56167143D01*
X257467229Y-56299561D01*
X257467227Y-56299562D01*
X257111899Y-56467620D01*
X256774763Y-56669692D01*
X256459043Y-56903846D01*
X256167807Y-57167807D01*
X255903846Y-57459043D01*
X255669692Y-57774763D01*
X255467620Y-58111899D01*
X255299562Y-58467227D01*
X255299561Y-58467229D01*
X255167143Y-58837315D01*
X255071637Y-59218593D01*
X255021932Y-59553682D01*
X255013962Y-59607409D01*
X254994675Y-60000000D01*
X206804966Y-60000000D01*
X206804966Y-59999997D01*
X206785141Y-59773400D01*
X206785139Y-59773389D01*
X206726269Y-59553682D01*
X206726264Y-59553668D01*
X206630136Y-59347521D01*
X206630132Y-59347513D01*
X206579025Y-59274526D01*
X205900000Y-59953551D01*
X205900000Y-59947339D01*
X205872741Y-59845606D01*
X205820080Y-59754394D01*
X205745606Y-59679920D01*
X205654394Y-59627259D01*
X205552661Y-59600000D01*
X205546445Y-59600000D01*
X206225472Y-58920974D01*
X206152478Y-58869863D01*
X205946331Y-58773735D01*
X205946317Y-58773730D01*
X205726610Y-58714860D01*
X205726599Y-58714858D01*
X205500002Y-58695034D01*
X205499998Y-58695034D01*
X205273400Y-58714858D01*
X205273389Y-58714860D01*
X205053682Y-58773730D01*
X205053673Y-58773734D01*
X204847516Y-58869866D01*
X204847512Y-58869868D01*
X204774526Y-58920973D01*
X204774526Y-58920974D01*
X205453553Y-59600000D01*
X205447339Y-59600000D01*
X205345606Y-59627259D01*
X205254394Y-59679920D01*
X205179920Y-59754394D01*
X205127259Y-59845606D01*
X205100000Y-59947339D01*
X205100000Y-59953552D01*
X204420974Y-59274526D01*
X204420973Y-59274526D01*
X204369868Y-59347512D01*
X204369866Y-59347516D01*
X204273734Y-59553673D01*
X204273730Y-59553682D01*
X204214860Y-59773389D01*
X204214858Y-59773400D01*
X204195034Y-59999997D01*
X201805468Y-59999997D01*
X201785635Y-59773308D01*
X201726739Y-59553504D01*
X201630568Y-59347266D01*
X201500047Y-59160861D01*
X201500045Y-59160858D01*
X201339141Y-58999954D01*
X201152734Y-58869432D01*
X201152732Y-58869431D01*
X200946497Y-58773261D01*
X200946488Y-58773258D01*
X200726697Y-58714366D01*
X200726693Y-58714365D01*
X200726692Y-58714365D01*
X200726691Y-58714364D01*
X200726686Y-58714364D01*
X200500002Y-58694532D01*
X200499998Y-58694532D01*
X200273313Y-58714364D01*
X200273302Y-58714366D01*
X200053511Y-58773258D01*
X200053502Y-58773261D01*
X199847267Y-58869431D01*
X199847265Y-58869432D01*
X199660858Y-58999954D01*
X199499954Y-59160858D01*
X199369432Y-59347265D01*
X199369431Y-59347267D01*
X199273261Y-59553502D01*
X199273258Y-59553511D01*
X199214366Y-59773302D01*
X199214364Y-59773313D01*
X199194532Y-59999998D01*
X198005325Y-59999998D01*
X197986038Y-59607409D01*
X197928364Y-59218600D01*
X197832857Y-58837316D01*
X197700438Y-58467228D01*
X197532381Y-58111903D01*
X197330306Y-57774761D01*
X197096158Y-57459049D01*
X197096153Y-57459043D01*
X196832192Y-57167807D01*
X196540956Y-56903846D01*
X196225236Y-56669692D01*
X195888100Y-56467620D01*
X195532772Y-56299562D01*
X195532770Y-56299561D01*
X195162684Y-56167143D01*
X194781406Y-56071637D01*
X194781401Y-56071636D01*
X194781400Y-56071636D01*
X194637256Y-56050254D01*
X194392599Y-56013963D01*
X194392597Y-56013962D01*
X194392591Y-56013962D01*
X194000000Y-55994675D01*
X193607409Y-56013962D01*
X193607403Y-56013962D01*
X193607400Y-56013963D01*
X193218593Y-56071637D01*
X192837315Y-56167143D01*
X192467229Y-56299561D01*
X192467227Y-56299562D01*
X192111899Y-56467620D01*
X191774763Y-56669692D01*
X191459043Y-56903846D01*
X191167807Y-57167807D01*
X190903846Y-57459043D01*
X190669692Y-57774763D01*
X190467620Y-58111899D01*
X190299562Y-58467227D01*
X190299561Y-58467229D01*
X190167143Y-58837315D01*
X190071637Y-59218593D01*
X190021932Y-59553682D01*
X190013962Y-59607409D01*
X189994675Y-60000000D01*
X189500500Y-60000000D01*
X189500500Y-55624500D01*
X189520185Y-55557461D01*
X189572989Y-55511706D01*
X189624500Y-55500500D01*
X263375500Y-55500500D01*
X263442539Y-55520185D01*
G37*
%TD.AperFunction*%
%TD*%
%TA.AperFunction,Conductor*%
%TO.N,/CLK_RIGHT*%
G36*
X220791489Y-120953965D02*
G01*
X221484862Y-121647338D01*
X221488289Y-121655611D01*
X221486245Y-121662218D01*
X220580441Y-122986087D01*
X220572941Y-122990980D01*
X220564178Y-122989136D01*
X220562522Y-122987763D01*
X220006099Y-122432729D01*
X220006079Y-122432709D01*
X219451064Y-121876305D01*
X219447647Y-121868027D01*
X219451084Y-121859759D01*
X219452731Y-121858392D01*
X220776609Y-120952581D01*
X220785372Y-120950738D01*
X220791489Y-120953965D01*
G37*
%TD.AperFunction*%
%TD*%
M02*
